<?xml version="1.0" standalone="no"?>
<!DOCTYPE svg PUBLIC "-//W3C//DTD SVG 1.1//EN" "http://www.w3.org/Graphics/SVG/1.1/DTD/svg11.dtd" >
<svg xmlns="http://www.w3.org/2000/svg">
    <defs>
        <font id="Gilroy-BlackItalic">
            <font-face font-family="Gilroy-BlackItalic"
                       units-per-em="1000"
                       ascent="971"
                       descent="-277"
                       bbox="-414 -277 1183 985"
                    />
            <missing-glyph horiz-adv-x="0" />
            
            <glyph glyph-name="!" unicode="&#x21;" horiz-adv-x="328" d=" M79,255 L89,500 L124,700 L328,700 L293,500 L217,255 M100,-14 Q57,-14 32,17 Q7,48 15,92 Q23,135 57.5,164.5 Q92,194 137,194 Q180,194 205.5,162.5 Q231,131 223,88 Q215,44 181,15 Q147,-14 100,-14"/> 
            <glyph glyph-name="&quot;" unicode="&#x22;" horiz-adv-x="476" d=" M98,441 L124,700 L278,700 L212,441 M297,441 L322,700 L476,700 L411,441"/> 
            <glyph glyph-name="#" unicode="&#x23;" horiz-adv-x="656" d=" M616,385 L515,385 L491,315 L592,315 L552,195 L450,195 L400,50 L272,50 L322,195 L240,195 L190,50 L62,50 L112,195 L10,195 L50,315 L153,315 L177,385 L75,385 L115,505 L218,505 L268,650 L396,650 L346,505 L428,505 L478,650 L606,650 L556,505 L656,505 M363,315 L387,385 L305,385 L281,315"/> 
            <glyph glyph-name="$" unicode="&#x24;" horiz-adv-x="579" d=" M363,421 Q382,413 391.5,409 Q401,405 419.5,396.5 Q438,388 447.5,382 Q457,376 472.5,366 Q488,356 496,346.5 Q504,337 514.5,324 Q525,311 530,296.5 Q535,282 539,265 Q543,248 542.5,228 Q542,208 538,185 Q521,92 452.5,41 Q384,-10 280,-15 L265,-100 L195,-100 L211,-12 Q128,-2 74,42 Q20,86 1,154 L159,236 Q184,170 240,156 L262,277 L248,283 Q207,300 177,319 Q147,338 121,366 Q95,394 85.5,432.5 Q76,471 84,519 Q100,611 172,662.5 Q244,714 339,715 L354,800 L424,800 L408,708 Q531,680 579,560 L425,478 Q407,519 377,536 L357,423 Q358,422 360,422 Q362,422 363,421 M260,503 Q254,473 293,452 L309,546 Q267,538 260,503 M360,202 Q365,230 327,250 L310,156 Q353,166 360,202"/> 
            <glyph glyph-name="%" unicode="&#x25;" horiz-adv-x="786" d=" M242,356 Q163,356 119,410.5 Q75,465 86,537 Q98,612 155.5,663.5 Q213,715 297,715 Q377,715 421,657.5 Q465,600 451,525 Q436,453 379.5,404.5 Q323,356 242,356 M115,111 L661,611 L724,570 L178,69 M259,483 Q282,483 299,498.5 Q316,514 320,536 Q324,558 312,573 Q300,588 278,588 Q256,588 239.5,573 Q223,558 219,536 Q214,513 225.5,498 Q237,483 259,483 M564,-14 Q484,-14 440,41.5 Q396,97 408,170 Q420,243 477.5,294 Q535,345 618,345 Q697,345 741.5,288 Q786,231 772,157 Q758,85 701.5,35.5 Q645,-14 564,-14 M580,113 Q603,113 620,128.5 Q637,144 641,165 Q645,188 633.5,203 Q622,218 599,218 Q577,218 560.5,203 Q544,188 540,165 Q535,143 546.5,128 Q558,113 580,113"/> 
            <glyph glyph-name="&amp;" unicode="&#x26;" horiz-adv-x="658" d=" M658,287 Q615,200 568,141 L644,37 L496,-38 L443,33 Q360,-15 255,-15 Q134,-15 73,49.5 Q12,114 28,209 Q50,334 180,399 Q153,461 163,523 Q177,611 246.5,663 Q316,715 415,715 Q589,715 648,556 L486,471 Q460,545 405,545 Q380,545 362,531 Q344,517 340,493 Q338,477 344,459 Q350,441 357.5,430 Q365,419 382,395 L474,270 Q504,321 523,373 M289,140 Q323,140 354,154 L260,281 Q258,283 258,284 Q216,258 209,215 Q203,183 224,161.5 Q245,140 289,140"/> 
            <glyph glyph-name="'" unicode="&#x27;" horiz-adv-x="278" d=" M98,441 L124,700 L278,700 L212,441"/> 
            <glyph glyph-name="(" unicode="&#x28;" horiz-adv-x="419" d=" M96,-100 Q62,3 53.5,123 Q45,243 65,365 Q105,594 252,800 L419,800 Q270,581 230,350 Q190,119 260,-100"/> 
            <glyph glyph-name=")" unicode="&#x29;" horiz-adv-x="317" d=" M266,800 Q300,697 308.5,577 Q317,457 297,335 Q257,106 110,-100 L-57,-100 Q92,119 132,350 Q172,581 102,800"/> 
            <glyph glyph-name="*" unicode="&#x2A;" horiz-adv-x="422" d=" M422,605 L405,509 L316,519 L360,449 L275,399 L247,481 L190,399 L115,449 L183,519 L91,509 L108,605 L197,595 L153,665 L238,715 L266,633 L323,715 L398,665 L329,595"/> 
            <glyph glyph-name="+" unicode="&#x2B;" horiz-adv-x="551" d=" M551,429 L523,271 L363,271 L335,111 L176,111 L204,271 L44,271 L73,429 L233,429 L261,589 L419,589 L391,429"/> 
            <glyph glyph-name="," unicode="&#x2C;" horiz-adv-x="248" d=" M248,174 L108,-140 L-26,-140 L64,174"/> 
            <glyph glyph-name="-" unicode="&#x2D;" horiz-adv-x="468" d=" M50,222 L78,380 L468,380 L440,222"/> 
            <glyph glyph-name="." unicode="&#x2E;" horiz-adv-x="228" d=" M98,-14 Q55,-14 30,17 Q5,48 13,92 Q21,135 55.5,164.5 Q90,194 135,194 Q178,194 203,162.5 Q228,131 220,88 Q212,44 178.5,15 Q145,-14 98,-14"/> 
            <glyph glyph-name="/" unicode="&#x2F;" horiz-adv-x="592" d=" M38,-100 L-37,-100 L517,800 L592,800"/> 
            <glyph glyph-name="0" unicode="&#x30;" horiz-adv-x="650" d=" M413,-15 Q139,-15 77,89.5 Q15,194 44,360 Q73,526 162.5,620.5 Q252,715 389,715 Q526,715 588,610.5 Q650,506 621,340 Q591,174 413,-15 M299,159 Q408,159 443,350 Q476,541 366,541 Q256,541 223,350 Q188,159 299,159"/> 
            <glyph glyph-name="1" unicode="&#x31;" horiz-adv-x="429" d=" M275,700 L429,700 L306,0 L127,0 L216,504 L89,473 L73,632"/> 
            <glyph glyph-name="2" unicode="&#x32;" horiz-adv-x="560" d=" M-22,0 L0,130 L278,375 Q355,442 362,484 Q367,509 354,525 Q341,541 315,541 Q256,541 209,465 L64,554 Q112,634 184,674.5 Q256,715 338,715 Q435,715 497.5,648.5 Q560,582 542,479 Q531,418 499.5,372 Q468,326 406,272 L290,173 L498,173 L468,0"/> 
            <glyph glyph-name="3" unicode="&#x33;" horiz-adv-x="569" d=" M569,700 L544,559 L403,410 Q463,385 495,332 Q527,279 515,208 Q495,97 416.5,41 Q338,-15 229,-15 Q141,-15 79.5,24.5 Q18,64 -6,143 L158,228 Q179,159 248,159 Q326,159 338,225 Q343,255 325.5,272.5 Q308,290 271,290 L234,290 L183,392 L313,529 L84,529 L114,700"/> 
            <glyph glyph-name="4" unicode="&#x34;" horiz-adv-x="574" d=" M574,270 L545,107 L475,107 L456,0 L278,0 L297,107 L-10,107 L19,270 L297,700 L501,700 L221,270 L326,270 L348,396 L526,396 L504,270"/> 
            <glyph glyph-name="5" unicode="&#x35;" horiz-adv-x="571" d=" M541,529 L296,529 L277,454 L320,454 Q421,454 481.5,389 Q542,324 522,210 Q503,100 423.5,42.5 Q344,-15 237,-15 Q47,-15 -6,143 L159,229 Q181,159 256,159 Q293,159 316.5,176.5 Q340,194 345,223 Q350,253 333.5,271 Q317,289 282,289 L57,289 L158,700 L571,700"/> 
            <glyph glyph-name="6" unicode="&#x36;" horiz-adv-x="556" d=" M365,474 Q457,457 506.5,386.5 Q556,316 540,222 Q520,113 441,49 Q362,-15 244,-15 Q122,-15 58,58.5 Q-6,132 14,242 Q29,328 84,388 L343,700 L552,700 M362,232 Q369,272 349,294 Q329,316 292,316 Q254,316 226.5,294 Q199,272 192,232 Q185,192 204.5,170.5 Q224,149 262,149 Q299,149 327,171 Q355,193 362,232"/> 
            <glyph glyph-name="7" unicode="&#x37;" horiz-adv-x="553" d=" M80,700 L553,700 L528,552 L219,0 L19,0 L315,527 L49,527"/> 
            <glyph glyph-name="8" unicode="&#x38;" horiz-adv-x="584" d=" M567,501 Q551,411 470,361 Q510,331 527,285.5 Q544,240 535,188 Q518,91 444.5,38.5 Q371,-14 248,-14 Q122,-14 59.5,47 Q-3,108 15,206 Q35,316 140,371 Q78,427 93,514 Q110,609 183,661.5 Q256,714 359,714 Q460,714 522,656 Q584,598 567,501 M259,492 Q254,464 269.5,448 Q285,432 317,432 Q347,432 369.5,448.5 Q392,465 396,492 Q401,519 385,535.5 Q369,552 338,552 Q306,552 285,535.5 Q264,519 259,492 M363,222 Q368,256 349,275.5 Q330,295 293,295 Q255,295 229,275.5 Q203,256 197,222 Q190,189 209.5,169.5 Q229,150 267,150 Q304,150 330,169.5 Q356,189 363,222"/> 
            <glyph glyph-name="9" unicode="&#x39;" horiz-adv-x="601" d=" M351,715 Q473,715 537,641.5 Q601,568 581,458 Q566,372 511,312 L252,0 L43,0 L230,226 Q138,243 88.5,313.5 Q39,384 55,478 Q75,587 154,651 Q233,715 351,715 M233,468 Q226,428 246,406 Q266,384 303,384 Q341,384 368.5,406 Q396,428 403,468 Q410,508 390.5,529.5 Q371,551 333,551 Q296,551 268,529 Q240,507 233,468"/> 
            <glyph glyph-name=":" unicode="&#x3A;" horiz-adv-x="285" d=" M155,307 Q112,307 87,338 Q62,369 70,413 Q78,456 112.5,485.5 Q147,515 192,515 Q235,515 260,483.5 Q285,452 277,409 Q269,365 235.5,336 Q202,307 155,307 M98,-14 Q55,-14 30,17 Q5,48 13,92 Q21,135 55.5,164.5 Q90,194 135,194 Q178,194 203,162.5 Q228,131 220,88 Q212,44 178.5,15 Q145,-14 98,-14"/> 
            <glyph glyph-name=";" unicode="&#x3B;" horiz-adv-x="297" d=" M167,307 Q124,307 99,338 Q74,369 82,413 Q90,456 124.5,485.5 Q159,515 204,515 Q247,515 272,483.5 Q297,452 289,409 Q281,365 247.5,336 Q214,307 167,307 M246,174 L106,-140 L-28,-140 L62,174"/> 
            <glyph glyph-name="&lt;" unicode="&#x3C;" horiz-adv-x="551" d=" M551,619 L518,438 L231,341 L485,244 L455,81 L40,276 L66,424"/> 
            <glyph glyph-name="=" unicode="&#x3D;" horiz-adv-x="526" d=" M58,380 L87,539 L526,539 L497,380 M20,161 L48,320 L487,320 L459,161"/> 
            <glyph glyph-name="&gt;" unicode="&#x3E;" horiz-adv-x="516" d=" M101,619 L516,424 L490,276 L5,81 L38,262 L326,359 L72,456"/> 
            <glyph glyph-name="?" unicode="&#x3F;" horiz-adv-x="569" d=" M179,255 Q185,294 205.5,326 Q226,358 252,378.5 Q278,399 303,416.5 Q328,434 347,453.5 Q366,473 370,494 Q374,516 361.5,529 Q349,542 325,542 Q259,542 217,459 L73,550 Q114,631 188.5,673 Q263,715 352,715 Q450,715 509.5,656 Q569,597 552,504 Q545,462 522,427.5 Q499,393 472,371 Q445,349 418,330 Q391,311 371,292.5 Q351,274 348,255 M216,-14 Q173,-14 148,17 Q123,48 131,92 Q139,135 173.5,164.5 Q208,194 253,194 Q296,194 321.5,162.5 Q347,131 339,88 Q331,44 297,15 Q263,-14 216,-14"/> 
            <glyph glyph-name="@" unicode="&#x40;" horiz-adv-x="751" d=" M449,612 Q512,612 566,591.5 Q620,571 655.5,536 Q691,501 715.5,455.5 Q740,410 745.5,360.5 Q751,311 744,261 Q725,155 672.5,100.5 Q620,46 540,46 Q493,46 460,67 Q427,88 416,124 Q374,85 315,85 Q250,85 215.5,136 Q181,187 194,259 Q207,329 252.5,372 Q298,415 358,415 Q414,415 447,372 L453,403 L589,403 L547,167 Q536,104 587,104 Q672,104 700,265 Q723,393 648.5,482 Q574,571 444,571 Q309,571 203,481 Q97,391 73,255 Q49,116 129.5,22.5 Q210,-71 353,-71 Q439,-71 509,-49 L501,-92 Q433,-112 347,-112 Q186,-112 93.5,-5 Q1,102 29,259 Q56,411 174,511.5 Q292,612 449,612 M348,198 Q390,198 405,212.5 Q420,227 425,250 Q430,273 419.5,287.5 Q409,302 387,302 Q365,302 350,287.5 Q335,273 330,250 Q326,227 348,198"/> 
            <glyph glyph-name="A" unicode="&#x41;" horiz-adv-x="631" d=" M440,0 L429,101 L196,101 L148,0 L-49,0 L305,700 L523,700 L631,0 M270,255 L412,255 L386,497"/> 
            <glyph glyph-name="B" unicode="&#x42;" horiz-adv-x="620" d=" M605,494 Q589,404 515,357 Q589,301 575,198 Q563,109 491.5,54.5 Q420,0 301,0 L11,0 L134,700 L400,700 Q504,700 562,642 Q620,584 605,494 M374,540 L285,540 L266,430 L354,430 Q381,430 400.5,444.5 Q420,459 424,485 Q428,510 414.5,525 Q401,540 374,540 M400,219 Q405,246 391.5,262 Q378,278 348,278 L239,278 L218,160 L326,160 Q355,160 375,176.5 Q395,193 400,219"/> 
            <glyph glyph-name="C" unicode="&#x43;" horiz-adv-x="746" d=" M359,-15 Q198,-15 109.5,93 Q21,201 47,360 Q72,515 188.5,615 Q305,715 460,715 Q563,715 635.5,670.5 Q708,626 746,548 L582,461 Q542,540 443,540 Q361,540 300.5,487.5 Q240,435 225,350 Q211,267 251,213.5 Q291,160 371,160 Q472,160 535,244 L682,149 Q626,71 541.5,28 Q457,-15 359,-15"/> 
            <glyph glyph-name="D" unicode="&#x44;" horiz-adv-x="723" d=" M419,700 Q557,700 640,594 Q723,488 697,340 Q670,190 560,95 Q450,0 296,0 L11,0 L134,700 M523,353 Q536,432 499,479.5 Q462,527 389,527 L288,527 L225,173 L321,173 Q397,173 452.5,222.5 Q508,272 523,353"/> 
            <glyph glyph-name="E" unicode="&#x45;" horiz-adv-x="579" d=" M549,533 L284,533 L266,435 L508,435 L478,271 L238,271 L220,168 L490,168 L461,0 L11,0 L134,700 L579,700"/> 
            <glyph glyph-name="F" unicode="&#x46;" horiz-adv-x="564" d=" M534,527 L283,527 L263,413 L508,413 L478,240 L232,240 L190,0 L11,0 L134,700 L564,700"/> 
            <glyph glyph-name="G" unicode="&#x47;" horiz-adv-x="777" d=" M777,401 L765,330 Q739,171 630,78 Q521,-15 362,-15 Q199,-15 110,93.5 Q21,202 47,360 Q73,515 189,615 Q305,715 461,715 Q564,715 639,671 Q714,627 754,550 L590,462 Q546,540 443,540 Q361,540 300.5,487.5 Q240,435 225,350 Q210,266 252,210.5 Q294,155 378,155 Q507,155 559,247 L397,247 L424,401"/> 
            <glyph glyph-name="H" unicode="&#x48;" horiz-adv-x="688" d=" M510,700 L688,700 L565,0 L387,0 L434,269 L237,269 L190,0 L11,0 L134,700 L313,700 L267,441 L464,441"/> 
            <glyph glyph-name="I" unicode="&#x49;" horiz-adv-x="313" d=" M134,700 L313,700 L190,0 L11,0"/> 
            <glyph glyph-name="J" unicode="&#x4A;" horiz-adv-x="603" d=" M234,-15 Q60,-15 4,130 L166,217 Q176,186 195,172.5 Q214,159 247,159 Q329,159 341,230 L424,700 L603,700 L519,227 Q498,105 424.5,45 Q351,-15 234,-15"/> 
            <glyph glyph-name="K" unicode="&#x4B;" horiz-adv-x="711" d=" M711,700 L413,352 L591,0 L406,0 L246,319 L190,0 L11,0 L134,700 L313,700 L263,416 L502,700"/> 
            <glyph glyph-name="L" unicode="&#x4C;" horiz-adv-x="461" d=" M220,173 L461,173 L431,0 L11,0 L134,700 L313,700"/> 
            <glyph glyph-name="M" unicode="&#x4D;" horiz-adv-x="848" d=" M848,700 L725,0 L547,0 L613,378 L394,96 L376,96 L257,383 L190,0 L11,0 L134,700 L313,700 L427,398 L658,700"/> 
            <glyph glyph-name="N" unicode="&#x4E;" horiz-adv-x="698" d=" M11,0 L134,700 L273,700 L455,334 L520,700 L698,700 L575,0 L437,0 L255,366 L190,0"/> 
            <glyph glyph-name="O" unicode="&#x4F;" horiz-adv-x="803" d=" M360,-15 Q254,-15 175,38 Q96,91 63,177 Q30,263 47,361 Q73,511 188,613 Q303,715 467,715 Q626,715 714.5,603.5 Q803,492 778,341 Q752,189 638.5,87 Q525,-15 360,-15 M295,160 Q457,160 521.5,213.5 Q586,267 600,350 Q615,433 571,486.5 Q527,540 446,540 Q365,540 302.5,486.5 Q240,433 225,350 Q210,266 295,160"/> 
            <glyph glyph-name="P" unicode="&#x50;" horiz-adv-x="627" d=" M398,700 Q503,700 565,628.5 Q627,557 611,445 Q596,339 518.5,274.5 Q441,210 319,210 L227,210 L190,0 L11,0 L134,700 M433,455 Q440,489 422,509 Q404,529 368,529 L283,529 L257,380 L344,380 Q379,380 403,400.5 Q427,421 433,455"/> 
            <glyph glyph-name="Q" unicode="&#x51;" horiz-adv-x="803" d=" M467,715 Q626,715 714.5,603.5 Q803,492 778,341 Q757,212 666,115 L717,48 L585,-52 L530,20 Q452,-15 360,-15 Q256,-15 177.5,38 Q99,91 64.5,177.5 Q30,264 47,361 Q72,511 189,613 Q306,715 467,715 M471,368 L559,253 Q591,298 600,350 Q615,433 571,486.5 Q527,540 446,540 Q365,540 302.5,486.5 Q240,433 225,350 Q210,266 252.5,213 Q295,160 376,160 Q399,160 418,164 L338,268"/> 
            <glyph glyph-name="R" unicode="&#x52;" horiz-adv-x="643" d=" M624,448 Q612,381 572.5,331 Q533,281 472,254 L568,0 L388,0 L306,226 L230,226 L190,0 L11,0 L135,700 L409,700 Q513,700 578,626 Q643,552 624,448 M284,535 L256,378 L359,378 Q392,377 415.5,399 Q439,421 445,456 Q451,491 433.5,513 Q416,535 380,535"/> 
            <glyph glyph-name="S" unicode="&#x53;" horiz-adv-x="599" d=" M269,-15 Q157,-15 88,31.5 Q19,78 -3,159 L156,241 Q184,154 284,154 Q366,154 375,202 Q381,235 329,257 Q321,261 256,283 Q164,314 117,367 Q70,420 86,512 Q103,608 177.5,661.5 Q252,715 354,715 Q442,715 505.5,673.5 Q569,632 599,555 L446,473 Q413,546 340,546 Q277,546 268,501 Q262,476 286,459.5 Q310,443 376,420 Q422,404 451,390 Q480,376 511.5,349.5 Q543,323 554,282.5 Q565,242 556,187 Q538,88 462,36.5 Q386,-15 269,-15"/> 
            <glyph glyph-name="T" unicode="&#x54;" horiz-adv-x="614" d=" M614,700 L583,527 L411,527 L318,0 L139,0 L232,527 L59,527 L89,700"/> 
            <glyph glyph-name="U" unicode="&#x55;" horiz-adv-x="679" d=" M290,-15 Q162,-15 92.5,54 Q23,123 42,230 L125,700 L304,700 L224,247 Q208,159 307,159 Q405,159 421,247 L500,700 L679,700 L596,230 Q575,112 492,48.5 Q409,-15 290,-15"/> 
            <glyph glyph-name="V" unicode="&#x56;" horiz-adv-x="724" d=" M169,0 L74,700 L260,700 L305,208 L522,700 L724,700 L383,0"/> 
            <glyph glyph-name="W" unicode="&#x57;" horiz-adv-x="1077" d=" M157,0 L84,700 L265,700 L300,259 L502,700 L645,700 L693,259 L881,700 L1077,700 L759,0 L570,0 L527,395 L346,0"/> 
            <glyph glyph-name="X" unicode="&#x58;" horiz-adv-x="698" d=" M698,700 L434,350 L582,0 L389,0 L310,186 L169,0 L-39,0 L235,363 L92,700 L286,700 L359,527 L490,700"/> 
            <glyph glyph-name="Y" unicode="&#x59;" horiz-adv-x="710" d=" M710,700 L415,305 L361,0 L182,0 L236,305 L79,700 L269,700 L344,475 L498,700"/> 
            <glyph glyph-name="Z" unicode="&#x5A;" horiz-adv-x="591" d=" M591,700 L568,562 L256,173 L506,173 L476,0 L-11,0 L13,138 L326,527 L86,527 L117,700"/> 
            <glyph glyph-name="[" unicode="&#x5B;" horiz-adv-x="406" d=" M379,641 L281,641 L178,59 L276,59 L247,-100 L-17,-100 L142,800 L406,800"/> 
            <glyph glyph-name="\" unicode="&#x5C;" horiz-adv-x="433" d=" M365,-100 L122,800 L190,800 L433,-100"/> 
            <glyph glyph-name="]" unicode="&#x5D;" horiz-adv-x="381" d=" M381,800 L222,-100 L-42,-100 L-14,59 L84,59 L187,641 L89,641 L117,800"/> 
            <glyph glyph-name="^" unicode="&#x5E;" horiz-adv-x="566" d=" M428,700 L566,346 L392,346 L341,504 L231,346 L47,346 L310,700"/> 
            <glyph glyph-name="_" unicode="&#x5F;" horiz-adv-x="441" d=" M-52,-186 L-24,-28 L441,-28 L413,-186"/> 
            <glyph glyph-name="`" unicode="&#x60;" horiz-adv-x="348" d=" M348,555 L287,700 L99,700 L194,555"/> 
            <glyph glyph-name="a" unicode="&#x61;" horiz-adv-x="611" d=" M445,500 L611,500 L523,0 L357,0 L364,39 Q306,-14 218,-14 Q111,-14 59.5,67 Q8,148 26,257 Q43,363 116,438.5 Q189,514 297,514 Q393,514 435,445 M230,141 Q324,141 358,170 Q392,199 401,247 L401,250 Q409,299 386,329 Q363,359 315,359 Q268,359 234,329 Q200,299 192,250 Q184,201 230,141"/> 
            <glyph glyph-name="b" unicode="&#x62;" horiz-adv-x="607" d=" M392,514 Q496,514 551.5,433 Q607,352 589,240 Q570,131 498.5,58.5 Q427,-14 323,-14 Q224,-14 180,57 L170,0 L4,0 L127,700 L293,700 L251,459 Q308,514 392,514 M423,250 Q432,300 408,329.5 Q384,359 338,359 Q292,359 257.5,329.5 Q223,300 214,250 Q206,200 230,170.5 Q254,141 301,141 Q347,141 381,170.5 Q415,200 423,250"/> 
            <glyph glyph-name="c" unicode="&#x63;" horiz-adv-x="539" d=" M260,-14 Q140,-14 74,65 Q8,144 26,260 Q44,371 128,442.5 Q212,514 324,514 Q403,514 457.5,478.5 Q512,443 539,383 L388,304 Q366,352 310,352 Q266,352 232.5,324 Q199,296 192,251 Q184,206 207.5,177 Q231,148 273,148 Q331,148 366,198 L498,114 Q460,51 397,18.5 Q334,-14 260,-14"/> 
            <glyph glyph-name="d" unicode="&#x64;" horiz-adv-x="647" d=" M481,700 L647,700 L524,0 L358,0 L365,40 Q306,-14 218,-14 Q111,-14 59.5,67 Q8,148 26,257 Q43,363 116,438.5 Q189,514 297,514 Q393,514 436,444 M278,141 Q324,141 357.5,169 Q391,197 401,244 L403,254 Q410,302 386.5,330.5 Q363,359 316,359 Q269,359 234.5,329 Q200,299 192,250 Q184,201 207.5,171 Q231,141 278,141"/> 
            <glyph glyph-name="e" unicode="&#x65;" horiz-adv-x="565" d=" M324,514 Q437,514 501,437.5 Q565,361 545,251 Q541,221 528,189 L185,189 Q199,128 281,128 Q341,128 380,164 L486,67 Q399,-14 268,-14 Q138,-14 72.5,65 Q7,144 26,260 Q44,370 128,442 Q212,514 324,514 M205,305 L394,305 Q389,374 315,374 Q241,374 205,305"/> 
            <glyph glyph-name="f" unicode="&#x66;" horiz-adv-x="412" d=" M385,561 Q301,567 288,500 L374,500 L346,341 L260,341 L200,0 L34,0 L94,341 L32,341 L59,500 L122,500 Q142,611 215,666.5 Q288,722 412,715"/> 
            <glyph glyph-name="g" unicode="&#x67;" horiz-adv-x="615" d=" M451,500 L615,500 L530,20 Q509,-101 428.5,-158 Q348,-215 235,-215 Q151,-215 89,-184 Q27,-153 1,-93 L148,-16 Q176,-70 250,-70 Q296,-70 327,-47.5 Q358,-25 366,20 L373,58 Q314,6 231,6 Q156,6 106,44.5 Q56,83 38.5,141 Q21,199 31,267 Q46,367 118.5,440.5 Q191,514 300,514 Q397,514 441,441 M284,157 Q328,157 362,183 Q396,209 407,250 L410,270 Q414,311 389.5,337 Q365,363 321,363 Q274,363 239.5,334 Q205,305 197,260 Q189,215 213,186 Q237,157 284,157"/> 
            <glyph glyph-name="h" unicode="&#x68;" horiz-adv-x="563" d=" M395,514 Q476,514 519.5,457.5 Q563,401 546,299 L493,0 L327,0 L376,278 Q382,318 365,337.5 Q348,357 314,357 Q276,357 250.5,334 Q225,311 217,266 L217,267 L170,0 L4,0 L127,700 L293,700 L249,449 Q306,514 395,514"/> 
            <glyph glyph-name="i" unicode="&#x69;" horiz-adv-x="302" d=" M184,541 Q145,541 121,569.5 Q97,598 104,637 Q110,675 142,703.5 Q174,732 215,732 Q255,732 278.5,704 Q302,676 295,637 Q289,597 257,569 Q225,541 184,541 M4,0 L92,500 L258,500 L170,0"/> 
            <glyph glyph-name="j" unicode="&#x6A;" horiz-adv-x="317" d=" M230,732 Q270,732 293.5,704 Q317,676 310,637 Q304,597 272,569 Q240,541 199,541 Q160,541 136,569.5 Q112,598 119,637 Q125,675 157,703.5 Q189,732 230,732 M19,0 L107,500 L273,500 L185,0 Q164,-123 98,-172.5 Q32,-222 -92,-215 L-65,-61 Q8,-65 19,0"/> 
            <glyph glyph-name="k" unicode="&#x6B;" horiz-adv-x="573" d=" M573,500 L363,249 L493,0 L315,0 L209,220 L170,0 L4,0 L127,700 L293,700 L223,302 L382,500"/> 
            <glyph glyph-name="l" unicode="&#x6C;" horiz-adv-x="299" d=" M5,0 L61,321 L133,730 L299,730 L227,316 L171,0"/> 
            <glyph glyph-name="m" unicode="&#x6D;" horiz-adv-x="836" d=" M662,514 Q747,514 791.5,458 Q836,402 819,306 L766,0 L599,0 L649,287 Q662,357 600,357 Q537,357 519,289 L468,0 L302,0 L352,287 Q363,357 302,357 Q237,357 219,280 L170,0 L4,0 L92,500 L258,500 L250,454 Q306,514 389,514 Q476,514 509,447 Q574,514 662,514"/> 
            <glyph glyph-name="n" unicode="&#x6E;" horiz-adv-x="563" d=" M395,514 Q476,514 519.5,457.5 Q563,401 546,299 L493,0 L327,0 L376,278 Q382,318 365,337.5 Q348,357 314,357 Q276,357 250.5,334 Q225,311 217,266 L217,267 L170,0 L4,0 L92,500 L258,500 L249,449 Q306,514 395,514"/> 
            <glyph glyph-name="o" unicode="&#x6F;" horiz-adv-x="575" d=" M258,-14 Q173,-14 114.5,28.5 Q56,71 35,134 Q14,197 27,266 Q47,370 127.5,442 Q208,514 329,514 Q449,514 512,428.5 Q575,343 556,236 Q538,134 456,60 Q374,-14 258,-14 M271,146 Q315,146 348,175 Q381,204 389,250 Q397,296 374.5,325 Q352,354 308,354 Q265,354 232,325 Q199,296 191,250 Q183,204 205.5,175 Q228,146 271,146"/> 
            <glyph glyph-name="p" unicode="&#x70;" horiz-adv-x="607" d=" M393,514 Q496,514 551.5,432.5 Q607,351 589,240 Q571,132 499.5,59 Q428,-14 323,-14 Q225,-14 180,57 L135,-200 L-31,-200 L92,500 L258,500 L251,459 Q308,514 393,514 M423,250 Q432,300 409,329.5 Q386,359 339,359 Q293,359 259,330.5 Q225,302 215,254 L213,247 Q206,199 230,170 Q254,141 300,141 Q347,141 381,170.5 Q415,200 423,250"/> 
            <glyph glyph-name="q" unicode="&#x71;" horiz-adv-x="611" d=" M445,500 L611,500 L488,-200 L322,-200 L364,39 Q306,-14 218,-14 Q111,-14 59.5,67 Q8,148 26,257 Q43,363 116,438.5 Q189,514 297,514 Q393,514 435,445 M200,299 Q184,201 207,171 Q230,141 277,141 Q324,141 358.5,171 Q393,201 401,250 Q409,299 386,329 Q363,359 315,359 Q268,359 200,299"/> 
            <glyph glyph-name="r" unicode="&#x72;" horiz-adv-x="410" d=" M241,406 Q264,457 309,483.5 Q354,510 410,510 L379,326 Q322,334 270.5,306 Q219,278 207,207 L209,223 L170,0 L4,0 L92,500 L258,500"/> 
            <glyph glyph-name="s" unicode="&#x73;" horiz-adv-x="465" d=" M210,-14 Q44,-14 -10,109 L136,180 Q158,123 219,123 Q263,123 267,147 Q270,162 245.5,172.5 Q221,183 185.5,193 Q150,203 116,219.5 Q82,236 62.5,272.5 Q43,309 52,363 Q65,438 128,476 Q191,514 267,514 Q336,514 388.5,485.5 Q441,457 465,403 L324,335 Q306,380 262,381 Q224,383 218,354 Q215,338 232,327.5 Q249,317 276,312 Q303,307 334,295.5 Q365,284 390.5,268 Q416,252 428.5,217.5 Q441,183 433,135 Q419,58 357,22 Q295,-14 210,-14"/> 
            <glyph glyph-name="t" unicode="&#x74;" horiz-adv-x="403" d=" M270,341 L245,196 Q239,162 261,154 Q283,146 341,150 L315,0 Q174,-19 116,28.5 Q58,76 78,192 L104,341 L29,341 L57,500 L132,500 L148,590 L323,640 L298,500 L403,500 L374,341"/> 
            <glyph glyph-name="u" unicode="&#x75;" horiz-adv-x="574" d=" M408,500 L574,500 L486,0 L320,0 L329,51 Q272,-14 183,-14 Q102,-14 58.5,42.5 Q15,99 32,201 L85,500 L251,500 L202,222 Q196,182 213,162.5 Q230,143 264,143 Q302,143 327.5,166 Q353,189 361,234 L361,233"/> 
            <glyph glyph-name="v" unicode="&#x76;" horiz-adv-x="577" d=" M394,500 L577,500 L307,0 L138,0 L44,500 L213,500 L254,216"/> 
            <glyph glyph-name="w" unicode="&#x77;" horiz-adv-x="828" d=" M647,500 L828,500 L587,0 L425,0 L398,251 L289,0 L119,0 L54,500 L220,500 L243,228 L361,500 L506,500 L535,233"/> 
            <glyph glyph-name="x" unicode="&#x78;" horiz-adv-x="586" d=" M586,500 L366,250 L505,0 L329,0 L258,127 L147,0 L-44,0 L184,260 L51,500 L227,500 L292,383 L394,500"/> 
            <glyph glyph-name="y" unicode="&#x79;" horiz-adv-x="593" d=" M402,500 L593,500 L339,15 Q274,-110 191,-159.5 Q108,-209 -3,-200 L25,-44 Q79,-44 106,-30.5 Q133,-17 156,20 L44,500 L220,500 L272,211"/> 
            <glyph glyph-name="z" unicode="&#x7A;" horiz-adv-x="469" d=" M469,500 L449,386 L237,154 L418,154 L391,0 L-19,0 L2,114 L213,346 L52,346 L79,500"/> 
            <glyph glyph-name="{" unicode="&#x7B;" horiz-adv-x="441" d=" M279,-107 Q169,-114 118,-61 Q67,-8 84,88 L108,222 Q114,253 97.5,264.5 Q81,276 45,272 L73,431 Q109,427 128.5,437 Q148,447 154,481 L178,615 Q197,723 260.5,770.5 Q324,818 441,810 L414,656 Q352,665 344,615 L320,481 Q311,429 290,400 Q269,371 230,352 Q291,315 274,222 L251,88 Q247,62 260.5,52.5 Q274,43 307,47"/> 
            <glyph glyph-name="|" unicode="&#x7C;" horiz-adv-x="305" d=" M-24,-200 L138,720 L305,720 L143,-200"/> 
            <glyph glyph-name="}" unicode="&#x7D;" horiz-adv-x="353" d=" M119,809 Q229,816 280,763 Q331,710 314,614 L290,480 Q284,449 300.5,437.5 Q317,426 353,430 L325,271 Q289,275 269.5,265 Q250,255 244,221 L220,87 Q201,-21 137.5,-68.5 Q74,-116 -43,-108 L-16,46 Q46,37 54,87 L78,221 Q87,273 108,302 Q129,331 168,350 Q107,387 124,480 L147,614 Q151,640 137.5,649.5 Q124,659 91,655"/> 
            <glyph glyph-name="~" unicode="&#x7E;" horiz-adv-x="597" d=" M164,235 L43,296 Q68,370 114,412.5 Q160,455 212,460.5 Q264,466 321,441 Q387,408 419,411 Q451,414 476,461 L597,400 Q572,327 526,284 Q480,241 428,235.5 Q376,230 320,255 Q253,288 221,285 Q189,282 164,235"/> 
            <glyph glyph-name="¡" unicode="&#xA1;" horiz-adv-x="287" d=" M194,514 Q237,514 262,483 Q287,452 279,408 Q271,365 236.5,335.5 Q202,306 157,306 Q114,306 88.5,337.5 Q63,369 71,412 Q79,456 113,485 Q147,514 194,514 M215,245 L205,0 L170,-200 L-34,-200 L1,0 L77,245"/> 
            <glyph glyph-name="¢" unicode="&#xA2;" horiz-adv-x="556" d=" M290,248 Q348,248 383,298 L515,214 Q477,151 414,118.5 Q351,86 277,86 Q248,86 211,93 L165,0 L100,0 L156,113 Q91,146 60.5,212 Q30,278 43,360 Q61,471 145,542.5 Q229,614 341,614 Q374,614 401,608 L447,700 L512,700 L457,588 Q523,555 556,483 L405,404 Q395,424 381,435 L288,248 M209,351 Q200,297 233,268 L324,452 Q281,451 248.5,423.5 Q216,396 209,351"/> 
            <glyph glyph-name="£" unicode="&#xA3;" horiz-adv-x="609" d=" M270,272 L252,173 L556,173 L526,0 L-19,0 L12,173 L74,173 L91,272 L40,272 L65,412 L116,412 L130,491 Q150,605 219,660 Q288,715 386,715 Q550,715 609,559 L447,477 Q425,544 372,544 Q318,544 307,486 L294,412 L484,412 L459,272"/> 
            <glyph glyph-name="¤" unicode="&#xA4;" horiz-adv-x="558" d=" M558,546 L477,478 Q513,421 500,347 Q487,274 435,219 L491,151 L443,112 L387,180 Q325,140 251,140 Q179,140 131,179 L49,109 L10,153 L92,222 Q56,279 69,353 Q82,426 134,481 L78,549 L124,589 L182,519 Q245,560 319,560 Q388,560 437,522 L518,591 M275,294 Q300,294 318,309 Q336,324 341,350 Q345,376 332.5,391 Q320,406 294,406 Q269,406 251.5,391 Q234,376 229,350 Q224,324 236.5,309 Q249,294 275,294"/> 
            <glyph glyph-name="¥" unicode="&#xA5;" horiz-adv-x="710" d=" M710,700 L465,372 L579,372 L562,278 L410,278 L403,237 L555,237 L539,144 L386,144 L361,0 L182,0 L207,144 L55,144 L71,237 L224,237 L231,278 L78,278 L95,372 L209,372 L79,700 L269,700 L344,475 L498,700"/> 
            <glyph glyph-name="¦" unicode="&#xA6;" horiz-adv-x="305" d=" M73,350 L138,720 L305,720 L240,350 M-24,-200 L41,170 L208,170 L143,-200"/> 
            <glyph glyph-name="§" unicode="&#xA7;" horiz-adv-x="548" d=" M410,463 Q469,438 503.5,392 Q538,346 526,279 Q513,205 447,160 Q473,116 462,53 Q446,-31 381,-71.5 Q316,-112 223,-112 Q58,-112 7,13 L149,87 Q178,26 238,26 Q290,26 295,59 Q297,70 292,78.5 Q287,87 272.5,95.5 Q258,104 246,109.5 Q234,115 210,124.5 Q186,134 173,140 Q112,167 76.5,214.5 Q41,262 53,332 Q67,409 133,449 Q112,493 123,552 Q138,635 199.5,675 Q261,715 344,715 Q493,715 548,585 L409,521 Q383,580 336,580 Q294,580 289,547 Q288,539 290,532 Q292,525 298.5,518.5 Q305,512 312,507 Q319,502 332,496 Q345,490 355,485.5 Q365,481 382,474.5 Q399,468 410,463 M275,268 Q282,265 303,257 Q324,249 337,243 Q356,256 360,278 Q362,293 354,304 Q346,315 335.5,320 Q325,325 302,335 L238,361 Q222,350 218,328 Q214,307 228.5,294 Q243,281 275,268"/> 
            <glyph glyph-name="¨" unicode="&#xA8;" horiz-adv-x="443" d=" M183,535 Q117,535 98,558.5 Q79,582 84,615 Q89,648 117,671.5 Q145,695 178,695 Q210,695 229.5,671.5 Q249,648 243,615 Q238,582 183,535 M344,535 Q312,535 292.5,558.5 Q273,582 279,615 Q284,648 311.5,671.5 Q339,695 372,695 Q405,695 424,671.5 Q443,648 438,615 Q433,582 405,558.5 Q377,535 344,535"/> 
            <glyph glyph-name="©" unicode="&#xA9;" horiz-adv-x="794" d=" M358,-12 Q260,-12 182,38.5 Q104,89 66.5,174.5 Q29,260 47,358 Q73,509 190,610.5 Q307,712 458,712 Q607,712 700.5,601.5 Q794,491 768,342 Q741,191 624.5,89.5 Q508,-12 358,-12 M358,29 Q491,29 596,120.5 Q701,212 724,345 Q747,478 666.5,574.5 Q586,671 456,671 Q324,671 219,579.5 Q114,488 91,355 Q67,222 147,125.5 Q227,29 358,29 M380,153 Q291,153 244.5,215.5 Q198,278 212,360 Q226,439 286,493 Q346,547 431,547 Q482,547 524,519.5 Q566,492 591,447 L466,382 Q454,411 418,411 Q391,411 371,393 Q351,375 347,350 Q342,326 355,307.5 Q368,289 394,289 Q429,289 453,319 L564,249 Q532,203 482.5,178 Q433,153 380,153"/> 
            <glyph glyph-name="«" unicode="&#xAB;" horiz-adv-x="559" d=" M351,504 L207,304 L281,114 L142,114 L65,309 L206,504 M559,504 L410,298 L483,114 L344,114 L269,304 L413,504"/> 
            <glyph glyph-name="¬" unicode="&#xAC;" horiz-adv-x="566" d=" M566,429 L517,151 L348,151 L369,271 L39,271 L67,429"/> 
            <glyph glyph-name="®" unicode="&#xAE;" horiz-adv-x="794" d=" M458,712 Q607,712 700.5,601.5 Q794,491 768,342 Q741,191 624.5,89.5 Q508,-12 358,-12 Q260,-12 182,38.5 Q104,89 66.5,174.5 Q29,260 47,358 Q73,509 190,610.5 Q307,712 458,712 M701,212 Q747,478 666.5,574.5 Q586,671 456,671 Q324,671 219,579.5 Q114,488 91,355 Q67,222 147,125.5 Q227,29 358,29 Q491,29 701,212 M467,535 Q523,535 559.5,493 Q596,451 586,394 Q573,323 519,288 L567,165 L431,165 L400,262 L374,262 L357,165 L226,165 L291,535 M426,420 L402,420 L392,367 L416,367 Q447,367 453,394 Q455,408 448,414 Q441,420 426,420"/> 
            <glyph glyph-name="¯" unicode="&#xAF;" horiz-adv-x="406" d=" M74,554 L96,684 L406,684 L383,554"/> 
            <glyph glyph-name="°" unicode="&#xB0;" horiz-adv-x="466" d=" M248,461 Q173,461 129.5,514.5 Q86,568 99,640 Q111,714 168,762 Q225,810 303,810 Q379,810 422.5,756.5 Q466,703 453,630 Q440,557 383.5,509 Q327,461 248,461 M248,590 Q288,590 302.5,602.5 Q317,615 320,635 Q324,655 314,668 Q304,681 284,681 Q264,681 249.5,668 Q235,655 231,635 Q228,615 248,590"/> 
            <glyph glyph-name="±" unicode="&#xB1;" horiz-adv-x="569" d=" M408,529 L569,529 L540,371 L381,371 L357,235 L198,235 L222,371 L62,371 L90,529 L250,529 L274,665 L432,665 M0,21 L29,180 L507,180 L479,21"/> 
            <glyph glyph-name="´" unicode="&#xB4;" horiz-adv-x="373" d=" M74,555 L237,555 L373,700 L175,700"/> 
            <glyph glyph-name="µ" unicode="&#xB5;" horiz-adv-x="581" d=" M525,179 Q520,149 550,149 L575,149 L549,0 L477,0 Q405,0 371,47 Q313,-14 228,-14 Q195,-14 169,-4 L135,-200 L-31,-200 L92,500 L258,500 L209,224 L210,224 Q203,183 220,163 Q237,143 271,143 Q348,143 366,225 L415,500 L581,500"/> 
            <glyph glyph-name="¶" unicode="&#xB6;" horiz-adv-x="770" d=" M770,700 L743,540 L676,540 L546,-200 L388,-200 L518,540 L454,540 L324,-200 L166,-200 L245,251 Q152,252 98.5,322 Q45,392 62,485 Q78,578 153.5,639 Q229,700 324,700"/> 
            <glyph glyph-name="·" unicode="&#xB7;" horiz-adv-x="274" d=" M144,246 Q101,246 76,277 Q51,308 59,352 Q67,395 101.5,424.5 Q136,454 181,454 Q224,454 249,422.5 Q274,391 266,348 Q258,304 224.5,275 Q191,246 144,246"/> 
            <glyph glyph-name="¸" unicode="&#xB8;" horiz-adv-x="198" d=" M144,-46 Q198,-71 187,-132 Q168,-237 -63,-221 L-44,-112 Q49,-119 54,-98 Q57,-81 4,-78 L18,0 L152,0"/> 
            <glyph glyph-name="»" unicode="&#xBB;" horiz-adv-x="525" d=" M246,504 L321,314 L177,114 L31,114 L180,320 L107,504 M448,504 L525,309 L384,114 L239,114 L383,314 L309,504"/> 
            <glyph glyph-name="¼" unicode="&#xBC;" horiz-adv-x="791" d=" M585,700 L704,700 L182,0 L63,0 M163,556 L82,536 L71,654 L206,700 L320,700 L249,300 L117,300 M791,171 L771,56 L736,56 L726,0 L604,0 L614,56 L430,56 L450,171 L602,400 L743,400 L596,171 L635,171 L646,234 L767,234 L756,171"/> 
            <glyph glyph-name="½" unicode="&#xBD;" horiz-adv-x="800" d=" M585,700 L704,700 L182,0 L63,0 M163,556 L82,536 L71,654 L206,700 L320,700 L249,300 L117,300 M788,275 Q782,243 761.5,216 Q741,189 701,157 L652,117 L763,117 L743,0 L437,0 L452,89 L620,230 Q656,261 658,276 Q663,298 638,298 Q610,298 582,253 L482,316 Q545,414 659,414 Q721,414 760.5,376 Q800,338 788,275"/> 
            <glyph glyph-name="¾" unicode="&#xBE;" horiz-adv-x="850" d=" M356,417 Q333,286 178,286 Q56,286 26,380 L137,439 Q151,399 191,399 Q224,399 227,425 Q231,450 200,450 L171,450 L138,518 L204,584 L81,584 L102,700 L388,700 L372,613 L294,534 Q329,519 346,488 Q363,457 356,417 M644,700 L763,700 L241,0 L122,0 M850,171 L830,56 L795,56 L785,0 L663,0 L673,56 L489,56 L509,171 L661,400 L802,400 L655,171 L694,171 L705,234 L826,234 L815,171"/> 
            <glyph glyph-name="¿" unicode="&#xBF;" horiz-adv-x="475" d=" M332,514 Q375,514 400,483 Q425,452 417,408 Q409,365 374.5,335.5 Q340,306 295,306 Q252,306 226.5,337.5 Q201,369 209,412 Q217,456 251,485 Q285,514 332,514 M369,245 Q363,206 342.5,174 Q322,142 296,121.5 Q270,101 245,83.5 Q220,66 201,46.5 Q182,27 178,6 Q174,-16 186.5,-29 Q199,-42 223,-42 Q289,-42 331,41 L475,-50 Q434,-131 359.5,-173 Q285,-215 196,-215 Q98,-215 38.5,-156 Q-21,-97 -4,-4 Q3,38 26,72.5 Q49,107 76,129 Q103,151 130,170 Q157,189 177,207.5 Q197,226 200,245"/> 
            <glyph glyph-name="À" unicode="&#xC0;" horiz-adv-x="631" d=" M514,755 L360,755 L265,900 L453,900 M440,0 L429,101 L196,101 L148,0 L-49,0 L305,700 L523,700 L631,0 M270,255 L412,255 L386,497"/> 
            <glyph glyph-name="Á" unicode="&#xC1;" horiz-adv-x="633" d=" M633,900 L497,755 L334,755 L435,900 M305,700 L523,700 L631,0 L440,0 L429,101 L196,101 L148,0 L-49,0 M270,255 L412,255 L386,497"/> 
            <glyph glyph-name="Â" unicode="&#xC2;" horiz-adv-x="631" d=" M429,801 L379,745 L228,745 L361,900 L528,900 L607,745 L458,745 M440,0 L429,101 L196,101 L148,0 L-49,0 L305,700 L523,700 L631,0 M270,255 L412,255 L386,497"/> 
            <glyph glyph-name="Ã" unicode="&#xC3;" horiz-adv-x="631" d=" M422,768 Q401,784 385.5,781.5 Q370,779 365,748 L244,748 Q250,808 272,847 Q294,886 325,899.5 Q356,913 389,911 Q422,909 452,891 Q469,881 478.5,877.5 Q488,874 496.5,881.5 Q505,889 509,910 L631,910 Q625,850 602,811 Q579,772 548.5,758.5 Q518,745 485,747.5 Q452,750 422,768 M305,700 L523,700 L631,0 L440,0 L429,101 L196,101 L148,0 L-49,0 M270,255 L412,255 L386,497"/> 
            <glyph glyph-name="Ä" unicode="&#xC4;" horiz-adv-x="631" d=" M356,735 Q290,735 271,758.5 Q252,782 257,815 Q262,848 290,871.5 Q318,895 351,895 Q383,895 402.5,871.5 Q422,848 416,815 Q411,782 356,735 M517,735 Q485,735 465.5,758.5 Q446,782 452,815 Q457,848 484.5,871.5 Q512,895 545,895 Q578,895 597,871.5 Q616,848 611,815 Q606,782 578,758.5 Q550,735 517,735 M440,0 L429,101 L196,101 L148,0 L-49,0 L305,700 L523,700 L631,0 M270,255 L412,255 L386,497"/> 
            <glyph glyph-name="Å" unicode="&#xC5;" horiz-adv-x="631" d=" M440,0 L429,101 L196,101 L148,0 L-49,0 L301,691 Q279,726 287,773 Q297,830 341.5,866 Q386,902 448,902 Q509,902 543.5,862.5 Q578,823 567,766 Q558,717 525,684 L631,0 M394,770 Q389,738 421,738 Q456,738 461,769 Q464,783 456.5,792.5 Q449,802 432,802 Q417,802 406.5,793 Q396,784 394,770 M270,255 L412,255 L386,497"/> 
            <glyph glyph-name="Æ" unicode="&#xC6;" horiz-adv-x="929" d=" M899,532 L668,532 L651,435 L858,435 L828,271 L623,271 L605,168 L840,168 L811,0 L401,0 L419,101 L227,101 L152,0 L-49,0 L474,700 L929,700 M342,255 L446,255 L478,437"/> 
            <glyph glyph-name="Ç" unicode="&#xC7;" horiz-adv-x="746" d=" M371,160 Q472,160 535,244 L682,149 Q584,14 419,-11 L413,-46 Q467,-71 456,-132 Q437,-237 206,-221 L225,-112 Q318,-119 323,-98 Q326,-81 273,-78 L286,-8 Q157,17 90.5,119 Q24,221 47,360 Q72,515 188.5,615 Q305,715 460,715 Q563,715 635.5,670.5 Q708,626 746,548 L582,461 Q542,540 443,540 Q361,540 300.5,487.5 Q240,435 225,350 Q211,267 251,213.5 Q291,160 371,160"/> 
            <glyph glyph-name="È" unicode="&#xC8;" horiz-adv-x="579" d=" M457,755 L303,755 L208,900 L396,900 M549,533 L284,533 L266,435 L508,435 L478,271 L238,271 L220,168 L490,168 L461,0 L11,0 L134,700 L579,700"/> 
            <glyph glyph-name="É" unicode="&#xC9;" horiz-adv-x="579" d=" M576,900 L440,755 L277,755 L378,900 M549,533 L284,533 L266,435 L508,435 L478,271 L238,271 L220,168 L490,168 L461,0 L11,0 L134,700 L579,700"/> 
            <glyph glyph-name="Ê" unicode="&#xCA;" horiz-adv-x="579" d=" M372,801 L322,745 L171,745 L304,900 L471,900 L550,745 L401,745 M549,533 L284,533 L266,435 L508,435 L478,271 L238,271 L220,168 L490,168 L461,0 L11,0 L134,700 L579,700"/> 
            <glyph glyph-name="Ë" unicode="&#xCB;" horiz-adv-x="579" d=" M299,735 Q233,735 214,758.5 Q195,782 200,815 Q205,848 233,871.5 Q261,895 294,895 Q326,895 345.5,871.5 Q365,848 359,815 Q354,782 299,735 M460,735 Q428,735 408.5,758.5 Q389,782 395,815 Q400,848 427.5,871.5 Q455,895 488,895 Q521,895 540,871.5 Q559,848 554,815 Q549,782 521,758.5 Q493,735 460,735 M549,533 L284,533 L266,435 L508,435 L478,271 L238,271 L220,168 L490,168 L461,0 L11,0 L134,700 L579,700"/> 
            <glyph glyph-name="Ì" unicode="&#xCC;" horiz-adv-x="324" d=" M324,755 L263,900 L75,900 L170,755 M134,700 L313,700 L190,0 L11,0"/> 
            <glyph glyph-name="Í" unicode="&#xCD;" horiz-adv-x="443" d=" M144,755 L307,755 L443,900 L245,900 M134,700 L313,700 L190,0 L11,0"/> 
            <glyph glyph-name="Î" unicode="&#xCE;" horiz-adv-x="417" d=" M239,801 L189,745 L38,745 L171,900 L338,900 L417,745 L268,745 M11,0 L134,700 L313,700 L190,0"/> 
            <glyph glyph-name="Ï" unicode="&#xCF;" horiz-adv-x="426" d=" M166,735 Q100,735 81,758.5 Q62,782 67,815 Q72,848 100,871.5 Q128,895 161,895 Q193,895 212.5,871.5 Q232,848 226,815 Q221,782 166,735 M327,735 Q295,735 275.5,758.5 Q256,782 262,815 Q267,848 294.5,871.5 Q322,895 355,895 Q388,895 407,871.5 Q426,848 421,815 Q416,782 388,758.5 Q360,735 327,735 M134,700 L313,700 L190,0 L11,0"/> 
            <glyph glyph-name="Ð" unicode="&#xD0;" horiz-adv-x="753" d=" M449,700 Q587,700 670,594 Q753,488 727,340 Q700,190 590,95 Q480,0 326,0 L41,0 L87,263 L13,263 L41,421 L115,421 L164,700 M553,353 Q566,432 529,479.5 Q492,527 419,527 L318,527 L299,421 L431,421 L403,263 L271,263 L255,173 L351,173 Q427,173 482.5,222.5 Q538,272 553,353"/> 
            <glyph glyph-name="Ñ" unicode="&#xD1;" horiz-adv-x="698" d=" M246,748 Q252,808 274,847 Q296,886 327,899.5 Q358,913 391,911 Q424,909 454,891 Q471,881 480.5,877.5 Q490,874 498.5,881.5 Q507,889 511,910 L633,910 Q627,850 604,811 Q581,772 550.5,758.5 Q520,745 487,747.5 Q454,750 424,768 Q403,784 387.5,781.5 Q372,779 367,748 M11,0 L134,700 L273,700 L455,334 L520,700 L698,700 L575,0 L437,0 L255,366 L190,0"/> 
            <glyph glyph-name="Ò" unicode="&#xD2;" horiz-adv-x="803" d=" M576,765 L515,910 L327,910 L422,765 M360,-15 Q254,-15 175,38 Q96,91 63,177 Q30,263 47,361 Q73,511 188,613 Q303,715 467,715 Q626,715 714.5,603.5 Q803,492 778,341 Q752,189 638.5,87 Q525,-15 360,-15 M295,160 Q457,160 521.5,213.5 Q586,267 600,350 Q615,433 571,486.5 Q527,540 446,540 Q365,540 302.5,486.5 Q240,433 225,350 Q210,266 295,160"/> 
            <glyph glyph-name="Ó" unicode="&#xD3;" horiz-adv-x="803" d=" M396,765 L559,765 L695,910 L497,910 M360,-15 Q254,-15 175,38 Q96,91 63,177 Q30,263 47,361 Q73,511 188,613 Q303,715 467,715 Q626,715 714.5,603.5 Q803,492 778,341 Q752,189 638.5,87 Q525,-15 360,-15 M295,160 Q457,160 521.5,213.5 Q586,267 600,350 Q615,433 571,486.5 Q527,540 446,540 Q365,540 302.5,486.5 Q240,433 225,350 Q210,266 295,160"/> 
            <glyph glyph-name="Ô" unicode="&#xD4;" horiz-adv-x="803" d=" M491,811 L441,755 L290,755 L423,910 L590,910 L669,755 L520,755 M467,715 Q626,715 714.5,603.5 Q803,492 778,341 Q752,189 638.5,87 Q525,-15 360,-15 Q254,-15 175,38 Q96,91 63,177 Q30,263 47,361 Q73,511 188,613 Q303,715 467,715 M600,350 Q615,433 571,486.5 Q527,540 446,540 Q365,540 302.5,486.5 Q240,433 225,350 Q210,266 252.5,213 Q295,160 376,160 Q457,160 521.5,213.5 Q586,267 600,350"/> 
            <glyph glyph-name="Õ" unicode="&#xD5;" horiz-adv-x="803" d=" M306,758 Q312,818 334,857 Q356,896 387,909.5 Q418,923 451,921 Q484,919 514,901 Q531,891 540.5,887.5 Q550,884 558.5,891.5 Q567,899 571,920 L693,920 Q687,860 664,821 Q641,782 610.5,768.5 Q580,755 547,757.5 Q514,760 484,778 Q463,794 447.5,791.5 Q432,789 427,758 M360,-15 Q254,-15 175,38 Q96,91 63,177 Q30,263 47,361 Q73,511 188,613 Q303,715 467,715 Q626,715 714.5,603.5 Q803,492 778,341 Q752,189 638.5,87 Q525,-15 360,-15 M295,160 Q457,160 521.5,213.5 Q586,267 600,350 Q615,433 571,486.5 Q527,540 446,540 Q365,540 302.5,486.5 Q240,433 225,350 Q210,266 295,160"/> 
            <glyph glyph-name="Ö" unicode="&#xD6;" horiz-adv-x="803" d=" M418,745 Q352,745 333,768.5 Q314,792 319,825 Q324,858 352,881.5 Q380,905 413,905 Q445,905 464.5,881.5 Q484,858 478,825 Q473,792 418,745 M579,745 Q547,745 527.5,768.5 Q508,792 514,825 Q519,858 546.5,881.5 Q574,905 607,905 Q640,905 659,881.5 Q678,858 673,825 Q668,792 640,768.5 Q612,745 579,745 M360,-15 Q254,-15 175,38 Q96,91 63,177 Q30,263 47,361 Q73,511 188,613 Q303,715 467,715 Q626,715 714.5,603.5 Q803,492 778,341 Q752,189 638.5,87 Q525,-15 360,-15 M295,160 Q457,160 521.5,213.5 Q586,267 600,350 Q615,433 571,486.5 Q527,540 446,540 Q365,540 302.5,486.5 Q240,433 225,350 Q210,266 295,160"/> 
            <glyph glyph-name="×" unicode="&#xD7;" horiz-adv-x="536" d=" M536,466 L399,347 L495,234 L371,122 L272,238 L138,122 L38,234 L175,353 L79,466 L203,578 L301,462 L435,578"/> 
            <glyph glyph-name="Ø" unicode="&#xD8;" horiz-adv-x="809" d=" M719,605 Q809,494 783,341 Q757,189 643.5,87 Q530,-15 365,-15 Q249,-15 167,48 L105,-15 L32,31 L108,108 Q27,216 52,361 Q78,511 193,613 Q308,715 472,715 Q577,715 656,662 L709,715 L782,669 M230,350 Q220,288 240,242 L522,526 Q489,540 451,540 Q370,540 307.5,486.5 Q245,433 230,350 M605,350 Q618,420 587,472 L298,180 Q333,160 381,160 Q462,160 526.5,213.5 Q591,267 605,350"/> 
            <glyph glyph-name="Ù" unicode="&#xD9;" horiz-adv-x="679" d=" M502,755 L441,900 L253,900 L348,755 M290,-15 Q162,-15 92.5,54 Q23,123 42,230 L125,700 L304,700 L224,247 Q208,159 307,159 Q405,159 421,247 L500,700 L679,700 L596,230 Q575,112 492,48.5 Q409,-15 290,-15"/> 
            <glyph glyph-name="Ú" unicode="&#xDA;" horiz-adv-x="679" d=" M322,755 L485,755 L621,900 L423,900 M290,-15 Q162,-15 92.5,54 Q23,123 42,230 L125,700 L304,700 L224,247 Q208,159 307,159 Q405,159 421,247 L500,700 L679,700 L596,230 Q575,112 492,48.5 Q409,-15 290,-15"/> 
            <glyph glyph-name="Û" unicode="&#xDB;" horiz-adv-x="679" d=" M417,801 L367,745 L216,745 L349,900 L516,900 L595,745 L446,745 M500,700 L679,700 L596,230 Q575,112 492,48.5 Q409,-15 290,-15 Q162,-15 92.5,54 Q23,123 42,230 L125,700 L304,700 L224,247 Q208,159 307,159 Q405,159 421,247"/> 
            <glyph glyph-name="Ü" unicode="&#xDC;" horiz-adv-x="679" d=" M344,735 Q278,735 259,758.5 Q240,782 245,815 Q250,848 278,871.5 Q306,895 339,895 Q371,895 390.5,871.5 Q410,848 404,815 Q399,782 344,735 M505,735 Q473,735 453.5,758.5 Q434,782 440,815 Q445,848 472.5,871.5 Q500,895 533,895 Q566,895 585,871.5 Q604,848 599,815 Q594,782 566,758.5 Q538,735 505,735 M290,-15 Q162,-15 92.5,54 Q23,123 42,230 L125,700 L304,700 L224,247 Q208,159 307,159 Q405,159 421,247 L500,700 L679,700 L596,230 Q575,112 492,48.5 Q409,-15 290,-15"/> 
            <glyph glyph-name="Ý" unicode="&#xDD;" horiz-adv-x="710" d=" M613,900 L477,755 L314,755 L415,900 M710,700 L415,305 L361,0 L182,0 L236,305 L79,700 L269,700 L344,475 L498,700"/> 
            <glyph glyph-name="Þ" unicode="&#xDE;" horiz-adv-x="609" d=" M380,596 Q485,596 547,524 Q609,452 593,340 Q578,234 500.5,169.5 Q423,105 301,105 L208,105 L190,0 L11,0 L135,700 L313,700 L295,596 M415,350 Q422,385 404,405 Q386,425 350,425 L265,425 L238,276 L326,276 Q361,276 385,296 Q409,316 415,350"/> 
            <glyph glyph-name="ß" unicode="&#xDF;" horiz-adv-x="554" d=" M229,-5 L254,143 Q354,129 363,187 Q369,216 332.5,289 Q296,362 301,390 Q305,415 334.5,456 Q364,497 368,517 Q373,541 361,554.5 Q349,568 325,568 Q271,568 260,509 L170,0 L4,0 L94,508 Q129,715 350,715 Q442,715 498,661.5 Q554,608 542,538 Q535,499 504,455 Q473,411 469,393 Q464,368 481.5,329.5 Q499,291 515,242 Q531,193 523,143 Q516,104 498,74 Q480,44 445,20.5 Q410,-3 357.5,-8.5 Q305,-14 229,-5"/> 
            <glyph glyph-name="à" unicode="&#xE0;" horiz-adv-x="611" d=" M442,555 L288,555 L193,700 L381,700 M445,500 L611,500 L523,0 L357,0 L364,39 Q306,-14 218,-14 Q111,-14 59.5,67 Q8,148 26,257 Q43,363 116,438.5 Q189,514 297,514 Q393,514 435,445 M230,141 Q324,141 358,170 Q392,199 401,247 L401,250 Q409,299 386,329 Q363,359 315,359 Q268,359 234,329 Q200,299 192,250 Q184,201 230,141"/> 
            <glyph glyph-name="á" unicode="&#xE1;" horiz-adv-x="611" d=" M561,700 L425,555 L262,555 L363,700 M445,500 L611,500 L523,0 L357,0 L364,39 Q306,-14 218,-14 Q111,-14 59.5,67 Q8,148 26,257 Q43,363 116,438.5 Q189,514 297,514 Q393,514 435,445 M230,141 Q324,141 358,170 Q392,199 401,247 L401,250 Q409,299 386,329 Q363,359 315,359 Q268,359 234,329 Q200,299 192,250 Q184,201 230,141"/> 
            <glyph glyph-name="â" unicode="&#xE2;" horiz-adv-x="611" d=" M357,601 L307,545 L156,545 L289,700 L456,700 L535,545 L386,545 M445,500 L611,500 L523,0 L357,0 L364,39 Q306,-14 218,-14 Q111,-14 59.5,67 Q8,148 26,257 Q43,363 116,438.5 Q189,514 297,514 Q393,514 435,445 M230,141 Q324,141 358,170 Q392,199 401,247 L401,250 Q409,299 386,329 Q363,359 315,359 Q268,359 234,329 Q200,299 192,250 Q184,201 230,141"/> 
            <glyph glyph-name="ã" unicode="&#xE3;" horiz-adv-x="611" d=" M350,568 Q329,584 313.5,581.5 Q298,579 293,548 L172,548 Q178,608 200,647 Q222,686 253,699.5 Q284,713 317,711 Q350,709 380,691 Q397,681 406.5,677.5 Q416,674 424.5,681.5 Q433,689 437,710 L559,710 Q553,650 530,611 Q507,572 476.5,558.5 Q446,545 413,547.5 Q380,550 350,568 M445,500 L611,500 L523,0 L357,0 L364,39 Q306,-14 218,-14 Q111,-14 59.5,67 Q8,148 26,257 Q43,363 116,438.5 Q189,514 297,514 Q393,514 435,445 M230,141 Q324,141 358,170 Q392,199 401,247 L401,250 Q409,299 386,329 Q363,359 315,359 Q268,359 234,329 Q200,299 192,250 Q184,201 230,141"/> 
            <glyph glyph-name="ä" unicode="&#xE4;" horiz-adv-x="611" d=" M284,535 Q218,535 199,558.5 Q180,582 185,615 Q190,648 218,671.5 Q246,695 279,695 Q311,695 330.5,671.5 Q350,648 344,615 Q339,582 284,535 M445,535 Q413,535 393.5,558.5 Q374,582 380,615 Q385,648 412.5,671.5 Q440,695 473,695 Q506,695 525,671.5 Q544,648 539,615 Q534,582 506,558.5 Q478,535 445,535 M445,500 L611,500 L523,0 L357,0 L364,39 Q306,-14 218,-14 Q111,-14 59.5,67 Q8,148 26,257 Q43,363 116,438.5 Q189,514 297,514 Q393,514 435,445 M230,141 Q324,141 358,170 Q392,199 401,247 L401,250 Q409,299 386,329 Q363,359 315,359 Q268,359 234,329 Q200,299 192,250 Q184,201 230,141"/> 
            <glyph glyph-name="å" unicode="&#xE5;" horiz-adv-x="611" d=" M350,533 Q289,533 255,572 Q221,611 231,668 Q241,725 285.5,761 Q330,797 392,797 Q453,797 487.5,757.5 Q522,718 511,661 Q501,604 457.5,568.5 Q414,533 350,533 M338,665 Q333,633 365,633 Q400,633 405,664 Q408,678 400.5,687.5 Q393,697 376,697 Q361,697 350.5,688 Q340,679 338,665 M445,500 L611,500 L523,0 L357,0 L364,39 Q306,-14 218,-14 Q111,-14 59.5,67 Q8,148 26,257 Q43,363 116,438.5 Q189,514 297,514 Q393,514 435,445 M230,141 Q324,141 358,170 Q392,199 401,247 L401,250 Q409,299 386,329 Q363,359 315,359 Q268,359 234,329 Q200,299 192,250 Q184,201 230,141"/> 
            <glyph glyph-name="æ" unicode="&#xE6;" horiz-adv-x="940" d=" M735,514 Q837,514 888.5,438.5 Q940,363 922,251 Q915,216 904,189 L561,189 Q575,128 658,128 Q718,128 757,164 L863,67 Q776,-14 674,-14 Q567,-14 517,49 L508,0 L357,0 L364,42 Q303,-14 221,-14 Q146,-14 96.5,26.5 Q47,67 30.5,128 Q14,189 26,258 Q43,362 118,438 Q193,514 304,514 Q394,514 437,456 L445,500 L596,500 L590,466 Q652,514 735,514 M581,305 L771,305 Q766,374 692,374 Q617,374 581,305 M277,143 Q323,143 357.5,171.5 Q392,200 401,248 L401,250 Q409,299 385.5,328 Q362,357 315,357 Q268,357 233.5,327.5 Q199,298 191,250 Q183,201 206.5,172 Q230,143 277,143"/> 
            <glyph glyph-name="ç" unicode="&#xE7;" horiz-adv-x="539" d=" M273,148 Q331,148 366,198 L498,114 Q439,14 319,-9 L312,-46 Q366,-71 355,-132 Q336,-237 105,-221 L124,-112 Q217,-119 222,-98 Q225,-81 172,-78 L185,-4 Q98,19 54.5,91.5 Q11,164 26,260 Q44,371 128,442.5 Q212,514 324,514 Q403,514 457.5,478.5 Q512,443 539,383 L388,304 Q366,352 310,352 Q266,352 232.5,324 Q199,296 192,251 Q184,206 207.5,177 Q231,148 273,148"/> 
            <glyph glyph-name="è" unicode="&#xE8;" horiz-adv-x="565" d=" M439,562 L285,562 L190,707 L378,707 M324,514 Q437,514 501,437.5 Q565,361 545,251 Q541,221 528,189 L185,189 Q199,128 281,128 Q341,128 380,164 L486,67 Q399,-14 268,-14 Q138,-14 72.5,65 Q7,144 26,260 Q44,370 128,442 Q212,514 324,514 M205,305 L394,305 Q389,374 315,374 Q241,374 205,305"/> 
            <glyph glyph-name="é" unicode="&#xE9;" horiz-adv-x="565" d=" M558,707 L422,562 L259,562 L360,707 M324,514 Q437,514 501,437.5 Q565,361 545,251 Q541,221 528,189 L185,189 Q199,128 281,128 Q341,128 380,164 L486,67 Q399,-14 268,-14 Q138,-14 72.5,65 Q7,144 26,260 Q44,370 128,442 Q212,514 324,514 M205,305 L394,305 Q389,374 315,374 Q241,374 205,305"/> 
            <glyph glyph-name="ê" unicode="&#xEA;" horiz-adv-x="565" d=" M354,608 L304,552 L153,552 L286,707 L453,707 L532,552 L383,552 M324,514 Q437,514 501,437.5 Q565,361 545,251 Q541,221 528,189 L185,189 Q199,128 281,128 Q341,128 380,164 L486,67 Q399,-14 268,-14 Q138,-14 72.5,65 Q7,144 26,260 Q44,370 128,442 Q212,514 324,514 M205,305 L394,305 Q389,374 315,374 Q241,374 205,305"/> 
            <glyph glyph-name="ë" unicode="&#xEB;" horiz-adv-x="565" d=" M281,542 Q215,542 196,565.5 Q177,589 182,622 Q187,655 215,678.5 Q243,702 276,702 Q308,702 327.5,678.5 Q347,655 341,622 Q336,589 281,542 M442,542 Q410,542 390.5,565.5 Q371,589 377,622 Q382,655 409.5,678.5 Q437,702 470,702 Q503,702 522,678.5 Q541,655 536,622 Q531,589 503,565.5 Q475,542 442,542 M324,514 Q437,514 501,437.5 Q565,361 545,251 Q541,221 528,189 L185,189 Q199,128 281,128 Q341,128 380,164 L486,67 Q399,-14 268,-14 Q138,-14 72.5,65 Q7,144 26,260 Q44,370 128,442 Q212,514 324,514 M205,305 L394,305 Q389,374 315,374 Q241,374 205,305"/> 
            <glyph glyph-name="ì" unicode="&#xEC;" horiz-adv-x="262" d=" M262,550 L241,700 L60,700 L107,550 M170,0 L4,0 L92,500 L258,500"/> 
            <glyph glyph-name="í" unicode="&#xED;" horiz-adv-x="356" d=" M101,550 L259,550 L356,700 L167,700 M4,0 L92,500 L258,500 L170,0"/> 
            <glyph glyph-name="î" unicode="&#xEE;" horiz-adv-x="358" d=" M195,593 L158,545 L8,545 L127,700 L293,700 L358,545 L217,545 M4,0 L92,500 L258,500 L170,0"/> 
            <glyph glyph-name="ï" unicode="&#xEF;" horiz-adv-x="368" d=" M125,543 Q61,543 42.5,566 Q24,589 30,620 Q35,651 61.5,674 Q88,697 120,697 Q152,697 171,674.5 Q190,652 184,620 Q179,588 125,543 M303,543 Q241,543 222,565.5 Q203,588 208,620 Q214,652 241,674.5 Q268,697 299,697 Q330,697 349,674.5 Q368,652 363,620 Q357,588 303,543 M4,0 L92,500 L258,500 L170,0"/> 
            <glyph glyph-name="ð" unicode="&#xF0;" horiz-adv-x="549" d=" M509,365 Q549,297 536,220 Q518,111 437.5,48.5 Q357,-14 248,-14 Q137,-14 69.5,56.5 Q2,127 22,240 Q38,330 107.5,390 Q177,450 268,455 L239,510 L98,460 L119,581 L187,605 L136,700 L316,700 L339,660 L484,712 L463,590 L394,565 M370,228 Q375,258 363,280 Q341,314 294,314 Q253,314 223.5,291 Q194,268 187,228 Q180,186 200.5,162 Q221,138 263,138 Q304,138 333.5,162 Q363,186 370,228"/> 
            <glyph glyph-name="ñ" unicode="&#xF1;" horiz-adv-x="563" d=" M339,578 Q318,594 302.5,591.5 Q287,589 282,558 L161,558 Q167,618 189,657 Q211,696 242,709.5 Q273,723 306,721 Q339,719 369,701 Q386,691 395.5,687.5 Q405,684 413.5,691.5 Q422,699 426,720 L548,720 Q542,660 519,621 Q496,582 465.5,568.5 Q435,555 402,557.5 Q369,560 339,578 M395,514 Q476,514 519.5,457.5 Q563,401 546,299 L493,0 L327,0 L376,278 Q382,318 365,337.5 Q348,357 314,357 Q276,357 250.5,334 Q225,311 217,266 L217,267 L170,0 L4,0 L92,500 L258,500 L249,449 Q306,514 395,514"/> 
            <glyph glyph-name="ò" unicode="&#xF2;" horiz-adv-x="575" d=" M437,565 L376,710 L188,710 L283,565 M258,-14 Q173,-14 114.5,28.5 Q56,71 35,134 Q14,197 27,266 Q47,370 127.5,442 Q208,514 329,514 Q449,514 512,428.5 Q575,343 556,236 Q538,134 456,60 Q374,-14 258,-14 M271,146 Q315,146 348,175 Q381,204 389,250 Q397,296 374.5,325 Q352,354 308,354 Q265,354 232,325 Q199,296 191,250 Q183,204 205.5,175 Q228,146 271,146"/> 
            <glyph glyph-name="ó" unicode="&#xF3;" horiz-adv-x="575" d=" M257,565 L420,565 L556,710 L358,710 M258,-14 Q173,-14 114.5,28.5 Q56,71 35,134 Q14,197 27,266 Q47,370 127.5,442 Q208,514 329,514 Q449,514 512,428.5 Q575,343 556,236 Q538,134 456,60 Q374,-14 258,-14 M271,146 Q315,146 348,175 Q381,204 389,250 Q397,296 374.5,325 Q352,354 308,354 Q265,354 232,325 Q199,296 191,250 Q183,204 205.5,175 Q228,146 271,146"/> 
            <glyph glyph-name="ô" unicode="&#xF4;" horiz-adv-x="575" d=" M352,611 L302,555 L151,555 L284,710 L451,710 L530,555 L381,555 M329,514 Q449,514 512,428.5 Q575,343 556,236 Q538,134 456,60 Q374,-14 258,-14 Q173,-14 114.5,28.5 Q56,71 35,134 Q14,197 27,266 Q47,370 127.5,442 Q208,514 329,514 M381,204 Q397,296 374.5,325 Q352,354 308,354 Q265,354 232,325 Q199,296 191,250 Q183,204 205.5,175 Q228,146 271,146 Q315,146 381,204"/> 
            <glyph glyph-name="õ" unicode="&#xF5;" horiz-adv-x="575" d=" M167,558 Q173,618 195,657 Q217,696 248,709.5 Q279,723 312,721 Q345,719 375,701 Q392,691 401.5,687.5 Q411,684 419.5,691.5 Q428,699 432,720 L554,720 Q548,660 525,621 Q502,582 471.5,568.5 Q441,555 408,557.5 Q375,560 345,578 Q324,594 308.5,591.5 Q293,589 288,558 M258,-14 Q173,-14 114.5,28.5 Q56,71 35,134 Q14,197 27,266 Q47,370 127.5,442 Q208,514 329,514 Q449,514 512,428.5 Q575,343 556,236 Q538,134 456,60 Q374,-14 258,-14 M271,146 Q315,146 348,175 Q381,204 389,250 Q397,296 374.5,325 Q352,354 308,354 Q265,354 232,325 Q199,296 191,250 Q183,204 205.5,175 Q228,146 271,146"/> 
            <glyph glyph-name="ö" unicode="&#xF6;" horiz-adv-x="575" d=" M279,545 Q213,545 194,568.5 Q175,592 180,625 Q185,658 213,681.5 Q241,705 274,705 Q306,705 325.5,681.5 Q345,658 339,625 Q334,592 279,545 M440,545 Q408,545 388.5,568.5 Q369,592 375,625 Q380,658 407.5,681.5 Q435,705 468,705 Q501,705 520,681.5 Q539,658 534,625 Q529,592 501,568.5 Q473,545 440,545 M258,-14 Q173,-14 114.5,28.5 Q56,71 35,134 Q14,197 27,266 Q47,370 127.5,442 Q208,514 329,514 Q449,514 512,428.5 Q575,343 556,236 Q538,134 456,60 Q374,-14 258,-14 M271,146 Q315,146 348,175 Q381,204 389,250 Q397,296 374.5,325 Q352,354 308,354 Q265,354 232,325 Q199,296 191,250 Q183,204 205.5,175 Q228,146 271,146"/> 
            <glyph glyph-name="÷" unicode="&#xF7;" horiz-adv-x="547" d=" M314,459 Q274,459 250.5,487.5 Q227,516 234,556 Q242,597 273,623 Q304,649 344,649 Q384,649 407.5,620.5 Q431,592 423,552 Q416,512 385.5,485.5 Q355,459 314,459 M39,271 L67,429 L547,429 L519,271 M282,51 Q202,51 178.5,79.5 Q155,108 162,148 Q169,188 200.5,214.5 Q232,241 272,241 Q312,241 335.5,212.5 Q359,184 352,144 Q344,103 282,51"/> 
            <glyph glyph-name="ø" unicode="&#xF8;" horiz-adv-x="575" d=" M562,477 L513,427 Q575,345 556,236 Q538,133 457.5,59.5 Q377,-14 258,-14 Q178,-14 119,25 L83,-12 L20,22 L69,72 Q6,155 27,266 Q47,370 127.5,442 Q208,514 329,514 Q404,514 463,475 L499,512 M193,250 Q188,220 195,201 L340,350 Q322,354 310,354 Q266,354 233.5,325 Q201,296 193,250 M391,250 Q395,278 389,300 L242,151 Q259,146 273,146 Q317,146 350,175 Q383,204 391,250"/> 
            <glyph glyph-name="ù" unicode="&#xF9;" horiz-adv-x="574" d=" M425,555 L271,555 L176,700 L364,700 M408,500 L574,500 L486,0 L320,0 L329,51 Q272,-14 183,-14 Q102,-14 58.5,42.5 Q15,99 32,201 L85,500 L251,500 L202,222 Q196,182 213,162.5 Q230,143 264,143 Q302,143 327.5,166 Q353,189 361,234 L361,233"/> 
            <glyph glyph-name="ú" unicode="&#xFA;" horiz-adv-x="574" d=" M544,700 L408,555 L245,555 L346,700 M408,500 L574,500 L486,0 L320,0 L329,51 Q272,-14 183,-14 Q102,-14 58.5,42.5 Q15,99 32,201 L85,500 L251,500 L202,222 Q196,182 213,162.5 Q230,143 264,143 Q302,143 327.5,166 Q353,189 361,234 L361,233"/> 
            <glyph glyph-name="û" unicode="&#xFB;" horiz-adv-x="574" d=" M340,601 L290,545 L139,545 L272,700 L439,700 L518,545 L369,545 M408,500 L574,500 L486,0 L320,0 L329,51 Q272,-14 183,-14 Q102,-14 58.5,42.5 Q15,99 32,201 L85,500 L251,500 L202,222 Q196,182 213,162.5 Q230,143 264,143 Q302,143 327.5,166 Q353,189 361,234 L361,233"/> 
            <glyph glyph-name="ü" unicode="&#xFC;" horiz-adv-x="574" d=" M267,535 Q201,535 182,558.5 Q163,582 168,615 Q173,648 201,671.5 Q229,695 262,695 Q294,695 313.5,671.5 Q333,648 327,615 Q322,582 267,535 M428,535 Q396,535 376.5,558.5 Q357,582 363,615 Q368,648 395.5,671.5 Q423,695 456,695 Q489,695 508,671.5 Q527,648 522,615 Q517,582 489,558.5 Q461,535 428,535 M408,500 L574,500 L486,0 L320,0 L329,51 Q272,-14 183,-14 Q102,-14 58.5,42.5 Q15,99 32,201 L85,500 L251,500 L202,222 Q196,182 213,162.5 Q230,143 264,143 Q302,143 327.5,166 Q353,189 361,234 L361,233"/> 
            <glyph glyph-name="ý" unicode="&#xFD;" horiz-adv-x="593" d=" M526,700 L390,555 L227,555 L328,700 M402,500 L593,500 L339,15 Q274,-110 191,-159.5 Q108,-209 -3,-200 L25,-44 Q79,-44 106,-30.5 Q133,-17 156,20 L44,500 L220,500 L272,211"/> 
            <glyph glyph-name="þ" unicode="&#xFE;" horiz-adv-x="607" d=" M393,514 Q496,514 551.5,432.5 Q607,351 589,240 Q571,132 499.5,59 Q428,-14 323,-14 Q225,-14 180,57 L135,-200 L-31,-200 L127,700 L293,700 L251,459 Q308,514 393,514 M423,250 Q432,300 409,329.5 Q386,359 339,359 Q292,359 257.5,329.5 Q223,300 214,250 Q206,200 229.5,170.5 Q253,141 300,141 Q347,141 381,170.5 Q415,200 423,250"/> 
            <glyph glyph-name="ÿ" unicode="&#xFF;" horiz-adv-x="593" d=" M249,535 Q183,535 164,558.5 Q145,582 150,615 Q155,648 183,671.5 Q211,695 244,695 Q276,695 295.5,671.5 Q315,648 309,615 Q304,582 249,535 M410,535 Q378,535 358.5,558.5 Q339,582 345,615 Q350,648 377.5,671.5 Q405,695 438,695 Q471,695 490,671.5 Q509,648 504,615 Q499,582 471,558.5 Q443,535 410,535 M402,500 L593,500 L339,15 Q274,-110 191,-159.5 Q108,-209 -3,-200 L25,-44 Q79,-44 106,-30.5 Q133,-17 156,20 L44,500 L220,500 L272,211"/> 
            <glyph glyph-name="Ā" unicode="&#x100;" horiz-adv-x="631" d=" M601,884 L578,754 L269,754 L291,884 M440,0 L429,101 L196,101 L148,0 L-49,0 L305,700 L523,700 L631,0 M270,255 L412,255 L386,497"/> 
            <glyph glyph-name="ā" unicode="&#x101;" horiz-adv-x="611" d=" M529,684 L506,554 L197,554 L219,684 M445,500 L611,500 L523,0 L357,0 L364,39 Q306,-14 218,-14 Q111,-14 59.5,67 Q8,148 26,257 Q43,363 116,438.5 Q189,514 297,514 Q393,514 435,445 M230,141 Q324,141 358,170 Q392,199 401,247 L401,250 Q409,299 386,329 Q363,359 315,359 Q268,359 234,329 Q200,299 192,250 Q184,201 230,141"/> 
            <glyph glyph-name="Ă" unicode="&#x102;" horiz-adv-x="631" d=" M430,737 Q345,737 300.5,781 Q256,825 270,897 L410,897 Q402,853 442,853 Q481,853 489,897 L629,897 Q604,737 430,737 M440,0 L429,101 L196,101 L148,0 L-49,0 L305,700 L523,700 L631,0 M270,255 L412,255 L386,497"/> 
            <glyph glyph-name="ă" unicode="&#x103;" horiz-adv-x="611" d=" M358,537 Q273,537 228.5,581 Q184,625 198,697 L338,697 Q330,653 370,653 Q409,653 417,697 L557,697 Q532,537 358,537 M445,500 L611,500 L523,0 L357,0 L364,39 Q306,-14 218,-14 Q111,-14 59.5,67 Q8,148 26,257 Q43,363 116,438.5 Q189,514 297,514 Q393,514 435,445 M230,141 Q324,141 358,170 Q392,199 401,247 L401,250 Q409,299 386,329 Q363,359 315,359 Q268,359 234,329 Q200,299 192,250 Q184,201 230,141"/> 
            <glyph glyph-name="Ą" unicode="&#x104;" horiz-adv-x="631" d=" M575,-75 Q570,-99 593,-99 Q603,-99 615,-96 L596,-197 Q551,-214 505,-214 Q460,-214 434,-187.5 Q408,-161 417,-116 Q428,-55 497,0 L440,0 L429,101 L196,101 L148,0 L-49,0 L305,700 L523,700 L631,0 Q582,-44 575,-75 M270,255 L412,255 L386,497"/> 
            <glyph glyph-name="ą" unicode="&#x105;" horiz-adv-x="611" d=" M445,500 L611,500 L523,0 Q469,-49 466,-82 Q463,-101 484,-101 Q494,-101 506,-98 L488,-197 Q450,-214 403,-214 Q357,-214 330.5,-191.5 Q304,-169 308,-129 Q311,-65 392,0 L357,0 L364,39 Q306,-14 218,-14 Q111,-14 59.5,67 Q8,148 26,257 Q43,363 116,438.5 Q189,514 297,514 Q393,514 435,445 M230,141 Q324,141 358,170 Q392,199 401,247 L401,250 Q409,299 386,329 Q363,359 315,359 Q268,359 234,329 Q200,299 192,250 Q184,201 230,141"/> 
            <glyph glyph-name="Ć" unicode="&#x106;" horiz-adv-x="746" d=" M394,765 L557,765 L693,910 L495,910 M359,-15 Q198,-15 109.5,93 Q21,201 47,360 Q72,515 188.5,615 Q305,715 460,715 Q563,715 635.5,670.5 Q708,626 746,548 L582,461 Q542,540 443,540 Q361,540 300.5,487.5 Q240,435 225,350 Q211,267 251,213.5 Q291,160 371,160 Q472,160 535,244 L682,149 Q626,71 541.5,28 Q457,-15 359,-15"/> 
            <glyph glyph-name="ć" unicode="&#x107;" horiz-adv-x="543" d=" M244,560 L407,560 L543,705 L345,705 M260,-14 Q140,-14 74,65 Q8,144 26,260 Q44,371 128,442.5 Q212,514 324,514 Q403,514 457.5,478.5 Q512,443 539,383 L388,304 Q366,352 310,352 Q266,352 232.5,324 Q199,296 192,251 Q184,206 207.5,177 Q231,148 273,148 Q331,148 366,198 L498,114 Q460,51 397,18.5 Q334,-14 260,-14"/> 
            <glyph glyph-name="Ċ" unicode="&#x10A;" horiz-adv-x="746" d=" M482,753 Q445,753 423,779.5 Q401,806 408,842 Q415,879 445.5,905.5 Q476,932 513,932 Q550,932 572,905.5 Q594,879 588,842 Q580,806 549,779.5 Q518,753 482,753 M359,-15 Q198,-15 109.5,93 Q21,201 47,360 Q72,515 188.5,615 Q305,715 460,715 Q563,715 635.5,670.5 Q708,626 746,548 L582,461 Q542,540 443,540 Q361,540 300.5,487.5 Q240,435 225,350 Q211,267 251,213.5 Q291,160 371,160 Q472,160 535,244 L682,149 Q626,71 541.5,28 Q457,-15 359,-15"/> 
            <glyph glyph-name="ċ" unicode="&#x10B;" horiz-adv-x="539" d=" M332,548 Q295,548 273,574.5 Q251,601 258,637 Q265,674 295.5,700.5 Q326,727 363,727 Q400,727 422,700.5 Q444,674 438,637 Q430,601 399,574.5 Q368,548 332,548 M260,-14 Q140,-14 74,65 Q8,144 26,260 Q44,371 128,442.5 Q212,514 324,514 Q403,514 457.5,478.5 Q512,443 539,383 L388,304 Q366,352 310,352 Q266,352 232.5,324 Q199,296 192,251 Q184,206 207.5,177 Q231,148 273,148 Q331,148 366,198 L498,114 Q460,51 397,18.5 Q334,-14 260,-14"/> 
            <glyph glyph-name="Č" unicode="&#x10C;" horiz-adv-x="746" d=" M394,755 L315,910 L460,910 L490,854 L539,910 L694,910 L561,755 M371,160 Q472,160 535,244 L682,149 Q626,71 541.5,28 Q457,-15 359,-15 Q198,-15 109.5,93 Q21,201 47,360 Q72,515 188.5,615 Q305,715 460,715 Q563,715 635.5,670.5 Q708,626 746,548 L582,461 Q542,540 443,540 Q361,540 300.5,487.5 Q240,435 225,350 Q211,267 251,213.5 Q291,160 371,160"/> 
            <glyph glyph-name="č" unicode="&#x10D;" horiz-adv-x="544" d=" M244,550 L165,705 L310,705 L340,649 L389,705 L544,705 L411,550 M310,352 Q266,352 232.5,324 Q199,296 192,251 Q184,206 207.5,177 Q231,148 273,148 Q331,148 366,198 L498,114 Q460,51 397,18.5 Q334,-14 260,-14 Q140,-14 74,65 Q8,144 26,260 Q44,371 128,442.5 Q212,514 324,514 Q403,514 457.5,478.5 Q512,443 539,383 L388,304 Q366,352 310,352"/> 
            <glyph glyph-name="Ď" unicode="&#x10E;" horiz-adv-x="723" d=" M319,745 L240,900 L385,900 L415,844 L464,900 L619,900 L486,745 M419,700 Q557,700 640,594 Q723,488 697,340 Q670,190 560,95 Q450,0 296,0 L11,0 L134,700 M523,353 Q536,432 499,479.5 Q462,527 389,527 L288,527 L225,173 L321,173 Q397,173 452.5,222.5 Q508,272 523,353"/> 
            <glyph glyph-name="ď" unicode="&#x10F;" horiz-adv-x="852" d=" M436,444 L481,700 L647,700 L524,0 L358,0 L365,40 Q306,-14 218,-14 Q111,-14 59.5,67 Q8,148 26,257 Q43,363 116,438.5 Q189,514 297,514 Q393,514 436,444 M698,700 L852,700 L779,481 L649,481 M278,141 Q324,141 357.5,169 Q391,197 401,244 L403,254 Q410,302 386.5,330.5 Q363,359 316,359 Q269,359 234.5,329 Q200,299 192,250 Q184,201 207.5,171 Q231,141 278,141"/> 
            <glyph glyph-name="Đ" unicode="&#x110;" horiz-adv-x="753" d=" M449,700 Q587,700 670,594 Q753,488 727,340 Q700,190 590,95 Q480,0 326,0 L41,0 L87,263 L13,263 L41,421 L115,421 L164,700 M553,353 Q566,432 529,479.5 Q492,527 419,527 L318,527 L299,421 L431,421 L403,263 L271,263 L255,173 L351,173 Q427,173 482.5,222.5 Q538,272 553,353"/> 
            <glyph glyph-name="đ" unicode="&#x111;" horiz-adv-x="695" d=" M695,645 L676,539 L619,539 L524,0 L358,0 L365,37 Q308,-14 219,-14 Q110,-14 57.5,66 Q5,146 25,256 Q43,360 117,432.5 Q191,505 296,505 Q392,505 435,436 L453,539 L316,539 L335,645 L471,645 L481,700 L647,700 L637,645 M191,245 Q182,197 206,168 Q230,139 277,139 Q324,139 358,168 Q392,197 401,245 Q409,294 385.5,323 Q362,352 315,352 Q268,352 233.5,322.5 Q199,293 191,245"/> 
            <glyph glyph-name="Ē" unicode="&#x112;" horiz-adv-x="579" d=" M544,884 L521,754 L212,754 L234,884 M549,533 L284,533 L266,435 L508,435 L478,271 L238,271 L220,168 L490,168 L461,0 L11,0 L134,700 L579,700"/> 
            <glyph glyph-name="ē" unicode="&#x113;" horiz-adv-x="565" d=" M526,691 L503,561 L194,561 L216,691 M324,514 Q437,514 501,437.5 Q565,361 545,251 Q541,221 528,189 L185,189 Q199,128 281,128 Q341,128 380,164 L486,67 Q399,-14 268,-14 Q138,-14 72.5,65 Q7,144 26,260 Q44,370 128,442 Q212,514 324,514 M205,305 L394,305 Q389,374 315,374 Q241,374 205,305"/> 
            <glyph glyph-name="Ė" unicode="&#x116;" horiz-adv-x="579" d=" M365,743 Q328,743 306,769.5 Q284,796 291,832 Q298,869 328.5,895.5 Q359,922 396,922 Q433,922 455,895.5 Q477,869 471,832 Q463,796 432,769.5 Q401,743 365,743 M549,533 L284,533 L266,435 L508,435 L478,271 L238,271 L220,168 L490,168 L461,0 L11,0 L134,700 L579,700"/> 
            <glyph glyph-name="ė" unicode="&#x117;" horiz-adv-x="565" d=" M347,550 Q310,550 288,576.5 Q266,603 273,639 Q280,676 310.5,702.5 Q341,729 378,729 Q415,729 437,702.5 Q459,676 453,639 Q445,603 414,576.5 Q383,550 347,550 M324,514 Q437,514 501,437.5 Q565,361 545,251 Q541,221 528,189 L185,189 Q199,128 281,128 Q341,128 380,164 L486,67 Q399,-14 268,-14 Q138,-14 72.5,65 Q7,144 26,260 Q44,370 128,442 Q212,514 324,514 M205,305 L394,305 Q389,374 315,374 Q241,374 205,305"/> 
            <glyph glyph-name="Ę" unicode="&#x118;" horiz-adv-x="579" d=" M549,533 L284,533 L266,435 L508,435 L478,271 L238,271 L220,168 L490,168 L461,0 Q409,-48 404,-78 Q399,-101 421,-101 Q427,-102 444,-98 L426,-197 Q381,-214 335,-214 Q289,-214 263.5,-191 Q238,-168 246,-123 Q257,-65 330,0 L11,0 L134,700 L579,700"/> 
            <glyph glyph-name="ę" unicode="&#x119;" horiz-adv-x="565" d=" M324,514 Q437,514 501,437.5 Q565,361 545,251 Q541,221 528,189 L185,189 Q199,128 281,128 Q341,128 380,164 L486,67 Q466,49 455,41 Q412,9 385,-22 Q358,-53 352,-73 Q343,-101 371,-101 Q380,-101 391,-98 L373,-197 Q333,-214 289,-214 Q235,-214 210,-187.5 Q185,-161 193,-120 Q202,-69 269,-14 L268,-14 Q138,-14 72.5,65 Q7,144 26,260 Q44,370 128,442 Q212,514 324,514 M205,305 L394,305 Q389,374 315,374 Q241,374 205,305"/> 
            <glyph glyph-name="Ě" unicode="&#x11A;" horiz-adv-x="579" d=" M277,745 L198,900 L343,900 L373,844 L422,900 L577,900 L444,745 M549,533 L284,533 L266,435 L508,435 L478,271 L238,271 L220,168 L490,168 L461,0 L11,0 L134,700 L579,700"/> 
            <glyph glyph-name="ě" unicode="&#x11B;" horiz-adv-x="565" d=" M259,552 L180,707 L325,707 L355,651 L404,707 L559,707 L426,552 M324,514 Q437,514 501,437.5 Q565,361 545,251 Q541,221 528,189 L185,189 Q199,128 281,128 Q341,128 380,164 L486,67 Q399,-14 268,-14 Q138,-14 72.5,65 Q7,144 26,260 Q44,370 128,442 Q212,514 324,514 M205,305 L394,305 Q389,374 315,374 Q241,374 205,305"/> 
            <glyph glyph-name="Ğ" unicode="&#x11E;" horiz-adv-x="777" d=" M490,747 Q405,747 360.5,791 Q316,835 330,907 L470,907 Q462,863 502,863 Q541,863 549,907 L689,907 Q664,747 490,747 M777,401 L765,330 Q739,171 630,78 Q521,-15 362,-15 Q199,-15 110,93.5 Q21,202 47,360 Q73,515 189,615 Q305,715 461,715 Q564,715 639,671 Q714,627 754,550 L590,462 Q546,540 443,540 Q361,540 300.5,487.5 Q240,435 225,350 Q210,266 252,210.5 Q294,155 378,155 Q507,155 559,247 L397,247 L424,401"/> 
            <glyph glyph-name="ğ" unicode="&#x11F;" horiz-adv-x="615" d=" M361,547 Q276,547 231.5,591 Q187,635 201,707 L341,707 Q333,663 373,663 Q412,663 420,707 L560,707 Q535,547 361,547 M451,500 L615,500 L530,20 Q509,-101 428.5,-158 Q348,-215 235,-215 Q151,-215 89,-184 Q27,-153 1,-93 L148,-16 Q176,-70 250,-70 Q296,-70 327,-47.5 Q358,-25 366,20 L373,58 Q314,6 231,6 Q156,6 106,44.5 Q56,83 38.5,141 Q21,199 31,267 Q46,367 118.5,440.5 Q191,514 300,514 Q397,514 441,441 M284,157 Q328,157 362,183 Q396,209 407,250 L410,270 Q414,311 389.5,337 Q365,363 321,363 Q274,363 239.5,334 Q205,305 197,260 Q189,215 213,186 Q237,157 284,157"/> 
            <glyph glyph-name="Ġ" unicode="&#x120;" horiz-adv-x="777" d=" M482,753 Q445,753 423,779.5 Q401,806 408,842 Q415,879 445.5,905.5 Q476,932 513,932 Q550,932 572,905.5 Q594,879 588,842 Q580,806 549,779.5 Q518,753 482,753 M777,401 L765,330 Q739,171 630,78 Q521,-15 362,-15 Q199,-15 110,93.5 Q21,202 47,360 Q73,515 189,615 Q305,715 461,715 Q564,715 639,671 Q714,627 754,550 L590,462 Q546,540 443,540 Q361,540 300.5,487.5 Q240,435 225,350 Q210,266 252,210.5 Q294,155 378,155 Q507,155 559,247 L397,247 L424,401"/> 
            <glyph glyph-name="ġ" unicode="&#x121;" horiz-adv-x="615" d=" M353,553 Q316,553 294,579.5 Q272,606 279,642 Q286,679 316.5,705.5 Q347,732 384,732 Q421,732 443,705.5 Q465,679 459,642 Q451,606 420,579.5 Q389,553 353,553 M451,500 L615,500 L530,20 Q509,-101 428.5,-158 Q348,-215 235,-215 Q151,-215 89,-184 Q27,-153 1,-93 L148,-16 Q176,-70 250,-70 Q296,-70 327,-47.5 Q358,-25 366,20 L373,58 Q314,6 231,6 Q156,6 106,44.5 Q56,83 38.5,141 Q21,199 31,267 Q46,367 118.5,440.5 Q191,514 300,514 Q397,514 441,441 M284,157 Q328,157 362,183 Q396,209 407,250 L410,270 Q414,311 389.5,337 Q365,363 321,363 Q274,363 239.5,334 Q205,305 197,260 Q189,215 213,186 Q237,157 284,157"/> 
            <glyph glyph-name="Ģ" unicode="&#x122;" horiz-adv-x="777" d=" M777,401 L765,330 Q739,171 630,78 Q521,-15 362,-15 Q199,-15 110,93.5 Q21,202 47,360 Q73,515 189,615 Q305,715 461,715 Q564,715 639,671 Q714,627 754,550 L590,462 Q546,540 443,540 Q361,540 300.5,487.5 Q240,435 225,350 Q210,266 252,210.5 Q294,155 378,155 Q507,155 559,247 L397,247 L424,401 M224,-277 L272,-57 L426,-57 L353,-277"/> 
            <glyph glyph-name="ģ" unicode="&#x123;" horiz-adv-x="615" d=" M471,795 L422,575 L268,575 L342,795 M451,500 L615,500 L530,20 Q509,-101 428.5,-158 Q348,-215 235,-215 Q151,-215 89,-184 Q27,-153 1,-93 L148,-16 Q176,-70 250,-70 Q296,-70 327,-47.5 Q358,-25 366,20 L373,58 Q314,6 231,6 Q156,6 106,44.5 Q56,83 38.5,141 Q21,199 31,267 Q46,367 118.5,440.5 Q191,514 300,514 Q397,514 441,441 M284,157 Q328,157 362,183 Q396,209 407,250 L410,270 Q414,311 389.5,337 Q365,363 321,363 Q274,363 239.5,334 Q205,305 197,260 Q189,215 213,186 Q237,157 284,157"/> 
            <glyph glyph-name="Ħ" unicode="&#x126;" horiz-adv-x="752" d=" M752,608 L730,478 L669,478 L585,0 L407,0 L446,220 L249,220 L210,0 L31,0 L115,478 L56,478 L78,608 L138,608 L154,700 L333,700 L317,608 L514,608 L530,700 L708,700 L692,608 M476,393 L491,478 L294,478 L279,393"/> 
            <glyph glyph-name="ħ" unicode="&#x127;" horiz-adv-x="571" d=" M402,502 Q483,502 527,445.5 Q571,389 553,287 L503,0 L337,0 L383,266 Q390,306 373,326 Q356,346 321,346 Q248,346 227,268 L180,0 L14,0 L109,539 L51,539 L70,645 L127,645 L137,700 L303,700 L293,645 L429,645 L410,539 L275,539 L257,438 Q315,502 402,502"/> 
            <glyph glyph-name="Ī" unicode="&#x12A;" horiz-adv-x="411" d=" M79,754 L101,884 L411,884 L388,754 M134,700 L313,700 L190,0 L11,0"/> 
            <glyph glyph-name="ī" unicode="&#x12B;" horiz-adv-x="338" d=" M56,554 L79,689 L338,689 L315,554 M4,0 L92,500 L258,500 L170,0"/> 
            <glyph glyph-name="Į" unicode="&#x12E;" horiz-adv-x="313" d=" M190,0 Q143,-49 140,-79 Q137,-101 159,-101 Q165,-102 181,-98 L163,-197 Q118,-214 72,-214 Q26,-214 1.5,-187.5 Q-23,-161 -17,-119 Q-8,-60 58,0 L11,0 L134,700 L313,700"/> 
            <glyph glyph-name="į" unicode="&#x12F;" horiz-adv-x="302" d=" M215,732 Q255,732 278.5,704 Q302,676 295,637 Q289,597 257,569 Q225,541 184,541 Q145,541 121,569.5 Q97,598 104,637 Q110,675 142,703.5 Q174,732 215,732 M4,0 L92,500 L258,500 L170,0 Q128,-48 124,-79 Q121,-101 142,-101 Q148,-102 164,-98 L146,-197 Q103,-214 55,-214 Q10,-214 -14.5,-188 Q-39,-162 -34,-122 Q-29,-70 32,0"/> 
            <glyph glyph-name="İ" unicode="&#x130;" horiz-adv-x="344" d=" M232,743 Q195,743 173,769.5 Q151,796 158,832 Q165,869 195.5,895.5 Q226,922 263,922 Q300,922 322,895.5 Q344,869 338,832 Q330,796 299,769.5 Q268,743 232,743 M134,700 L313,700 L190,0 L11,0"/> 
            <glyph glyph-name="ı" unicode="&#x131;" horiz-adv-x="258" d=" M4,0 L92,500 L258,500 L170,0"/> 
            <glyph glyph-name="Ķ" unicode="&#x136;" horiz-adv-x="711" d=" M711,700 L413,352 L591,0 L406,0 L246,319 L190,0 L11,0 L134,700 L313,700 L263,416 L502,700 M138,-277 L186,-57 L340,-57 L267,-277"/> 
            <glyph glyph-name="ķ" unicode="&#x137;" horiz-adv-x="573" d=" M573,500 L363,249 L493,0 L315,0 L209,220 L170,0 L4,0 L127,700 L293,700 L223,302 L382,500 M111,-277 L159,-57 L313,-57 L240,-277"/> 
            <glyph glyph-name="Ĺ" unicode="&#x139;" horiz-adv-x="461" d=" M450,900 L314,755 L151,755 L252,900 M220,173 L461,173 L431,0 L11,0 L134,700 L313,700"/> 
            <glyph glyph-name="ĺ" unicode="&#x13A;" horiz-adv-x="437" d=" M138,760 L301,760 L437,905 L239,905 M5,0 L61,321 L133,730 L299,730 L227,316 L171,0"/> 
            <glyph glyph-name="Ļ" unicode="&#x13B;" horiz-adv-x="461" d=" M220,173 L461,173 L431,0 L11,0 L134,700 L313,700 M89,-277 L137,-57 L291,-57 L218,-277"/> 
            <glyph glyph-name="ļ" unicode="&#x13C;" horiz-adv-x="299" d=" M5,0 L61,321 L133,730 L299,730 L227,316 L171,0 M81,-277 L154,-57 L0,-57 L-48,-277"/> 
            <glyph glyph-name="Ľ" unicode="&#x13D;" horiz-adv-x="535" d=" M313,700 L220,173 L461,173 L431,0 L11,0 L134,700 M371,700 L535,700 L466,501 L327,501"/> 
            <glyph glyph-name="ľ" unicode="&#x13E;" horiz-adv-x="497" d=" M5,0 L61,321 L133,730 L299,730 L227,316 L171,0 M423,511 L497,730 L343,730 L294,511"/> 
            <glyph glyph-name="Ł" unicode="&#x141;" horiz-adv-x="491" d=" M250,173 L491,173 L461,0 L41,0 L76,199 L10,163 L41,340 L107,376 L164,700 L343,700 L305,485 L438,558 L407,381 L274,308"/> 
            <glyph glyph-name="ł" unicode="&#x142;" horiz-adv-x="319" d=" M319,507 L292,350 L235,318 L235,316 L179,0 L13,0 L50,212 L-7,179 L21,336 L77,368 L141,730 L307,730 L263,475"/> 
            <glyph glyph-name="Ń" unicode="&#x143;" horiz-adv-x="698" d=" M336,755 L499,755 L635,900 L437,900 M11,0 L134,700 L273,700 L455,334 L520,700 L698,700 L575,0 L437,0 L255,366 L190,0"/> 
            <glyph glyph-name="ń" unicode="&#x144;" horiz-adv-x="563" d=" M550,710 L414,565 L251,565 L352,710 M395,514 Q476,514 519.5,457.5 Q563,401 546,299 L493,0 L327,0 L376,278 Q382,318 365,337.5 Q348,357 314,357 Q276,357 250.5,334 Q225,311 217,266 L217,267 L170,0 L4,0 L92,500 L258,500 L249,449 Q306,514 395,514"/> 
            <glyph glyph-name="Ņ" unicode="&#x145;" horiz-adv-x="698" d=" M11,0 L134,700 L273,700 L455,334 L520,700 L698,700 L575,0 L437,0 L255,366 L190,0 M297,-277 L370,-57 L216,-57 L168,-277"/> 
            <glyph glyph-name="ņ" unicode="&#x146;" horiz-adv-x="563" d=" M395,514 Q476,514 519.5,457.5 Q563,401 546,299 L493,0 L327,0 L376,278 Q382,318 365,337.5 Q348,357 314,357 Q276,357 250.5,334 Q225,311 217,266 L217,267 L170,0 L4,0 L92,500 L258,500 L249,449 Q306,514 395,514 M124,-277 L172,-57 L326,-57 L253,-277"/> 
            <glyph glyph-name="Ň" unicode="&#x147;" horiz-adv-x="698" d=" M336,745 L257,900 L402,900 L432,844 L481,900 L636,900 L503,745 M520,700 L698,700 L575,0 L437,0 L255,366 L190,0 L11,0 L134,700 L273,700 L455,334"/> 
            <glyph glyph-name="ň" unicode="&#x148;" horiz-adv-x="563" d=" M251,555 L172,710 L317,710 L347,654 L396,710 L551,710 L418,555 M395,514 Q476,514 519.5,457.5 Q563,401 546,299 L493,0 L327,0 L376,278 Q382,318 365,337.5 Q348,357 314,357 Q276,357 250.5,334 Q225,311 217,266 L217,267 L170,0 L4,0 L92,500 L258,500 L249,449 Q306,514 395,514"/> 
            <glyph glyph-name="Ŋ" unicode="&#x14A;" horiz-adv-x="698" d=" M520,700 L698,700 L575,0 Q555,-113 487,-165 Q419,-217 294,-207 L322,-53 Q394,-56 405,7 L413,49 L255,366 L190,0 L11,0 L134,700 L273,700 L455,334"/> 
            <glyph glyph-name="ŋ" unicode="&#x14B;" horiz-adv-x="563" d=" M395,514 Q476,514 519.5,457.5 Q563,401 546,299 L493,0 Q473,-117 410,-167 Q347,-217 232,-209 L259,-59 Q316,-64 327,0 L376,278 Q382,318 365,337.5 Q348,357 314,357 Q276,357 250.5,334 Q225,311 217,266 L217,267 L170,0 L4,0 L92,500 L258,500 L249,449 Q306,514 395,514"/> 
            <glyph glyph-name="Ō" unicode="&#x14C;" horiz-adv-x="803" d=" M331,764 L353,894 L663,894 L640,764 M360,-15 Q254,-15 175,38 Q96,91 63,177 Q30,263 47,361 Q73,511 188,613 Q303,715 467,715 Q626,715 714.5,603.5 Q803,492 778,341 Q752,189 638.5,87 Q525,-15 360,-15 M295,160 Q457,160 521.5,213.5 Q586,267 600,350 Q615,433 571,486.5 Q527,540 446,540 Q365,540 302.5,486.5 Q240,433 225,350 Q210,266 295,160"/> 
            <glyph glyph-name="ō" unicode="&#x14D;" horiz-adv-x="575" d=" M192,564 L214,694 L524,694 L501,564 M258,-14 Q173,-14 114.5,28.5 Q56,71 35,134 Q14,197 27,266 Q47,370 127.5,442 Q208,514 329,514 Q449,514 512,428.5 Q575,343 556,236 Q538,134 456,60 Q374,-14 258,-14 M271,146 Q315,146 348,175 Q381,204 389,250 Q397,296 374.5,325 Q352,354 308,354 Q265,354 232,325 Q199,296 191,250 Q183,204 205.5,175 Q228,146 271,146"/> 
            <glyph glyph-name="Ő" unicode="&#x150;" horiz-adv-x="803" d=" M285,755 L442,755 L555,905 L391,905 M477,755 L635,755 L757,905 L594,905 M360,-15 Q254,-15 175,38 Q96,91 63,177 Q30,263 47,361 Q73,511 188,613 Q303,715 467,715 Q626,715 714.5,603.5 Q803,492 778,341 Q752,189 638.5,87 Q525,-15 360,-15 M295,160 Q457,160 521.5,213.5 Q586,267 600,350 Q615,433 571,486.5 Q527,540 446,540 Q365,540 302.5,486.5 Q240,433 225,350 Q210,266 295,160"/> 
            <glyph glyph-name="ő" unicode="&#x151;" horiz-adv-x="618" d=" M146,555 L303,555 L416,705 L252,705 M338,555 L496,555 L618,705 L455,705 M258,-14 Q173,-14 114.5,28.5 Q56,71 35,134 Q14,197 27,266 Q47,370 127.5,442 Q208,514 329,514 Q449,514 512,428.5 Q575,343 556,236 Q538,134 456,60 Q374,-14 258,-14 M271,146 Q315,146 348,175 Q381,204 389,250 Q397,296 374.5,325 Q352,354 308,354 Q265,354 232,325 Q199,296 191,250 Q183,204 205.5,175 Q228,146 271,146"/> 
            <glyph glyph-name="Œ" unicode="&#x152;" horiz-adv-x="978" d=" M949,532 L723,532 L706,435 L907,435 L878,271 L678,271 L660,168 L890,168 L860,0 L451,0 Q397,-15 343,-15 Q187,-15 104,94 Q21,203 46,356 Q70,505 187,610 Q304,715 462,715 Q526,715 574,700 L543,524 Q504,540 441,540 Q361,540 300.5,487 Q240,434 225,350 Q210,266 250.5,213 Q291,160 371,160 Q435,160 482,176 L574,700 L978,700"/> 
            <glyph glyph-name="œ" unicode="&#x153;" horiz-adv-x="929" d=" M699,514 Q805,514 867,437.5 Q929,361 910,251 Q906,221 893,189 L550,189 Q564,128 646,128 Q706,128 745,164 L851,67 Q764,-14 641,-14 Q507,-14 449,72 Q369,-14 248,-14 Q164,-14 108.5,27 Q53,68 34,129 Q15,190 26,260 Q44,365 122.5,439.5 Q201,514 321,514 Q438,514 496,428 Q577,514 699,514 M570,305 L759,305 Q754,374 680,374 Q606,374 570,305 M384,204 Q400,296 376.5,325 Q353,354 310,354 Q266,354 233,325 Q200,296 192,250 Q184,204 207,175 Q230,146 273,146 Q317,146 384,204"/> 
            <glyph glyph-name="Ŕ" unicode="&#x154;" horiz-adv-x="643" d=" M578,900 L442,755 L279,755 L380,900 M624,448 Q612,381 572.5,331 Q533,281 472,254 L568,0 L388,0 L306,226 L230,226 L190,0 L11,0 L135,700 L409,700 Q513,700 578,626 Q643,552 624,448 M284,535 L256,378 L359,378 Q392,377 415.5,399 Q439,421 445,456 Q451,491 433.5,513 Q416,535 380,535"/> 
            <glyph glyph-name="ŕ" unicode="&#x155;" horiz-adv-x="458" d=" M458,700 L322,555 L159,555 L260,700 M241,406 Q264,457 309,483.5 Q354,510 410,510 L379,326 Q322,334 270.5,306 Q219,278 207,207 L209,223 L170,0 L4,0 L92,500 L258,500"/> 
            <glyph glyph-name="Ŗ" unicode="&#x156;" horiz-adv-x="643" d=" M624,448 Q612,381 572.5,331 Q533,281 472,254 L568,0 L388,0 L306,226 L230,226 L190,0 L11,0 L135,700 L409,700 Q513,700 578,626 Q643,552 624,448 M284,535 L256,378 L359,378 Q392,377 415.5,399 Q439,421 445,456 Q451,491 433.5,513 Q416,535 380,535 M166,-277 L214,-57 L368,-57 L295,-277"/> 
            <glyph glyph-name="ŗ" unicode="&#x157;" horiz-adv-x="410" d=" M241,406 Q264,457 309,483.5 Q354,510 410,510 L379,326 Q322,334 270.5,306 Q219,278 207,207 L209,223 L170,0 L4,0 L92,500 L258,500 M-49,-277 L-1,-57 L153,-57 L80,-277"/> 
            <glyph glyph-name="Ř" unicode="&#x158;" horiz-adv-x="643" d=" M279,745 L200,900 L345,900 L375,844 L424,900 L579,900 L446,745 M624,448 Q612,381 572.5,331 Q533,281 472,254 L568,0 L388,0 L306,226 L230,226 L190,0 L11,0 L135,700 L409,700 Q513,700 578,626 Q643,552 624,448 M284,535 L256,378 L359,378 Q392,377 415.5,399 Q439,421 445,456 Q451,491 433.5,513 Q416,535 380,535"/> 
            <glyph glyph-name="ř" unicode="&#x159;" horiz-adv-x="459" d=" M159,545 L80,700 L225,700 L255,644 L304,700 L459,700 L326,545 M241,406 Q264,457 309,483.5 Q354,510 410,510 L379,326 Q322,334 270.5,306 Q219,278 207,207 L209,223 L170,0 L4,0 L92,500 L258,500"/> 
            <glyph glyph-name="Ś" unicode="&#x15A;" horiz-adv-x="599" d=" M287,765 L450,765 L586,910 L388,910 M269,-15 Q157,-15 88,31.5 Q19,78 -3,159 L156,241 Q184,154 284,154 Q366,154 375,202 Q381,235 329,257 Q321,261 256,283 Q164,314 117,367 Q70,420 86,512 Q103,608 177.5,661.5 Q252,715 354,715 Q442,715 505.5,673.5 Q569,632 599,555 L446,473 Q413,546 340,546 Q277,546 268,501 Q262,476 286,459.5 Q310,443 376,420 Q422,404 451,390 Q480,376 511.5,349.5 Q543,323 554,282.5 Q565,242 556,187 Q538,88 462,36.5 Q386,-15 269,-15"/> 
            <glyph glyph-name="ś" unicode="&#x15B;" horiz-adv-x="500" d=" M201,565 L364,565 L500,710 L302,710 M210,-14 Q44,-14 -10,109 L136,180 Q158,123 219,123 Q263,123 267,147 Q270,162 245.5,172.5 Q221,183 185.5,193 Q150,203 116,219.5 Q82,236 62.5,272.5 Q43,309 52,363 Q65,438 128,476 Q191,514 267,514 Q336,514 388.5,485.5 Q441,457 465,403 L324,335 Q306,380 262,381 Q224,383 218,354 Q215,338 232,327.5 Q249,317 276,312 Q303,307 334,295.5 Q365,284 390.5,268 Q416,252 428.5,217.5 Q441,183 433,135 Q419,58 357,22 Q295,-14 210,-14"/> 
            <glyph glyph-name="Ş" unicode="&#x15E;" horiz-adv-x="599" d=" M376,420 Q422,404 451,390 Q480,376 511.5,349.5 Q543,323 554,282.5 Q565,242 556,187 Q541,102 482,52 Q423,2 331,-11 L325,-46 Q379,-71 368,-132 Q349,-237 118,-221 L137,-112 Q230,-119 235,-98 Q238,-81 185,-78 L197,-9 Q116,4 65.5,48 Q15,92 -3,159 L156,241 Q184,154 284,154 Q366,154 375,202 Q381,235 329,257 Q321,261 256,283 Q164,314 117,367 Q70,420 86,512 Q103,608 177.5,661.5 Q252,715 354,715 Q442,715 505.5,673.5 Q569,632 599,555 L446,473 Q413,546 340,546 Q277,546 268,501 Q262,476 286,459.5 Q310,443 376,420"/> 
            <glyph glyph-name="ş" unicode="&#x15F;" horiz-adv-x="465" d=" M218,354 Q215,338 232,327.5 Q249,317 276,312 Q303,307 334,295.5 Q365,284 390.5,268 Q416,252 428.5,217.5 Q441,183 433,135 Q411,16 274,-9 L267,-46 Q321,-71 310,-132 Q291,-237 60,-221 L79,-112 Q172,-119 177,-98 Q180,-81 127,-78 L140,-8 Q31,13 -10,109 L136,180 Q158,123 219,123 Q263,123 267,147 Q270,162 245.5,172.5 Q221,183 185.5,193 Q150,203 116,219.5 Q82,236 62.5,272.5 Q43,309 52,363 Q65,438 128,476 Q191,514 267,514 Q336,514 388.5,485.5 Q441,457 465,403 L324,335 Q306,380 262,381 Q224,383 218,354"/> 
            <glyph glyph-name="Š" unicode="&#x160;" horiz-adv-x="599" d=" M287,755 L208,910 L353,910 L383,854 L432,910 L587,910 L454,755 M376,420 Q422,404 451,390 Q480,376 511.5,349.5 Q543,323 554,282.5 Q565,242 556,187 Q538,88 462,36.5 Q386,-15 269,-15 Q157,-15 88,31.5 Q19,78 -3,159 L156,241 Q184,154 284,154 Q366,154 375,202 Q381,235 329,257 Q321,261 256,283 Q164,314 117,367 Q70,420 86,512 Q103,608 177.5,661.5 Q252,715 354,715 Q442,715 505.5,673.5 Q569,632 599,555 L446,473 Q413,546 340,546 Q277,546 268,501 Q262,476 286,459.5 Q310,443 376,420"/> 
            <glyph glyph-name="š" unicode="&#x161;" horiz-adv-x="501" d=" M201,555 L122,710 L267,710 L297,654 L346,710 L501,710 L368,555 M262,381 Q224,383 218,354 Q215,338 232,327.5 Q249,317 276,312 Q303,307 334,295.5 Q365,284 390.5,268 Q416,252 428.5,217.5 Q441,183 433,135 Q419,58 357,22 Q295,-14 210,-14 Q44,-14 -10,109 L136,180 Q158,123 219,123 Q263,123 267,147 Q270,162 245.5,172.5 Q221,183 185.5,193 Q150,203 116,219.5 Q82,236 62.5,272.5 Q43,309 52,363 Q65,438 128,476 Q191,514 267,514 Q336,514 388.5,485.5 Q441,457 465,403 L324,335 Q306,380 262,381"/> 
            <glyph glyph-name="Ţ" unicode="&#x162;" horiz-adv-x="614" d=" M614,700 L583,527 L411,527 L318,0 L139,0 L232,527 L59,527 L89,700 M95,-277 L143,-57 L297,-57 L224,-277"/> 
            <glyph glyph-name="ţ" unicode="&#x163;" horiz-adv-x="403" d=" M270,341 L245,196 Q239,162 261,154 Q283,146 341,150 L315,0 Q174,-19 116,28.5 Q58,76 78,192 L104,341 L29,341 L57,500 L132,500 L148,590 L323,640 L298,500 L403,500 L374,341 M54,-272 L102,-52 L256,-52 L183,-272"/> 
            <glyph glyph-name="Ť" unicode="&#x164;" horiz-adv-x="614" d=" M271,745 L192,900 L337,900 L367,844 L416,900 L571,900 L438,745 M614,700 L583,527 L411,527 L318,0 L139,0 L232,527 L59,527 L89,700"/> 
            <glyph glyph-name="ť" unicode="&#x165;" horiz-adv-x="535" d=" M385,726 L535,726 L466,536 L342,536 M323,640 L298,500 L403,500 L374,341 L270,341 L245,196 Q239,162 261,154 Q283,146 341,150 L315,0 Q174,-19 116,28.5 Q58,76 78,192 L104,341 L29,341 L57,500 L132,500 L148,590"/> 
            <glyph glyph-name="Ŧ" unicode="&#x166;" horiz-adv-x="614" d=" M583,527 L411,527 L390,412 L495,412 L467,254 L363,254 L318,0 L139,0 L184,254 L77,254 L105,412 L211,412 L232,527 L59,527 L89,700 L614,700"/> 
            <glyph glyph-name="ŧ" unicode="&#x167;" horiz-adv-x="403" d=" M377,355 L273,355 L266,314 L338,314 L317,194 L245,194 Q240,162 262,154 Q284,146 341,150 L315,0 Q174,-19 116,28.5 Q58,76 78,192 L78,194 L28,194 L49,314 L99,314 L107,355 L31,355 L57,500 L132,500 L148,590 L323,640 L298,500 L403,500"/> 
            <glyph glyph-name="Ū" unicode="&#x16A;" horiz-adv-x="679" d=" M257,754 L279,884 L589,884 L566,754 M290,-15 Q162,-15 92.5,54 Q23,123 42,230 L125,700 L304,700 L224,247 Q208,159 307,159 Q405,159 421,247 L500,700 L679,700 L596,230 Q575,112 492,48.5 Q409,-15 290,-15"/> 
            <glyph glyph-name="ū" unicode="&#x16B;" horiz-adv-x="574" d=" M512,684 L489,554 L180,554 L202,684 M408,500 L574,500 L486,0 L320,0 L329,51 Q272,-14 183,-14 Q102,-14 58.5,42.5 Q15,99 32,201 L85,500 L251,500 L202,222 Q196,182 213,162.5 Q230,143 264,143 Q302,143 327.5,166 Q353,189 361,234 L361,233"/> 
            <glyph glyph-name="Ů" unicode="&#x16E;" horiz-adv-x="679" d=" M405,708 Q344,708 310,747 Q276,786 286,843 Q296,900 340.5,936 Q385,972 447,972 Q508,972 542.5,932.5 Q577,893 566,836 Q556,779 512.5,743.5 Q469,708 405,708 M420,808 Q455,808 460,839 Q463,853 455.5,862.5 Q448,872 431,872 Q416,872 405.5,863 Q395,854 393,840 Q388,808 420,808 M290,-15 Q162,-15 92.5,54 Q23,123 42,230 L125,700 L304,700 L224,247 Q208,159 307,159 Q405,159 421,247 L500,700 L679,700 L596,230 Q575,112 492,48.5 Q409,-15 290,-15"/> 
            <glyph glyph-name="ů" unicode="&#x16F;" horiz-adv-x="574" d=" M333,533 Q272,533 238,572 Q204,611 214,668 Q224,725 268.5,761 Q313,797 375,797 Q436,797 470.5,757.5 Q505,718 494,661 Q484,604 440.5,568.5 Q397,533 333,533 M321,665 Q316,633 348,633 Q383,633 388,664 Q391,678 383.5,687.5 Q376,697 359,697 Q344,697 333.5,688 Q323,679 321,665 M408,500 L574,500 L486,0 L320,0 L329,51 Q272,-14 183,-14 Q102,-14 58.5,42.5 Q15,99 32,201 L85,500 L251,500 L202,222 Q196,182 213,162.5 Q230,143 264,143 Q302,143 327.5,166 Q353,189 361,234 L361,233"/> 
            <glyph glyph-name="Ű" unicode="&#x170;" horiz-adv-x="683" d=" M211,745 L368,745 L481,895 L317,895 M403,745 L561,745 L683,895 L520,895 M290,-15 Q162,-15 92.5,54 Q23,123 42,230 L125,700 L304,700 L224,247 Q208,159 307,159 Q405,159 421,247 L500,700 L679,700 L596,230 Q575,112 492,48.5 Q409,-15 290,-15"/> 
            <glyph glyph-name="ű" unicode="&#x171;" horiz-adv-x="606" d=" M404,695 L291,545 L134,545 L240,695 M484,545 L326,545 L443,695 L606,695 M361,233 L408,500 L574,500 L486,0 L320,0 L329,51 Q272,-14 183,-14 Q102,-14 58.5,42.5 Q15,99 32,201 L85,500 L251,500 L202,222 Q196,182 213,162.5 Q230,143 264,143 Q302,143 327.5,166 Q353,189 361,234"/> 
            <glyph glyph-name="Ų" unicode="&#x172;" horiz-adv-x="679" d=" M500,700 L679,700 L596,230 Q573,103 478,38 Q378,-39 368,-78 Q362,-100 385,-101 Q391,-102 408,-98 L390,-197 Q345,-214 305,-214 Q253,-214 227.5,-186 Q202,-158 210,-113 Q221,-57 274,-15 Q153,-10 88.5,58.5 Q24,127 42,230 L125,700 L304,700 L224,247 Q208,159 307,159 Q405,159 421,247"/> 
            <glyph glyph-name="ų" unicode="&#x173;" horiz-adv-x="574" d=" M408,500 L574,500 L486,0 L484,0 Q430,-49 427,-82 Q424,-101 445,-101 Q455,-101 467,-98 L449,-197 Q411,-214 368,-214 Q319,-214 290,-189.5 Q261,-165 269,-119 Q280,-61 351,0 L320,0 L329,51 Q272,-14 183,-14 Q102,-14 58.5,42.5 Q15,99 32,201 L85,500 L251,500 L202,222 Q196,182 213,162.5 Q230,143 264,143 Q302,143 327.5,166 Q353,189 361,234 L361,233"/> 
            <glyph glyph-name="Ŵ" unicode="&#x174;" horiz-adv-x="1077" d=" M595,801 L545,745 L394,745 L527,900 L694,900 L773,745 L624,745 M881,700 L1077,700 L759,0 L570,0 L527,395 L346,0 L157,0 L84,700 L265,700 L300,259 L502,700 L645,700 L693,259"/> 
            <glyph glyph-name="ŵ" unicode="&#x175;" horiz-adv-x="828" d=" M456,601 L406,545 L255,545 L388,700 L555,700 L634,545 L485,545 M647,500 L828,500 L587,0 L425,0 L398,251 L289,0 L119,0 L54,500 L220,500 L243,228 L361,500 L506,500 L535,233"/> 
            <glyph glyph-name="Ŷ" unicode="&#x176;" horiz-adv-x="710" d=" M409,801 L359,745 L208,745 L341,900 L508,900 L587,745 L438,745 M710,700 L415,305 L361,0 L182,0 L236,305 L79,700 L269,700 L344,475 L498,700"/> 
            <glyph glyph-name="ŷ" unicode="&#x177;" horiz-adv-x="593" d=" M322,601 L272,545 L121,545 L254,700 L421,700 L500,545 L351,545 M402,500 L593,500 L339,15 Q274,-110 191,-159.5 Q108,-209 -3,-200 L25,-44 Q79,-44 106,-30.5 Q133,-17 156,20 L44,500 L220,500 L272,211"/> 
            <glyph glyph-name="Ÿ" unicode="&#x178;" horiz-adv-x="710" d=" M336,735 Q270,735 251,758.5 Q232,782 237,815 Q242,848 270,871.5 Q298,895 331,895 Q363,895 382.5,871.5 Q402,848 396,815 Q391,782 336,735 M497,735 Q465,735 445.5,758.5 Q426,782 432,815 Q437,848 464.5,871.5 Q492,895 525,895 Q558,895 577,871.5 Q596,848 591,815 Q586,782 558,758.5 Q530,735 497,735 M710,700 L415,305 L361,0 L182,0 L236,305 L79,700 L269,700 L344,475 L498,700"/> 
            <glyph glyph-name="Ź" unicode="&#x179;" horiz-adv-x="591" d=" M576,900 L440,755 L277,755 L378,900 M591,700 L568,562 L256,173 L506,173 L476,0 L-11,0 L13,138 L326,527 L86,527 L117,700"/> 
            <glyph glyph-name="ź" unicode="&#x17A;" horiz-adv-x="493" d=" M493,700 L357,555 L194,555 L295,700 M52,346 L79,500 L469,500 L449,386 L237,154 L418,154 L391,0 L-19,0 L2,114 L213,346"/> 
            <glyph glyph-name="Ż" unicode="&#x17B;" horiz-adv-x="591" d=" M365,743 Q328,743 306,769.5 Q284,796 291,832 Q298,869 328.5,895.5 Q359,922 396,922 Q433,922 455,895.5 Q477,869 471,832 Q463,796 432,769.5 Q401,743 365,743 M591,700 L568,562 L256,173 L506,173 L476,0 L-11,0 L13,138 L326,527 L86,527 L117,700"/> 
            <glyph glyph-name="ż" unicode="&#x17C;" horiz-adv-x="469" d=" M282,543 Q245,543 223,569.5 Q201,596 208,632 Q215,669 245.5,695.5 Q276,722 313,722 Q350,722 372,695.5 Q394,669 388,632 Q380,596 349,569.5 Q318,543 282,543 M469,500 L449,386 L237,154 L418,154 L391,0 L-19,0 L2,114 L213,346 L52,346 L79,500"/> 
            <glyph glyph-name="Ž" unicode="&#x17D;" horiz-adv-x="591" d=" M277,745 L198,900 L343,900 L373,844 L422,900 L577,900 L444,745 M591,700 L568,562 L256,173 L506,173 L476,0 L-11,0 L13,138 L326,527 L86,527 L117,700"/> 
            <glyph glyph-name="ž" unicode="&#x17E;" horiz-adv-x="494" d=" M194,545 L115,700 L260,700 L290,644 L339,700 L494,700 L361,545 M52,346 L79,500 L469,500 L449,386 L237,154 L418,154 L391,0 L-19,0 L2,114 L213,346"/> 
            <glyph glyph-name="ƒ" unicode="&#x192;" horiz-adv-x="541" d=" M240,537 Q267,617 315.5,661.5 Q364,706 420.5,712.5 Q477,719 541,706 L512,542 Q487,558 452,544.5 Q417,531 403,490 L383,431 L457,431 L429,272 L327,272 L222,-31 Q195,-111 146.5,-155.5 Q98,-200 41.5,-206.5 Q-15,-213 -79,-200 L-50,-36 Q-25,-52 10,-38.5 Q45,-25 59,16 L148,272 L79,272 L108,431 L203,431"/> 
            <glyph glyph-name="Ș" unicode="&#x218;" horiz-adv-x="599" d=" M269,-15 Q157,-15 88,31.5 Q19,78 -3,159 L156,241 Q184,154 284,154 Q366,154 375,202 Q381,235 329,257 Q321,261 256,283 Q164,314 117,367 Q70,420 86,512 Q103,608 177.5,661.5 Q252,715 354,715 Q442,715 505.5,673.5 Q569,632 599,555 L446,473 Q413,546 340,546 Q277,546 268,501 Q262,476 286,459.5 Q310,443 376,420 Q422,404 451,390 Q480,376 511.5,349.5 Q543,323 554,282.5 Q565,242 556,187 Q538,88 462,36.5 Q386,-15 269,-15 M265,-277 L338,-57 L184,-57 L136,-277"/> 
            <glyph glyph-name="ș" unicode="&#x219;" horiz-adv-x="465" d=" M210,-14 Q44,-14 -10,109 L136,180 Q158,123 219,123 Q263,123 267,147 Q270,162 245.5,172.5 Q221,183 185.5,193 Q150,203 116,219.5 Q82,236 62.5,272.5 Q43,309 52,363 Q65,438 128,476 Q191,514 267,514 Q336,514 388.5,485.5 Q441,457 465,403 L324,335 Q306,380 262,381 Q224,383 218,354 Q215,338 232,327.5 Q249,317 276,312 Q303,307 334,295.5 Q365,284 390.5,268 Q416,252 428.5,217.5 Q441,183 433,135 Q419,58 357,22 Q295,-14 210,-14 M207,-277 L280,-57 L126,-57 L78,-277"/> 
            <glyph glyph-name="Ț" unicode="&#x21A;" horiz-adv-x="614" d=" M614,700 L583,527 L411,527 L318,0 L139,0 L232,527 L59,527 L89,700 M95,-277 L143,-57 L297,-57 L224,-277"/> 
            <glyph glyph-name="ț" unicode="&#x21B;" horiz-adv-x="403" d=" M270,341 L245,196 Q239,162 261,154 Q283,146 341,150 L315,0 Q174,-19 116,28.5 Q58,76 78,192 L104,341 L29,341 L57,500 L132,500 L148,590 L323,640 L298,500 L403,500 L374,341 M54,-272 L102,-52 L256,-52 L183,-272"/> 
            <glyph glyph-name="ˆ" unicode="&#x2C6;" horiz-adv-x="451" d=" M451,545 L302,545 L273,601 L223,545 L72,545 L205,700 L372,700"/> 
            <glyph glyph-name="ˇ" unicode="&#x2C7;" horiz-adv-x="478" d=" M323,700 L478,700 L345,545 L178,545 L99,700 L244,700 L274,644"/> 
            <glyph glyph-name="˘" unicode="&#x2D8;" horiz-adv-x="458" d=" M259,537 Q174,537 129.5,581 Q85,625 99,697 L239,697 Q231,653 271,653 Q310,653 318,697 L458,697 Q433,537 259,537"/> 
            <glyph glyph-name="˙" unicode="&#x2D9;" horiz-adv-x="273" d=" M161,543 Q124,543 102,569.5 Q80,596 87,632 Q94,669 124.5,695.5 Q155,722 192,722 Q229,722 251,695.5 Q273,669 267,632 Q259,596 228,569.5 Q197,543 161,543"/> 
            <glyph glyph-name="˚" unicode="&#x2DA;" horiz-adv-x="382" d=" M210,533 Q149,533 115,572 Q81,611 91,668 Q101,725 145.5,761 Q190,797 252,797 Q313,797 347.5,757.5 Q382,718 371,661 Q361,604 317.5,568.5 Q274,533 210,533 M225,633 Q260,633 265,664 Q268,678 260.5,687.5 Q253,697 236,697 Q221,697 210.5,688 Q200,679 198,665 Q193,633 225,633"/> 
            <glyph glyph-name="˛" unicode="&#x2DB;" horiz-adv-x="169" d=" M89,-214 Q-3,-214 -28.5,-191 Q-54,-168 -46,-123 Q-35,-65 38,0 L169,0 Q117,-48 112,-78 Q107,-101 129,-101 Q135,-102 152,-98 L134,-197"/> 
            <glyph glyph-name="˜" unicode="&#x2DC;" horiz-adv-x="466" d=" M79,548 Q85,608 107,647 Q129,686 160,699.5 Q191,713 224,711 Q257,709 287,691 Q304,681 313.5,677.5 Q323,674 331.5,681.5 Q340,689 344,710 L466,710 Q460,650 437,611 Q414,572 383.5,558.5 Q353,545 320,547.5 Q287,550 257,568 Q236,584 220.5,581.5 Q205,579 200,548"/> 
            <glyph glyph-name="˝" unicode="&#x2DD;" horiz-adv-x="544" d=" M72,545 L229,545 L342,695 L178,695 M264,545 L422,545 L544,695 L381,695"/> 
            <glyph glyph-name="̀" unicode="&#x300;" horiz-adv-x="34" d=" M34,555 L-27,700 L-215,700 L-120,555"/> 
            <glyph glyph-name="́" unicode="&#x301;" horiz-adv-x="73" d=" M-226,555 L-63,555 L73,700 L-125,700"/> 
            <glyph glyph-name="̂" unicode="&#x302;" horiz-adv-x="32" d=" M32,545 L-117,545 L-146,601 L-196,545 L-347,545 L-214,700 L-47,700"/> 
            <glyph glyph-name="̃" unicode="&#x303;" horiz-adv-x="61" d=" M-326,548 Q-320,608 -298,647 Q-276,686 -245,699.5 Q-214,713 -181,711 Q-148,709 -118,691 Q-101,681 -91.5,677.5 Q-82,674 -73.5,681.5 Q-65,689 -61,710 L61,710 Q55,650 32,611 Q9,572 -21.5,558.5 Q-52,545 -85,547.5 Q-118,550 -148,568 Q-169,584 -184.5,581.5 Q-200,579 -205,548"/> 
            <glyph glyph-name="̄" unicode="&#x304;" horiz-adv-x="57" d=" M-275,554 L-253,684 L57,684 L34,554"/> 
            <glyph glyph-name="̆" unicode="&#x306;" horiz-adv-x="54" d=" M-145,537 Q-230,537 -274.5,581 Q-319,625 -305,697 L-165,697 Q-173,653 -133,653 Q-94,653 -86,697 L54,697 Q29,537 -145,537"/> 
            <glyph glyph-name="̇" unicode="&#x307;" horiz-adv-x="54" d=" M-58,543 Q-95,543 -117,569.5 Q-139,596 -132,632 Q-125,669 -94.5,695.5 Q-64,722 -27,722 Q10,722 32,695.5 Q54,669 48,632 Q40,596 9,569.5 Q-22,543 -58,543"/> 
            <glyph glyph-name="̈" unicode="&#x308;" horiz-adv-x="49" d=" M-211,535 Q-277,535 -296,558.5 Q-315,582 -310,615 Q-305,648 -277,671.5 Q-249,695 -216,695 Q-184,695 -164.5,671.5 Q-145,648 -151,615 Q-156,582 -211,535 M-50,535 Q-82,535 -101.5,558.5 Q-121,582 -115,615 Q-110,648 -82.5,671.5 Q-55,695 -22,695 Q11,695 30,671.5 Q49,648 44,615 Q39,582 11,558.5 Q-17,535 -50,535"/> 
            <glyph glyph-name="̊" unicode="&#x30A;" horiz-adv-x="64" d=" M-108,533 Q-169,533 -203,572 Q-237,611 -227,668 Q-217,725 -172.5,761 Q-128,797 -66,797 Q-5,797 29.5,757.5 Q64,718 53,661 Q43,604 -0.5,568.5 Q-44,533 -108,533 M-93,633 Q-58,633 -53,664 Q-50,678 -57.5,687.5 Q-65,697 -82,697 Q-97,697 -107.5,688 Q-118,679 -120,665 Q-125,633 -93,633"/> 
            <glyph glyph-name="̋" unicode="&#x30B;" horiz-adv-x="58" d=" M-414,545 L-257,545 L-144,695 L-308,695 M-222,545 L-64,545 L58,695 L-105,695"/> 
            <glyph glyph-name="̌" unicode="&#x30C;" horiz-adv-x="59" d=" M-96,700 L59,700 L-74,545 L-241,545 L-320,700 L-175,700 L-145,644"/> 
            <glyph glyph-name="̒" unicode="&#x312;" horiz-adv-x="110" d=" M-19,985 L-93,765 L61,765 L110,985"/> 
            <glyph glyph-name="̦" unicode="&#x326;" horiz-adv-x="-75" d=" M-148,-277 L-75,-57 L-229,-57 L-277,-277"/> 
            <glyph glyph-name="̧" unicode="&#x327;" horiz-adv-x="-77" d=" M-131,-46 Q-77,-71 -88,-132 Q-107,-237 -338,-221 L-319,-112 Q-226,-119 -221,-98 Q-218,-81 -271,-78 L-257,0 L-123,0"/> 
            <glyph glyph-name="̨" unicode="&#x328;" horiz-adv-x="-69" d=" M-149,-214 Q-241,-214 -266.5,-191 Q-292,-168 -284,-123 Q-273,-65 -200,0 L-69,0 Q-121,-48 -126,-78 Q-131,-101 -109,-101 Q-103,-102 -86,-98 L-104,-197"/> 
            <glyph glyph-name="Δ" unicode="&#x394;" horiz-adv-x="621" d=" M516,700 L621,0 L-49,0 L302,700 M224,155 L418,155 L382,497"/> 
            <glyph glyph-name="Ω" unicode="&#x3A9;" horiz-adv-x="792" d=" M774,365 Q753,248 662,168 L725,168 L696,0 L415,0 L427,71 L439,137 L444,168 L445,173 Q502,193 542,240 Q582,287 593,350 Q607,433 563,486.5 Q519,540 438,540 Q357,540 294.5,486.5 Q232,433 218,350 Q207,287 230,240 Q253,193 302,173 L296,137 L272,0 L-9,0 L20,168 L93,168 Q21,254 42,375 Q69,525 188.5,620 Q308,715 464,715 Q564,715 641,670 Q718,625 755,544 Q792,463 774,365"/> 
            <glyph glyph-name="π" unicode="&#x3C0;" horiz-adv-x="689" d=" M689,500 L662,343 L587,343 L527,0 L361,0 L421,343 L274,343 L214,0 L48,0 L108,343 L32,343 L59,500"/> 
            </font>
</defs>
</svg>
