<?xml version="1.0" standalone="no"?>
<!DOCTYPE svg PUBLIC "-//W3C//DTD SVG 1.1//EN" "http://www.w3.org/Graphics/SVG/1.1/DTD/svg11.dtd" >
<svg xmlns="http://www.w3.org/2000/svg">
    <defs>
        <font id="UltimaPro-Italic">
            <font-face font-family="UltimaPro-Italic"
                       units-per-em="1000"
                       ascent="750"
                       descent="-250"
                       bbox="-131 -281 1391 949"
                    />
            <missing-glyph horiz-adv-x="0" />
            
            <glyph glyph-name="!" unicode="&#x21;" horiz-adv-x="285" d=" M55,41 Q55,69 77.5,92.5 Q100,116 131,116 Q154,116 168.5,101.5 Q183,87 183,65 Q183,35 159.5,12.5 Q136,-10 107,-10 Q84,-10 69.5,4.5 Q55,19 55,41 M283,653 L204,247 Q200,227 184.5,213.5 Q169,200 150,200 Q132,200 120,211 Q108,222 108,238 Q108,245 110,257 L189,663 Q193,683 208,696.5 Q223,710 242,710 Q260,710 272.5,699 Q285,688 285,672 Q285,665 283,653"/> 
            <glyph glyph-name="&quot;" unicode="&#x22;" horiz-adv-x="520" d=" M277,710 Q294,710 306,698.5 Q318,687 318,670 Q318,652 305,636 L176,469 Q157,445 129,445 Q111,445 99.5,456.5 Q88,468 88,484 Q88,503 100,518 L229,685 Q248,710 277,710 M479,710 Q496,710 508,698.5 Q520,687 520,670 Q520,652 507,636 L378,469 Q359,445 331,445 Q313,445 301.5,456.5 Q290,468 290,484 Q290,503 302,518 L431,685 Q450,710 479,710"/> 
            <glyph glyph-name="#" unicode="&#x23;" horiz-adv-x="630" d=" M290,405 L245,267 L374,267 L419,405 M580,627 L533,492 L595,492 Q610,492 620,481.5 Q630,471 630,457 Q630,437 614.5,421 Q599,405 578,405 L506,405 L460,267 L522,267 Q537,267 547.5,256 Q558,245 558,230 Q558,211 541.5,195.5 Q525,180 505,180 L431,180 L382,30 Q376,13 362.5,1.5 Q349,-10 332,-10 Q316,-10 306,1 Q296,12 296,26 Q296,36 302,54 L345,180 L216,180 L166,30 Q160,13 146.5,1.5 Q133,-10 116,-10 Q100,-10 90,1 Q80,12 80,26 Q80,36 86,54 L128,180 L68,180 Q53,180 43.5,189.5 Q34,199 34,214 Q34,233 49.5,250 Q65,267 85,267 L155,267 L201,405 L141,405 Q125,405 115.5,414.5 Q106,424 106,440 Q106,460 121.5,476 Q137,492 158,492 L231,492 L282,651 Q288,668 301.5,679.5 Q315,691 332,691 Q348,691 358,680 Q368,669 368,655 Q368,645 362,627 L319,492 L447,492 L500,651 Q506,668 519.5,679.5 Q533,691 550,691 Q566,691 576,680 Q586,669 586,655 Q586,645 580,627"/> 
            <glyph glyph-name="$" unicode="&#x24;" horiz-adv-x="595" d=" M217,0 L76,0 Q58,0 46,9.5 Q34,19 34,34 Q34,57 51.5,71 Q69,85 92,85 L298,85 Q361,85 402,118.5 Q443,152 443,206 Q443,246 410,271 Q377,296 330,310.5 Q283,325 236,342 Q189,359 156,394 Q123,429 123,484 Q123,578 186,639 Q249,700 356,700 L369,768 Q373,786 386.5,798 Q400,810 418,810 Q432,810 442.5,800 Q453,790 453,776 Q453,767 451,759 L440,700 L554,700 Q572,700 583.5,690.5 Q595,681 595,666 Q595,644 577.5,629.5 Q560,615 537,615 L328,615 Q278,615 246.5,580.5 Q215,546 215,508 Q215,470 248.5,445 Q282,420 330,404.5 Q378,389 426.5,371 Q475,353 508.5,316 Q542,279 542,224 Q542,129 473.5,64.5 Q405,0 301,0 L288,-68 Q284,-86 270.5,-98 Q257,-110 239,-110 Q225,-110 214.5,-100 Q204,-90 204,-76 Q204,-67 206,-59"/> 
            <glyph glyph-name="%" unicode="&#x25;" horiz-adv-x="737" d=" M138,44 L667,690 Q682,710 706,710 Q719,710 728,701 Q737,692 737,679 Q737,669 727,656 L199,11 Q181,-10 160,-10 Q147,-10 138,-1 Q129,8 129,20 Q129,30 138,44 M423,115 Q423,184 480,240.5 Q537,297 610,297 Q665,297 700.5,262 Q736,227 736,173 Q736,101 679,45.5 Q622,-10 551,-10 Q495,-10 459,25.5 Q423,61 423,115 M596,226 Q559,226 527.5,197 Q496,168 496,128 Q496,99 515,80 Q534,61 564,61 Q603,61 633,90.5 Q663,120 663,159 Q663,188 644,207 Q625,226 596,226 M131,528 Q131,598 187,654.5 Q243,711 317,711 Q373,711 408.5,676 Q444,641 444,587 Q444,515 386,460 Q328,405 257,405 Q202,405 166.5,440 Q131,475 131,528 M303,641 Q265,641 234,611 Q203,581 203,542 Q203,513 222,494 Q241,475 271,475 Q310,475 340.5,505 Q371,535 371,574 Q371,603 352,622 Q333,641 303,641"/> 
            <glyph glyph-name="&amp;" unicode="&#x26;" horiz-adv-x="682" d=" M555,220 L538,220 Q512,120 437.5,55 Q363,-10 263,-10 Q168,-10 111,46.5 Q54,103 54,188 Q54,226 68.5,262.5 Q83,299 103,323.5 Q123,348 143.5,367 Q164,386 178,395 L193,404 Q158,443 158,513 Q158,591 225,650.5 Q292,710 387,710 Q450,710 504.5,679.5 Q559,649 559,611 Q559,589 542,573.5 Q525,558 504,558 Q490,558 478,568.5 Q466,579 457,592 Q448,605 427.5,615.5 Q407,626 378,626 Q328,626 290.5,594.5 Q253,563 253,514 Q253,484 271,462.5 Q289,441 317,439 Q353,435 353,402 Q353,384 336,371 Q319,358 296,357 Q243,355 196.5,307.5 Q150,260 150,197 Q150,147 183.5,111 Q217,75 277,75 Q339,75 385.5,118.5 Q432,162 443,220 L401,220 Q366,220 366,259 Q366,277 382.5,290.5 Q399,304 418,304 L558,304 Q600,304 600,338 Q600,343 599,349 Q598,355 598,358 Q598,372 607.5,381.5 Q617,391 633,391 Q657,391 669.5,372.5 Q682,354 682,328 Q682,281 645.5,250.5 Q609,220 555,220"/> 
            <glyph glyph-name="'" unicode="&#x27;" horiz-adv-x="318" d=" M277,710 Q294,710 306,698.5 Q318,687 318,670 Q318,652 305,636 L176,469 Q157,445 129,445 Q111,445 99.5,456.5 Q88,468 88,484 Q88,503 100,518 L229,685 Q248,710 277,710"/> 
            <glyph glyph-name="(" unicode="&#x28;" horiz-adv-x="397" d=" M244,-98 Q244,-120 227,-136.5 Q210,-153 187,-153 Q160,-153 147,-124 Q93,7 93,144 Q93,441 307,711 Q328,736 354,736 Q372,736 384.5,724 Q397,712 397,695 Q397,677 386,663 Q297,539 246,420.5 Q195,302 195,175 Q195,43 240,-75 Q244,-85 244,-98"/> 
            <glyph glyph-name=")" unicode="&#x29;" horiz-adv-x="303" d=" M152,681 Q152,703 169,719.5 Q186,736 209,736 Q236,736 249,707 Q303,576 303,439 Q303,142 89,-128 Q68,-153 42,-153 Q24,-153 11.5,-141 Q-1,-129 -1,-112 Q-1,-94 10,-80 Q99,44 150,162.5 Q201,281 201,408 Q201,540 156,658 Q152,668 152,681"/> 
            <glyph glyph-name="*" unicode="&#x2A;" horiz-adv-x="471" d=" M436,611 Q451,611 461,601.5 Q471,592 471,578 Q471,544 434,532 L347,505 L382,439 Q388,427 388,412 Q388,394 375.5,381.5 Q363,369 345,369 Q324,369 312,390 L275,457 L210,387 Q194,369 171,369 Q156,369 146.5,378 Q137,387 137,400 Q137,419 151,435 L215,507 L141,534 Q119,542 119,567 Q119,586 133.5,598.5 Q148,611 166,611 Q172,611 184,608 L252,583 L269,670 Q273,688 286.5,699 Q300,710 319,710 Q333,710 344.5,701 Q356,692 356,678 Q356,676 354,662 L338,583 L413,607 Q429,611 436,611"/> 
            <glyph glyph-name="+" unicode="&#x2B;" horiz-adv-x="555" d=" M506,212 L353,212 L324,62 Q320,44 307,32.5 Q294,21 277,21 Q261,21 250,32 Q239,43 239,58 Q239,59 239.5,61 Q240,63 240,64 L269,212 L120,212 Q105,212 94.5,222 Q84,232 84,246 Q84,266 98.5,280 Q113,294 134,294 L285,294 L314,442 Q318,461 331.5,472 Q345,483 362,483 Q377,483 387.5,473 Q398,463 398,448 Q398,447 397.5,444.5 Q397,442 397,441 L369,294 L520,294 Q534,294 544.5,283.5 Q555,273 555,259 Q555,239 540.5,225.5 Q526,212 506,212"/> 
            <glyph glyph-name="," unicode="&#x2C;" horiz-adv-x="198" d=" M78,46 Q78,72 98.5,92.5 Q119,113 147,113 Q166,113 182,99.5 Q198,86 198,52 Q198,-22 151.5,-73 Q105,-124 67,-124 Q53,-124 44.5,-116.5 Q36,-109 36,-96 Q36,-74 67,-57 Q107,-36 115,0 Q78,6 78,46"/> 
            <glyph glyph-name="-" unicode="&#x2D;" horiz-adv-x="395" d=" M346,211 L118,211 Q102,211 92.5,220.5 Q83,230 83,245 Q83,264 98.5,278.5 Q114,293 134,293 L362,293 Q376,293 385.5,283 Q395,273 395,259 Q395,240 379.5,225.5 Q364,211 346,211"/> 
            <glyph glyph-name="." unicode="&#x2E;" horiz-adv-x="192" d=" M64,40 Q64,68 86,92 Q108,116 140,116 Q163,116 177.5,101.5 Q192,87 192,64 Q192,35 168,12.5 Q144,-10 115,-10 Q92,-10 78,4 Q64,18 64,40"/> 
            <glyph glyph-name="/" unicode="&#x2F;" horiz-adv-x="422" d=" M415,645 L60,20 Q43,-10 10,-10 Q-6,-10 -16.5,1 Q-27,12 -27,28 Q-27,40 -21,52 L332,678 Q350,710 384,710 Q401,710 411.5,698.5 Q422,687 422,671 Q422,658 415,645"/> 
            <glyph glyph-name="0" unicode="&#x30;" horiz-adv-x="605" d=" M281,72 Q350,72 400,116 Q450,160 465,236 L509,456 Q513,480 513,503 Q513,560 480.5,594.5 Q448,629 388,629 Q319,629 268.5,584.5 Q218,540 203,464 L159,244 Q155,220 155,197 Q155,141 188,106.5 Q221,72 281,72 M270,-10 Q178,-10 120.5,46.5 Q63,103 63,192 Q63,217 68,247 L109,458 Q132,576 209,643 Q286,710 398,710 Q490,710 547.5,653.5 Q605,597 605,508 Q605,483 600,453 L559,242 Q536,124 459,57 Q382,-10 270,-10"/> 
            <glyph glyph-name="1" unicode="&#x31;" horiz-adv-x="555" d=" M354,83 L520,83 Q535,83 545,72.5 Q555,62 555,47 Q555,26 540.5,13 Q526,0 504,0 L68,0 Q53,0 43.5,10 Q34,20 34,35 Q34,56 48.5,69.5 Q63,83 85,83 L261,83 L366,618 L262,618 Q247,618 237.5,628 Q228,638 228,653 Q228,674 242.5,687 Q257,700 279,700 L429,700 Q445,700 455.5,689 Q466,678 466,661 Q466,655 464,641"/> 
            <glyph glyph-name="2" unicode="&#x32;" horiz-adv-x="575" d=" M173,84 L477,84 Q495,84 505,73 Q515,62 515,47 Q515,26 500.5,13 Q486,0 464,0 L103,0 Q80,0 66.5,13 Q53,26 53,45 Q53,81 88,111 L390,376 Q417,399 432,414 Q447,429 465.5,461 Q484,493 484,525 Q484,567 456,598.5 Q428,630 381,630 Q327,630 286.5,594 Q246,558 221,506 Q207,478 175,478 Q158,478 149.5,489.5 Q141,501 141,515 Q141,546 172,587 Q262,710 394,710 Q478,710 526.5,657.5 Q575,605 575,532 Q575,486 553,442.5 Q531,399 510,377 Q489,355 456,327"/> 
            <glyph glyph-name="3" unicode="&#x33;" horiz-adv-x="569" d=" M391,710 Q474,710 521.5,664.5 Q569,619 569,555 Q569,499 534,450.5 Q499,402 441,377 Q541,340 541,226 Q541,136 459,63 Q377,-10 263,-10 Q169,-10 111.5,41.5 Q54,93 54,142 Q54,164 65,180.5 Q76,197 97,197 Q113,197 124.5,187.5 Q136,178 139,165 Q149,126 181.5,99.5 Q214,73 271,73 Q338,73 390.5,116.5 Q443,160 443,226 Q443,271 407.5,298 Q372,325 320,325 Q303,325 291.5,334 Q280,343 280,359 Q280,378 295.5,392 Q311,406 332,406 Q382,406 427.5,446 Q473,486 473,542 Q473,581 446.5,605 Q420,629 377,629 Q286,629 237,550 Q220,522 192,522 Q175,522 166,533 Q157,544 157,558 Q157,597 224,653.5 Q291,710 391,710"/> 
            <glyph glyph-name="4" unicode="&#x34;" horiz-adv-x="578" d=" M148,254 L396,254 L473,637 M356,47 L380,171 L95,171 Q69,171 53.5,185 Q38,199 38,219 Q38,247 63,277 L402,673 Q425,700 445,700 L529,700 Q546,700 557,690 Q568,680 568,665 Q568,663 565,645 L489,254 L540,254 Q558,254 568,243.5 Q578,233 578,218 Q578,197 563.5,184 Q549,171 527,171 L473,171 L447,37 Q443,17 429,3.5 Q415,-10 396,-10 Q378,-10 366,1 Q354,12 354,28 Q354,35 356,47"/> 
            <glyph glyph-name="5" unicode="&#x35;" horiz-adv-x="584" d=" M248,74 Q329,74 384,128.5 Q439,183 439,257 Q439,315 401.5,346 Q364,377 318,377 Q275,377 233,366.5 Q191,356 179,356 Q162,356 152.5,367 Q143,378 143,391 Q143,398 152,429 L221,652 Q227,673 242.5,686.5 Q258,700 277,700 L545,700 Q584,700 584,665 Q584,644 568,630 Q552,616 527,616 L301,616 L248,446 Q290,457 340,457 Q420,457 477.5,407 Q535,357 535,266 Q535,156 450.5,73 Q366,-10 237,-10 Q129,-10 71,48 Q54,65 54,85 Q54,104 68,118.5 Q82,133 101,133 Q116,133 149,109 Q195,74 248,74"/> 
            <glyph glyph-name="6" unicode="&#x36;" horiz-adv-x="563" d=" M279,-10 Q188,-10 128,46 Q68,102 68,206 Q68,305 114,401.5 Q160,498 226.5,563.5 Q293,629 365,669.5 Q437,710 492,710 Q509,710 520,700.5 Q531,691 531,675 Q531,655 517,641 Q503,627 485,623 Q415,606 337,547.5 Q259,489 215,404 Q246,431 290,444.5 Q334,458 372,458 Q458,458 510.5,401.5 Q563,345 563,261 Q563,148 475.5,69 Q388,-10 279,-10 M348,377 Q274,377 216.5,326 Q159,275 159,199 Q159,144 195,108 Q231,72 288,72 Q357,72 413,127.5 Q469,183 469,255 Q469,308 435,342.5 Q401,377 348,377"/> 
            <glyph glyph-name="7" unicode="&#x37;" horiz-adv-x="634" d=" M613,602 L231,21 Q210,-10 180,-10 Q162,-10 152,1 Q142,12 142,28 Q142,44 153,60 L521,617 L189,617 Q172,617 162,627 Q152,637 152,653 Q152,672 167.5,686 Q183,700 206,700 L588,700 Q608,700 621,687.5 Q634,675 634,657 Q634,634 613,602"/> 
            <glyph glyph-name="8" unicode="&#x38;" horiz-adv-x="581" d=" M279,72 Q352,72 402,116 Q452,160 452,221 Q452,270 416.5,298 Q381,326 329,326 Q265,326 210.5,285 Q156,244 156,176 Q156,131 191,101.5 Q226,72 279,72 M396,710 Q485,710 533,663.5 Q581,617 581,549 Q581,497 550.5,454.5 Q520,412 490,395 L460,378 Q464,376 470,372.5 Q476,369 491,356 Q506,343 518,327 Q530,311 539.5,283.5 Q549,256 549,225 Q549,129 471,59.5 Q393,-10 278,-10 Q176,-10 117,38.5 Q58,87 58,165 Q58,206 74.5,243 Q91,280 114.5,303.5 Q138,327 161.5,344.5 Q185,362 202,370 L218,378 Q211,382 200,390.5 Q189,399 171,431.5 Q153,464 153,505 Q153,578 220.5,644 Q288,710 396,710 M388,630 Q326,630 285.5,593 Q245,556 245,499 Q245,459 274,434 Q303,409 345,409 Q398,409 443.5,447.5 Q489,486 489,541 Q489,581 460.5,605.5 Q432,630 388,630"/> 
            <glyph glyph-name="9" unicode="&#x39;" horiz-adv-x="597" d=" M386,710 Q477,710 537,654 Q597,598 597,494 Q597,395 551,298.5 Q505,202 438.5,136.5 Q372,71 300,30.5 Q228,-10 173,-10 Q156,-10 145,-0.5 Q134,9 134,25 Q134,45 148,59 Q162,73 180,77 Q250,94 328,152.5 Q406,211 450,296 Q419,269 375,255.5 Q331,242 293,242 Q207,242 154.5,298.5 Q102,355 102,439 Q102,552 189.5,631 Q277,710 386,710 M317,323 Q391,323 448.5,374 Q506,425 506,501 Q506,556 470,592 Q434,628 377,628 Q308,628 252,572.5 Q196,517 196,445 Q196,392 230,357.5 Q264,323 317,323"/> 
            <glyph glyph-name=":" unicode="&#x3A;" horiz-adv-x="249" d=" M45,40 Q45,68 67,92 Q89,116 121,116 Q144,116 158.5,101.5 Q173,87 173,64 Q173,35 149,12.5 Q125,-10 96,-10 Q73,-10 59,4 Q45,18 45,40 M121,435 Q121,463 143.5,486.5 Q166,510 197,510 Q220,510 234.5,495.5 Q249,481 249,459 Q249,429 225.5,406.5 Q202,384 173,384 Q150,384 135.5,398.5 Q121,413 121,435"/> 
            <glyph glyph-name=";" unicode="&#x3B;" horiz-adv-x="259" d=" M131,434 Q131,462 153,486 Q175,510 207,510 Q230,510 244.5,495.5 Q259,481 259,458 Q259,429 235,406.5 Q211,384 182,384 Q159,384 145,398 Q131,412 131,434 M59,46 Q59,72 79.5,92.5 Q100,113 128,113 Q147,113 163,99.5 Q179,86 179,52 Q179,-22 132.5,-73 Q86,-124 48,-124 Q34,-124 25.5,-116.5 Q17,-109 17,-97 Q17,-74 48,-57 Q89,-35 96,0 Q59,6 59,46"/> 
            <glyph glyph-name="&lt;" unicode="&#x3C;" horiz-adv-x="591" d=" M557,403 L200,247 L495,92 Q513,82 513,60 Q513,39 496,22 Q479,5 459,5 Q447,5 437,10 L103,204 Q83,216 83,240 Q83,256 93.5,272.5 Q104,289 120,296 L533,491 Q541,495 554,495 Q569,495 580,482 Q591,469 591,453 Q591,439 581.5,424 Q572,409 557,403"/> 
            <glyph glyph-name="=" unicode="&#x3D;" horiz-adv-x="574" d=" M525,316 L139,316 Q124,316 113.5,326 Q103,336 103,350 Q103,370 117.5,384 Q132,398 153,398 L539,398 Q553,398 563.5,387.5 Q574,377 574,363 Q574,343 559.5,329.5 Q545,316 525,316 M485,103 L99,103 Q84,103 73.5,113 Q63,123 63,137 Q63,157 77.5,171 Q92,185 113,185 L499,185 Q513,185 523.5,174.5 Q534,164 534,150 Q534,130 519.5,116.5 Q505,103 485,103"/> 
            <glyph glyph-name="&gt;" unicode="&#x3E;" horiz-adv-x="552" d=" M78,97 L435,253 L140,408 Q122,418 122,440 Q122,461 139,478 Q156,495 176,495 Q188,495 198,490 L532,296 Q552,284 552,260 Q552,244 541.5,227.5 Q531,211 515,204 L102,9 Q94,5 81,5 Q66,5 55,18 Q44,31 44,47 Q44,61 53.5,76 Q63,91 78,97"/> 
            <glyph glyph-name="?" unicode="&#x3F;" horiz-adv-x="532" d=" M360,710 Q436,710 484,666 Q532,622 532,560 Q532,516 511.5,479.5 Q491,443 460.5,417.5 Q430,392 399,368.5 Q368,345 342.5,315 Q317,285 310,252 Q306,230 288,214.5 Q270,199 248,199 Q230,199 219.5,211 Q209,223 209,243 Q209,251 210,256 Q217,293 243,327 Q269,361 300.5,387 Q332,413 363,438 Q394,463 414.5,491.5 Q435,520 435,549 Q435,582 409,605 Q383,628 346,628 Q256,628 211,539 Q195,507 163,507 Q132,507 132,542 Q132,550 133,553 Q143,604 207,657 Q271,710 360,710 M157,39 Q157,67 179,91 Q201,115 233,115 Q256,115 270.5,100.5 Q285,86 285,63 Q285,35 261.5,12 Q238,-11 208,-11 Q185,-11 171,3 Q157,17 157,39"/> 
            <glyph glyph-name="@" unicode="&#x40;" horiz-adv-x="960" d=" M634,65 L598,65 Q582,65 569.5,76.5 Q557,88 557,110 Q557,111 557.5,113.5 Q558,116 558,118 Q489,61 415,61 Q357,61 321.5,98.5 Q286,136 286,196 Q286,295 372,384.5 Q458,474 563,474 Q639,474 656,415 Q666,442 685,458 Q704,474 725,474 Q741,474 752,463.5 Q763,453 763,438 Q763,432 759,419 Q759,418 737.5,351.5 Q716,285 694,220 L672,154 Q751,154 809.5,217.5 Q868,281 868,380 Q868,485 788,552 Q708,619 598,619 Q492,619 393.5,561 Q295,503 233.5,405.5 Q172,308 172,200 Q172,74 249,-5.5 Q326,-85 461,-85 Q571,-85 689,-8 Q711,6 729,6 Q768,6 768,-27 Q768,-58 740,-79 Q609,-177 443,-177 Q282,-177 179.5,-73.5 Q77,30 77,190 Q77,331 149.5,451 Q222,571 345,640.5 Q468,710 610,710 Q766,710 863,622.5 Q960,535 960,390 Q960,244 863,154.5 Q766,65 634,65 M548,387 Q488,387 436,333.5 Q384,280 384,215 Q384,149 461,149 Q521,149 572.5,201 Q624,253 624,315 Q624,348 603.5,367.5 Q583,387 548,387"/> 
            <glyph glyph-name="A" unicode="&#x41;" horiz-adv-x="646" d=" M549,29 L521,192 L195,192 L106,31 Q82,-10 46,-10 Q29,-10 18.5,1.5 Q8,13 8,29 Q8,45 21,69 L353,663 Q373,700 411,700 L498,700 Q537,700 544,663 L644,69 Q646,55 646,45 Q646,22 631.5,6 Q617,-10 594,-10 Q577,-10 564,1 Q551,12 549,29 M433,618 L243,277 L508,277 L451,618"/> 
            <glyph glyph-name="B" unicode="&#x42;" horiz-adv-x="646" d=" M228,700 L470,700 Q556,700 601,658.5 Q646,617 646,550 Q646,514 636,483 Q626,452 612,432.5 Q598,413 584,399 Q570,385 560,379 L550,373 Q553,371 557,368 Q561,365 572,353 Q583,341 591.5,327 Q600,313 607,289.5 Q614,266 614,239 Q614,136 544.5,68 Q475,0 339,0 L91,0 Q75,0 64,11 Q53,22 53,39 Q53,43 55,53 L172,653 Q176,673 192.5,686.5 Q209,700 228,700 M451,615 L259,615 L218,404 L410,404 Q468,404 509,438.5 Q550,473 550,532 Q550,570 523.5,592.5 Q497,615 451,615 M394,319 L201,319 L156,85 L349,85 Q422,85 469.5,125.5 Q517,166 517,231 Q517,319 394,319"/> 
            <glyph glyph-name="C" unicode="&#x43;" horiz-adv-x="697" d=" M77,282 Q77,361 109,437.5 Q141,514 196,574.5 Q251,635 332,672.5 Q413,710 505,710 Q569,710 633,686 Q697,662 697,626 Q697,605 683,591.5 Q669,578 654,578 Q640,578 618,591 Q563,626 494,626 Q367,626 270.5,522.5 Q174,419 174,295 Q174,201 232,137.5 Q290,74 387,74 Q469,74 549,126 Q563,136 582,136 Q596,136 606.5,126 Q617,116 617,100 Q617,70 586,51 Q490,-10 371,-10 Q243,-10 160,74 Q77,158 77,282"/> 
            <glyph glyph-name="D" unicode="&#x44;" horiz-adv-x="692" d=" M226,700 L395,700 Q536,700 614,624 Q692,548 692,423 Q692,312 642.5,217 Q593,122 493,61 Q393,0 262,0 L89,0 Q73,0 63,10 Q53,20 53,36 Q53,43 54,46 L173,654 Q177,674 192,687 Q207,700 226,700 M378,615 L259,615 L156,85 L275,85 Q423,85 511,184 Q599,283 599,409 Q599,504 545,559.5 Q491,615 378,615"/> 
            <glyph glyph-name="E" unicode="&#x45;" horiz-adv-x="668" d=" M156,86 L511,86 Q528,86 538.5,76.5 Q549,67 549,52 Q549,31 532.5,15.5 Q516,0 494,0 L92,0 Q75,0 64.5,10.5 Q54,21 54,38 Q54,41 57,59 L173,654 Q177,673 193,686.5 Q209,700 229,700 L631,700 Q648,700 658,690.5 Q668,681 668,666 Q668,645 652.5,629.5 Q637,614 614,614 L259,614 L218,405 L516,405 Q533,405 543,396 Q553,387 553,372 Q553,351 536.5,335 Q520,319 499,319 L201,319"/> 
            <glyph glyph-name="F" unicode="&#x46;" horiz-adv-x="642" d=" M54,49 L172,654 Q176,674 192,687 Q208,700 228,700 L605,700 Q622,700 632,690.5 Q642,681 642,666 Q642,645 625.5,629.5 Q609,614 588,614 L258,614 L216,398 L486,398 Q502,398 512.5,388 Q523,378 523,364 Q523,343 507,327.5 Q491,312 470,312 L200,312 L146,39 Q142,18 128,4 Q114,-10 92,-10 Q75,-10 63.5,1 Q52,12 52,29 Q52,37 54,49"/> 
            <glyph glyph-name="G" unicode="&#x47;" horiz-adv-x="728" d=" M76,278 Q76,385 131,484 Q186,583 285.5,646.5 Q385,710 501,710 Q571,710 630,685.5 Q689,661 720,618 Q728,609 728,594 Q728,577 714,561.5 Q700,546 681,546 Q660,546 638,568 Q583,625 489,625 Q409,625 335.5,576 Q262,527 218,450 Q174,373 174,294 Q174,201 231.5,137 Q289,73 382,73 Q485,73 570,135 L601,295 L425,295 Q407,295 396,304.5 Q385,314 385,330 Q385,352 401.5,366.5 Q418,381 442,381 L666,381 Q683,381 694.5,370 Q706,359 706,342 Q706,341 702,319 L664,124 Q661,109 646,94 Q532,-10 366,-10 Q237,-10 156.5,71.5 Q76,153 76,278"/> 
            <glyph glyph-name="H" unicode="&#x48;" horiz-adv-x="779" d=" M777,653 L658,37 Q654,17 639,3.5 Q624,-10 605,-10 Q587,-10 575,1 Q563,12 563,28 Q563,35 565,47 L617,319 L202,319 L148,37 Q144,17 129,3.5 Q114,-10 95,-10 Q77,-10 65,1 Q53,12 53,28 Q53,35 55,47 L174,663 Q178,683 193,696.5 Q208,710 227,710 Q245,710 257,699 Q269,688 269,672 Q269,665 267,653 L219,403 L634,403 L684,663 Q688,683 703,696.5 Q718,710 737,710 Q755,710 767,699 Q779,688 779,672 Q779,665 777,653"/> 
            <glyph glyph-name="I" unicode="&#x49;" horiz-adv-x="279" d=" M277,653 L158,37 Q154,17 139,3.5 Q124,-10 105,-10 Q87,-10 75,1 Q63,12 63,28 Q63,35 65,47 L184,663 Q188,683 203,696.5 Q218,710 237,710 Q255,710 267,699 Q279,688 279,672 Q279,665 277,653"/> 
            <glyph glyph-name="J" unicode="&#x4A;" horiz-adv-x="689" d=" M687,653 L619,299 Q592,160 506,75 Q420,-10 288,-10 Q183,-10 117,53 Q51,116 51,207 Q51,309 113,309 Q130,309 140.5,298.5 Q151,288 151,271 Q151,264 148.5,247 Q146,230 146,217 Q146,155 187,115 Q228,75 295,75 Q379,75 441.5,138 Q504,201 523,299 L594,663 Q598,683 613,696.5 Q628,710 647,710 Q665,710 677,699 Q689,688 689,672 Q689,665 687,653"/> 
            <glyph glyph-name="K" unicode="&#x4B;" horiz-adv-x="692" d=" M190,254 L148,37 Q144,17 129,3.5 Q114,-10 95,-10 Q77,-10 65,1 Q53,12 53,28 Q53,35 55,47 L174,663 Q178,683 193,696.5 Q208,710 227,710 Q245,710 257,699 Q269,688 269,672 Q269,665 267,653 L214,377 L620,699 Q633,710 653,710 Q670,710 681,698.5 Q692,687 692,671 Q692,646 666,626 L360,387 L585,69 Q596,55 596,40 Q596,18 582,4 Q568,-10 545,-10 Q523,-10 512,5 L284,329"/> 
            <glyph glyph-name="L" unicode="&#x4C;" horiz-adv-x="503" d=" M56,58 L174,662 Q178,682 193.5,696 Q209,710 228,710 Q246,710 258,699 Q270,688 270,672 Q270,665 268,653 L158,85 L463,85 Q480,85 491.5,75 Q503,65 503,50 Q503,28 485.5,14 Q468,0 446,0 L93,0 Q76,0 64.5,11 Q53,22 53,39 Q53,40 56,58"/> 
            <glyph glyph-name="M" unicode="&#x4D;" horiz-adv-x="872" d=" M660,47 L763,580 L735,547 L512,330 Q484,302 455,302 Q425,302 408,330 L270,547 L253,581 L148,37 Q144,17 129,3.5 Q114,-10 95,-10 Q77,-10 65,1 Q53,12 53,28 Q53,35 55,47 L173,650 Q177,672 194,686 Q211,700 231,700 L265,700 Q289,700 306,673 L472,406 L741,673 Q770,700 791,700 L832,700 Q850,700 861,689 Q872,678 872,661 Q872,655 871,650 L753,37 Q749,17 734,3.5 Q719,-10 700,-10 Q682,-10 670,1 Q658,12 658,28 Q658,35 660,47"/> 
            <glyph glyph-name="N" unicode="&#x4E;" horiz-adv-x="779" d=" M777,653 L659,49 Q655,30 638,15 Q621,0 601,0 L566,0 Q534,0 522,25 L267,541 L254,580 L148,37 Q144,17 129,3.5 Q114,-10 95,-10 Q77,-10 65,1 Q53,12 53,28 Q53,35 55,47 L173,651 Q177,670 194,685 Q211,700 232,700 L266,700 Q298,700 310,675 L565,159 L578,120 L684,663 Q688,683 703,696.5 Q718,710 737,710 Q755,710 767,699 Q779,688 779,672 Q779,665 777,653"/> 
            <glyph glyph-name="O" unicode="&#x4F;" horiz-adv-x="803" d=" M76,281 Q76,363 109,440.5 Q142,518 198.5,577.5 Q255,637 337,673.5 Q419,710 510,710 Q637,710 720,626.5 Q803,543 803,419 Q803,305 745.5,206 Q688,107 589,48.5 Q490,-10 375,-10 Q243,-10 159.5,73 Q76,156 76,281 M494,626 Q368,626 270,524 Q172,422 172,293 Q172,198 230.5,136 Q289,74 387,74 Q511,74 609,176 Q707,278 707,406 Q707,501 649,563.5 Q591,626 494,626"/> 
            <glyph glyph-name="P" unicode="&#x50;" horiz-adv-x="644" d=" M172,652 Q176,672 192,686 Q208,700 228,700 L442,700 Q538,700 591,646.5 Q644,593 644,508 Q644,397 564,317.5 Q484,238 352,238 L185,238 L147,39 Q143,19 127.5,4.5 Q112,-10 91,-10 Q74,-10 63,1 Q52,12 52,28 Q52,34 54,46 M259,615 L202,323 L365,323 Q449,323 500,375.5 Q551,428 551,493 Q551,551 519,583 Q487,615 422,615"/> 
            <glyph glyph-name="Q" unicode="&#x51;" horiz-adv-x="803" d=" M359,-37 Q374,-37 409,-51.5 Q444,-66 519,-81 Q594,-96 708,-96 Q723,-96 733,-106.5 Q743,-117 743,-133 Q743,-155 725,-169 Q707,-183 681,-183 Q481,-183 332,-121 Q305,-111 305,-86 Q305,-66 321.5,-51.5 Q338,-37 359,-37 M76,281 Q76,388 134.5,487 Q193,586 294,648 Q395,710 510,710 Q638,710 720.5,626.5 Q803,543 803,419 Q803,307 743,207.5 Q683,108 583,49 Q483,-10 371,-10 Q241,-10 158.5,73 Q76,156 76,281 M494,626 Q368,626 270,524 Q172,422 172,293 Q172,198 230.5,136 Q289,74 387,74 Q511,74 609.5,176 Q708,278 708,406 Q708,501 649.5,563.5 Q591,626 494,626"/> 
            <glyph glyph-name="R" unicode="&#x52;" horiz-adv-x="655" d=" M260,615 L206,338 L394,338 Q457,338 508.5,385.5 Q560,433 560,499 Q560,548 528,581.5 Q496,615 448,615 M55,47 L172,652 Q176,672 193.5,686 Q211,700 230,700 L464,700 Q548,700 601.5,648.5 Q655,597 655,516 Q655,432 600,359 Q545,286 454,259 L557,74 Q565,62 565,45 Q565,24 549.5,7 Q534,-10 510,-10 Q482,-10 470,13 L340,253 L189,253 L148,37 Q144,17 129,3.5 Q114,-10 95,-10 Q77,-10 65,1 Q53,12 53,28 Q53,35 55,47"/> 
            <glyph glyph-name="S" unicode="&#x53;" horiz-adv-x="603" d=" M282,74 Q356,74 410.5,113.5 Q465,153 465,201 Q465,240 430,265.5 Q395,291 345,307 Q295,323 245,342 Q195,361 160,399.5 Q125,438 125,495 Q125,588 204.5,649 Q284,710 397,710 Q493,710 548,667.5 Q603,625 603,585 Q603,567 592.5,552 Q582,537 560,537 Q534,537 506,575 Q467,629 387,629 Q316,629 269,591 Q222,553 222,510 Q222,479 247.5,456 Q273,433 311,420.5 Q349,408 393,391 Q437,374 475,355.5 Q513,337 538.5,300.5 Q564,264 564,215 Q564,117 478.5,53.5 Q393,-10 272,-10 Q167,-10 106.5,39 Q46,88 46,129 Q46,150 60,165.5 Q74,181 93,181 Q109,181 122,170 Q135,159 146.5,143.5 Q158,128 173,112 Q188,96 216,85 Q244,74 282,74"/> 
            <glyph glyph-name="T" unicode="&#x54;" horiz-adv-x="656" d=" M616,700 Q633,700 644.5,690.5 Q656,681 656,665 Q656,642 638.5,628 Q621,614 597,614 L418,614 L307,39 Q303,18 288,4 Q273,-10 251,-10 Q234,-10 222.5,1 Q211,12 211,29 Q211,37 213,49 L322,614 L144,614 Q127,614 115,624.5 Q103,635 103,651 Q103,673 120.5,686.5 Q138,700 162,700"/> 
            <glyph glyph-name="U" unicode="&#x55;" horiz-adv-x="784" d=" M782,653 L715,305 Q687,159 586.5,74.5 Q486,-10 359,-10 Q243,-10 168.5,58.5 Q94,127 94,240 Q94,276 104,326 L170,664 Q174,684 189,697 Q204,710 223,710 Q241,710 253,699 Q265,688 265,672 Q265,668 262,653 L196,316 Q188,278 188,245 Q188,163 238.5,119.5 Q289,76 362,76 Q454,76 526.5,137.5 Q599,199 620,307 L689,663 Q693,683 708,696.5 Q723,710 742,710 Q760,710 772,699 Q784,688 784,672 Q784,665 782,653"/> 
            <glyph glyph-name="V" unicode="&#x56;" horiz-adv-x="760" d=" M235,37 L135,631 Q133,645 133,655 Q133,678 147.5,694 Q162,710 185,710 Q202,710 214.5,699 Q227,688 230,671 L328,82 L338,82 L663,670 Q685,710 720,710 Q737,710 748.5,699 Q760,688 760,672 Q760,655 747,631 L419,39 Q410,23 394.5,11.5 Q379,0 365,0 L276,0 Q259,0 248,10.5 Q237,21 235,37"/> 
            <glyph glyph-name="W" unicode="&#x57;" horiz-adv-x="884" d=" M881,653 L725,50 Q719,28 703,14 Q687,0 666,0 L634,0 Q608,0 594,27 L455,291 L214,27 Q190,0 163,0 L123,0 Q105,0 94.5,11.5 Q84,23 84,41 Q84,42 84.5,45 Q85,48 85,50 L163,660 Q166,683 182,696.5 Q198,710 221,710 Q239,710 249.5,699 Q260,688 260,670 Q260,668 259.5,665 Q259,662 259,660 L187,118 L411,367 Q439,398 472,398 Q506,398 521,367 L648,116 L787,660 Q792,682 808,696 Q824,710 844,710 Q862,710 873,699 Q884,688 884,671 Q884,664 881,653"/> 
            <glyph glyph-name="X" unicode="&#x58;" horiz-adv-x="738" d=" M633,67 Q641,56 641,42 Q641,20 625,5 Q609,-10 586,-10 Q567,-10 552,12 L378,294 L91,8 Q73,-10 50,-10 Q33,-10 22,1 Q11,12 11,28 Q11,50 30,68 L333,367 L169,627 Q157,646 157,659 Q157,678 172.5,694 Q188,710 210,710 Q233,710 246,689 L402,436 L658,692 Q676,710 699,710 Q716,710 727,698 Q738,686 738,670 Q738,649 720,631 L449,362"/> 
            <glyph glyph-name="Y" unicode="&#x59;" horiz-adv-x="728" d=" M254,49 L301,293 L122,628 Q113,644 113,658 Q113,680 127.5,695 Q142,710 166,710 Q191,710 202,690 L364,385 L647,692 Q665,710 687,710 Q705,710 716,700 Q728,688 728,672 Q728,652 710,632 L398,297 L348,39 Q344,18 329,4 Q314,-10 292,-10 Q275,-10 263.5,1 Q252,12 252,29 Q252,37 254,49"/> 
            <glyph glyph-name="Z" unicode="&#x5A;" horiz-adv-x="702" d=" M572,614 L193,614 Q175,614 165,624 Q155,634 155,649 Q155,670 171.5,685 Q188,700 210,700 L658,700 Q677,700 689.5,686.5 Q702,673 702,655 Q702,625 680,603 L157,86 L560,86 Q577,86 587.5,76.5 Q598,67 598,52 Q598,31 581.5,15.5 Q565,0 543,0 L70,0 Q51,0 38.5,12 Q26,24 26,44 Q26,74 50,98"/> 
            <glyph glyph-name="[" unicode="&#x5B;" horiz-adv-x="426" d=" M43,-90 L193,679 Q197,700 213.5,713.5 Q230,727 249,727 L387,727 Q404,727 415,716.5 Q426,706 426,690 Q426,668 408.5,653.5 Q391,639 370,639 L280,639 L145,-55 L235,-55 Q252,-55 263,-65 Q274,-75 274,-91 Q274,-113 256.5,-128 Q239,-143 218,-143 L80,-143 Q63,-143 52.5,-131.5 Q42,-120 42,-103 Q42,-96 43,-90"/> 
            <glyph glyph-name="\" unicode="&#x5C;" horiz-adv-x="302" d=" M205,20 L94,645 Q94,646 93.5,650 Q93,654 93,656 Q93,677 110.5,693.5 Q128,710 149,710 Q165,710 176,701 Q187,692 189,678 L301,52 Q301,51 301.5,48.5 Q302,46 302,45 Q302,24 284.5,7 Q267,-10 245,-10 Q210,-10 205,20"/> 
            <glyph glyph-name="]" unicode="&#x5D;" horiz-adv-x="374" d=" M373,674 L223,-95 Q219,-116 202.5,-129.5 Q186,-143 167,-143 L29,-143 Q12,-143 1,-132.5 Q-10,-122 -10,-106 Q-10,-84 7.5,-69.5 Q25,-55 46,-55 L136,-55 L271,639 L181,639 Q164,639 153,649 Q142,659 142,675 Q142,697 159.5,712 Q177,727 198,727 L336,727 Q353,727 363.5,715.5 Q374,704 374,687 Q374,680 373,674"/> 
            <glyph glyph-name="^" unicode="&#x5E;" horiz-adv-x="502" d=" M420,330 L333,585 L147,332 Q129,308 105,308 Q89,308 77.5,318 Q66,328 66,341 Q66,352 75,366 L309,686 Q327,710 355,710 Q384,710 392,686 L499,367 Q502,361 502,352 Q502,336 486,322 Q470,308 453,308 Q427,308 420,330"/> 
            <glyph glyph-name="_" unicode="&#x5F;" horiz-adv-x="548" d=" M-3,-75 L519,-75 Q532,-75 540,-82.5 Q548,-90 548,-103 Q548,-119 535,-132 Q522,-145 505,-145 L-17,-145 Q-46,-145 -46,-118 Q-46,-100 -34,-87.5 Q-22,-75 -3,-75"/> 
            <glyph glyph-name="`" unicode="&#x60;" horiz-adv-x="236" d=" M160,578 L78,670 Q70,678 70,692 Q70,710 85,725 Q100,740 119,740 Q134,740 144,729 L227,636 Q236,627 236,613 Q236,593 221,579 Q206,565 186,565 Q171,565 160,578"/> 
            <glyph glyph-name="a" unicode="&#x61;" horiz-adv-x="617" d=" M485,246 Q491,278 491,295 Q491,353 454.5,391 Q418,429 357,429 Q274,429 211.5,365 Q149,301 149,213 Q149,150 186,111 Q223,72 288,72 Q361,72 416,122 Q471,172 485,246 M440,47 L443,64 Q436,56 422,43.5 Q408,31 362,10.5 Q316,-10 266,-10 Q179,-10 119,51 Q59,112 59,207 Q59,335 151,422.5 Q243,510 362,510 Q392,510 418.5,502.5 Q445,495 462,484 Q479,473 491.5,462 Q504,451 510,444 L515,436 L520,462 Q524,483 539,496.5 Q554,510 575,510 Q592,510 604.5,498.5 Q617,487 617,471 Q617,466 615,452 L534,37 Q530,16 515,2.5 Q500,-11 479,-11 Q462,-11 449.5,0.5 Q437,12 437,28 Q437,31 437.5,34 Q438,37 439,40.5 Q440,44 440,47"/> 
            <glyph glyph-name="b" unicode="&#x62;" horiz-adv-x="620" d=" M194,253 Q188,221 188,204 Q188,146 224.5,108 Q261,70 322,70 Q405,70 467.5,134 Q530,198 530,286 Q530,350 493,389 Q456,428 391,428 Q318,428 263,377.5 Q208,327 194,253 M286,692 L236,435 Q239,438 244,443 Q249,448 266,461 Q283,474 302,484 Q321,494 351,502 Q381,510 413,510 Q500,510 560,448.5 Q620,387 620,292 Q620,167 531,78.5 Q442,-10 321,-10 Q290,-10 262.5,-2.5 Q235,5 218,15.5 Q201,26 188,37 Q175,48 170,56 L164,63 L159,37 Q155,16 140,3 Q125,-10 104,-10 Q87,-10 74.5,1 Q62,12 62,28 Q62,33 64,47 L192,702 Q196,723 211,736.5 Q226,750 247,750 Q264,750 276.5,738.5 Q289,727 289,711 Q289,708 287.5,701 Q286,694 286,692"/> 
            <glyph glyph-name="c" unicode="&#x63;" horiz-adv-x="522" d=" M363,429 Q280,429 216.5,364 Q153,299 153,217 Q153,155 192,113.5 Q231,72 295,72 Q335,72 373.5,90 Q412,108 420,108 Q436,108 446,97.5 Q456,87 456,71 Q456,44 423,24 Q366,-10 284,-10 Q185,-10 124.5,50 Q64,110 64,208 Q64,331 154,420.5 Q244,510 377,510 Q457,510 501,482 Q522,469 522,449 Q522,430 505,414.5 Q488,399 469,399 Q457,399 437,410 Q405,429 363,429"/> 
            <glyph glyph-name="d" unicode="&#x64;" horiz-adv-x="669" d=" M491,246 Q497,278 497,295 Q497,353 460.5,391 Q424,429 363,429 Q280,429 217.5,365 Q155,301 155,213 Q155,150 192,111 Q229,72 294,72 Q367,72 422,122 Q477,172 491,246 M446,47 L449,64 Q442,56 428,43.5 Q414,31 368,10.5 Q322,-10 272,-10 Q185,-10 125,51 Q65,112 65,207 Q65,335 157,422.5 Q249,510 368,510 Q398,510 424.5,502.5 Q451,495 468,484 Q485,473 497.5,462 Q510,451 516,444 L521,436 L572,702 Q576,723 591,736.5 Q606,750 627,750 Q644,750 656.5,738.5 Q669,727 669,711 Q669,706 667,692 L540,37 Q536,16 521,2.5 Q506,-11 485,-11 Q468,-11 455.5,0.5 Q443,12 443,28 Q443,31 443.5,34 Q444,37 445,40.5 Q446,44 446,47"/> 
            <glyph glyph-name="e" unicode="&#x65;" horiz-adv-x="579" d=" M510,211 L154,211 Q154,152 194.5,112 Q235,72 298,72 Q355,72 427,107 Q443,115 456,115 Q472,115 481,105.5 Q490,96 490,82 Q490,50 460,36 Q376,-10 282,-10 Q183,-10 123.5,50 Q64,110 64,208 Q64,331 153.5,420.5 Q243,510 374,510 Q468,510 523.5,451 Q579,392 579,313 Q579,273 562.5,242 Q546,211 510,211 M363,430 Q300,430 243.5,389 Q187,348 169,288 L495,288 L495,299 Q495,357 459,393.5 Q423,430 363,430"/> 
            <glyph glyph-name="f" unicode="&#x66;" horiz-adv-x="428" d=" M32,-173 L146,415 L105,415 Q90,415 80.5,425 Q71,435 71,450 Q71,471 86,485.5 Q101,500 122,500 L163,500 L185,612 Q197,674 238.5,712 Q280,750 336,750 L389,750 Q407,750 417.5,740 Q428,730 428,714 Q428,694 412.5,679.5 Q397,665 377,665 L336,665 Q316,665 300.5,651 Q285,637 281,618 L258,500 L355,500 Q370,500 380,489.5 Q390,479 390,464 Q390,444 374,429.5 Q358,415 338,415 L241,415 L125,-182 Q121,-202 106,-216 Q91,-230 70,-230 Q52,-230 41,-218.5 Q30,-207 30,-191 Q30,-183 32,-173"/> 
            <glyph glyph-name="g" unicode="&#x67;" horiz-adv-x="623" d=" M491,246 Q497,278 497,295 Q497,353 460.5,391 Q424,429 363,429 Q280,429 217.5,365 Q155,301 155,213 Q155,150 192,111 Q229,72 294,72 Q367,72 422,122 Q477,172 491,246 M439,11 L449,64 Q442,56 428,43.5 Q414,31 368,10.5 Q322,-10 272,-10 Q185,-10 125,51 Q65,112 65,207 Q65,335 157,422.5 Q249,510 368,510 Q398,510 424.5,502.5 Q451,495 468,484 Q485,473 497.5,462 Q510,451 516,444 L521,436 L526,462 Q530,483 545,496.5 Q560,510 581,510 Q598,510 610.5,498.5 Q623,487 623,471 Q623,466 621,452 L536,16 Q514,-97 433,-163.5 Q352,-230 239,-230 Q158,-230 116,-212.5 Q74,-195 74,-168 Q74,-148 89,-133 Q104,-118 126,-118 Q132,-118 168,-133.5 Q204,-149 251,-149 Q318,-149 372,-103 Q426,-57 439,11"/> 
            <glyph glyph-name="h" unicode="&#x68;" horiz-adv-x="613" d=" M467,47 L511,270 Q515,294 515,313 Q515,368 484,397.5 Q453,427 396,427 Q332,427 276,389 Q220,351 211,304 L159,37 Q155,16 140,3 Q125,-10 104,-10 Q87,-10 74.5,1 Q62,12 62,28 Q62,33 64,47 L192,702 Q196,723 211,736.5 Q226,750 247,750 Q264,750 276.5,738.5 Q289,727 289,711 Q289,703 286,691 L236,436 Q271,469 321.5,489.5 Q372,510 420,510 Q510,510 561.5,459 Q613,408 613,326 Q613,304 608,274 L562,37 Q558,16 543,3 Q528,-10 507,-10 Q490,-10 477.5,1 Q465,12 465,28 Q465,33 467,47"/> 
            <glyph glyph-name="i" unicode="&#x69;" horiz-adv-x="288" d=" M160,635 Q160,663 182.5,686.5 Q205,710 236,710 Q259,710 273.5,695.5 Q288,681 288,659 Q288,629 264.5,606.5 Q241,584 212,584 Q190,584 175,598.5 Q160,613 160,635 M236,452 L170,114 Q168,106 168,99 Q168,75 192,75 Q208,75 218,65 Q228,55 228,40 Q228,18 209.5,4 Q191,-10 166,-10 Q121,-10 95.5,13.5 Q70,37 70,75 Q70,92 74,114 L141,463 Q145,484 160,497 Q175,510 196,510 Q213,510 225.5,498.5 Q238,487 238,471 Q238,466 236,452"/> 
            <glyph glyph-name="j" unicode="&#x6A;" horiz-adv-x="328" d=" M200,636 Q200,664 223.5,687 Q247,710 277,710 Q299,710 313.5,695.5 Q328,681 328,660 Q328,629 305,606.5 Q282,584 252,584 Q230,584 215,599 Q200,614 200,636 M273,453 L169,-82 Q157,-144 115.5,-182 Q74,-220 18,-220 L-35,-220 Q-53,-220 -63.5,-210 Q-74,-200 -74,-184 Q-74,-164 -58.5,-149.5 Q-43,-135 -23,-135 L18,-135 Q38,-135 53.5,-121 Q69,-107 73,-88 L180,462 Q184,482 199,496 Q214,510 235,510 Q253,510 264,498.5 Q275,487 275,471 Q275,463 273,453"/> 
            <glyph glyph-name="k" unicode="&#x6B;" horiz-adv-x="549" d=" M185,171 L159,37 Q155,16 140,3 Q125,-10 104,-10 Q87,-10 74.5,1 Q62,12 62,28 Q62,33 64,47 L192,702 Q196,723 211,736.5 Q226,750 247,750 Q264,750 276.5,738.5 Q289,727 289,711 Q289,703 286,691 L207,286 L468,492 Q490,510 511,510 Q529,510 539,500 Q549,490 549,473 Q549,448 531,434 L335,284 L482,64 Q489,53 489,39 Q489,18 474,4 Q459,-10 439,-10 Q416,-10 407,3 L261,229"/> 
            <glyph glyph-name="l" unicode="&#x6C;" horiz-adv-x="284" d=" M282,692 L170,114 Q168,106 168,99 Q168,75 192,75 Q208,75 218,65 Q228,55 228,40 Q228,18 209.5,4 Q191,-10 166,-10 Q121,-10 95.5,13.5 Q70,37 70,75 Q70,92 74,114 L187,703 Q191,724 206,737 Q221,750 242,750 Q259,750 271.5,738.5 Q284,727 284,711 Q284,706 282,692"/> 
            <glyph glyph-name="m" unicode="&#x6D;" horiz-adv-x="953" d=" M239,453 L235,434 Q266,467 311,488.5 Q356,510 405,510 Q455,510 497,486.5 Q539,463 560,417 Q656,510 761,510 Q847,510 900,460 Q953,410 953,325 Q953,294 948,270 L903,37 Q899,16 884,3 Q869,-10 848,-10 Q831,-10 819,1 Q807,12 807,28 Q807,33 809,47 L854,276 Q858,293 858,314 Q858,367 826.5,397 Q795,427 745,427 Q692,427 641.5,387.5 Q591,348 580,292 L531,37 Q527,16 512,3 Q497,-10 476,-10 Q459,-10 447,1 Q435,12 435,28 Q435,33 437,47 L482,276 Q486,295 486,316 Q486,368 457.5,397.5 Q429,427 380,427 Q325,427 272.5,388 Q220,349 210,300 L159,37 Q155,16 140,3 Q125,-10 104,-10 Q87,-10 74.5,1 Q62,12 62,28 Q62,30 64,44 L145,463 Q149,484 164,497 Q179,510 200,510 Q217,510 229,499 Q241,488 241,472 Q241,467 239,453"/> 
            <glyph glyph-name="n" unicode="&#x6E;" horiz-adv-x="612" d=" M467,44 L510,269 Q515,294 515,313 Q515,367 483.5,397 Q452,427 395,427 Q331,427 275,389 Q219,351 210,304 L159,37 Q155,16 140,3 Q125,-10 104,-10 Q87,-10 74.5,1 Q62,12 62,28 Q62,30 64,44 L145,463 Q149,484 164,497 Q179,510 200,510 Q217,510 229,499 Q241,488 241,472 Q241,467 239,453 L236,436 Q270,469 320.5,489.5 Q371,510 419,510 Q509,510 560.5,459 Q612,408 612,326 Q612,304 607,274 L562,37 Q558,16 543,3 Q528,-10 507,-10 Q490,-10 477.5,1 Q465,12 465,28 Q465,30 467,44"/> 
            <glyph glyph-name="o" unicode="&#x6F;" horiz-adv-x="595" d=" M377,510 Q473,510 534,449 Q595,388 595,292 Q595,169 505,79.5 Q415,-10 281,-10 Q185,-10 124.5,51 Q64,112 64,208 Q64,332 153.5,421 Q243,510 377,510 M295,71 Q379,71 441.5,135.5 Q504,200 504,283 Q504,350 466.5,390 Q429,430 364,430 Q280,430 217,365 Q154,300 154,217 Q154,151 192,111 Q230,71 295,71"/> 
            <glyph glyph-name="p" unicode="&#x70;" horiz-adv-x="610" d=" M184,253 Q178,221 178,204 Q178,146 214.5,108.5 Q251,71 312,71 Q395,71 457.5,134.5 Q520,198 520,286 Q520,350 483,389.5 Q446,429 381,429 Q308,429 253,378 Q198,327 184,253 M229,452 L226,435 Q233,443 247,455.5 Q261,468 307,488.5 Q353,509 403,509 Q490,509 550,448 Q610,387 610,292 Q610,165 519,77.5 Q428,-10 312,-10 Q280,-10 252.5,-2.5 Q225,5 207.5,15.5 Q190,26 177.5,37 Q165,48 160,56 L154,63 L106,-182 Q102,-203 87,-216.5 Q72,-230 51,-230 Q34,-230 21.5,-218.5 Q9,-207 9,-191 Q9,-186 11,-172 L135,462 Q139,483 154,496.5 Q169,510 190,510 Q207,510 219.5,498.5 Q232,487 232,471 Q232,468 230.5,461 Q229,454 229,452"/> 
            <glyph glyph-name="q" unicode="&#x71;" horiz-adv-x="623" d=" M491,247 Q497,279 497,296 Q497,354 460.5,392 Q424,430 363,430 Q280,430 217.5,366 Q155,302 155,214 Q155,150 192,111 Q229,72 294,72 Q367,72 422,122.5 Q477,173 491,247 M404,-172 L449,65 Q446,62 441,57 Q436,52 419,39 Q402,26 383,16 Q364,6 334,-2 Q304,-10 272,-10 Q185,-10 125,51.5 Q65,113 65,208 Q65,333 154,421.5 Q243,510 364,510 Q395,510 422.5,502.5 Q450,495 467,484.5 Q484,474 497,463 Q510,452 516,444 L521,437 L526,463 Q530,484 545,497 Q560,510 581,510 Q598,510 610.5,499 Q623,488 623,472 Q623,467 621,453 L498,-182 Q494,-203 479,-216.5 Q464,-230 443,-230 Q426,-230 413.5,-218.5 Q401,-207 401,-191 Q401,-188 402.5,-181 Q404,-174 404,-172"/> 
            <glyph glyph-name="r" unicode="&#x72;" horiz-adv-x="443" d=" M364,500 L404,500 Q421,500 432,491 Q443,482 443,466 Q443,445 426.5,430 Q410,415 388,415 L343,415 Q291,415 249,377 Q207,339 198,290 L149,38 Q145,19 127.5,4.5 Q110,-10 91,-10 Q74,-10 63,1.5 Q52,13 52,29 Q52,33 55,48 L135,462 Q139,481 156,495.5 Q173,510 192,510 Q209,510 220.5,498.5 Q232,487 232,470 Q232,464 226,435 Q253,463 290,481.5 Q327,500 364,500"/> 
            <glyph glyph-name="s" unicode="&#x73;" horiz-adv-x="499" d=" M245,71 Q290,71 333.5,89 Q377,107 377,146 Q377,167 356.5,181.5 Q336,196 304.5,203 Q273,210 237,221 Q201,232 169.5,244.5 Q138,257 117.5,283 Q97,309 97,346 Q97,422 163.5,466 Q230,510 315,510 Q410,510 469,463 Q499,440 499,417 Q499,398 484.5,383 Q470,368 450,368 Q433,368 410,391 Q369,430 305,430 Q262,430 225.5,412 Q189,394 189,362 Q189,339 218.5,324.5 Q248,310 289.5,299.5 Q331,289 372.5,275.5 Q414,262 443.5,233 Q473,204 473,160 Q473,81 402,35.5 Q331,-10 238,-10 Q137,-10 76,38 Q42,65 42,89 Q42,110 57.5,124.5 Q73,139 93,139 Q109,139 126,120 Q168,71 245,71"/> 
            <glyph glyph-name="t" unicode="&#x74;" horiz-adv-x="378" d=" M266,575 L251,500 L343,500 Q358,500 368,490 Q378,480 378,465 Q378,445 362,430 Q346,415 326,415 L234,415 L180,136 Q177,121 177,114 Q177,85 210,85 L246,85 Q264,85 274.5,75.5 Q285,66 285,51 Q285,29 269,14.5 Q253,0 228,0 L183,0 Q135,0 107,28.5 Q79,57 79,101 Q79,116 82,132 L137,415 L98,415 Q82,415 72,425 Q62,435 62,449 Q62,471 76.5,485.5 Q91,500 115,500 L154,500 L171,586 Q175,607 190,620 Q205,633 226,633 Q243,633 255.5,621.5 Q268,610 268,594 Q268,589 266,575"/> 
            <glyph glyph-name="u" unicode="&#x75;" horiz-adv-x="624" d=" M219,456 L176,231 Q171,206 171,187 Q171,133 202.5,103 Q234,73 291,73 Q355,73 411,111 Q467,149 476,196 L527,463 Q531,484 546,497 Q561,510 582,510 Q599,510 611.5,499 Q624,488 624,472 Q624,470 622,456 L541,37 Q537,16 522,3 Q507,-10 486,-10 Q469,-10 457,1 Q445,12 445,28 Q445,33 447,47 L450,64 Q416,31 365.5,10.5 Q315,-10 267,-10 Q177,-10 125.5,41 Q74,92 74,174 Q74,196 79,226 L124,463 Q128,484 143,497 Q158,510 179,510 Q196,510 208.5,499 Q221,488 221,472 Q221,470 219,456"/> 
            <glyph glyph-name="v" unicode="&#x76;" horiz-adv-x="564" d=" M139,510 Q154,510 166.5,499 Q179,488 181,473 L245,82 L254,82 L473,479 Q490,510 522,510 Q541,510 552.5,499 Q564,488 564,473 Q564,454 554,437 L322,40 Q299,0 256,0 L212,0 Q191,0 177.5,11.5 Q164,23 161,40 L87,425 Q84,438 84,454 Q84,477 98,493.5 Q112,510 139,510"/> 
            <glyph glyph-name="w" unicode="&#x77;" horiz-adv-x="741" d=" M404,343 Q422,343 435,334.5 Q448,326 452,313 L523,82 L530,82 L644,462 Q651,484 667.5,497 Q684,510 703,510 Q722,510 731.5,499 Q741,488 741,471 Q741,461 734,440 L603,40 Q597,23 578.5,11.5 Q560,0 538,0 L494,0 Q455,0 442,40 L384,237 L248,40 Q221,0 182,0 L138,0 Q116,0 101.5,10.5 Q87,21 87,38 Q87,46 88,59 L110,440 Q112,470 127,490 Q142,510 171,510 Q187,510 199,499.5 Q211,489 211,471 Q211,464 210,454 L178,82 L185,82 L346,313 Q367,343 404,343"/> 
            <glyph glyph-name="x" unicode="&#x78;" horiz-adv-x="568" d=" M398,12 L287,184 L99,4 Q85,-10 64,-10 Q48,-10 37,0 Q26,10 26,24 Q26,47 42,63 L242,254 L121,438 Q115,448 115,458 Q115,478 129.5,494 Q144,510 166,510 Q187,510 202,488 L310,320 L490,492 Q510,510 532,510 Q547,510 557.5,499 Q568,488 568,473 Q568,453 553,438 L354,250 L476,66 Q485,52 485,39 Q485,20 470,5 Q455,-10 435,-10 Q413,-10 398,12"/> 
            <glyph glyph-name="y" unicode="&#x79;" horiz-adv-x="598" d=" M585,437 L262,-125 Q207,-220 114,-220 L80,-220 Q64,-220 54.5,-210 Q45,-200 45,-184 Q45,-164 60,-149.5 Q75,-135 96,-135 L121,-135 Q141,-135 153,-127 Q165,-119 176,-99 L244,18 Q183,18 173,61 L87,437 Q84,449 84,458 Q84,480 100.5,495 Q117,510 140,510 Q172,510 180,478 L268,74 L276,74 L506,478 Q524,510 559,510 Q576,510 587,499 Q598,488 598,471 Q598,460 585,437"/> 
            <glyph glyph-name="z" unicode="&#x7A;" horiz-adv-x="514" d=" M382,415 L150,415 Q133,415 122.5,424 Q112,433 112,449 Q112,470 128,485 Q144,500 166,500 L471,500 Q492,500 503,487.5 Q514,475 514,458 Q513,432 487,408 L155,85 L405,85 Q422,85 432.5,75 Q443,65 443,50 Q443,29 427,14.5 Q411,0 388,0 L66,0 Q47,0 35.5,11.5 Q24,23 24,40 Q24,66 52,93"/> 
            <glyph glyph-name="{" unicode="&#x7B;" horiz-adv-x="424" d=" M69,341 Q85,344 96,349 Q107,354 120.5,371.5 Q134,389 139,416 L167,562 Q181,634 230,680.5 Q279,727 354,727 L383,727 Q400,727 412,716.5 Q424,706 424,690 Q424,669 406.5,653.5 Q389,638 366,638 L339,638 Q312,638 291.5,618.5 Q271,599 266,571 L237,423 Q219,327 136,293 Q189,266 189,195 Q189,178 186,161 L158,16 Q157,11 157,0 Q157,-23 169.5,-38 Q182,-53 205,-53 L232,-53 Q249,-53 261,-63 Q273,-73 273,-89 Q273,-110 255.5,-126 Q238,-142 215,-142 L186,-142 Q127,-142 93,-105.5 Q59,-69 59,-13 Q59,7 63,24 L91,169 Q93,178 93,193 Q93,235 51,244 Q39,247 28,257 Q17,267 17,283 Q17,303 32.5,320 Q48,337 69,341"/> 
            <glyph glyph-name="|" unicode="&#x7C;" horiz-adv-x="297" d=" M295,698 L123,-183 Q119,-203 103.5,-216.5 Q88,-230 67,-230 Q50,-230 38.5,-218.5 Q27,-207 27,-192 Q27,-183 29,-177 L201,703 Q205,723 221,737 Q237,751 258,751 Q274,751 285.5,740 Q297,729 297,713 Q297,710 295,698"/> 
            <glyph glyph-name="}" unicode="&#x7D;" horiz-adv-x="399" d=" M347,244 Q331,241 320,236 Q309,231 295.5,213.5 Q282,196 277,169 L249,23 Q235,-49 186,-95.5 Q137,-142 62,-142 L33,-142 Q16,-142 4,-131.5 Q-8,-121 -8,-105 Q-8,-84 9.5,-68.5 Q27,-53 50,-53 L77,-53 Q104,-53 124.5,-33.5 Q145,-14 150,14 L179,162 Q197,258 280,292 Q227,318 227,390 Q227,408 230,424 L258,569 Q259,574 259,585 Q259,608 246.5,623 Q234,638 211,638 L184,638 Q167,638 155,648 Q143,658 143,674 Q143,695 160.5,711 Q178,727 201,727 L230,727 Q289,727 323,690.5 Q357,654 357,598 Q357,578 353,561 L325,416 Q323,407 323,392 Q323,350 365,341 Q377,338 388,328 Q399,318 399,302 Q399,282 383.5,265 Q368,248 347,244"/> 
            <glyph glyph-name="~" unicode="&#x7E;" horiz-adv-x="556" d=" M206,246 Q187,246 174,235 Q161,224 155,210.5 Q149,197 136.5,186 Q124,175 107,175 Q93,175 84.5,183 Q76,191 76,204 Q76,242 116.5,283 Q157,324 216,324 Q259,324 327.5,290.5 Q396,257 425,257 Q444,257 457.5,268 Q471,279 476.5,292.5 Q482,306 494.5,317 Q507,328 525,328 Q538,328 547,319.5 Q556,311 556,298 Q556,261 515,220 Q474,179 416,179 Q373,179 304,212.5 Q235,246 206,246"/> 
            <glyph glyph-name="¡" unicode="&#xA1;" horiz-adv-x="278" d=" M278,458 Q278,430 255.5,406.5 Q233,383 202,383 Q179,383 164.5,397.5 Q150,412 150,434 Q150,464 173.5,486.5 Q197,509 226,509 Q249,509 263.5,494.5 Q278,480 278,458 M50,-154 L129,252 Q133,272 148.5,285.5 Q164,299 183,299 Q201,299 213,288 Q225,277 225,261 Q225,254 223,242 L144,-164 Q140,-184 125,-197.5 Q110,-211 91,-211 Q73,-211 60.5,-200 Q48,-189 48,-173 Q48,-166 50,-154"/> 
            <glyph glyph-name="¢" unicode="&#xA2;" horiz-adv-x="565" d=" M475,563 L464,507 Q515,500 544,482 Q565,469 565,449 Q565,430 548,414.5 Q531,399 512,399 Q500,399 480,410 Q448,429 406,429 Q323,429 259.5,364 Q196,299 196,217 Q196,155 235,113.5 Q274,72 338,72 Q378,72 416.5,90 Q455,108 463,108 Q479,108 489,97.5 Q499,87 499,71 Q499,44 466,24 Q426,0 364,-8 L353,-67 Q349,-85 336,-96.5 Q323,-108 304,-108 Q290,-108 279.5,-98.5 Q269,-89 269,-75 Q269,-66 270,-59 L280,-6 Q200,8 153.5,65.5 Q107,123 107,208 Q107,321 184,407.5 Q261,494 380,507 L393,572 Q397,590 410.5,602 Q424,614 442,614 Q456,614 466.5,604 Q477,594 477,580 Q477,571 475,563"/> 
            <glyph glyph-name="£" unicode="&#xA3;" horiz-adv-x="598" d=" M215,86 L495,86 Q510,86 519.5,76 Q529,66 529,51 Q529,29 514,14.5 Q499,0 478,0 L82,0 Q67,0 57.5,10 Q48,20 48,35 Q48,57 63,71.5 Q78,86 99,86 L119,86 L161,301 L109,301 Q94,301 84.5,310.5 Q75,320 75,335 Q75,357 89.5,371 Q104,385 125,385 L176,385 L205,531 Q221,612 281,661 Q341,710 433,710 Q478,710 521.5,692.5 Q565,675 588,650 Q598,639 598,626 Q598,606 582.5,590 Q567,574 546,574 Q528,574 514,588 Q472,625 420,625 Q373,625 341,598 Q309,571 301,530 L273,385 L434,385 Q449,385 458.5,375.5 Q468,366 468,351 Q468,329 453.5,315 Q439,301 418,301 L257,301"/> 
            <glyph glyph-name="¤" unicode="&#xA4;" horiz-adv-x="568" d=" M568,89 Q568,72 556,59 Q544,46 526,46 Q508,46 493,61 L461,93 Q404,57 341,57 Q274,57 220,94 L188,62 Q174,48 155,48 Q138,48 125,60.5 Q112,73 112,90 Q112,110 126,123 L159,155 Q123,210 123,275 Q123,339 160,396 L127,428 Q113,441 113,461 Q113,478 126,490.5 Q139,503 156,503 Q176,503 188,490 L220,456 Q276,493 339,493 Q403,493 462,456 L493,489 Q507,503 527,503 Q543,503 555.5,490 Q568,477 568,460 Q568,441 555,428 L523,395 Q559,338 559,275 Q559,210 522,154 L554,123 Q568,110 568,89 M194,275 Q194,217 237.5,172.5 Q281,128 341,128 Q399,128 443,172 Q487,216 487,275 Q487,334 443.5,377.5 Q400,421 341,421 Q282,421 238,377.5 Q194,334 194,275"/> 
            <glyph glyph-name="¥" unicode="&#xA5;" horiz-adv-x="662" d=" M160,365 L243,365 L136,628 Q127,651 127,658 Q127,680 141.5,695 Q156,710 180,710 Q207,710 216,690 L340,385 L581,692 Q596,710 621,710 Q638,710 650,699 Q662,688 662,672 Q662,654 644,632 L430,365 L511,365 Q525,365 534.5,354.5 Q544,344 544,329 Q544,310 528.5,296.5 Q513,283 495,283 L368,283 L354,211 L483,211 Q497,211 506.5,200.5 Q516,190 516,175 Q516,156 500.5,142.5 Q485,129 467,129 L338,129 L321,39 Q317,18 302,4 Q287,-10 265,-10 Q248,-10 236.5,1 Q225,12 225,29 Q225,37 227,49 L242,129 L116,129 Q101,129 91.5,139 Q82,149 82,163 Q82,182 97,196.5 Q112,211 132,211 L257,211 L271,283 L144,283 Q129,283 119.5,293 Q110,303 110,317 Q110,336 125,350.5 Q140,365 160,365"/> 
            <glyph glyph-name="¦" unicode="&#xA6;" horiz-adv-x="287" d=" M285,697 L226,397 Q222,377 206.5,363.5 Q191,350 170,350 Q153,350 141.5,361.5 Q130,373 130,388 Q130,397 132,403 L191,702 Q195,722 211,736 Q227,750 248,750 Q264,750 275.5,739 Q287,728 287,712 Q287,709 285,697 M172,117 L113,-183 Q109,-203 93.5,-216.5 Q78,-230 57,-230 Q40,-230 28.5,-218.5 Q17,-207 17,-192 Q17,-183 19,-177 L78,122 Q82,142 98,156 Q114,170 135,170 Q151,170 162.5,159 Q174,148 174,132 Q174,129 172,117"/> 
            <glyph glyph-name="§" unicode="&#xA7;" horiz-adv-x="618" d=" M287,-250 L117,-250 Q100,-250 89.5,-240.5 Q79,-231 79,-216 Q79,-196 95.5,-181 Q112,-166 133,-166 L300,-166 Q341,-166 377,-134 Q413,-102 413,-61 Q413,-26 379,-2 Q345,22 296.5,37 Q248,52 199,70 Q150,88 116,123.5 Q82,159 82,212 Q82,274 119,325 Q156,376 218,409 Q190,446 190,499 Q190,579 252,639.5 Q314,700 410,700 L580,700 Q597,700 607.5,690.5 Q618,681 618,666 Q618,646 601,631 Q584,616 563,616 L396,616 Q355,616 319,584 Q283,552 283,511 Q283,475 317,451.5 Q351,428 400,413 Q449,398 498,380.5 Q547,363 581,328 Q615,293 615,240 Q615,178 578.5,126.5 Q542,75 478,41 Q507,1 507,-50 Q507,-130 444,-190 Q381,-250 287,-250 M390,99 Q440,106 477.5,139 Q515,172 515,221 Q515,245 503,262.5 Q491,280 467,292.5 Q443,305 421,313 Q399,321 363,331.5 Q327,342 307,350 Q256,343 219,310.5 Q182,278 182,228 Q182,198 203.5,176.5 Q225,155 249,146 Q273,137 320.5,122 Q368,107 390,99"/> 
            <glyph glyph-name="¨" unicode="&#xA8;" horiz-adv-x="372" d=" M61,636 Q61,662 82,683 Q103,704 130,704 Q150,704 163.5,690.5 Q177,677 177,657 Q177,630 155.5,610 Q134,590 108,590 Q87,590 74,603 Q61,616 61,636 M256,636 Q256,662 277,683 Q298,704 325,704 Q346,704 359,691 Q372,678 372,658 Q372,631 351,610.5 Q330,590 303,590 Q283,590 269.5,603 Q256,616 256,636"/> 
            <glyph glyph-name="©" unicode="&#xA9;" horiz-adv-x="804" d=" M543,510 Q567,495 567,474 Q567,462 557.5,452 Q548,442 534,442 Q527,442 504,449 Q475,458 454,458 Q408,458 376.5,426 Q345,394 345,349 Q345,303 377,270 Q409,237 454,237 Q466,237 496,245 Q522,252 531,252 Q545,252 555,242.5 Q565,233 565,221 Q565,198 541,185 Q507,166 456,166 Q380,166 327,218.5 Q274,271 274,349 Q274,426 327,478 Q380,530 456,530 Q507,530 543,510 M86,202 Q86,500 191,605 Q296,710 445,710 Q594,710 699,605 Q804,500 804,351 Q804,202 699,97 Q594,-8 445,-8 Q296,-8 86,202 M153,472 Q153,230 238.5,144 Q324,58 446,58 Q568,58 653.5,144 Q739,230 739,351 Q739,472 653.5,558 Q568,644 446,644 Q324,644 153,472"/> 
            <glyph glyph-name="ª" unicode="&#xAA;" horiz-adv-x="466" d=" M464,665 L411,393 Q408,379 395.5,368 Q383,357 368,357 Q355,357 346.5,364 Q338,371 338,381 Q338,384 340,395 Q297,357 229,357 Q169,357 128.5,397.5 Q88,438 88,499 Q88,581 150,645.5 Q212,710 298,710 Q361,710 394,673 Q404,710 437,710 Q450,710 458,701.5 Q466,693 466,680 Q466,674 464,665 M246,421 Q297,421 335,463.5 Q373,506 373,559 Q373,597 350.5,621.5 Q328,646 289,646 Q239,646 198.5,605 Q158,564 158,512 Q158,473 182,447 Q206,421 246,421"/> 
            <glyph glyph-name="«" unicode="&#xAB;" horiz-adv-x="484" d=" M368,247 L426,143 Q430,136 430,127 Q430,105 414,91.5 Q398,78 380,78 Q359,78 349,97 L281,225 Q274,239 274,248 Q274,261 293,282 L410,410 Q426,428 448,428 Q462,428 473,417.5 Q484,407 484,392 Q484,369 470,354 M177,247 L235,143 Q239,136 239,127 Q239,105 223,91.5 Q207,78 189,78 Q168,78 158,97 L90,225 Q83,239 83,248 Q83,261 102,282 L219,410 Q236,428 257,428 Q271,428 282,417.5 Q293,407 293,392 Q293,369 279,354"/> 
            <glyph glyph-name="¬" unicode="&#xAC;" horiz-adv-x="553" d=" M151,390 L522,390 Q536,390 544.5,381.5 Q553,373 553,359 Q553,353 552,350 L517,170 Q513,151 500,140 Q487,129 468,129 Q453,129 443.5,138 Q434,147 434,162 Q434,167 435,170 L462,308 L135,308 Q119,308 110,317.5 Q101,327 101,341 Q101,362 116,376 Q131,390 151,390"/> 
            <glyph glyph-name="®" unicode="&#xAE;" horiz-adv-x="804" d=" M360,526 L471,526 Q527,526 561.5,492 Q596,458 596,409 Q596,341 529,309 L583,220 Q589,209 589,201 Q589,188 578.5,177 Q568,166 554,166 Q532,166 523,181 L455,299 L397,299 L397,201 Q397,187 386,176.5 Q375,166 360,166 Q346,166 335,177 Q324,188 324,201 L324,487 Q324,502 335,514 Q346,526 360,526 M467,463 L397,463 L397,359 L468,359 Q496,359 511.5,373.5 Q527,388 527,411 Q527,434 511,448.5 Q495,463 467,463 M86,202 Q86,500 191,605 Q296,710 445,710 Q594,710 699,605 Q804,500 804,351 Q804,202 699,97 Q594,-8 445,-8 Q296,-8 86,202 M153,472 Q153,230 238.5,144 Q324,58 446,58 Q568,58 653.5,144 Q739,230 739,351 Q739,472 653.5,558 Q568,644 446,644 Q324,644 153,472"/> 
            <glyph glyph-name="¯" unicode="&#xAF;" horiz-adv-x="324" d=" M324,651 Q324,632 309,617 Q294,602 273,602 L96,602 Q80,602 70.5,611.5 Q61,621 61,636 Q61,655 76.5,669.5 Q92,684 112,684 L289,684 Q304,684 314,674.5 Q324,665 324,651"/> 
            <glyph glyph-name="°" unicode="&#xB0;" horiz-adv-x="385" d=" M385,625 Q385,505 342.5,462 Q300,419 238,419 Q178,419 135.5,461.5 Q93,504 93,565 Q93,626 136,668 Q179,710 238,710 Q299,710 385,625 M321,565 Q321,599 297,623 Q273,647 238,647 Q204,647 180,623 Q156,599 156,565 Q156,528 179.5,505 Q203,482 238,482 Q273,482 297,505 Q321,528 321,565"/> 
            <glyph glyph-name="±" unicode="&#xB1;" horiz-adv-x="569" d=" M520,296 L367,296 L341,162 Q337,144 324,132.5 Q311,121 294,121 Q278,121 267,132 Q256,143 256,158 Q256,159 256.5,161 Q257,163 257,164 L283,296 L134,296 Q119,296 108.5,306 Q98,316 98,330 Q98,350 112.5,364 Q127,378 148,378 L299,378 L326,513 Q330,532 343.5,543 Q357,554 374,554 Q389,554 399.5,544 Q410,534 410,519 Q410,518 409.5,515.5 Q409,513 409,512 L383,378 L534,378 Q548,378 558.5,367.5 Q569,357 569,343 Q569,323 554.5,309.5 Q540,296 520,296 M88,82 L474,82 Q489,82 499.5,72 Q510,62 510,48 Q510,28 495.5,14 Q481,0 460,0 L74,0 Q60,0 49.5,10.5 Q39,21 39,35 Q39,55 53.5,68.5 Q68,82 88,82"/> 
            <glyph glyph-name="²" unicode="&#xB2;" horiz-adv-x="387" d=" M97,535 L265,680 Q310,718 310,754 Q310,774 297.5,788 Q285,802 261,802 Q218,802 188,751 Q175,729 153,729 Q138,729 131,736.5 Q124,744 124,753 Q124,762 132,779 Q140,796 156,817.5 Q172,839 204,854.5 Q236,870 276,870 Q327,870 357,839.5 Q387,809 387,767 Q387,701 315,639 L178,522 L323,522 Q337,522 345.5,514 Q354,506 354,493 Q354,476 340.5,465 Q327,454 309,454 L106,454 Q90,454 80,463.5 Q70,473 70,488 Q70,512 97,535"/> 
            <glyph glyph-name="³" unicode="&#xB3;" horiz-adv-x="391" d=" M280,870 Q331,870 361,844 Q391,818 391,779 Q391,721 324,676 Q371,646 371,591 Q371,528 321,485.5 Q271,443 201,443 Q142,443 107.5,474 Q73,505 73,537 Q73,554 84,568 Q95,582 113,582 Q123,582 132,574.5 Q141,567 143,557 Q148,538 165,524 Q182,510 210,510 Q241,510 267,531 Q293,552 293,584 Q293,605 276,619 Q259,633 234,633 Q202,633 202,662 Q202,677 214.5,688 Q227,699 245,701 Q268,703 290,722.5 Q312,742 312,764 Q312,782 298.5,793.5 Q285,805 265,805 Q224,805 196,768 Q178,746 161,746 Q132,746 132,773 Q132,803 176.5,836.5 Q221,870 280,870"/> 
            <glyph glyph-name="´" unicode="&#xB4;" horiz-adv-x="257" d=" M236,664 L122,575 Q108,564 92,564 Q75,564 64,574.5 Q53,585 53,601 Q53,624 73,639 L189,728 Q206,740 219,740 Q235,740 246,729 Q257,718 257,702 Q257,680 236,664"/> 
            <glyph glyph-name="µ" unicode="&#xB5;" horiz-adv-x="646" d=" M472,63 Q469,60 464,55 Q459,50 442,37.5 Q425,25 407,15.5 Q389,6 361.5,-2 Q334,-10 307,-10 Q261,-10 222,11 Q183,32 164,65 L116,-182 Q112,-201 95,-215.5 Q78,-230 59,-230 Q42,-230 31,-218.5 Q20,-207 20,-191 Q20,-186 22,-176 L146,462 Q150,482 166,496 Q182,510 203,510 Q220,510 231,498.5 Q242,487 242,471 Q242,467 240,457 L199,249 Q195,230 195,207 Q195,148 228.5,110.5 Q262,73 323,73 Q395,73 444,123 Q493,173 508,249 L550,462 Q554,482 569.5,496 Q585,510 606,510 Q624,510 635,498.5 Q646,487 646,471 Q646,467 644,457 L562,36 Q558,17 542,3 Q526,-11 505,-11 Q488,-11 477,0.5 Q466,12 466,28 Q466,33 472,63"/> 
            <glyph glyph-name="¶" unicode="&#xB6;" horiz-adv-x="658" d=" M378,-50 L508,614 L433,614 L364,261 Q360,243 348,232 Q336,221 319,221 Q233,221 177,276 Q121,331 121,414 Q121,533 205,616.5 Q289,700 412,700 L613,700 Q658,700 658,662 Q658,642 642,628 Q626,614 600,610 L471,-54 Q454,-140 402.5,-185 Q351,-230 275,-230 Q222,-230 182.5,-204.5 Q143,-179 143,-143 Q143,-122 156.5,-107 Q170,-92 190,-92 Q213,-92 226,-113 Q247,-146 284,-146 Q316,-146 342.5,-120.5 Q369,-95 378,-50"/> 
            <glyph glyph-name="·" unicode="&#xB7;" horiz-adv-x="231" d=" M103,338 Q103,366 125,390 Q147,414 179,414 Q202,414 216.5,399.5 Q231,385 231,362 Q231,333 207,310.5 Q183,288 154,288 Q131,288 117,302 Q103,316 103,338"/> 
            <glyph glyph-name="¸" unicode="&#xB8;" horiz-adv-x="199" d=" M27,-68 Q30,-58 39,-46 L69,0 L141,0 L113,-43 Q151,-43 175,-63.5 Q199,-84 199,-117 Q199,-166 159.5,-198 Q120,-230 58,-230 Q-26,-230 -26,-193 Q-26,-179 -15,-168.5 Q-4,-158 8,-158 Q19,-158 33.5,-166 Q48,-174 64,-174 Q84,-174 97.5,-159.5 Q111,-145 111,-127 Q111,-114 102.5,-105 Q94,-96 80,-96 Q76,-96 66,-96.5 Q56,-97 55,-97 Q26,-97 26,-74 Q26,-73 26.5,-71 Q27,-69 27,-68"/> 
            <glyph glyph-name="¹" unicode="&#xB9;" horiz-adv-x="258" d=" M257,822 L191,482 Q188,466 175.5,454.5 Q163,443 147,443 Q133,443 124,452.5 Q115,462 115,475 Q115,482 116,488 L175,791 L146,791 Q133,791 124.5,799.5 Q116,808 116,820 Q116,836 129,848 Q142,860 159,860 L227,860 Q240,860 249,851.5 Q258,843 258,830"/> 
            <glyph glyph-name="º" unicode="&#xBA;" horiz-adv-x="451" d=" M451,563 Q451,482 392.5,420 Q334,358 244,358 Q179,358 138.5,400 Q98,442 98,503 Q98,586 158,648 Q218,710 304,710 Q370,710 410.5,667.5 Q451,625 451,563 M253,422 Q303,422 343,463 Q383,504 383,556 Q383,594 359,619.5 Q335,645 296,645 Q245,645 206,604 Q167,563 167,512 Q167,474 190.5,448 Q214,422 253,422"/> 
            <glyph glyph-name="»" unicode="&#xBB;" horiz-adv-x="456" d=" M171,259 L113,363 Q109,370 109,379 Q109,401 125,414.5 Q141,428 159,428 Q180,428 190,409 L258,281 Q265,267 265,258 Q265,245 246,224 L129,96 Q112,78 91,78 Q77,78 66,88.5 Q55,99 55,114 Q55,137 69,152 M362,259 L304,363 Q300,370 300,379 Q300,401 316,414.5 Q332,428 350,428 Q371,428 381,409 L449,281 Q456,267 456,258 Q456,245 437,224 L320,96 Q304,78 282,78 Q268,78 257,88.5 Q246,99 246,114 Q246,137 260,152"/> 
            <glyph glyph-name="¼" unicode="&#xBC;" horiz-adv-x="672" d=" M68,41 L602,692 Q617,710 636,710 Q648,710 655.5,702 Q663,694 663,682 Q663,670 654,658 L125,11 Q108,-10 89,-10 Q76,-10 68,-2 Q60,6 60,18 Q60,30 68,41 M285,662 L219,322 Q216,306 203.5,294.5 Q191,283 175,283 Q161,283 152,292.5 Q143,302 143,315 Q143,322 144,328 L203,631 L174,631 Q161,631 152.5,639.5 Q144,648 144,660 Q144,676 157,688 Q170,700 187,700 L255,700 Q268,700 277,691.5 Q286,683 286,670 M631,90 L612,90 L600,27 Q597,12 584,0.5 Q571,-11 555,-11 Q542,-11 533.5,-2 Q525,7 525,20 Q525,26 526,32 L537,90 L388,90 Q371,90 360.5,100 Q350,110 350,125 Q350,145 370,168 L554,384 Q573,405 589,405 L635,405 Q649,405 658,397.5 Q667,390 667,379 Q667,373 665,361 L625,158 L644,158 Q657,158 664.5,149.5 Q672,141 672,129 Q672,113 659.5,101.5 Q647,90 631,90 M445,153 L550,153 L582,315"/> 
            <glyph glyph-name="½" unicode="&#xBD;" horiz-adv-x="723" d=" M68,41 L602,692 Q617,710 636,710 Q648,710 655.5,702 Q663,694 663,682 Q663,670 654,658 L125,11 Q108,-10 89,-10 Q76,-10 68,-2 Q60,6 60,18 Q60,30 68,41 M285,662 L219,322 Q216,306 203.5,294.5 Q191,283 175,283 Q161,283 152,292.5 Q143,302 143,315 Q143,322 144,328 L203,631 L174,631 Q161,631 152.5,639.5 Q144,648 144,660 Q144,676 157,688 Q170,700 187,700 L255,700 Q268,700 277,691.5 Q286,683 286,670 M433,81 L601,226 Q646,264 646,300 Q646,320 633.5,334 Q621,348 597,348 Q554,348 524,297 Q511,275 489,275 Q474,275 467,282.5 Q460,290 460,299 Q460,308 468,325 Q476,342 492,363.5 Q508,385 540,400.5 Q572,416 612,416 Q663,416 693,385.5 Q723,355 723,313 Q723,247 651,185 L514,68 L659,68 Q673,68 681.5,60 Q690,52 690,39 Q690,22 676.5,11 Q663,0 645,0 L442,0 Q426,0 416,9.5 Q406,19 406,34 Q406,58 433,81"/> 
            <glyph glyph-name="¾" unicode="&#xBE;" horiz-adv-x="795" d=" M189,41 L723,692 Q738,710 757,710 Q771,710 778.5,700 Q786,690 784,676 Q782,667 775,658 L246,11 Q228,-10 210,-10 Q195,-10 187.5,0 Q180,10 182,24 Q185,35 189,41 M752,91 L733,91 L721,28 Q718,13 704.5,1.5 Q691,-10 676,-10 Q661,-10 652,2 Q643,14 646,28 L658,91 L509,91 Q489,91 478.5,104 Q468,117 472,135 Q474,149 488,167 L675,385 Q694,406 710,406 L756,406 Q771,406 780.5,395 Q790,384 787,370 L746,159 L765,159 Q780,159 787.5,148.5 Q795,138 793,125 Q790,110 778.5,100.5 Q767,91 752,91 M566,159 L671,159 L703,321 M299,710 Q350,710 380,684 Q410,658 410,619 Q410,561 343,516 Q390,486 390,431 Q390,368 340,325.5 Q290,283 220,283 Q161,283 126.5,314 Q92,345 92,377 Q92,394 103,408 Q114,422 132,422 Q142,422 151,414.5 Q160,407 162,397 Q167,378 184,364 Q201,350 229,350 Q260,350 286,371 Q312,392 312,424 Q312,445 295,459 Q278,473 253,473 Q221,473 221,502 Q221,517 233.5,528 Q246,539 264,541 Q287,543 309,562.5 Q331,582 331,604 Q331,622 317.5,633.5 Q304,645 284,645 Q243,645 215,608 Q197,586 180,586 Q151,586 151,613 Q151,643 195.5,676.5 Q240,710 299,710"/> 
            <glyph glyph-name="¿" unicode="&#xBF;" horiz-adv-x="436" d=" M208,-211 Q132,-211 84,-167 Q36,-123 36,-61 Q36,-17 56.5,19.5 Q77,56 107.5,81.5 Q138,107 169,130.5 Q200,154 225.5,184 Q251,214 258,247 Q262,269 280,284.5 Q298,300 320,300 Q338,300 348.5,288 Q359,276 359,256 Q359,248 358,243 Q351,208 325,174.5 Q299,141 267.5,114.5 Q236,88 205,62.5 Q174,37 153.5,8 Q133,-21 133,-50 Q133,-83 159,-106 Q185,-129 222,-129 Q312,-129 357,-40 Q373,-8 405,-8 Q436,-8 436,-43 Q436,-51 435,-54 Q425,-105 361,-158 Q297,-211 208,-211 M411,460 Q411,432 389,408 Q367,384 335,384 Q312,384 297.5,399 Q283,414 283,436 Q283,464 306.5,487 Q330,510 360,510 Q383,510 397,496 Q411,482 411,460"/> 
            <glyph glyph-name="À" unicode="&#xC0;" horiz-adv-x="646" d=" M549,29 L521,192 L195,192 L106,31 Q82,-10 46,-10 Q29,-10 18.5,1.5 Q8,13 8,29 Q8,45 21,69 L353,663 Q373,700 411,700 L498,700 Q537,700 544,663 L644,69 Q646,55 646,45 Q646,22 631.5,6 Q617,-10 594,-10 Q577,-10 564,1 Q551,12 549,29 M433,618 L243,277 L508,277 L451,618 M421,778 L339,870 Q331,878 331,892 Q331,910 346,925 Q361,940 380,940 Q395,940 405,929 L488,836 Q497,827 497,813 Q497,793 482,779 Q467,765 447,765 Q432,765 421,778"/> 
            <glyph glyph-name="Á" unicode="&#xC1;" horiz-adv-x="646" d=" M549,29 L521,192 L195,192 L106,31 Q82,-10 46,-10 Q29,-10 18.5,1.5 Q8,13 8,29 Q8,45 21,69 L353,663 Q373,700 411,700 L498,700 Q537,700 544,663 L644,69 Q646,55 646,45 Q646,22 631.5,6 Q617,-10 594,-10 Q577,-10 564,1 Q551,12 549,29 M433,618 L243,277 L508,277 L451,618 M570,864 L456,775 Q442,764 426,764 Q409,764 398,774.5 Q387,785 387,801 Q387,824 407,839 L523,928 Q540,940 553,940 Q569,940 580,929 Q591,918 591,902 Q591,880 570,864"/> 
            <glyph glyph-name="Â" unicode="&#xC2;" horiz-adv-x="646" d=" M549,29 L521,192 L195,192 L106,31 Q82,-10 46,-10 Q29,-10 18.5,1.5 Q8,13 8,29 Q8,45 21,69 L353,663 Q373,700 411,700 L498,700 Q537,700 544,663 L644,69 Q646,55 646,45 Q646,22 631.5,6 Q617,-10 594,-10 Q577,-10 564,1 Q551,12 549,29 M433,618 L243,277 L508,277 L451,618 M553,777 L487,850 L392,777 Q374,763 353,763 Q339,763 329,772 Q319,781 319,796 Q319,818 340,834 L459,926 Q478,940 499,940 Q523,940 535,926 L619,834 Q628,825 628,811 Q628,790 613,776.5 Q598,763 583,763 Q567,763 553,777"/> 
            <glyph glyph-name="Ã" unicode="&#xC3;" horiz-adv-x="652" d=" M549,29 L521,192 L195,192 L106,31 Q82,-10 46,-10 Q29,-10 18.5,1.5 Q8,13 8,29 Q8,45 21,69 L353,663 Q373,700 411,700 L498,700 Q537,700 544,663 L644,69 Q646,55 646,45 Q646,22 631.5,6 Q617,-10 594,-10 Q577,-10 564,1 Q551,12 549,29 M433,618 L243,277 L508,277 L451,618 M439,908 Q465,908 487,895 Q509,882 524,868.5 Q539,855 548,855 Q566,855 583,881.5 Q600,908 622,908 Q635,908 643.5,900 Q652,892 652,879 Q652,849 618.5,816.5 Q585,784 532,784 Q506,784 484,797 Q462,810 447.5,823.5 Q433,837 424,837 Q408,837 398.5,823.5 Q389,810 378,797 Q367,784 349,784 Q335,784 327,791.5 Q319,799 319,812 Q319,842 353,875 Q387,908 439,908"/> 
            <glyph glyph-name="Ä" unicode="&#xC4;" horiz-adv-x="646" d=" M549,29 L521,192 L195,192 L106,31 Q82,-10 46,-10 Q29,-10 18.5,1.5 Q8,13 8,29 Q8,45 21,69 L353,663 Q373,700 411,700 L498,700 Q537,700 544,663 L644,69 Q646,55 646,45 Q646,22 631.5,6 Q617,-10 594,-10 Q577,-10 564,1 Q551,12 549,29 M433,618 L243,277 L508,277 L451,618 M329,836 Q329,862 350,883 Q371,904 398,904 Q418,904 431.5,890.5 Q445,877 445,857 Q445,830 423.5,810 Q402,790 376,790 Q355,790 342,803 Q329,816 329,836 M524,836 Q524,862 545,883 Q566,904 593,904 Q614,904 627,891 Q640,878 640,858 Q640,831 619,810.5 Q598,790 571,790 Q551,790 537.5,803 Q524,816 524,836"/> 
            <glyph glyph-name="Å" unicode="&#xC5;" horiz-adv-x="646" d=" M549,29 L521,192 L195,192 L106,31 Q82,-10 46,-10 Q29,-10 18.5,1.5 Q8,13 8,29 Q8,45 21,69 L353,663 Q373,700 411,700 L498,700 Q537,700 544,663 L644,69 Q646,55 646,45 Q646,22 631.5,6 Q617,-10 594,-10 Q577,-10 564,1 Q551,12 549,29 M433,618 L243,277 L508,277 L451,618 M370,820 Q370,871 409.5,910 Q449,949 504,949 Q544,949 570,924.5 Q596,900 596,862 Q596,811 555.5,772.5 Q515,734 461,734 Q421,734 395.5,758 Q370,782 370,820 M492,890 Q471,890 452,872.5 Q433,855 433,832 Q433,815 444.5,803.5 Q456,792 473,792 Q495,792 514,809.5 Q533,827 533,849 Q533,866 521,878 Q509,890 492,890"/> 
            <glyph glyph-name="Æ" unicode="&#xC6;" horiz-adv-x="1083" d=" M589,85 L922,85 Q940,85 951.5,76 Q963,67 963,51 Q963,30 945.5,15 Q928,0 906,0 L526,0 Q509,0 498,11 Q487,22 487,39 Q487,45 488,48 L517,196 L209,196 L77,15 Q59,-10 32,-10 Q13,-10 2.5,1 Q-8,12 -8,27 Q-8,47 4,62 L455,675 Q473,700 501,700 L1042,700 Q1060,700 1071.5,690.5 Q1083,681 1083,665 Q1083,642 1065.5,628 Q1048,614 1025,614 L692,614 L652,405 L927,405 Q945,405 956,395 Q967,385 967,370 Q967,348 949.5,333.5 Q932,319 910,319 L635,319 M514,614 L269,277 L533,277 L598,614"/> 
            <glyph glyph-name="Ç" unicode="&#xC7;" horiz-adv-x="697" d=" M269,-68 Q272,-58 281,-46 L308,-4 Q204,15 140.5,94.5 Q77,174 77,282 Q77,361 109,437.5 Q141,514 196,574.5 Q251,635 332,672.5 Q413,710 505,710 Q569,710 633,686 Q697,662 697,626 Q697,605 683,591.5 Q669,578 653,578 Q639,578 620,590 Q601,602 569.5,614 Q538,626 494,626 Q367,626 270.5,522.5 Q174,419 174,295 Q174,201 232,137.5 Q290,74 387,74 Q469,74 549,126 Q563,136 582,136 Q596,136 606.5,126.5 Q617,117 617,101 Q617,70 587,52 Q493,-8 376,-10 L355,-43 Q393,-43 417,-63.5 Q441,-84 441,-117 Q441,-166 401.5,-198 Q362,-230 300,-230 Q216,-230 216,-193 Q216,-179 227,-168.5 Q238,-158 250,-158 Q261,-158 275.5,-166 Q290,-174 306,-174 Q326,-174 339.5,-159.5 Q353,-145 353,-127 Q353,-114 344.5,-105 Q336,-96 322,-96 Q318,-96 308,-96.5 Q298,-97 297,-97 Q268,-97 268,-74 Q268,-73 268.5,-71 Q269,-69 269,-68"/> 
            <glyph glyph-name="È" unicode="&#xC8;" horiz-adv-x="668" d=" M156,86 L511,86 Q528,86 538.5,76.5 Q549,67 549,52 Q549,31 532.5,15.5 Q516,0 494,0 L92,0 Q75,0 64.5,10.5 Q54,21 54,38 Q54,41 57,59 L173,654 Q177,673 193,686.5 Q209,700 229,700 L631,700 Q648,700 658,690.5 Q668,681 668,666 Q668,645 652.5,629.5 Q637,614 614,614 L259,614 L218,405 L516,405 Q533,405 543,396 Q553,387 553,372 Q553,351 536.5,335 Q520,319 499,319 L201,319 M402,778 L320,870 Q312,878 312,892 Q312,910 327,925 Q342,940 361,940 Q376,940 386,929 L469,836 Q478,827 478,813 Q478,793 463,779 Q448,765 428,765 Q413,765 402,778"/> 
            <glyph glyph-name="É" unicode="&#xC9;" horiz-adv-x="668" d=" M156,86 L511,86 Q528,86 538.5,76.5 Q549,67 549,52 Q549,31 532.5,15.5 Q516,0 494,0 L92,0 Q75,0 64.5,10.5 Q54,21 54,38 Q54,41 57,59 L173,654 Q177,673 193,686.5 Q209,700 229,700 L631,700 Q648,700 658,690.5 Q668,681 668,666 Q668,645 652.5,629.5 Q637,614 614,614 L259,614 L218,405 L516,405 Q533,405 543,396 Q553,387 553,372 Q553,351 536.5,335 Q520,319 499,319 L201,319 M570,864 L456,775 Q442,764 426,764 Q409,764 398,774.5 Q387,785 387,801 Q387,824 407,839 L523,928 Q540,940 553,940 Q569,940 580,929 Q591,918 591,902 Q591,880 570,864"/> 
            <glyph glyph-name="Ê" unicode="&#xCA;" horiz-adv-x="668" d=" M156,86 L511,86 Q528,86 538.5,76.5 Q549,67 549,52 Q549,31 532.5,15.5 Q516,0 494,0 L92,0 Q75,0 64.5,10.5 Q54,21 54,38 Q54,41 57,59 L173,654 Q177,673 193,686.5 Q209,700 229,700 L631,700 Q648,700 658,690.5 Q668,681 668,666 Q668,645 652.5,629.5 Q637,614 614,614 L259,614 L218,405 L516,405 Q533,405 543,396 Q553,387 553,372 Q553,351 536.5,335 Q520,319 499,319 L201,319 M518,777 L452,850 L357,777 Q340,763 318,763 Q304,763 294,772 Q284,781 284,796 Q284,818 305,834 L424,926 Q443,940 464,940 Q488,940 500,926 L584,834 Q593,825 593,811 Q593,790 578,776.5 Q563,763 548,763 Q532,763 518,777"/> 
            <glyph glyph-name="Ë" unicode="&#xCB;" horiz-adv-x="668" d=" M156,86 L511,86 Q528,86 538.5,76.5 Q549,67 549,52 Q549,31 532.5,15.5 Q516,0 494,0 L92,0 Q75,0 64.5,10.5 Q54,21 54,38 Q54,41 57,59 L173,654 Q177,673 193,686.5 Q209,700 229,700 L631,700 Q648,700 658,690.5 Q668,681 668,666 Q668,645 652.5,629.5 Q637,614 614,614 L259,614 L218,405 L516,405 Q533,405 543,396 Q553,387 553,372 Q553,351 536.5,335 Q520,319 499,319 L201,319 M295,836 Q295,862 316,883 Q337,904 364,904 Q384,904 397.5,890.5 Q411,877 411,857 Q411,830 389.5,810 Q368,790 342,790 Q321,790 308,803 Q295,816 295,836 M490,836 Q490,862 511,883 Q532,904 559,904 Q580,904 593,891 Q606,878 606,858 Q606,831 585,810.5 Q564,790 537,790 Q517,790 503.5,803 Q490,816 490,836"/> 
            <glyph glyph-name="Ì" unicode="&#xCC;" horiz-adv-x="295" d=" M277,653 L158,37 Q154,17 139,3.5 Q124,-10 105,-10 Q87,-10 75,1 Q63,12 63,28 Q63,35 65,47 L184,663 Q188,683 203,696.5 Q218,710 237,710 Q255,710 267,699 Q279,688 279,672 Q279,665 277,653 M219,778 L137,870 Q129,878 129,892 Q129,910 144,925 Q159,940 178,940 Q193,940 203,929 L286,836 Q295,827 295,813 Q295,793 280,779 Q265,765 245,765 Q230,765 219,778"/> 
            <glyph glyph-name="Í" unicode="&#xCD;" horiz-adv-x="395" d=" M277,653 L158,37 Q154,17 139,3.5 Q124,-10 105,-10 Q87,-10 75,1 Q63,12 63,28 Q63,35 65,47 L184,663 Q188,683 203,696.5 Q218,710 237,710 Q255,710 267,699 Q279,688 279,672 Q279,665 277,653 M374,864 L260,775 Q246,764 230,764 Q213,764 202,774.5 Q191,785 191,801 Q191,824 211,839 L327,928 Q343,940 357,940 Q373,940 384,929 Q395,918 395,902 Q395,880 374,864"/> 
            <glyph glyph-name="Î" unicode="&#xCE;" horiz-adv-x="405" d=" M277,653 L158,37 Q154,17 139,3.5 Q124,-10 105,-10 Q87,-10 75,1 Q63,12 63,28 Q63,35 65,47 L184,663 Q188,683 203,696.5 Q218,710 237,710 Q255,710 267,699 Q279,688 279,672 Q279,665 277,653 M330,777 L264,850 L169,777 Q152,763 130,763 Q116,763 106,772 Q96,781 96,796 Q96,818 117,834 L236,926 Q255,940 276,940 Q300,940 312,926 L396,834 Q405,825 405,811 Q405,790 390,776.5 Q375,763 360,763 Q344,763 330,777"/> 
            <glyph glyph-name="Ï" unicode="&#xCF;" horiz-adv-x="423" d=" M277,653 L158,37 Q154,17 139,3.5 Q124,-10 105,-10 Q87,-10 75,1 Q63,12 63,28 Q63,35 65,47 L184,663 Q188,683 203,696.5 Q218,710 237,710 Q255,710 267,699 Q279,688 279,672 Q279,665 277,653 M112,836 Q112,862 133,883 Q154,904 181,904 Q201,904 214.5,890.5 Q228,877 228,857 Q228,830 206.5,810 Q185,790 159,790 Q138,790 125,803 Q112,816 112,836 M307,836 Q307,862 328,883 Q349,904 376,904 Q397,904 410,891 Q423,878 423,858 Q423,831 402,810.5 Q381,790 354,790 Q334,790 320.5,803 Q307,816 307,836"/> 
            <glyph glyph-name="Ð" unicode="&#xD0;" horiz-adv-x="700" d=" M234,700 L403,700 Q544,700 622,624 Q700,548 700,423 Q700,312 650.5,217 Q601,122 501,61 Q401,0 270,0 L97,0 Q81,0 71,10 Q61,20 61,36 Q61,43 62,46 L115,320 L85,320 Q70,320 60,329.5 Q50,339 50,353 Q50,372 65.5,387 Q81,402 101,402 L131,402 L181,654 Q185,674 200,687 Q215,700 234,700 M313,320 L209,320 L164,85 L283,85 Q431,85 519,184 Q607,283 607,409 Q607,504 553,559.5 Q499,615 386,615 L267,615 L225,402 L329,402 Q343,402 352.5,392 Q362,382 362,368 Q362,349 346.5,334.5 Q331,320 313,320"/> 
            <glyph glyph-name="Ñ" unicode="&#xD1;" horiz-adv-x="779" d=" M777,653 L659,49 Q655,30 638,15 Q621,0 601,0 L566,0 Q534,0 522,25 L267,541 L254,580 L148,37 Q144,17 129,3.5 Q114,-10 95,-10 Q77,-10 65,1 Q53,12 53,28 Q53,35 55,47 L173,651 Q177,670 194,685 Q211,700 232,700 L266,700 Q298,700 310,675 L565,159 L578,120 L684,663 Q688,683 703,696.5 Q718,710 737,710 Q755,710 767,699 Q779,688 779,672 Q779,665 777,653 M465,908 Q491,908 513,895 Q535,882 550,868.5 Q565,855 574,855 Q592,855 609,881.5 Q626,908 648,908 Q661,908 669.5,900 Q678,892 678,879 Q678,849 644.5,816.5 Q611,784 558,784 Q532,784 510,797 Q488,810 473.5,823.5 Q459,837 450,837 Q434,837 424.5,823.5 Q415,810 404,797 Q393,784 375,784 Q361,784 353,791.5 Q345,799 345,812 Q345,842 379,875 Q413,908 465,908"/> 
            <glyph glyph-name="Ò" unicode="&#xD2;" horiz-adv-x="803" d=" M76,281 Q76,363 109,440.5 Q142,518 198.5,577.5 Q255,637 337,673.5 Q419,710 510,710 Q637,710 720,626.5 Q803,543 803,419 Q803,305 745.5,206 Q688,107 589,48.5 Q490,-10 375,-10 Q243,-10 159.5,73 Q76,156 76,281 M494,626 Q368,626 270,524 Q172,422 172,293 Q172,198 230.5,136 Q289,74 387,74 Q511,74 609,176 Q707,278 707,406 Q707,501 649,563.5 Q591,626 494,626 M498,778 L416,870 Q408,878 408,892 Q408,910 423,925 Q438,940 457,940 Q472,940 482,929 L565,836 Q574,827 574,813 Q574,793 559,779 Q544,765 524,765 Q509,765 498,778"/> 
            <glyph glyph-name="Ó" unicode="&#xD3;" horiz-adv-x="803" d=" M76,281 Q76,363 109,440.5 Q142,518 198.5,577.5 Q255,637 337,673.5 Q419,710 510,710 Q637,710 720,626.5 Q803,543 803,419 Q803,305 745.5,206 Q688,107 589,48.5 Q490,-10 375,-10 Q243,-10 159.5,73 Q76,156 76,281 M494,626 Q368,626 270,524 Q172,422 172,293 Q172,198 230.5,136 Q289,74 387,74 Q511,74 609,176 Q707,278 707,406 Q707,501 649,563.5 Q591,626 494,626 M646,864 L532,775 Q518,764 502,764 Q485,764 474,774.5 Q463,785 463,801 Q463,824 483,839 L599,928 Q616,940 629,940 Q645,940 656,929 Q667,918 667,902 Q667,880 646,864"/> 
            <glyph glyph-name="Ô" unicode="&#xD4;" horiz-adv-x="803" d=" M76,281 Q76,363 109,440.5 Q142,518 198.5,577.5 Q255,637 337,673.5 Q419,710 510,710 Q637,710 720,626.5 Q803,543 803,419 Q803,305 745.5,206 Q688,107 589,48.5 Q490,-10 375,-10 Q243,-10 159.5,73 Q76,156 76,281 M494,626 Q368,626 270,524 Q172,422 172,293 Q172,198 230.5,136 Q289,74 387,74 Q511,74 609,176 Q707,278 707,406 Q707,501 649,563.5 Q591,626 494,626 M603,777 L537,850 L442,777 Q424,763 403,763 Q389,763 379,772 Q369,781 369,796 Q369,818 390,834 L509,926 Q528,940 549,940 Q573,940 585,926 L669,834 Q678,825 678,811 Q678,790 663,776.5 Q648,763 633,763 Q617,763 603,777"/> 
            <glyph glyph-name="Õ" unicode="&#xD5;" horiz-adv-x="803" d=" M76,281 Q76,363 109,440.5 Q142,518 198.5,577.5 Q255,637 337,673.5 Q419,710 510,710 Q637,710 720,626.5 Q803,543 803,419 Q803,305 745.5,206 Q688,107 589,48.5 Q490,-10 375,-10 Q243,-10 159.5,73 Q76,156 76,281 M494,626 Q368,626 270,524 Q172,422 172,293 Q172,198 230.5,136 Q289,74 387,74 Q511,74 609,176 Q707,278 707,406 Q707,501 649,563.5 Q591,626 494,626 M490,908 Q516,908 538,895 Q560,882 575,868.5 Q590,855 599,855 Q617,855 634,881.5 Q651,908 673,908 Q686,908 694.5,900 Q703,892 703,879 Q703,849 669.5,816.5 Q636,784 583,784 Q557,784 535.5,797 Q514,810 499,823.5 Q484,837 475,837 Q459,837 449.5,823.5 Q440,810 429,797 Q418,784 400,784 Q386,784 378,791.5 Q370,799 370,812 Q370,842 404,875 Q438,908 490,908"/> 
            <glyph glyph-name="Ö" unicode="&#xD6;" horiz-adv-x="803" d=" M76,281 Q76,363 109,440.5 Q142,518 198.5,577.5 Q255,637 337,673.5 Q419,710 510,710 Q637,710 720,626.5 Q803,543 803,419 Q803,305 745.5,206 Q688,107 589,48.5 Q490,-10 375,-10 Q243,-10 159.5,73 Q76,156 76,281 M494,626 Q368,626 270,524 Q172,422 172,293 Q172,198 230.5,136 Q289,74 387,74 Q511,74 609,176 Q707,278 707,406 Q707,501 649,563.5 Q591,626 494,626 M379,836 Q379,862 400,883 Q421,904 448,904 Q468,904 481.5,890.5 Q495,877 495,857 Q495,830 473.5,810 Q452,790 426,790 Q405,790 392,803 Q379,816 379,836 M574,836 Q574,862 595,883 Q616,904 643,904 Q664,904 677,891 Q690,878 690,858 Q690,831 669,810.5 Q648,790 621,790 Q601,790 587.5,803 Q574,816 574,836"/> 
            <glyph glyph-name="×" unicode="&#xD7;" horiz-adv-x="527" d=" M166,458 Q182,458 192,446 L301,310 L464,446 Q476,457 493,457 Q508,457 517.5,447 Q527,437 527,423 Q527,403 510,388 L348,252 L458,116 Q464,107 464,97 Q464,78 449,62 Q434,46 415,46 Q398,46 388,58 L279,194 L117,59 Q104,47 84,47 Q71,47 61.5,57 Q52,67 52,81 Q52,101 71,117 L232,252 L121,389 Q115,395 115,407 Q115,427 130.5,442.5 Q146,458 166,458"/> 
            <glyph glyph-name="Ø" unicode="&#xD8;" horiz-adv-x="810" d=" M110,27 L158,81 Q83,161 83,281 Q83,388 141.5,487 Q200,586 301,648 Q402,710 517,710 Q607,710 679,665 L723,715 Q739,733 761,733 Q774,733 783,724 Q792,715 792,702 Q792,688 780,675 L732,622 Q810,539 810,419 Q810,307 750,207.5 Q690,108 590,49 Q490,-10 378,-10 Q283,-10 211,37 L167,-12 Q150,-31 128,-31 Q115,-31 107,-22 Q99,-13 99,-1 Q99,16 110,27 M715,406 Q715,489 668,549 L273,107 Q325,74 394,74 Q518,74 616.5,176 Q715,278 715,406 M501,626 Q375,626 277,524 Q179,422 179,293 Q179,209 223,153 L617,595 Q567,626 501,626"/> 
            <glyph glyph-name="Ù" unicode="&#xD9;" horiz-adv-x="779" d=" M777,653 L710,305 Q682,159 581.5,74.5 Q481,-10 354,-10 Q238,-10 163.5,58.5 Q89,127 89,240 Q89,276 99,326 L165,664 Q169,684 184,697 Q199,710 218,710 Q236,710 248,699 Q260,688 260,672 Q260,668 257,653 L191,316 Q183,278 183,245 Q183,163 233.5,119.5 Q284,76 357,76 Q449,76 521.5,137.5 Q594,199 615,307 L684,663 Q688,683 703,696.5 Q718,710 737,710 Q755,710 767,699 Q779,688 779,672 Q779,665 777,653 M440,778 L358,870 Q350,878 350,892 Q350,910 365,925 Q380,940 399,940 Q414,940 424,929 L507,836 Q516,827 516,813 Q516,793 501,779 Q486,765 466,765 Q451,765 440,778"/> 
            <glyph glyph-name="Ú" unicode="&#xDA;" horiz-adv-x="779" d=" M777,653 L710,305 Q682,159 581.5,74.5 Q481,-10 354,-10 Q238,-10 163.5,58.5 Q89,127 89,240 Q89,276 99,326 L165,664 Q169,684 184,697 Q199,710 218,710 Q236,710 248,699 Q260,688 260,672 Q260,668 257,653 L191,316 Q183,278 183,245 Q183,163 233.5,119.5 Q284,76 357,76 Q449,76 521.5,137.5 Q594,199 615,307 L684,663 Q688,683 703,696.5 Q718,710 737,710 Q755,710 767,699 Q779,688 779,672 Q779,665 777,653 M624,864 L510,775 Q496,764 480,764 Q463,764 452,774.5 Q441,785 441,801 Q441,824 461,839 L577,928 Q594,940 607,940 Q623,940 634,929 Q645,918 645,902 Q645,880 624,864"/> 
            <glyph glyph-name="Û" unicode="&#xDB;" horiz-adv-x="779" d=" M777,653 L710,305 Q682,159 581.5,74.5 Q481,-10 354,-10 Q238,-10 163.5,58.5 Q89,127 89,240 Q89,276 99,326 L165,664 Q169,684 184,697 Q199,710 218,710 Q236,710 248,699 Q260,688 260,672 Q260,668 257,653 L191,316 Q183,278 183,245 Q183,163 233.5,119.5 Q284,76 357,76 Q449,76 521.5,137.5 Q594,199 615,307 L684,663 Q688,683 703,696.5 Q718,710 737,710 Q755,710 767,699 Q779,688 779,672 Q779,665 777,653 M570,777 L504,850 L409,777 Q392,763 370,763 Q356,763 346,772 Q336,781 336,796 Q336,818 357,834 L476,926 Q495,940 516,940 Q540,940 552,926 L636,834 Q645,825 645,811 Q645,790 630,776.5 Q615,763 600,763 Q584,763 570,777"/> 
            <glyph glyph-name="Ü" unicode="&#xDC;" horiz-adv-x="779" d=" M777,653 L710,305 Q682,159 581.5,74.5 Q481,-10 354,-10 Q238,-10 163.5,58.5 Q89,127 89,240 Q89,276 99,326 L165,664 Q169,684 184,697 Q199,710 218,710 Q236,710 248,699 Q260,688 260,672 Q260,668 257,653 L191,316 Q183,278 183,245 Q183,163 233.5,119.5 Q284,76 357,76 Q449,76 521.5,137.5 Q594,199 615,307 L684,663 Q688,683 703,696.5 Q718,710 737,710 Q755,710 767,699 Q779,688 779,672 Q779,665 777,653 M349,836 Q349,862 370,883 Q391,904 418,904 Q438,904 451.5,890.5 Q465,877 465,857 Q465,830 443.5,810 Q422,790 396,790 Q375,790 362,803 Q349,816 349,836 M544,836 Q544,862 565,883 Q586,904 613,904 Q634,904 647,891 Q660,878 660,858 Q660,831 639,810.5 Q618,790 591,790 Q571,790 557.5,803 Q544,816 544,836"/> 
            <glyph glyph-name="Ý" unicode="&#xDD;" horiz-adv-x="728" d=" M254,49 L301,293 L122,628 Q113,644 113,658 Q113,680 127.5,695 Q142,710 166,710 Q191,710 202,690 L364,385 L647,692 Q665,710 687,710 Q705,710 716,700 Q728,688 728,672 Q728,652 710,632 L398,297 L348,39 Q344,18 329,4 Q314,-10 292,-10 Q275,-10 263.5,1 Q252,12 252,29 Q252,37 254,49 M572,864 L458,775 Q444,764 428,764 Q411,764 400,774.5 Q389,785 389,801 Q389,824 409,839 L525,928 Q541,940 555,940 Q571,940 582,929 Q593,918 593,902 Q593,880 572,864"/> 
            <glyph glyph-name="Þ" unicode="&#xDE;" horiz-adv-x="629" d=" M244,533 L187,241 L350,241 Q434,241 485,293.5 Q536,346 536,411 Q536,469 504,501 Q472,533 407,533 M267,654 L260,618 L427,618 Q523,618 576,564.5 Q629,511 629,426 Q629,315 549,235.5 Q469,156 337,156 L170,156 L148,38 Q144,18 128.5,3.5 Q113,-11 92,-11 Q75,-11 64,0 Q53,11 53,27 Q53,33 55,45 L174,661 Q178,681 193.5,695.5 Q209,710 230,710 Q247,710 258,699 Q269,688 269,672 Q269,666 267,654"/> 
            <glyph glyph-name="ß" unicode="&#xDF;" horiz-adv-x="628" d=" M396,73 Q446,73 478.5,103 Q511,133 511,170 Q511,194 496,216 Q481,238 459.5,255.5 Q438,273 416.5,292 Q395,311 380,337.5 Q365,364 365,396 Q365,463 414.5,502.5 Q464,542 540,552 Q541,557 541,575 Q541,623 509,650 Q477,677 431,677 Q372,677 329.5,637 Q287,597 272,524 L131,-183 Q127,-204 112.5,-217 Q98,-230 77,-230 Q60,-230 47.5,-219 Q35,-208 35,-192 Q35,-187 37,-173 L154,415 L131,415 Q116,415 106,427 Q96,439 96,455 Q96,473 112,486.5 Q128,500 148,500 L171,500 Q216,750 440,750 Q529,750 578.5,698.5 Q628,647 628,575 Q628,496 566,480 L545,476 Q524,471 515.5,467.5 Q507,464 491.5,456 Q476,448 469.5,435 Q463,422 463,405 Q463,382 485.5,357 Q508,332 535,312 Q562,292 584.5,255 Q607,218 607,173 Q607,96 542.5,43 Q478,-10 386,-10 Q321,-10 275.5,11 Q230,32 230,65 Q230,83 244,97 Q258,111 274,111 Q287,111 301,101.5 Q315,92 338,82.5 Q361,73 396,73"/> 
            <glyph glyph-name="à" unicode="&#xE0;" horiz-adv-x="617" d=" M485,246 Q491,278 491,295 Q491,353 454.5,391 Q418,429 357,429 Q274,429 211.5,365 Q149,301 149,213 Q149,150 186,111 Q223,72 288,72 Q361,72 416,122 Q471,172 485,246 M440,47 L443,64 Q436,56 422,43.5 Q408,31 362,10.5 Q316,-10 266,-10 Q179,-10 119,51 Q59,112 59,207 Q59,335 151,422.5 Q243,510 362,510 Q392,510 418.5,502.5 Q445,495 462,484 Q479,473 491.5,462 Q504,451 510,444 L515,436 L520,462 Q524,483 539,496.5 Q554,510 575,510 Q592,510 604.5,498.5 Q617,487 617,471 Q617,466 615,452 L534,37 Q530,16 515,2.5 Q500,-11 479,-11 Q462,-11 449.5,0.5 Q437,12 437,28 Q437,31 437.5,34 Q438,37 439,40.5 Q440,44 440,47 M357,578 L275,670 Q267,678 267,692 Q267,710 282,725 Q297,740 316,740 Q331,740 341,729 L424,636 Q433,627 433,613 Q433,593 418,579 Q403,565 383,565 Q368,565 357,578"/> 
            <glyph glyph-name="á" unicode="&#xE1;" horiz-adv-x="617" d=" M485,246 Q491,278 491,295 Q491,353 454.5,391 Q418,429 357,429 Q274,429 211.5,365 Q149,301 149,213 Q149,150 186,111 Q223,72 288,72 Q361,72 416,122 Q471,172 485,246 M440,47 L443,64 Q436,56 422,43.5 Q408,31 362,10.5 Q316,-10 266,-10 Q179,-10 119,51 Q59,112 59,207 Q59,335 151,422.5 Q243,510 362,510 Q392,510 418.5,502.5 Q445,495 462,484 Q479,473 491.5,462 Q504,451 510,444 L515,436 L520,462 Q524,483 539,496.5 Q554,510 575,510 Q592,510 604.5,498.5 Q617,487 617,471 Q617,466 615,452 L534,37 Q530,16 515,2.5 Q500,-11 479,-11 Q462,-11 449.5,0.5 Q437,12 437,28 Q437,31 437.5,34 Q438,37 439,40.5 Q440,44 440,47 M518,664 L404,575 Q390,564 374,564 Q357,564 346,574.5 Q335,585 335,601 Q335,624 355,639 L471,728 Q488,740 501,740 Q517,740 528,729 Q539,718 539,702 Q539,680 518,664"/> 
            <glyph glyph-name="â" unicode="&#xE2;" horiz-adv-x="617" d=" M485,246 Q491,278 491,295 Q491,353 454.5,391 Q418,429 357,429 Q274,429 211.5,365 Q149,301 149,213 Q149,150 186,111 Q223,72 288,72 Q361,72 416,122 Q471,172 485,246 M440,47 L443,64 Q436,56 422,43.5 Q408,31 362,10.5 Q316,-10 266,-10 Q179,-10 119,51 Q59,112 59,207 Q59,335 151,422.5 Q243,510 362,510 Q392,510 418.5,502.5 Q445,495 462,484 Q479,473 491.5,462 Q504,451 510,444 L515,436 L520,462 Q524,483 539,496.5 Q554,510 575,510 Q592,510 604.5,498.5 Q617,487 617,471 Q617,466 615,452 L534,37 Q530,16 515,2.5 Q500,-11 479,-11 Q462,-11 449.5,0.5 Q437,12 437,28 Q437,31 437.5,34 Q438,37 439,40.5 Q440,44 440,47 M460,577 L394,650 L299,577 Q282,563 260,563 Q246,563 236,572 Q226,581 226,596 Q226,618 247,634 L366,726 Q385,740 406,740 Q430,740 442,726 L526,634 Q535,625 535,611 Q535,590 520,576.5 Q505,563 490,563 Q474,563 460,577"/> 
            <glyph glyph-name="ã" unicode="&#xE3;" horiz-adv-x="617" d=" M485,246 Q491,278 491,295 Q491,353 454.5,391 Q418,429 357,429 Q274,429 211.5,365 Q149,301 149,213 Q149,150 186,111 Q223,72 288,72 Q361,72 416,122 Q471,172 485,246 M440,47 L443,64 Q436,56 422,43.5 Q408,31 362,10.5 Q316,-10 266,-10 Q179,-10 119,51 Q59,112 59,207 Q59,335 151,422.5 Q243,510 362,510 Q392,510 418.5,502.5 Q445,495 462,484 Q479,473 491.5,462 Q504,451 510,444 L515,436 L520,462 Q524,483 539,496.5 Q554,510 575,510 Q592,510 604.5,498.5 Q617,487 617,471 Q617,466 615,452 L534,37 Q530,16 515,2.5 Q500,-11 479,-11 Q462,-11 449.5,0.5 Q437,12 437,28 Q437,31 437.5,34 Q438,37 439,40.5 Q440,44 440,47 M347,708 Q373,708 395,695 Q417,682 432,668.5 Q447,655 456,655 Q474,655 491,681.5 Q508,708 530,708 Q543,708 551.5,700 Q560,692 560,679 Q560,649 526.5,616.5 Q493,584 440,584 Q414,584 392,597 Q370,610 355.5,623.5 Q341,637 332,637 Q316,637 306.5,623.5 Q297,610 286,597 Q275,584 257,584 Q243,584 235,591.5 Q227,599 227,612 Q227,642 261,675 Q295,708 347,708"/> 
            <glyph glyph-name="ä" unicode="&#xE4;" horiz-adv-x="617" d=" M485,246 Q491,278 491,295 Q491,353 454.5,391 Q418,429 357,429 Q274,429 211.5,365 Q149,301 149,213 Q149,150 186,111 Q223,72 288,72 Q361,72 416,122 Q471,172 485,246 M440,47 L443,64 Q436,56 422,43.5 Q408,31 362,10.5 Q316,-10 266,-10 Q179,-10 119,51 Q59,112 59,207 Q59,335 151,422.5 Q243,510 362,510 Q392,510 418.5,502.5 Q445,495 462,484 Q479,473 491.5,462 Q504,451 510,444 L515,436 L520,462 Q524,483 539,496.5 Q554,510 575,510 Q592,510 604.5,498.5 Q617,487 617,471 Q617,466 615,452 L534,37 Q530,16 515,2.5 Q500,-11 479,-11 Q462,-11 449.5,0.5 Q437,12 437,28 Q437,31 437.5,34 Q438,37 439,40.5 Q440,44 440,47 M238,636 Q238,662 259,683 Q280,704 307,704 Q327,704 340.5,690.5 Q354,677 354,657 Q354,630 332.5,610 Q311,590 285,590 Q264,590 251,603 Q238,616 238,636 M433,636 Q433,662 454,683 Q475,704 502,704 Q523,704 536,691 Q549,678 549,658 Q549,631 528,610.5 Q507,590 480,590 Q460,590 446.5,603 Q433,616 433,636"/> 
            <glyph glyph-name="å" unicode="&#xE5;" horiz-adv-x="617" d=" M485,246 Q491,278 491,295 Q491,353 454.5,391 Q418,429 357,429 Q274,429 211.5,365 Q149,301 149,213 Q149,150 186,111 Q223,72 288,72 Q361,72 416,122 Q471,172 485,246 M440,47 L443,64 Q436,56 422,43.5 Q408,31 362,10.5 Q316,-10 266,-10 Q179,-10 119,51 Q59,112 59,207 Q59,335 151,422.5 Q243,510 362,510 Q392,510 418.5,502.5 Q445,495 462,484 Q479,473 491.5,462 Q504,451 510,444 L515,436 L520,462 Q524,483 539,496.5 Q554,510 575,510 Q592,510 604.5,498.5 Q617,487 617,471 Q617,466 615,452 L534,37 Q530,16 515,2.5 Q500,-11 479,-11 Q462,-11 449.5,0.5 Q437,12 437,28 Q437,31 437.5,34 Q438,37 439,40.5 Q440,44 440,47 M281,620 Q281,671 320.5,710 Q360,749 415,749 Q455,749 481,724.5 Q507,700 507,662 Q507,611 466.5,572.5 Q426,534 372,534 Q332,534 306.5,558 Q281,582 281,620 M403,690 Q382,690 363,672.5 Q344,655 344,632 Q344,615 355.5,603.5 Q367,592 384,592 Q406,592 425,609.5 Q444,627 444,649 Q444,666 432,678 Q420,690 403,690"/> 
            <glyph glyph-name="æ" unicode="&#xE6;" horiz-adv-x="968" d=" M891,211 L561,211 L561,202 Q561,140 597.5,106 Q634,72 696,72 Q737,72 784.5,93.5 Q832,115 844,115 Q859,115 868,105.5 Q877,96 877,82 Q877,51 847,35 Q764,-10 680,-10 Q631,-10 589,11.5 Q547,33 530,64 L524,38 Q519,18 504,4 Q489,-10 469,-10 Q452,-10 440.5,1.5 Q429,13 429,29 Q429,35 430,38 L435,64 Q356,-10 262,-10 Q175,-10 117,50.5 Q59,111 59,207 Q59,335 149,422.5 Q239,510 358,510 Q455,510 507,437 L512,462 Q516,483 530.5,496.5 Q545,510 565,510 Q582,510 594.5,498.5 Q607,487 607,471 Q607,465 606,462 L601,435 Q671,510 774,510 Q862,510 915,451.5 Q968,393 968,310 Q968,272 949,241.5 Q930,211 891,211 M474,245 Q480,293 480,297 Q480,355 446.5,392 Q413,429 352,429 Q271,429 210,365 Q149,301 149,213 Q149,149 184,110.5 Q219,72 283,72 Q354,72 408.5,122 Q463,172 474,245 M761,430 Q700,430 648,389.5 Q596,349 576,288 L882,288 Q882,290 882.5,295 Q883,300 883,302 Q883,353 850,391.5 Q817,430 761,430"/> 
            <glyph glyph-name="ç" unicode="&#xE7;" horiz-adv-x="522" d=" M182,-68 Q185,-58 194,-46 L222,-3 Q148,14 106,70 Q64,126 64,208 Q64,331 154,420.5 Q244,510 377,510 Q457,510 501,482 Q522,469 522,449 Q522,430 505,414.5 Q488,399 469,399 Q457,399 437,410 Q405,429 363,429 Q280,429 216.5,364 Q153,299 153,217 Q153,155 192,113.5 Q231,72 295,72 Q335,72 373.5,90 Q412,108 420,108 Q436,108 446,97.5 Q456,87 456,71 Q456,44 423,24 Q368,-9 289,-10 L268,-43 Q306,-43 330,-63.5 Q354,-84 354,-117 Q354,-166 314.5,-198 Q275,-230 213,-230 Q129,-230 129,-193 Q129,-179 140,-168.5 Q151,-158 163,-158 Q174,-158 188.5,-166 Q203,-174 219,-174 Q239,-174 252.5,-159.5 Q266,-145 266,-127 Q266,-114 257.5,-105 Q249,-96 235,-96 Q231,-96 221,-96.5 Q211,-97 210,-97 Q181,-97 181,-74 Q181,-73 181.5,-71 Q182,-69 182,-68"/> 
            <glyph glyph-name="è" unicode="&#xE8;" horiz-adv-x="579" d=" M510,211 L154,211 Q154,152 194.5,112 Q235,72 298,72 Q355,72 427,107 Q443,115 456,115 Q472,115 481,105.5 Q490,96 490,82 Q490,50 460,36 Q376,-10 282,-10 Q183,-10 123.5,50 Q64,110 64,208 Q64,331 153.5,420.5 Q243,510 374,510 Q468,510 523.5,451 Q579,392 579,313 Q579,273 562.5,242 Q546,211 510,211 M363,430 Q300,430 243.5,389 Q187,348 169,288 L495,288 L495,299 Q495,357 459,393.5 Q423,430 363,430 M356,578 L274,670 Q266,678 266,692 Q266,710 281,725 Q296,740 315,740 Q330,740 340,729 L423,636 Q432,627 432,613 Q432,593 417,579 Q402,565 382,565 Q367,565 356,578"/> 
            <glyph glyph-name="é" unicode="&#xE9;" horiz-adv-x="579" d=" M510,211 L154,211 Q154,152 194.5,112 Q235,72 298,72 Q355,72 427,107 Q443,115 456,115 Q472,115 481,105.5 Q490,96 490,82 Q490,50 460,36 Q376,-10 282,-10 Q183,-10 123.5,50 Q64,110 64,208 Q64,331 153.5,420.5 Q243,510 374,510 Q468,510 523.5,451 Q579,392 579,313 Q579,273 562.5,242 Q546,211 510,211 M363,430 Q300,430 243.5,389 Q187,348 169,288 L495,288 L495,299 Q495,357 459,393.5 Q423,430 363,430 M518,664 L404,575 Q390,564 374,564 Q357,564 346,574.5 Q335,585 335,601 Q335,624 355,639 L471,728 Q488,740 501,740 Q517,740 528,729 Q539,718 539,702 Q539,680 518,664"/> 
            <glyph glyph-name="ê" unicode="&#xEA;" horiz-adv-x="579" d=" M510,211 L154,211 Q154,152 194.5,112 Q235,72 298,72 Q355,72 427,107 Q443,115 456,115 Q472,115 481,105.5 Q490,96 490,82 Q490,50 460,36 Q376,-10 282,-10 Q183,-10 123.5,50 Q64,110 64,208 Q64,331 153.5,420.5 Q243,510 374,510 Q468,510 523.5,451 Q579,392 579,313 Q579,273 562.5,242 Q546,211 510,211 M363,430 Q300,430 243.5,389 Q187,348 169,288 L495,288 L495,299 Q495,357 459,393.5 Q423,430 363,430 M470,577 L404,650 L309,577 Q292,563 270,563 Q256,563 246,572 Q236,581 236,596 Q236,618 257,634 L376,726 Q395,740 416,740 Q440,740 452,726 L536,634 Q545,625 545,611 Q545,590 530,576.5 Q515,563 500,563 Q484,563 470,577"/> 
            <glyph glyph-name="ë" unicode="&#xEB;" horiz-adv-x="579" d=" M510,211 L154,211 Q154,152 194.5,112 Q235,72 298,72 Q355,72 427,107 Q443,115 456,115 Q472,115 481,105.5 Q490,96 490,82 Q490,50 460,36 Q376,-10 282,-10 Q183,-10 123.5,50 Q64,110 64,208 Q64,331 153.5,420.5 Q243,510 374,510 Q468,510 523.5,451 Q579,392 579,313 Q579,273 562.5,242 Q546,211 510,211 M363,430 Q300,430 243.5,389 Q187,348 169,288 L495,288 L495,299 Q495,357 459,393.5 Q423,430 363,430 M247,636 Q247,662 268,683 Q289,704 316,704 Q336,704 349.5,690.5 Q363,677 363,657 Q363,630 341.5,610 Q320,590 294,590 Q273,590 260,603 Q247,616 247,636 M442,636 Q442,662 463,683 Q484,704 511,704 Q532,704 545,691 Q558,678 558,658 Q558,631 537,610.5 Q516,590 489,590 Q469,590 455.5,603 Q442,616 442,636"/> 
            <glyph glyph-name="ì" unicode="&#xEC;" horiz-adv-x="259" d=" M236,452 L170,114 Q168,106 168,99 Q168,75 192,75 Q208,75 218,65 Q228,55 228,40 Q228,18 209.5,4 Q191,-10 166,-10 Q121,-10 95.5,13.5 Q70,37 70,75 Q70,92 74,114 L141,463 Q145,484 160,497 Q175,510 196,510 Q213,510 225.5,498.5 Q238,487 238,471 Q238,466 236,452 M183,578 L101,670 Q93,678 93,692 Q93,710 108,725 Q123,740 142,740 Q157,740 167,729 L250,636 Q259,627 259,613 Q259,593 244,579 Q229,565 209,565 Q194,565 183,578"/> 
            <glyph glyph-name="í" unicode="&#xED;" horiz-adv-x="367" d=" M236,452 L170,114 Q168,106 168,99 Q168,75 192,75 Q208,75 218,65 Q228,55 228,40 Q228,18 209.5,4 Q191,-10 166,-10 Q121,-10 95.5,13.5 Q70,37 70,75 Q70,92 74,114 L141,463 Q145,484 160,497 Q175,510 196,510 Q213,510 225.5,498.5 Q238,487 238,471 Q238,466 236,452 M346,664 L232,575 Q218,564 202,564 Q185,564 174,574.5 Q163,585 163,601 Q163,624 183,639 L299,728 Q316,740 329,740 Q345,740 356,729 Q367,718 367,702 Q367,680 346,664"/> 
            <glyph glyph-name="î" unicode="&#xEE;" horiz-adv-x="368" d=" M236,452 L170,114 Q168,106 168,99 Q168,75 192,75 Q208,75 218,65 Q228,55 228,40 Q228,18 209.5,4 Q191,-10 166,-10 Q121,-10 95.5,13.5 Q70,37 70,75 Q70,92 74,114 L141,463 Q145,484 160,497 Q175,510 196,510 Q213,510 225.5,498.5 Q238,487 238,471 Q238,466 236,452 M293,577 L227,650 L132,577 Q115,563 93,563 Q79,563 69,572 Q59,581 59,596 Q59,618 80,634 L199,726 Q218,740 239,740 Q263,740 275,726 L359,634 Q368,625 368,611 Q368,590 353,576.5 Q338,563 323,563 Q307,563 293,577"/> 
            <glyph glyph-name="ï" unicode="&#xEF;" horiz-adv-x="384" d=" M236,452 L170,114 Q168,106 168,99 Q168,75 192,75 Q208,75 218,65 Q228,55 228,40 Q228,18 209.5,4 Q191,-10 166,-10 Q121,-10 95.5,13.5 Q70,37 70,75 Q70,92 74,114 L141,463 Q145,484 160,497 Q175,510 196,510 Q213,510 225.5,498.5 Q238,487 238,471 Q238,466 236,452 M73,636 Q73,662 94,683 Q115,704 142,704 Q162,704 175.5,690.5 Q189,677 189,657 Q189,630 167.5,610 Q146,590 120,590 Q99,590 86,603 Q73,616 73,636 M268,636 Q268,662 289,683 Q310,704 337,704 Q358,704 371,691 Q384,678 384,658 Q384,631 363,610.5 Q342,590 315,590 Q295,590 281.5,603 Q268,616 268,636"/> 
            <glyph glyph-name="ð" unicode="&#xF0;" horiz-adv-x="590" d=" M331,583 L384,625 Q366,639 342.5,647 Q319,655 303.5,657 Q288,659 276.5,667.5 Q265,676 265,693 Q265,713 281,726.5 Q297,740 318,740 Q354,740 394,724 Q434,708 460,687 L527,741 Q540,752 556,752 Q569,752 579.5,743 Q590,734 590,720 Q590,698 573,684 L512,634 Q589,542 589,375 Q589,278 561.5,201.5 Q534,125 489,80.5 Q444,36 391.5,13 Q339,-10 284,-10 Q182,-10 123,46 Q64,102 64,192 Q64,311 150,394 Q236,477 349,478 Q446,478 498,417 Q494,515 437,574 L375,523 Q359,511 345,511 Q332,511 321,521 Q310,531 310,545 Q310,567 331,583 M475,235 Q478,253 478,269 Q478,325 442,360.5 Q406,396 346,396 Q266,396 208.5,339 Q151,282 151,200 Q151,143 187.5,107 Q224,71 285,71 Q355,71 408.5,119 Q462,167 475,235"/> 
            <glyph glyph-name="ñ" unicode="&#xF1;" horiz-adv-x="612" d=" M467,44 L510,269 Q515,294 515,313 Q515,367 483.5,397 Q452,427 395,427 Q331,427 275,389 Q219,351 210,304 L159,37 Q155,16 140,3 Q125,-10 104,-10 Q87,-10 74.5,1 Q62,12 62,28 Q62,30 64,44 L145,463 Q149,484 164,497 Q179,510 200,510 Q217,510 229,499 Q241,488 241,472 Q241,467 239,453 L236,436 Q270,469 320.5,489.5 Q371,510 419,510 Q509,510 560.5,459 Q612,408 612,326 Q612,304 607,274 L562,37 Q558,16 543,3 Q528,-10 507,-10 Q490,-10 477.5,1 Q465,12 465,28 Q465,30 467,44 M384,708 Q410,708 432,695 Q454,682 469,668.5 Q484,655 493,655 Q511,655 528,681.5 Q545,708 567,708 Q580,708 588.5,700 Q597,692 597,679 Q597,649 563.5,616.5 Q530,584 477,584 Q451,584 429.5,597 Q408,610 393,623.5 Q378,637 369,637 Q353,637 343.5,623.5 Q334,610 323,597 Q312,584 294,584 Q280,584 272,591.5 Q264,599 264,612 Q264,642 298,675 Q332,708 384,708"/> 
            <glyph glyph-name="ò" unicode="&#xF2;" horiz-adv-x="596" d=" M378,510 Q474,510 535,449 Q596,388 596,292 Q596,169 506,79.5 Q416,-10 282,-10 Q186,-10 125.5,51 Q65,112 65,208 Q65,332 154.5,421 Q244,510 378,510 M296,71 Q380,71 442.5,135.5 Q505,200 505,283 Q505,350 467.5,390 Q430,430 365,430 Q281,430 218,365 Q155,300 155,217 Q155,151 193,111 Q231,71 296,71 M354,578 L272,670 Q264,678 264,692 Q264,710 279,725 Q294,740 313,740 Q328,740 338,729 L421,636 Q430,627 430,613 Q430,593 415,579 Q400,565 380,565 Q365,565 354,578"/> 
            <glyph glyph-name="ó" unicode="&#xF3;" horiz-adv-x="596" d=" M378,510 Q474,510 535,449 Q596,388 596,292 Q596,169 506,79.5 Q416,-10 282,-10 Q186,-10 125.5,51 Q65,112 65,208 Q65,332 154.5,421 Q244,510 378,510 M296,71 Q380,71 442.5,135.5 Q505,200 505,283 Q505,350 467.5,390 Q430,430 365,430 Q281,430 218,365 Q155,300 155,217 Q155,151 193,111 Q231,71 296,71 M526,664 L412,575 Q398,564 382,564 Q365,564 354,574.5 Q343,585 343,601 Q343,624 363,639 L479,728 Q496,740 509,740 Q525,740 536,729 Q547,718 547,702 Q547,680 526,664"/> 
            <glyph glyph-name="ô" unicode="&#xF4;" horiz-adv-x="596" d=" M378,510 Q474,510 535,449 Q596,388 596,292 Q596,169 506,79.5 Q416,-10 282,-10 Q186,-10 125.5,51 Q65,112 65,208 Q65,332 154.5,421 Q244,510 378,510 M296,71 Q380,71 442.5,135.5 Q505,200 505,283 Q505,350 467.5,390 Q430,430 365,430 Q281,430 218,365 Q155,300 155,217 Q155,151 193,111 Q231,71 296,71 M471,577 L405,650 L310,577 Q292,563 271,563 Q257,563 247,572 Q237,581 237,596 Q237,618 258,634 L377,726 Q396,740 417,740 Q441,740 453,726 L537,634 Q546,625 546,611 Q546,590 531,576.5 Q516,563 501,563 Q485,563 471,577"/> 
            <glyph glyph-name="õ" unicode="&#xF5;" horiz-adv-x="596" d=" M378,510 Q474,510 535,449 Q596,388 596,292 Q596,169 506,79.5 Q416,-10 282,-10 Q186,-10 125.5,51 Q65,112 65,208 Q65,332 154.5,421 Q244,510 378,510 M296,71 Q380,71 442.5,135.5 Q505,200 505,283 Q505,350 467.5,390 Q430,430 365,430 Q281,430 218,365 Q155,300 155,217 Q155,151 193,111 Q231,71 296,71 M363,708 Q389,708 411,695 Q433,682 448,668.5 Q463,655 472,655 Q490,655 507,681.5 Q524,708 546,708 Q559,708 567.5,700 Q576,692 576,679 Q576,649 542.5,616.5 Q509,584 456,584 Q430,584 408,597 Q386,610 371.5,623.5 Q357,637 348,637 Q332,637 322.5,623.5 Q313,610 302,597 Q291,584 273,584 Q259,584 251,591.5 Q243,599 243,612 Q243,642 277,675 Q311,708 363,708"/> 
            <glyph glyph-name="ö" unicode="&#xF6;" horiz-adv-x="596" d=" M378,510 Q474,510 535,449 Q596,388 596,292 Q596,169 506,79.5 Q416,-10 282,-10 Q186,-10 125.5,51 Q65,112 65,208 Q65,332 154.5,421 Q244,510 378,510 M296,71 Q380,71 442.5,135.5 Q505,200 505,283 Q505,350 467.5,390 Q430,430 365,430 Q281,430 218,365 Q155,300 155,217 Q155,151 193,111 Q231,71 296,71 M251,636 Q251,662 272,683 Q293,704 320,704 Q340,704 353.5,690.5 Q367,677 367,657 Q367,630 345.5,610 Q324,590 298,590 Q277,590 264,603 Q251,616 251,636 M446,636 Q446,662 467,683 Q488,704 515,704 Q536,704 549,691 Q562,678 562,658 Q562,631 541,610.5 Q520,590 493,590 Q473,590 459.5,603 Q446,616 446,636"/> 
            <glyph glyph-name="÷" unicode="&#xF7;" horiz-adv-x="555" d=" M216,52 Q216,80 239,103 Q262,126 293,126 Q315,126 329.5,111.5 Q344,97 344,76 Q344,45 321,22.5 Q298,0 268,0 Q245,0 230.5,14.5 Q216,29 216,52 M289,425 Q289,453 311.5,476.5 Q334,500 365,500 Q388,500 402.5,485.5 Q417,471 417,449 Q417,419 393.5,396.5 Q370,374 341,374 Q318,374 303.5,388.5 Q289,403 289,425 M506,212 L120,212 Q105,212 94.5,222 Q84,232 84,246 Q84,266 98.5,280 Q113,294 134,294 L520,294 Q534,294 544.5,283.5 Q555,273 555,259 Q555,239 540.5,225.5 Q526,212 506,212"/> 
            </font>
</defs>
</svg>
