<?xml version="1.0" standalone="no"?>
<!DOCTYPE svg PUBLIC "-//W3C//DTD SVG 1.1//EN" "http://www.w3.org/Graphics/SVG/1.1/DTD/svg11.dtd" >
<svg xmlns="http://www.w3.org/2000/svg">
    <defs>
        <font id="UltimaPro">
            <font-face font-family="UltimaPro"
                       units-per-em="1000"
                       ascent="750"
                       descent="-250"
                       bbox="-139 -281 1447 952"
                    />
            <missing-glyph horiz-adv-x="0" />
            
            <glyph glyph-name="!" unicode="&#x21;" horiz-adv-x="206" d=" M80,27 Q80,79 98.5,97.5 Q117,116 143,116 Q169,116 187.5,97.5 Q206,79 206,53 Q206,27 187.5,8.5 Q169,-10 143,-10 Q117,-10 80,27 M94,661 Q94,681 108.5,695.5 Q123,710 143,710 Q163,710 177.5,695.5 Q192,681 192,661 L192,249 Q192,229 177.5,214.5 Q163,200 143,200 Q123,200 108.5,214.5 Q94,229 94,249"/> 
            <glyph glyph-name="&quot;" unicode="&#x22;" horiz-adv-x="447" d=" M196,710 Q216,710 230.5,696 Q245,682 245,661 Q245,650 238,636 L141,469 Q127,445 99,445 Q78,445 64,459.5 Q50,474 50,493 Q50,508 56,518 L152,685 Q166,710 196,710 M398,710 Q418,710 432.5,696 Q447,682 447,661 Q447,650 440,636 L343,469 Q329,445 301,445 Q280,445 266,459.5 Q252,474 252,493 Q252,508 258,518 L354,685 Q368,710 398,710"/> 
            <glyph glyph-name="#" unicode="&#x23;" horiz-adv-x="575" d=" M96,492 L169,492 L189,651 Q191,668 203.5,679.5 Q216,691 233,691 Q252,691 264,678 Q276,665 276,644 Q276,639 275,631 L257,492 L385,492 L408,651 Q410,669 423,680 Q436,691 454,691 Q472,691 482.5,678 Q493,665 493,644 Q493,639 492,631 L471,492 L533,492 Q550,492 562.5,479 Q575,466 575,450 Q575,430 563,417.5 Q551,405 533,405 L461,405 L442,267 L504,267 Q521,267 534,253.5 Q547,240 547,223 Q547,205 534,192.5 Q521,180 504,180 L430,180 L410,30 Q408,14 395.5,2 Q383,-10 367,-10 Q348,-10 336,3.5 Q324,17 324,36 Q324,49 325,54 L344,180 L215,180 L194,30 Q192,14 178.5,2 Q165,-10 148,-10 Q130,-10 118.5,3.5 Q107,17 107,36 Q107,44 109,54 L127,180 L67,180 Q49,180 37,192.5 Q25,205 25,223 Q25,241 37,254 Q49,267 67,267 L137,267 L156,405 L96,405 Q78,405 65.5,417.5 Q53,430 53,450 Q53,466 65.5,479 Q78,492 96,492 M245,405 L227,267 L356,267 L374,405"/> 
            <glyph glyph-name="$" unicode="&#x24;" horiz-adv-x="537" d=" M337,771 L337,700 L454,700 Q475,700 489,688 Q503,676 503,658 Q503,639 489,627 Q475,615 454,615 L238,615 Q199,615 175.5,586.5 Q152,558 152,523 Q152,493 168.5,470.5 Q185,448 212,435.5 Q239,423 273.5,410.5 Q308,398 344.5,388 Q381,378 415.5,362 Q450,346 477,326 Q504,306 520.5,271.5 Q537,237 537,193 Q537,114 482,61.5 Q427,9 337,-1 L337,-71 Q337,-88 324.5,-100 Q312,-112 296,-112 Q280,-112 268,-100 Q256,-88 256,-71 L256,0 L112,0 Q91,0 77,12 Q63,24 63,42 Q63,62 77,73.5 Q91,85 112,85 L318,85 Q375,85 407.5,114.5 Q440,144 440,192 Q440,228 419,252.5 Q398,277 365,290.5 Q332,304 291.5,315 Q251,326 210.5,340.5 Q170,355 137,375 Q104,395 83,432 Q62,469 62,521 Q62,595 116.5,647.5 Q171,700 256,700 L256,771 Q256,786 268,798 Q280,810 296,810 Q312,810 324.5,798 Q337,786 337,771"/> 
            <glyph glyph-name="%" unicode="&#x25;" horiz-adv-x="740" d=" M164,44 L567,690 Q579,710 603,710 Q618,710 629,698.5 Q640,687 640,672 Q640,666 634,656 L231,11 Q218,-10 196,-10 Q181,-10 170,1.5 Q159,13 159,27 Q159,34 164,44 M433,143 Q433,207 478,252 Q523,297 587,297 Q650,297 695,252 Q740,207 740,143 Q740,80 695,35 Q650,-10 587,-10 Q523,-10 478,35 Q433,80 433,143 M504,143 Q504,109 528.5,85 Q553,61 587,61 Q621,61 645,85 Q669,109 669,143 Q669,177 645,201.5 Q621,226 587,226 Q552,226 528,202 Q504,178 504,143 M60,494 Q60,622 105,666.5 Q150,711 213,711 Q277,711 322,666.5 Q367,622 367,558 Q367,494 322,449.5 Q277,405 213,405 Q150,405 60,494 M131,592 Q131,524 155,499.5 Q179,475 213,475 Q248,475 272,499.5 Q296,524 296,558 Q296,592 272,616.5 Q248,641 213,641 Q179,641 131,592"/> 
            <glyph glyph-name="&amp;" unicode="&#x26;" horiz-adv-x="620" d=" M291,626 Q245,626 215.5,600.5 Q186,575 186,532 Q186,496 209.5,469 Q233,442 266,439 Q285,437 297,426.5 Q309,416 309,399 Q309,381 296,369.5 Q283,358 261,357 Q215,355 179.5,316.5 Q144,278 144,224 Q144,167 186,121 Q228,75 297,75 Q354,75 394.5,119.5 Q435,164 435,220 L427,220 Q408,220 396.5,233.5 Q385,247 385,262 Q385,279 397,291.5 Q409,304 427,304 L578,304 Q595,304 607.5,291.5 Q620,279 620,262 Q620,244 607.5,232 Q595,220 578,220 L530,220 Q524,123 457.5,56.5 Q391,-10 297,-10 Q189,-10 119.5,58 Q50,126 50,224 Q50,274 76,321.5 Q102,369 149,404 Q93,460 93,538 Q93,609 149,659.5 Q205,710 293,710 Q354,710 414.5,676 Q475,642 475,603 Q475,583 462,570.5 Q449,558 430,558 Q412,558 393,577 Q378,592 368.5,600 Q359,608 337.5,617 Q316,626 291,626"/> 
            <glyph glyph-name="'" unicode="&#x27;" horiz-adv-x="245" d=" M196,710 Q216,710 230.5,696 Q245,682 245,661 Q245,650 238,636 L141,469 Q127,445 99,445 Q78,445 64,459.5 Q50,474 50,493 Q50,508 56,518 L152,685 Q166,710 196,710"/> 
            <glyph glyph-name="(" unicode="&#x28;" horiz-adv-x="292" d=" M292,-104 Q292,-123 278.5,-138 Q265,-153 245,-153 Q217,-153 202,-129 Q80,72 80,292 Q80,508 201,711 Q216,736 245,736 Q265,736 278.5,721.5 Q292,707 292,687 Q292,674 286,663 Q178,458 178,292 Q178,124 286,-80 Q292,-92 292,-104"/> 
            <glyph glyph-name=")" unicode="&#x29;" horiz-adv-x="261" d=" M49,-104 Q49,-92 55,-80 Q163,124 163,292 Q163,458 55,663 Q49,674 49,687 Q49,707 62.5,721.5 Q76,736 96,736 Q125,736 140,711 Q261,508 261,292 Q261,72 139,-129 Q124,-153 96,-153 Q76,-153 62.5,-138 Q49,-123 49,-104"/> 
            <glyph glyph-name="*" unicode="&#x2A;" horiz-adv-x="412" d=" M370,611 Q387,611 399.5,599 Q412,587 412,571 Q412,542 383,532 L304,505 L354,433 Q360,424 360,409 Q360,392 349,380.5 Q338,369 320,369 Q302,369 289,386 L236,457 L185,387 Q171,369 152,369 Q136,369 124,380.5 Q112,392 112,407 Q112,424 119,435 L168,505 L88,532 Q60,541 60,571 Q60,588 72,599.5 Q84,611 100,611 Q109,611 113,610 L193,583 L193,670 Q193,688 205.5,699 Q218,710 236,710 Q254,710 266.5,699 Q279,688 279,670 L279,583 L356,609"/> 
            <glyph glyph-name="+" unicode="&#x2B;" horiz-adv-x="529" d=" M335,446 L335,293 L489,293 Q505,293 517,281 Q529,269 529,252 Q529,235 517.5,223 Q506,211 489,211 L335,211 L335,58 Q335,41 323,29 Q311,17 294,17 Q277,17 265,29 Q253,41 253,58 L253,211 L101,211 Q84,211 72,223 Q60,235 60,252 Q60,269 72,281 Q84,293 101,293 L253,293 L253,446 Q253,462 265,474 Q277,486 294,486 Q311,486 323,474.5 Q335,463 335,446"/> 
            <glyph glyph-name="," unicode="&#x2C;" horiz-adv-x="191" d=" M68,57 Q68,81 84.5,97 Q101,113 125,113 Q149,113 170,93 Q191,73 191,22 Q191,-42 158.5,-83 Q126,-124 91,-124 Q76,-124 65.5,-114.5 Q55,-105 55,-91 Q55,-70 78,-57 Q115,-34 115,0 Q94,4 81,20 Q68,36 68,57"/> 
            <glyph glyph-name="-" unicode="&#x2D;" horiz-adv-x="370" d=" M330,211 L102,211 Q85,211 72.5,223 Q60,235 60,252 Q60,269 72.5,281 Q85,293 102,293 L330,293 Q346,293 358,281 Q370,269 370,252 Q370,235 358.5,223 Q347,211 330,211"/> 
            <glyph glyph-name="." unicode="&#x2E;" horiz-adv-x="186" d=" M60,27 Q60,79 78.5,97.5 Q97,116 123,116 Q149,116 167.5,97.5 Q186,79 186,53 Q186,27 167.5,8.5 Q149,-10 123,-10 Q97,-10 60,27"/> 
            <glyph glyph-name="/" unicode="&#x2F;" horiz-adv-x="327" d=" M324,645 L91,20 Q80,-10 46,-10 Q27,-10 13.5,4 Q0,18 0,37 Q0,46 2,52 L235,678 Q247,710 281,710 Q301,710 314,695.5 Q327,681 327,661 Q327,657 324,645"/> 
            <glyph glyph-name="0" unicode="&#x30;" horiz-adv-x="546" d=" M405,-10 Q195,-10 124.5,63 Q54,136 54,242 L54,458 Q54,564 124.5,637 Q195,710 300,710 Q405,710 475.5,637 Q546,564 546,458 L546,242 Q546,136 405,-10 M147,464 L147,236 Q147,165 189,118.5 Q231,72 300,72 Q369,72 411,118.5 Q453,165 453,236 L453,464 Q453,535 411,582 Q369,629 300,629 Q231,629 189,582 Q147,535 147,464"/> 
            <glyph glyph-name="1" unicode="&#x31;" horiz-adv-x="581" d=" M536,0 L109,0 Q90,0 76,11.5 Q62,23 62,40 Q62,59 76,70.5 Q90,82 109,82 L280,82 L280,618 L177,618 Q160,618 148,629.5 Q136,641 136,658 Q136,675 148,687.5 Q160,700 177,700 L327,700 Q346,700 359.5,686.5 Q373,673 373,654 L373,82 L536,82 Q555,82 568,70.5 Q581,59 581,40 Q581,22 568,11 Q555,0 536,0"/> 
            <glyph glyph-name="2" unicode="&#x32;" horiz-adv-x="541" d=" M101,111 L348,370 Q416,441 416,501 Q416,548 380.5,588 Q345,628 291,628 Q193,628 158,506 Q155,495 143.5,486.5 Q132,478 117,478 Q98,478 87,491.5 Q76,505 76,518 Q76,550 96,587 Q161,710 294,710 Q390,710 449,648 Q508,586 508,507 Q508,410 427,327 L192,84 L495,84 Q515,84 528,71.5 Q541,59 541,40 Q541,23 528,11.5 Q515,0 495,0 L131,0 Q111,0 95,16 Q79,32 79,54 Q79,89 101,111"/> 
            <glyph glyph-name="3" unicode="&#x33;" horiz-adv-x="533" d=" M293,710 Q385,710 441,655.5 Q497,601 497,534 Q497,487 474.5,444.5 Q452,402 402,377 Q465,354 499,307 Q533,260 533,205 Q533,113 463,51.5 Q393,-10 293,-10 Q195,-10 126,47.5 Q57,105 57,152 Q57,171 69.5,184 Q82,197 100,197 Q129,197 143,166 Q161,127 198.5,100 Q236,73 291,73 Q352,73 394,110 Q436,147 436,204 Q436,259 393,292 Q350,325 291,325 Q272,325 258.5,336 Q245,347 245,367 Q245,384 258,395 Q271,406 288,406 Q336,406 370.5,438.5 Q405,471 405,519 Q405,567 372,598 Q339,629 289,629 Q197,629 165,550 Q154,522 125,522 Q105,522 94,535 Q83,548 83,564 Q83,581 96,604.5 Q109,628 133.5,652.5 Q158,677 200,693.5 Q242,710 293,710"/> 
            <glyph glyph-name="4" unicode="&#x34;" horiz-adv-x="571" d=" M530,171 L474,171 L474,37 Q474,19 460,4.5 Q446,-10 427,-10 Q409,-10 395,4.5 Q381,19 381,37 L381,171 L91,171 Q64,171 46,188.5 Q28,206 28,230 Q28,254 43,277 L305,673 Q323,700 343,700 L427,700 Q446,700 460,686.5 Q474,673 474,655 L474,254 L530,254 Q547,254 559,241 Q571,228 571,212 Q571,194 559.5,182.5 Q548,171 530,171 M133,254 L381,254 L381,637"/> 
            <glyph glyph-name="5" unicode="&#x35;" horiz-adv-x="520" d=" M268,74 Q341,74 383.5,119.5 Q426,165 426,231 Q426,296 377.5,336.5 Q329,377 279,377 Q241,377 183,363 Q150,356 144,356 Q124,356 112,370 Q100,384 100,401 Q100,405 101,415 L128,652 Q130,672 143,686 Q156,700 175,700 L446,700 Q465,700 477,688 Q489,676 489,659 Q489,639 477,627.5 Q465,616 446,616 L215,616 L195,446 Q244,457 285,457 Q376,457 448,395.5 Q520,334 520,230 Q520,129 449.5,59.5 Q379,-10 267,-10 Q173,-10 91,49 Q70,64 70,88 Q70,106 83,119.5 Q96,133 116,133 Q128,133 151,118 Q208,74 268,74"/> 
            <glyph glyph-name="6" unicode="&#x36;" horiz-adv-x="549" d=" M307,-10 Q204,-10 132,60.5 Q60,131 60,257 Q60,351 93,438 Q126,525 175.5,583 Q225,641 282,675.5 Q339,710 389,710 Q409,710 422,698 Q435,686 435,667 Q435,633 398,623 Q332,606 269,549 Q206,492 178,407 Q230,458 317,458 Q418,458 483.5,388.5 Q549,319 549,227 Q549,125 478.5,57.5 Q408,-10 307,-10 M309,377 Q243,377 200,334 Q157,291 157,225 Q157,161 200.5,116.5 Q244,72 309,72 Q370,72 413.5,117 Q457,162 457,225 Q457,288 413.5,332.5 Q370,377 309,377"/> 
            <glyph glyph-name="7" unicode="&#x37;" horiz-adv-x="541" d=" M530,602 L261,21 Q246,-10 216,-10 Q196,-10 183,4.5 Q170,19 170,37 Q170,49 174,57 L435,617 L101,617 Q83,617 71,629 Q59,641 59,659 Q59,675 71,687.5 Q83,700 101,700 L486,700 Q509,700 525,684.5 Q541,669 541,649 Q541,630 530,602"/> 
            <glyph glyph-name="8" unicode="&#x38;" horiz-adv-x="542" d=" M300,72 Q360,72 403,108.5 Q446,145 446,197 Q446,257 403,291.5 Q360,326 300,326 Q240,326 197,291.5 Q154,257 154,197 Q154,145 197.5,108.5 Q241,72 300,72 M207,710 Q393,710 452,653.5 Q511,597 511,528 Q511,429 421,378 Q542,316 542,195 Q542,107 473,48.5 Q404,-10 300,-10 Q196,-10 127,48.5 Q58,107 58,195 Q58,315 179,378 Q89,429 89,528 Q89,597 207,710 M300,630 Q250,630 215,599 Q180,568 180,520 Q180,472 216,440.5 Q252,409 300,409 Q348,409 384,440.5 Q420,472 420,520 Q420,568 385.5,599 Q351,630 300,630"/> 
            <glyph glyph-name="9" unicode="&#x39;" horiz-adv-x="539" d=" M292,710 Q395,710 467,639.5 Q539,569 539,443 Q539,349 506,262 Q473,175 423.5,117 Q374,59 317,24.5 Q260,-10 210,-10 Q190,-10 177,2 Q164,14 164,33 Q164,67 201,77 Q267,94 330,151 Q393,208 421,293 Q369,242 282,242 Q181,242 115.5,311.5 Q50,381 50,473 Q50,575 120.5,642.5 Q191,710 292,710 M290,323 Q356,323 399,366 Q442,409 442,475 Q442,539 398.5,583.5 Q355,628 290,628 Q229,628 185.5,583 Q142,538 142,475 Q142,412 185.5,367.5 Q229,323 290,323"/> 
            <glyph glyph-name=":" unicode="&#x3A;" horiz-adv-x="186" d=" M60,27 Q60,79 78.5,97.5 Q97,116 123,116 Q149,116 167.5,97.5 Q186,79 186,53 Q186,27 167.5,8.5 Q149,-10 123,-10 Q97,-10 60,27 M60,421 Q60,473 78.5,491.5 Q97,510 123,510 Q149,510 167.5,491.5 Q186,473 186,447 Q186,421 167.5,402.5 Q149,384 123,384 Q97,384 60,421"/> 
            <glyph glyph-name=";" unicode="&#x3B;" horiz-adv-x="191" d=" M64,421 Q64,473 82.5,491.5 Q101,510 127,510 Q153,510 171.5,491.5 Q190,473 190,447 Q190,421 171.5,402.5 Q153,384 127,384 Q101,384 64,421 M68,57 Q68,81 84.5,97 Q101,113 125,113 Q149,113 170,93 Q191,73 191,22 Q191,-42 158.5,-83 Q126,-124 91,-124 Q76,-124 65.5,-114.5 Q55,-105 55,-91 Q55,-70 78,-57 Q115,-34 115,0 Q94,4 81,20 Q68,36 68,57"/> 
            <glyph glyph-name="&lt;" unicode="&#x3C;" horiz-adv-x="527" d=" M502,408 L173,250 L502,92 Q527,80 527,51 Q527,32 513.5,18.5 Q500,5 483,5 Q470,5 460,10 L88,204 Q60,219 60,250 Q60,263 68,276.5 Q76,290 87,296 L462,491 Q470,495 483,495 Q500,495 513.5,481.5 Q527,468 527,450 Q527,420 502,408"/> 
            <glyph glyph-name="=" unicode="&#x3D;" horiz-adv-x="529" d=" M489,103 L101,103 Q84,103 72,115 Q60,127 60,144 Q60,161 72,173 Q84,185 101,185 L489,185 Q505,185 517,173 Q529,161 529,144 Q529,127 517.5,115 Q506,103 489,103 M489,317 L101,317 Q84,317 72,329 Q60,341 60,358 Q60,375 72,387 Q84,399 101,399 L489,399 Q505,399 517,387 Q529,375 529,358 Q529,341 517.5,329 Q506,317 489,317"/> 
            <glyph glyph-name="&gt;" unicode="&#x3E;" horiz-adv-x="527" d=" M414,250 L85,408 Q60,420 60,450 Q60,468 73,481.5 Q86,495 104,495 Q117,495 125,491 L500,296 Q511,290 519,276.5 Q527,263 527,250 Q527,219 499,204 L127,10 Q117,5 104,5 Q87,5 73.5,18.5 Q60,32 60,51 Q60,80 85,92"/> 
            <glyph glyph-name="?" unicode="&#x3F;" horiz-adv-x="460" d=" M256,710 Q341,710 400.5,656.5 Q460,603 460,532 Q460,492 443,459.5 Q426,427 402,404 Q378,381 353.5,360 Q329,339 312,311.5 Q295,284 295,252 Q295,229 280.5,214 Q266,199 244,199 Q223,199 209,215 Q195,231 195,256 Q195,290 212.5,321.5 Q230,353 255,377.5 Q280,402 305,425.5 Q330,449 347.5,477 Q365,505 365,534 Q365,572 332.5,600 Q300,628 258,628 Q229,628 206.5,618.5 Q184,609 171,593.5 Q158,578 151.5,565.5 Q145,553 141,539 Q131,507 99,507 Q79,507 69.5,521.5 Q60,536 60,553 Q60,601 114,655.5 Q168,710 256,710 M182,26 Q182,78 200.5,96.5 Q219,115 245,115 Q271,115 289.5,96.5 Q308,78 308,52 Q308,26 289.5,7.5 Q271,-11 245,-11 Q219,-11 182,26"/> 
            <glyph glyph-name="@" unicode="&#x40;" horiz-adv-x="915" d=" M648,65 L612,65 Q595,65 579.5,78.5 Q564,92 561,118 Q504,61 429,61 Q362,61 316,111 Q270,161 270,236 Q270,327 337,400.5 Q404,474 497,474 Q572,474 602,415 Q606,442 622,458 Q638,474 659,474 Q677,474 691,461.5 Q705,449 705,432 Q705,425 704,419 Q704,417 686.5,287.5 Q669,158 668,159 Q732,163 778.5,209 Q825,255 825,331 Q825,454 726.5,536.5 Q628,619 504,619 Q358,619 254.5,515.5 Q151,412 151,266 Q151,121 254.5,18 Q358,-85 504,-85 Q616,-85 717,-8 Q737,6 754,6 Q801,6 801,-39 Q801,-64 782,-79 Q670,-177 504,-177 Q320,-177 190,-47 Q60,83 60,266 Q60,386 119.5,488.5 Q179,591 281.5,650.5 Q384,710 504,710 Q676,710 795.5,602 Q915,494 915,331 Q915,215 834.5,140 Q754,65 648,65 M499,387 Q446,387 406,344 Q366,301 366,244 Q366,149 458,149 Q512,149 552,192 Q592,235 592,291 Q592,335 566,361 Q540,387 499,387"/> 
            <glyph glyph-name="A" unicode="&#x41;" horiz-adv-x="672" d=" M577,29 L517,192 L190,192 L131,31 Q116,-10 82,-10 Q62,-10 48.5,5 Q35,20 35,39 Q35,50 42,69 L258,661 Q264,677 277,688.5 Q290,700 304,700 L401,700 Q437,700 449,663 L665,69 Q672,49 672,38 Q672,19 658.5,4.5 Q645,-10 625,-10 Q591,-10 577,29 M345,614 L221,277 L486,277 L363,614"/> 
            <glyph glyph-name="B" unicode="&#x42;" horiz-adv-x="602" d=" M126,700 L368,700 Q466,700 521.5,647 Q577,594 577,515 Q577,435 512,373 Q602,317 602,211 Q602,121 535,60.5 Q468,0 361,0 L126,0 Q108,0 94,13.5 Q80,27 80,46 L80,653 Q80,673 93.5,686.5 Q107,700 126,700 M366,615 L174,615 L174,404 L366,404 Q420,404 451.5,432 Q483,460 483,510 Q483,558 451,586.5 Q419,615 366,615 M367,319 L174,319 L174,85 L367,85 Q433,85 471,117.5 Q509,150 509,205 Q509,261 471.5,290 Q434,319 367,319"/> 
            <glyph glyph-name="C" unicode="&#x43;" horiz-adv-x="632" d=" M50,203 Q50,497 155,603.5 Q260,710 407,710 Q445,710 491,700 Q537,690 573.5,668 Q610,646 610,619 Q610,601 597.5,589 Q585,577 571,577 Q556,577 547,583 Q482,626 407,626 Q296,626 220.5,543 Q145,460 145,350 Q145,239 220.5,156.5 Q296,74 407,74 Q490,74 561,126 Q573,136 590,136 Q606,136 619,124 Q632,112 632,93 Q632,70 609,54 Q521,-10 407,-10 Q260,-10 50,203"/> 
            <glyph glyph-name="D" unicode="&#x44;" horiz-adv-x="650" d=" M124,700 L293,700 Q459,700 554.5,601.5 Q650,503 650,353 Q650,203 554.5,101.5 Q459,0 293,0 L124,0 Q105,0 92.5,13 Q80,26 80,46 L80,654 Q80,674 92.5,687 Q105,700 124,700 M293,615 L174,615 L174,85 L293,85 Q422,85 490.5,162.5 Q559,240 559,353 Q559,466 491,540.5 Q423,615 293,615"/> 
            <glyph glyph-name="E" unicode="&#x45;" horiz-adv-x="574" d=" M174,86 L529,86 Q549,86 561.5,73.5 Q574,61 574,43 Q574,25 561.5,12.5 Q549,0 529,0 L127,0 Q107,0 93.5,14 Q80,28 80,48 L80,654 Q80,673 93.5,686.5 Q107,700 127,700 L529,700 Q549,700 561.5,687.5 Q574,675 574,657 Q574,639 561.5,626.5 Q549,614 529,614 L174,614 L174,405 L472,405 Q491,405 503.5,393 Q516,381 516,363 Q516,344 503.5,331.5 Q491,319 472,319 L174,319"/> 
            <glyph glyph-name="F" unicode="&#x46;" horiz-adv-x="548" d=" M444,398 Q463,398 475.5,385.5 Q488,373 488,355 Q488,337 475.5,324.5 Q463,312 444,312 L174,312 L174,38 Q174,18 160,4 Q146,-10 127,-10 Q107,-10 93.5,4 Q80,18 80,38 L80,654 Q80,674 93.5,687 Q107,700 127,700 L504,700 Q523,700 535.5,688 Q548,676 548,658 Q548,639 535.5,626.5 Q523,614 504,614 L174,614 L174,398"/> 
            <glyph glyph-name="G" unicode="&#x47;" horiz-adv-x="674" d=" M50,199 Q50,497 152.5,603 Q255,709 402,709 Q469,709 532,685 Q595,661 634,618 Q648,605 648,585 Q648,570 636.5,558 Q625,546 609,546 Q590,546 562,568 Q487,625 402,625 Q295,625 220.5,541.5 Q146,458 146,348 Q146,238 220.5,155.5 Q295,73 402,73 Q506,73 578,135 L578,295 L402,295 Q381,295 367.5,307.5 Q354,320 354,340 Q354,358 368,369.5 Q382,381 402,381 L626,381 Q646,381 660,367 Q674,353 674,334 L674,124 Q674,108 662,94 Q559,-10 402,-10 Q254,-10 50,199"/> 
            <glyph glyph-name="H" unicode="&#x48;" horiz-adv-x="685" d=" M617,710 Q657,710 671,696 Q685,682 685,662 L685,37 Q685,18 671,4 Q657,-10 637,-10 Q618,-10 604,4 Q590,18 590,37 L590,319 L175,319 L175,37 Q175,18 161.5,4 Q148,-10 128,-10 Q108,-10 94,3.5 Q80,17 80,37 L80,662 Q80,682 94,696 Q108,710 128,710 Q148,710 161.5,696 Q175,682 175,662 L175,403 L590,403 L590,662 Q590,682 617,710"/> 
            <glyph glyph-name="I" unicode="&#x49;" horiz-adv-x="185" d=" M90,662 Q90,681 104,695.5 Q118,710 137,710 Q157,710 171,695.5 Q185,681 185,662 L185,38 Q185,19 171,4.5 Q157,-10 137,-10 Q118,-10 104,4.5 Q90,19 90,38"/> 
            <glyph glyph-name="J" unicode="&#x4A;" horiz-adv-x="595" d=" M500,662 Q500,681 514,695.5 Q528,710 547,710 Q567,710 581,695.5 Q595,681 595,662 L595,272 Q595,155 514.5,72.5 Q434,-10 318,-10 Q200,-10 120,67.5 Q40,145 40,262 Q40,282 54,295.5 Q68,309 87,309 Q106,309 120,295.5 Q134,282 134,262 Q134,184 187.5,129 Q241,74 318,74 Q395,74 447.5,129 Q500,184 500,262"/> 
            <glyph glyph-name="K" unicode="&#x4B;" horiz-adv-x="629" d=" M611,75 Q629,60 629,37 Q629,18 614.5,4 Q600,-10 580,-10 Q560,-10 549,1 L174,337 L174,38 Q174,19 160.5,4.5 Q147,-10 128,-10 Q108,-10 94,4.5 Q80,19 80,38 L80,662 Q80,681 94,695.5 Q108,710 128,710 Q147,710 160.5,695.5 Q174,681 174,662 L174,389 L519,699 Q532,710 550,710 Q569,710 583,695.5 Q597,681 597,663 Q597,642 579,626 L284,366"/> 
            <glyph glyph-name="L" unicode="&#x4C;" horiz-adv-x="529" d=" M80,662 Q80,681 94.5,695.5 Q109,710 128,710 Q148,710 162,696 Q176,682 176,662 L176,85 L481,85 Q500,85 514.5,72.5 Q529,60 529,42 Q529,23 515,11.5 Q501,0 481,0 L128,0 Q109,0 94.5,14 Q80,28 80,48"/> 
            <glyph glyph-name="M" unicode="&#x4D;" horiz-adv-x="780" d=" M780,650 L780,40 Q780,19 766.5,4.5 Q753,-10 732,-10 Q712,-10 699,4.5 Q686,19 686,40 L686,581 L662,548 L482,330 Q458,302 430,302 Q402,302 378,330 L198,547 L174,581 L174,40 Q174,18 161,4 Q148,-10 127,-10 Q107,-10 93.5,4.5 Q80,19 80,40 L80,650 Q80,672 94,686 Q108,700 128,700 L167,700 Q191,700 213,673 L430,409 L647,673 Q670,700 692,700 L731,700 Q752,700 766,686 Q780,672 780,650"/> 
            <glyph glyph-name="N" unicode="&#x4E;" horiz-adv-x="686" d=" M551,25 L195,539 L174,578 L174,39 Q174,18 161,4 Q148,-10 128,-10 Q108,-10 94,4.5 Q80,19 80,39 L80,651 Q80,670 94.5,685 Q109,700 129,700 L170,700 Q198,700 215,675 L571,161 L592,122 L592,662 Q592,682 605,696 Q618,710 638,710 Q658,710 672,696 Q686,682 686,662 L686,49 Q686,30 671.5,15 Q657,0 637,0 L596,0 Q568,0 551,25"/> 
            <glyph glyph-name="O" unicode="&#x4F;" horiz-adv-x="763" d=" M50,201 Q50,497 154.5,603.5 Q259,710 407,710 Q554,710 658.5,603.5 Q763,497 763,349 Q763,202 658.5,96 Q554,-10 407,-10 Q259,-10 50,201 M145,463 Q145,235 220.5,154.5 Q296,74 407,74 Q517,74 593,155 Q669,236 669,349 Q669,463 593,544.5 Q517,626 407,626 Q296,626 145,463"/> 
            <glyph glyph-name="P" unicode="&#x50;" horiz-adv-x="584" d=" M80,652 Q80,672 93.5,686 Q107,700 127,700 L341,700 Q451,700 517.5,632.5 Q584,565 584,469 Q584,373 517.5,305.5 Q451,238 341,238 L174,238 L174,39 Q174,19 160.5,4.5 Q147,-10 127,-10 Q107,-10 93.5,4.5 Q80,19 80,39 M174,615 L174,323 L337,323 Q411,323 451.5,365.5 Q492,408 492,469 Q492,528 451,571.5 Q410,615 337,615"/> 
            <glyph glyph-name="Q" unicode="&#x51;" horiz-adv-x="805" d=" M401,-37 Q416,-37 454,-51.5 Q492,-66 570,-81 Q648,-96 762,-96 Q779,-96 792,-109 Q805,-122 805,-140 Q805,-158 792,-171.5 Q779,-185 762,-185 Q549,-185 388,-123 Q357,-112 357,-81 Q357,-63 370,-50 Q383,-37 401,-37 M50,201 Q50,497 154.5,603.5 Q259,710 407,710 Q554,710 658.5,603.5 Q763,497 763,349 Q763,202 658.5,96 Q554,-10 407,-10 Q259,-10 50,201 M145,463 Q145,235 220.5,154.5 Q296,74 407,74 Q517,74 593,155 Q669,236 669,349 Q669,463 593,544.5 Q517,626 407,626 Q296,626 145,463"/> 
            <glyph glyph-name="R" unicode="&#x52;" horiz-adv-x="593" d=" M438,259 L581,69 Q590,57 590,39 Q590,20 576.5,5 Q563,-10 543,-10 Q517,-10 504,9 L325,253 L174,253 L174,39 Q174,19 160.5,4.5 Q147,-10 127,-10 Q108,-10 94,4.5 Q80,19 80,39 L80,652 Q80,672 94.5,686 Q109,700 128,700 L362,700 Q459,700 526,634 Q593,568 593,469 Q593,401 550.5,343 Q508,285 438,259 M174,615 L174,338 L362,338 Q418,338 458.5,376.5 Q499,415 499,472 Q499,530 458,572.5 Q417,615 362,615"/> 
            <glyph glyph-name="S" unicode="&#x53;" horiz-adv-x="554" d=" M300,74 Q365,74 411.5,109.5 Q458,145 458,191 Q458,236 417,264 Q376,292 318,308 Q260,324 201.5,343.5 Q143,363 102,406.5 Q61,450 61,518 Q61,597 128.5,653.5 Q196,710 294,710 Q395,710 461,663.5 Q527,617 527,578 Q527,562 515,548 Q503,534 483,534 Q477,534 471.5,535.5 Q466,537 462.5,538.5 Q459,540 455,543.5 Q451,547 449,549 Q447,551 443,555.5 Q439,560 437,562 Q379,629 297,629 Q235,629 194.5,597.5 Q154,566 154,527 Q154,489 183.5,462.5 Q213,436 257.5,423 Q302,410 354,392.5 Q406,375 450.5,355.5 Q495,336 524.5,296 Q554,256 554,199 Q554,107 478.5,48.5 Q403,-10 298,-10 Q242,-10 192.5,7.5 Q143,25 113.5,49 Q84,73 67,96.5 Q50,120 50,134 Q50,154 62,167.5 Q74,181 93,181 Q122,181 143,150 Q199,74 300,74"/> 
            <glyph glyph-name="T" unicode="&#x54;" horiz-adv-x="561" d=" M514,700 Q534,700 547.5,688.5 Q561,677 561,658 Q561,639 547.5,626.5 Q534,614 514,614 L333,614 L333,39 Q333,19 319,4.5 Q305,-10 285,-10 Q265,-10 251,4.5 Q237,19 237,39 L237,614 L59,614 Q39,614 24.5,626.5 Q10,639 10,658 Q10,677 24.5,688.5 Q39,700 59,700"/> 
            <glyph glyph-name="U" unicode="&#x55;" horiz-adv-x="690" d=" M75,662 Q75,682 89,696 Q103,710 123,710 Q142,710 156,696 Q170,682 170,662 L170,298 Q170,184 231.5,130 Q293,76 382,76 Q472,76 533.5,130 Q595,184 595,298 L595,663 Q595,682 609,696 Q623,710 642,710 Q662,710 676,696 Q690,682 690,663 L690,305 Q690,153 601.5,71.5 Q513,-10 382,-10 Q252,-10 163.5,71.5 Q75,153 75,305"/> 
            <glyph glyph-name="V" unicode="&#x56;" horiz-adv-x="664" d=" M135,671 L345,86 L359,86 L568,669 Q582,710 617,710 Q637,710 650.5,695 Q664,680 664,661 Q664,653 657,631 L448,39 Q442,23 429,11.5 Q416,0 402,0 L305,0 Q269,0 257,37 L47,631 Q40,651 40,662 Q40,681 53.5,695.5 Q67,710 87,710 Q121,710 135,671"/> 
            <glyph glyph-name="W" unicode="&#x57;" horiz-adv-x="790" d=" M790,660 L750,50 Q748,28 735,14 Q722,0 701,0 L666,0 Q641,0 621,27 L430,291 L239,27 Q220,0 193,0 L158,0 Q138,0 125,14 Q112,28 110,50 L70,660 Q70,681 84,695.5 Q98,710 118,710 Q139,710 151.5,696 Q164,682 166,660 L199,118 L375,367 Q398,398 430,398 Q462,398 485,367 L661,118 L694,660 Q696,682 708.5,696 Q721,710 741,710 Q762,710 776,695.5 Q790,681 790,660"/> 
            <glyph glyph-name="X" unicode="&#x58;" horiz-adv-x="671" d=" M660,67 Q671,55 671,37 Q671,18 658,4 Q645,-10 625,-10 Q602,-10 587,8 L355,291 L124,8 Q110,-10 86,-10 Q66,-10 53,4 Q40,18 40,37 Q40,56 51,68 L297,366 L78,631 Q68,642 68,662 Q68,681 81,695.5 Q94,710 113,710 Q137,710 151,692 L355,441 L559,692 Q572,710 596,710 Q616,710 629.5,695 Q643,680 643,661 Q643,645 632,631 L415,365"/> 
            <glyph glyph-name="Y" unicode="&#x59;" horiz-adv-x="633" d=" M614,700 Q633,685 633,662 Q633,646 622,632 L375,293 L375,39 Q375,19 361,4.5 Q347,-10 326,-10 Q306,-10 292,4.5 Q278,19 278,39 L278,293 L30,633 Q20,646 20,662 Q20,681 34,695.5 Q48,710 68,710 Q92,710 107,690 L327,388 L547,692 Q560,710 584,710 Q601,710 614,700"/> 
            <glyph glyph-name="Z" unicode="&#x5A;" horiz-adv-x="623" d=" M488,614 L108,614 Q88,614 75.5,626.5 Q63,639 63,657 Q63,675 75.5,687.5 Q88,700 108,700 L556,700 Q578,700 594,683 Q610,666 610,646 Q610,619 597,603 L174,86 L578,86 Q598,86 610.5,73.5 Q623,61 623,43 Q623,25 610.5,12.5 Q598,0 578,0 L105,0 Q83,0 66.5,16 Q50,32 50,57 Q50,79 65,98"/> 
            <glyph glyph-name="[" unicode="&#x5B;" horiz-adv-x="321" d=" M90,-96 L90,679 Q90,698 104,712.5 Q118,727 137,727 L275,727 Q294,727 307.5,714 Q321,701 321,682 Q321,664 307.5,651.5 Q294,639 275,639 L187,639 L187,-55 L275,-55 Q294,-55 307.5,-67.5 Q321,-80 321,-99 Q321,-118 307.5,-130.5 Q294,-143 275,-143 L137,-143 Q118,-143 104,-129 Q90,-115 90,-96"/> 
            <glyph glyph-name="\" unicode="&#x5C;" horiz-adv-x="327" d=" M236,20 L3,645 Q0,657 0,661 Q0,681 13,695.5 Q26,710 46,710 Q80,710 92,678 L325,52 Q327,46 327,37 Q327,18 313.5,4 Q300,-10 281,-10 Q247,-10 236,20"/> 
            <glyph glyph-name="]" unicode="&#x5D;" horiz-adv-x="271" d=" M271,679 L271,-96 Q271,-115 257,-129 Q243,-143 224,-143 L86,-143 Q67,-143 53.5,-130.5 Q40,-118 40,-99 Q40,-80 53.5,-67.5 Q67,-55 86,-55 L174,-55 L174,639 L86,639 Q67,639 53.5,651.5 Q40,664 40,682 Q40,701 53.5,714 Q67,727 86,727 L224,727 Q243,727 257,712.5 Q271,698 271,679"/> 
            <glyph glyph-name="^" unicode="&#x5E;" horiz-adv-x="484" d=" M406,330 L267,590 L127,332 Q114,308 90,308 Q73,308 61.5,320 Q50,332 50,347 Q50,358 54,366 L226,686 Q239,710 267,710 Q296,710 309,686 L478,367 Q484,357 484,349 Q484,333 472,320.5 Q460,308 443,308 Q418,308 406,330"/> 
            <glyph glyph-name="_" unicode="&#x5F;" horiz-adv-x="558" d=" M0,-75 L523,-75 Q538,-75 548,-85 Q558,-95 558,-110 Q558,-124 548,-134.5 Q538,-145 523,-145 L0,-145 Q-16,-145 -25.5,-135 Q-35,-125 -35,-110 Q-35,-95 -25.5,-85 Q-16,-75 0,-75"/> 
            <glyph glyph-name="`" unicode="&#x60;" horiz-adv-x="185" d=" M111,575 L14,664 Q0,676 0,694 Q0,713 14,726.5 Q28,740 46,740 Q62,740 74,728 L172,639 Q185,627 185,608 Q185,590 171.5,577 Q158,564 139,564 Q122,564 111,575"/> 
            <glyph glyph-name="a" unicode="&#x61;" horiz-adv-x="557" d=" M557,462 L557,38 Q557,18 542.5,4 Q528,-10 509,-10 Q490,-10 475.5,4 Q461,18 461,38 L461,64 Q395,-10 292,-10 Q190,-10 117.5,66 Q45,142 45,251 Q45,359 118,434.5 Q191,510 292,510 Q395,510 461,436 L461,462 Q461,482 475.5,496 Q490,510 509,510 Q529,510 543,496 Q557,482 557,462 M468,246 L468,258 Q468,330 422,378.5 Q376,427 305,427 Q232,427 183.5,375.5 Q135,324 135,251 Q135,177 183.5,124.5 Q232,72 305,72 Q377,72 422.5,122 Q468,172 468,246"/> 
            <glyph glyph-name="b" unicode="&#x62;" horiz-adv-x="582" d=" M70,38 L70,702 Q70,722 84,736 Q98,750 118,750 Q137,750 151.5,736 Q166,722 166,702 L166,436 Q232,510 335,510 Q436,510 509,434.5 Q582,359 582,251 Q582,142 509.5,66 Q437,-10 335,-10 Q232,-10 166,64 L166,38 Q166,18 152,4 Q138,-10 118,-10 Q98,-10 84,4 Q70,18 70,38 M159,258 L159,246 Q159,172 204.5,122 Q250,72 322,72 Q395,72 443.5,124.5 Q492,177 492,251 Q492,324 443.5,375.5 Q395,427 322,427 Q251,427 205,378.5 Q159,330 159,258"/> 
            <glyph glyph-name="c" unicode="&#x63;" horiz-adv-x="468" d=" M305,427 Q235,427 184,374.5 Q133,322 133,251 Q133,178 182.5,125 Q232,72 306,72 Q356,72 397,99 Q411,108 424,108 Q442,108 455,95 Q468,82 468,64 Q468,40 443,24 Q393,-10 306,-10 Q194,-10 119.5,65.5 Q45,141 45,251 Q45,360 120.5,435 Q196,510 305,510 Q376,510 432,482 Q461,467 461,440 Q461,422 447.5,409 Q434,396 417,396 Q409,396 383,409 Q349,427 305,427"/> 
            <glyph glyph-name="d" unicode="&#x64;" horiz-adv-x="557" d=" M557,702 L557,38 Q557,18 542.5,4 Q528,-10 509,-10 Q490,-10 475.5,4 Q461,18 461,38 L461,64 Q395,-10 292,-10 Q190,-10 117.5,66 Q45,142 45,251 Q45,359 118,434.5 Q191,510 292,510 Q395,510 461,436 L461,702 Q461,722 475.5,736 Q490,750 509,750 Q529,750 543,736 Q557,722 557,702 M468,246 L468,258 Q468,330 422,378.5 Q376,427 305,427 Q232,427 183.5,375.5 Q135,324 135,251 Q135,177 183.5,124.5 Q232,72 305,72 Q377,72 422.5,122 Q468,172 468,246"/> 
            <glyph glyph-name="e" unicode="&#x65;" horiz-adv-x="550" d=" M494,211 L139,211 Q148,148 195.5,110 Q243,72 309,72 Q367,72 434,109 Q446,115 458,115 Q476,115 487.5,103 Q499,91 499,74 Q499,48 478,36 Q401,-10 309,-10 Q196,-10 120.5,64.5 Q45,139 45,251 Q45,359 121.5,434.5 Q198,510 304,510 Q408,510 479,437.5 Q550,365 550,272 Q550,248 533.5,229.5 Q517,211 494,211 M304,430 Q241,430 193,389 Q145,348 139,288 L464,288 Q458,342 412,386 Q366,430 304,430"/> 
            <glyph glyph-name="f" unicode="&#x66;" horiz-adv-x="322" d=" M88,38 L88,415 L47,415 Q29,415 17,427.5 Q5,440 5,458 Q5,476 17,488 Q29,500 47,500 L88,500 L88,619 Q88,672 124.5,711 Q161,750 213,750 L270,750 Q288,750 300,737.5 Q312,725 312,707 Q312,689 300,677 Q288,665 270,665 L229,665 Q209,665 196,651 Q183,637 183,618 L183,500 L280,500 Q298,500 310,488 Q322,476 322,458 Q322,440 310,427.5 Q298,415 280,415 L183,415 L183,38 Q183,19 169,4.5 Q155,-10 136,-10 Q116,-10 102,4.5 Q88,19 88,38"/> 
            <glyph glyph-name="g" unicode="&#x67;" horiz-adv-x="518" d=" M489,-73 Q489,-143 420,-186.5 Q351,-230 257,-230 Q161,-230 98.5,-187 Q36,-144 36,-108 Q36,-89 48.5,-77.5 Q61,-66 81,-66 Q100,-66 116,-82 Q181,-149 255,-149 Q316,-149 354,-129.5 Q392,-110 392,-76 Q392,-53 367.5,-37 Q343,-21 313.5,-12.5 Q284,-4 259.5,15.5 Q235,35 235,63 Q235,78 240.5,91 Q246,104 252,110 L257,115 Q254,114 243,114 Q164,114 102,171 Q40,228 40,312 Q40,394 99,452 Q158,510 240,510 Q313,510 372,461 Q409,510 466,510 L478,510 Q495,510 506.5,498 Q518,486 518,469 Q518,452 506.5,440.5 Q495,429 478,429 L471,429 Q452,429 441.5,416 Q431,403 430,385 Q445,348 445,312 Q445,246 397,184 Q390,175 371.5,157 Q353,139 341.5,124 Q330,109 330,95 Q330,75 355,60 Q380,45 409.5,34.5 Q439,24 464,-3.5 Q489,-31 489,-73 M125,362 Q125,264 159,230 Q193,196 242,196 Q291,196 325,230 Q359,264 359,313 Q359,362 325,395.5 Q291,429 242,429 Q193,429 125,362"/> 
            <glyph glyph-name="h" unicode="&#x68;" horiz-adv-x="579" d=" M483,38 L483,269 Q483,343 444,385 Q405,427 337,427 Q273,427 224.5,389 Q176,351 176,304 L176,38 Q176,19 161.5,4.5 Q147,-10 128,-10 Q109,-10 94.5,4.5 Q80,19 80,38 L80,702 Q80,721 94.5,735.5 Q109,750 128,750 Q147,750 161.5,735.5 Q176,721 176,702 L176,436 Q204,469 250.5,489.5 Q297,510 345,510 Q450,510 514.5,443 Q579,376 579,274 L579,38 Q579,19 564,4.5 Q549,-10 530,-10 Q511,-10 497,4.5 Q483,19 483,38"/> 
            <glyph glyph-name="i" unicode="&#x69;" horiz-adv-x="196" d=" M181,462 L181,38 Q181,19 167,4.5 Q153,-10 133,-10 Q114,-10 100,4.5 Q86,19 86,38 L86,462 Q86,481 100,495.5 Q114,510 133,510 Q153,510 167,495.5 Q181,481 181,462 M70,621 Q70,673 88.5,691.5 Q107,710 133,710 Q159,710 177.5,691.5 Q196,673 196,647 Q196,621 177.5,602.5 Q159,584 133,584 Q107,584 70,621"/> 
            <glyph glyph-name="j" unicode="&#x6A;" horiz-adv-x="190" d=" M80,-71 L80,462 Q80,481 94,495.5 Q108,510 127,510 Q146,510 160,495.5 Q174,481 174,462 L174,-68 Q174,-132 123.5,-181 Q73,-230 3,-230 Q-67,-230 -117,-180 Q-139,-158 -139,-138 Q-139,-119 -125.5,-105.5 Q-112,-92 -94,-92 Q-71,-92 -53,-115 Q-27,-145 6,-145 Q36,-145 58,-123.5 Q80,-102 80,-71 M64,621 Q64,673 82.5,691.5 Q101,710 127,710 Q153,710 171.5,691.5 Q190,673 190,647 Q190,621 171.5,602.5 Q153,584 127,584 Q101,584 64,621"/> 
            <glyph glyph-name="k" unicode="&#x6B;" horiz-adv-x="511" d=" M176,702 L176,289 L397,492 Q418,510 436,510 Q457,510 469.5,497 Q482,484 482,463 Q482,442 465,427 L284,267 L498,68 Q511,55 511,37 Q511,17 497.5,3.5 Q484,-10 465,-10 Q444,-10 431,3 L176,240 L176,39 Q176,19 162,4.5 Q148,-10 127,-10 Q108,-10 94,4.5 Q80,19 80,39 L80,702 Q80,721 94.5,735.5 Q109,750 128,750 Q147,750 161.5,735.5 Q176,721 176,702"/> 
            <glyph glyph-name="l" unicode="&#x6C;" horiz-adv-x="176" d=" M176,702 L176,38 Q176,19 161.5,4.5 Q147,-10 128,-10 Q109,-10 94.5,4.5 Q80,19 80,38 L80,702 Q80,721 94.5,735.5 Q109,750 128,750 Q147,750 161.5,735.5 Q176,721 176,702"/> 
            <glyph glyph-name="m" unicode="&#x6D;" horiz-adv-x="905" d=" M905,264 L905,38 Q905,19 891.5,4.5 Q878,-10 859,-10 Q840,-10 825,4.5 Q810,19 810,38 L810,276 Q810,343 770,385 Q730,427 672,427 Q613,427 573,386 Q533,345 533,276 L533,38 Q533,19 519,4.5 Q505,-10 486,-10 Q467,-10 452.5,4.5 Q438,19 438,38 L438,276 Q438,345 398.5,386 Q359,427 300,427 Q241,427 201,386 Q161,345 161,276 L161,38 Q161,19 146.5,4.5 Q132,-10 113,-10 Q94,-10 79.5,4.5 Q65,19 65,38 L65,264 Q65,373 132.5,441.5 Q200,510 301,510 Q408,510 486,414 Q562,510 672,510 Q772,510 838.5,441.5 Q905,373 905,264"/> 
            <glyph glyph-name="n" unicode="&#x6E;" horiz-adv-x="573" d=" M477,38 L477,260 Q477,334 430.5,380 Q384,426 319,426 Q254,426 207.5,380 Q161,334 161,260 L161,38 Q161,19 146.5,4.5 Q132,-10 113,-10 Q94,-10 79.5,4.5 Q65,19 65,38 L65,253 Q65,362 139,436 Q213,510 319,510 Q425,510 499,435.5 Q573,361 573,253 L573,38 Q573,19 558,4.5 Q543,-10 524,-10 Q505,-10 491,4.5 Q477,19 477,38"/> 
            <glyph glyph-name="o" unicode="&#x6F;" horiz-adv-x="568" d=" M568,359 Q568,143 491.5,66.5 Q415,-10 306,-10 Q196,-10 120.5,66 Q45,142 45,251 Q45,360 120.5,435 Q196,510 306,510 Q415,510 568,359 M478,179 Q478,323 428,375 Q378,427 306,427 Q234,427 183.5,375 Q133,323 133,251 Q133,178 183,125 Q233,72 306,72 Q378,72 478,179"/> 
            <glyph glyph-name="p" unicode="&#x70;" horiz-adv-x="582" d=" M70,-182 L70,462 Q70,482 84,496 Q98,510 118,510 Q138,510 152,496 Q166,482 166,462 L166,436 Q232,510 335,510 Q437,510 509.5,434 Q582,358 582,249 Q582,141 509,65.5 Q436,-10 335,-10 Q232,-10 166,64 L166,-182 Q166,-202 151.5,-216 Q137,-230 118,-230 Q98,-230 84,-216 Q70,-202 70,-182 M159,254 L159,242 Q159,170 205,121.5 Q251,73 322,73 Q395,73 443.5,124.5 Q492,176 492,249 Q492,323 443.5,375.5 Q395,428 322,428 Q250,428 204.5,378 Q159,328 159,254"/> 
            <glyph glyph-name="q" unicode="&#x71;" horiz-adv-x="557" d=" M557,462 L557,-182 Q557,-202 543,-216 Q529,-230 509,-230 Q490,-230 475.5,-216 Q461,-202 461,-182 L461,64 Q395,-10 292,-10 Q191,-10 118,65.5 Q45,141 45,249 Q45,358 117.5,434 Q190,510 292,510 Q395,510 461,436 L461,462 Q461,482 475.5,496 Q490,510 509,510 Q528,510 542.5,496 Q557,482 557,462 M468,242 L468,254 Q468,328 422.5,378 Q377,428 305,428 Q232,428 183.5,375.5 Q135,323 135,249 Q135,176 183.5,124.5 Q232,73 305,73 Q376,73 422,121.5 Q468,170 468,242"/> 
            <glyph glyph-name="r" unicode="&#x72;" horiz-adv-x="431" d=" M161,300 L161,38 Q161,19 146.5,4.5 Q132,-10 113,-10 Q94,-10 79.5,4.5 Q65,19 65,38 L65,286 Q65,384 126,447 Q187,510 286,510 Q361,510 413,466 Q431,451 431,430 Q431,413 418,399.5 Q405,386 389,386 Q372,386 358,396 Q316,426 281,426 Q228,426 194.5,390 Q161,354 161,300"/> 
            <glyph glyph-name="s" unicode="&#x73;" horiz-adv-x="467" d=" M256,71 Q308,71 341,89 Q374,107 374,136 Q374,161 350.5,178 Q327,195 291.5,202.5 Q256,210 214.5,221.5 Q173,233 137.5,246.5 Q102,260 78.5,290 Q55,320 55,362 Q55,424 110.5,467 Q166,510 252,510 Q337,510 390.5,476 Q444,442 444,407 Q444,391 432,378.5 Q420,366 401,366 Q384,366 364,386 Q320,430 251,430 Q200,430 171.5,412 Q143,394 143,370 Q143,343 176.5,326.5 Q210,310 257.5,299 Q305,288 352.5,273.5 Q400,259 433.5,226.5 Q467,194 467,144 Q467,74 404.5,32 Q342,-10 255,-10 Q166,-10 108,26.5 Q50,63 50,97 Q50,115 62,127 Q74,139 92,139 Q110,139 126,123 Q175,71 256,71"/> 
            <glyph glyph-name="t" unicode="&#x74;" horiz-adv-x="323" d=" M310,60 Q310,24 297.5,12 Q285,0 267,0 L217,0 Q164,0 127.5,37 Q91,74 91,125 L91,415 L52,415 Q34,415 22,427.5 Q10,440 10,458 Q10,474 22,487 Q34,500 52,500 L91,500 L91,586 Q91,605 105.5,619 Q120,633 140,633 Q159,633 173.5,619 Q188,605 188,586 L188,500 L280,500 Q298,500 310.5,488 Q323,476 323,458 Q323,440 310,427.5 Q297,415 280,415 L188,415 L188,125 Q188,108 200.5,96.5 Q213,85 228,85 L267,85 Q285,85 310,60"/> 
            <glyph glyph-name="u" unicode="&#x75;" horiz-adv-x="568" d=" M156,462 L156,240 Q156,166 202.5,120 Q249,74 314,74 Q379,74 425.5,120 Q472,166 472,240 L472,462 Q472,481 486.5,495.5 Q501,510 520,510 Q539,510 553.5,495.5 Q568,481 568,462 L568,247 Q568,138 494,64 Q420,-10 314,-10 Q208,-10 134,64.5 Q60,139 60,247 L60,462 Q60,481 75,495.5 Q90,510 109,510 Q128,510 142,495.5 Q156,481 156,462"/> 
            <glyph glyph-name="v" unicode="&#x76;" horiz-adv-x="499" d=" M69,510 Q81,510 94.5,501.5 Q108,493 112,481 L255,82 L264,82 L407,481 Q411,493 425,501.5 Q439,510 451,510 Q473,510 486,496 Q499,482 499,462 Q499,452 496,445 L340,40 Q325,0 281,0 L237,0 Q195,0 179,40 L23,445 Q20,451 20,462 Q20,482 33.5,496 Q47,510 69,510"/> 
            <glyph glyph-name="w" unicode="&#x77;" horiz-adv-x="900" d=" M60,236 L60,462 Q60,481 73.5,495.5 Q87,510 106,510 Q125,510 140,495.5 Q155,481 155,462 L155,224 Q155,157 195,115 Q235,73 293,73 Q352,73 392,114 Q432,155 432,224 L432,462 Q432,481 446,495.5 Q460,510 479,510 Q498,510 512.5,495.5 Q527,481 527,462 L527,224 Q527,155 566.5,114 Q606,73 665,73 Q724,73 764,114 Q804,155 804,224 L804,462 Q804,481 818.5,495.5 Q833,510 852,510 Q871,510 885.5,495.5 Q900,481 900,462 L900,236 Q900,127 832.5,58.5 Q765,-10 664,-10 Q557,-10 479,86 Q403,-10 293,-10 Q193,-10 126.5,58.5 Q60,127 60,236"/> 
            <glyph glyph-name="x" unicode="&#x78;" horiz-adv-x="505" d=" M427,4 L276,187 L123,4 Q112,-10 89,-10 Q71,-10 58,3 Q45,16 45,33 Q45,49 55,61 L219,252 L60,439 Q50,451 50,467 Q50,484 62.5,497 Q75,510 95,510 Q116,510 128,496 L276,320 L423,496 Q435,510 458,510 Q476,510 488.5,497 Q501,484 501,467 Q501,451 491,439 L333,252 L495,61 Q505,49 505,33 Q505,16 492.5,3 Q480,-10 462,-10 Q438,-10 427,4"/> 
            <glyph glyph-name="y" unicode="&#x79;" horiz-adv-x="527" d=" M518,432 L279,-198 Q274,-211 260,-220.5 Q246,-230 234,-230 Q215,-230 201,-216 Q187,-202 187,-182 Q187,-174 194,-155 L260,20 Q198,20 181,61 L18,446 Q15,452 15,462 Q15,482 28.5,496 Q42,510 64,510 Q93,510 107,478 L279,66 L433,478 Q445,510 479,510 Q499,510 513,496 Q527,482 527,461 Q527,454 518,432"/> 
            <glyph glyph-name="z" unicode="&#x7A;" horiz-adv-x="459" d=" M326,415 L94,415 Q74,415 61.5,427 Q49,439 49,458 Q49,477 61.5,488.5 Q74,500 94,500 L399,500 Q422,500 436,484.5 Q450,469 450,450 Q450,429 432,408 L163,85 L413,85 Q433,85 446,72.5 Q459,60 459,41 Q459,23 446,11.5 Q433,0 413,0 L91,0 Q70,0 55,14.5 Q40,29 40,51 Q40,70 59,93"/> 
            <glyph glyph-name="{" unicode="&#x7B;" horiz-adv-x="320" d=" M32,341 Q47,344 57,349.5 Q67,355 77,372 Q87,389 87,416 L87,562 Q87,632 130,679.5 Q173,727 242,727 L271,727 Q291,727 305.5,714 Q320,701 320,681 Q320,663 305.5,650.5 Q291,638 271,638 L244,638 Q217,638 200.5,618.5 Q184,599 184,571 L184,423 Q184,327 108,293 Q146,276 165,239.5 Q184,203 184,161 L184,16 Q184,-13 201,-33 Q218,-53 244,-53 L271,-53 Q291,-53 305.5,-66 Q320,-79 320,-97 Q320,-117 305.5,-129.5 Q291,-142 271,-142 L242,-142 Q173,-142 130,-93.5 Q87,-45 87,24 L87,169 Q87,208 71.5,223.5 Q56,239 32,244 Q17,247 3.5,259.5 Q-10,272 -10,292 Q-10,312 4,325 Q18,338 32,341"/> 
            <glyph glyph-name="|" unicode="&#x7C;" horiz-adv-x="185" d=" M185,703 L185,-184 Q185,-202 171,-216 Q157,-230 138,-230 Q119,-230 104.5,-216 Q90,-202 90,-184 L90,703 Q90,722 104.5,736 Q119,750 138,750 Q157,750 171,736 Q185,722 185,703"/> 
            <glyph glyph-name="}" unicode="&#x7D;" horiz-adv-x="370" d=" M328,341 Q342,338 356,325 Q370,312 370,292 Q370,272 356.5,259.5 Q343,247 328,244 Q313,241 303,235.5 Q293,230 283,213 Q273,196 273,169 L273,24 Q273,-45 230,-93.5 Q187,-142 118,-142 L89,-142 Q69,-142 54.5,-129.5 Q40,-117 40,-97 Q40,-79 54.5,-66 Q69,-53 89,-53 L116,-53 Q142,-53 159,-33 Q176,-13 176,16 L176,161 Q176,203 195,239.5 Q214,276 252,293 Q176,327 176,423 L176,571 Q176,599 159.5,618.5 Q143,638 116,638 L89,638 Q69,638 54.5,650.5 Q40,663 40,681 Q40,701 54.5,714 Q69,727 89,727 L118,727 Q187,727 230,679.5 Q273,632 273,562 L273,416 Q273,377 288.5,361.5 Q304,346 328,341"/> 
            <glyph glyph-name="~" unicode="&#x7E;" horiz-adv-x="524" d=" M183,246 Q146,246 136,205 Q128,175 98,175 Q82,175 71,186 Q60,197 60,213 Q60,252 91,288 Q122,324 178,324 Q221,324 296,290.5 Q371,257 400,257 Q438,257 448,298 Q454,328 486,328 Q501,328 512.5,317 Q524,306 524,290 Q524,251 492.5,215 Q461,179 406,179 Q363,179 287.5,212.5 Q212,246 183,246"/> 
            <glyph glyph-name="¡" unicode="&#xA1;" horiz-adv-x="206" d=" M206,474 Q206,422 187.5,403.5 Q169,385 143,385 Q117,385 98.5,403.5 Q80,422 80,448 Q80,474 98.5,492.5 Q117,511 143,511 Q169,511 206,474 M192,-160 Q192,-180 177.5,-194.5 Q163,-209 143,-209 Q123,-209 108.5,-194.5 Q94,-180 94,-160 L94,252 Q94,272 108.5,286.5 Q123,301 143,301 Q163,301 177.5,286.5 Q192,272 192,252"/> 
            <glyph glyph-name="¢" unicode="&#xA2;" horiz-adv-x="511" d=" M348,427 Q278,427 227,374.5 Q176,322 176,251 Q176,178 225.5,125 Q275,72 349,72 Q400,72 440,99 Q454,108 467,108 Q485,108 498,95 Q511,82 511,64 Q511,42 486,24 Q446,0 388,-8 L388,-69 Q388,-84 375.5,-96 Q363,-108 347,-108 Q331,-108 319,-96 Q307,-84 307,-69 L307,-7 Q210,7 149,79.5 Q88,152 88,251 Q88,349 150,420.5 Q212,492 307,506 L307,574 Q307,589 319,601 Q331,613 347,613 Q363,613 375.5,601 Q388,589 388,574 L388,507 Q434,501 475,482 Q504,467 504,440 Q504,422 490.5,409 Q477,396 460,396 Q452,396 426,409 Q392,427 348,427"/> 
            <glyph glyph-name="£" unicode="&#xA3;" horiz-adv-x="555" d=" M85,385 L136,385 L136,539 Q136,614 189.5,662 Q243,710 330,710 Q375,710 421.5,693 Q468,676 497,650 Q512,636 512,617 Q512,598 499,586 Q486,574 469,574 Q451,574 435,588 Q386,625 334,625 Q288,625 260.5,597 Q233,569 233,530 L233,385 L396,385 Q411,385 423,372.5 Q435,360 435,343 Q435,326 423,313.5 Q411,301 396,301 L233,301 L233,86 L508,86 Q530,86 542.5,73 Q555,60 555,42 Q555,23 542.5,11.5 Q530,0 508,0 L127,0 Q104,0 90,12.5 Q76,25 76,42 Q76,60 90,73 Q104,86 127,86 L137,86 L137,301 L85,301 Q69,301 56.5,313 Q44,325 44,343 Q44,361 56.5,373 Q69,385 85,385"/> 
            <glyph glyph-name="¤" unicode="&#xA4;" horiz-adv-x="528" d=" M516,59 Q503,46 486,46 Q468,46 453,61 L421,93 Q364,57 301,57 Q234,57 180,94 L148,62 Q134,48 115,48 Q98,48 85,60.5 Q72,73 72,90 Q72,110 86,123 L119,155 Q83,210 83,275 Q83,339 120,396 L87,428 Q73,441 73,461 Q73,478 86,490.5 Q99,503 116,503 Q136,503 148,490 L180,456 Q236,493 299,493 Q363,493 422,456 L453,489 Q467,503 487,503 Q503,503 515.5,490 Q528,477 528,460 Q528,441 515,428 L483,395 Q519,338 519,275 Q519,210 482,154 L514,123 Q528,110 528,89 Q528,71 516,59 M197,172 Q241,128 301,128 Q359,128 403,172 Q447,216 447,275 Q447,334 403.5,377.5 Q360,421 301,421 Q242,421 198,377.5 Q154,334 154,275 Q154,217 197,172"/> 
            <glyph glyph-name="¥" unicode="&#xA5;" horiz-adv-x="566" d=" M299,386 L479,688 Q492,710 519,710 Q539,710 552.5,696 Q566,682 566,663 Q566,650 556,632 L396,365 L476,365 Q492,365 504.5,352.5 Q517,340 517,324 Q517,308 504.5,296 Q492,284 476,284 L348,284 L348,211 L478,211 Q493,211 505,199 Q517,187 517,171 Q517,154 505,142 Q493,130 478,130 L348,130 L348,39 Q348,19 333.5,4.5 Q319,-10 299,-10 Q279,-10 265,4.5 Q251,19 251,39 L251,130 L123,130 Q106,130 94,142 Q82,154 82,171 Q82,187 94.5,199 Q107,211 123,211 L251,211 L251,284 L123,284 Q107,284 94.5,296 Q82,308 82,324 Q82,340 94,352.5 Q106,365 123,365 L203,365 L43,632 Q33,650 33,663 Q33,682 46.5,696 Q60,710 80,710 Q107,710 120,688"/> 
            <glyph glyph-name="¦" unicode="&#xA6;" horiz-adv-x="175" d=" M175,702 L175,397 Q175,378 161,364 Q147,350 128,350 Q109,350 94.5,364 Q80,378 80,397 L80,702 Q80,721 94.5,735.5 Q109,750 128,750 Q147,750 161,735.5 Q175,721 175,702 M175,127 L175,-182 Q175,-201 161,-215.5 Q147,-230 128,-230 Q109,-230 94.5,-215.5 Q80,-201 80,-182 L80,127 Q80,146 94.5,160.5 Q109,175 128,175 Q147,175 161,160.5 Q175,146 175,127"/> 
            <glyph glyph-name="§" unicode="&#xA7;" horiz-adv-x="594" d=" M358,-250 L188,-250 Q169,-250 156,-238 Q143,-226 143,-209 Q143,-190 155.5,-178 Q168,-166 188,-166 L355,-166 Q393,-166 421,-138 Q449,-110 449,-78 Q449,-34 409,-6.5 Q369,21 311.5,37 Q254,53 197,73 Q140,93 100,136.5 Q60,180 60,248 Q60,354 161,409 Q113,459 113,526 Q113,596 166.5,648 Q220,700 296,700 L466,700 Q485,700 498,688 Q511,676 511,659 Q511,640 498.5,628 Q486,616 466,616 L299,616 Q261,616 233,588 Q205,560 205,528 Q205,484 245,456.5 Q285,429 342.5,413 Q400,397 457,377 Q514,357 554,313.5 Q594,270 594,202 Q594,149 566.5,107 Q539,65 492,41 Q541,-10 541,-76 Q541,-146 487.5,-198 Q434,-250 358,-250 M496,201 Q496,230 483,251.5 Q470,273 442.5,287 Q415,301 391,310 Q367,319 325.5,330.5 Q284,342 261,350 Q214,344 186,317 Q158,290 158,249 Q158,220 171,198.5 Q184,177 211,162.5 Q238,148 262.5,139.5 Q287,131 328.5,119 Q370,107 393,99 Q440,105 468,132.5 Q496,160 496,201"/> 
            <glyph glyph-name="¨" unicode="&#xA8;" horiz-adv-x="309" d=" M0,647 Q0,670 17,687 Q34,704 57,704 Q80,704 97,687 Q114,670 114,647 Q114,623 97,606.5 Q80,590 57,590 Q34,590 17,606.5 Q0,623 0,647 M195,647 Q195,670 212,687 Q229,704 252,704 Q276,704 292.5,687 Q309,670 309,647 Q309,623 292.5,606.5 Q276,590 252,590 Q229,590 212,606.5 Q195,623 195,647"/> 
            <glyph glyph-name="©" unicode="&#xA9;" horiz-adv-x="778" d=" M517,510 Q541,495 541,474 Q541,462 531.5,452 Q522,442 508,442 Q501,442 478,449 Q449,458 428,458 Q382,458 350.5,426 Q319,394 319,349 Q319,303 351,270 Q383,237 428,237 Q440,237 470,245 Q496,252 505,252 Q519,252 529,242.5 Q539,233 539,221 Q539,198 515,185 Q481,166 430,166 Q354,166 301,218.5 Q248,271 248,349 Q248,426 301,478 Q354,530 430,530 Q481,530 517,510 M60,202 Q60,500 165,605 Q270,710 419,710 Q568,710 673,605 Q778,500 778,351 Q778,202 673,97 Q568,-8 419,-8 Q270,-8 60,202 M127,472 Q127,230 212.5,144 Q298,58 420,58 Q542,58 627.5,144 Q713,230 713,351 Q713,472 627.5,558 Q542,644 420,644 Q298,644 127,472"/> 
            <glyph glyph-name="ª" unicode="&#xAA;" horiz-adv-x="387" d=" M387,674 L387,393 Q387,379 376.5,368 Q366,357 351,357 Q336,357 326,366.5 Q316,376 315,389 Q267,357 212,357 Q140,357 90,408 Q40,459 40,534 Q40,608 90,659 Q140,710 212,710 Q270,710 315,677 Q317,691 327,700.5 Q337,710 351,710 Q366,710 376.5,699 Q387,688 387,674 M319,488 Q319,580 290,613 Q261,646 216,646 Q171,646 140,613 Q109,580 109,534 Q109,488 139.5,454.5 Q170,421 216,421 Q261,421 319,488"/> 
            <glyph glyph-name="«" unicode="&#xAB;" horiz-adv-x="430" d=" M149,253 L232,143 Q240,132 240,118 Q240,100 227.5,89 Q215,78 199,78 Q177,78 164,97 L72,225 Q60,242 60,253 Q60,266 72,282 L164,410 Q178,428 199,428 Q215,428 227.5,417 Q240,406 240,387 Q240,373 232,363 M339,253 L422,143 Q430,132 430,118 Q430,100 417.5,89 Q405,78 389,78 Q367,78 354,97 L262,225 Q250,242 250,253 Q250,266 262,282 L354,410 Q368,428 389,428 Q405,428 417.5,417 Q430,406 430,387 Q430,373 422,363"/> 
            <glyph glyph-name="¬" unicode="&#xAC;" horiz-adv-x="510" d=" M101,390 L472,390 Q488,390 499,379 Q510,368 510,350 L510,170 Q510,151 498.5,140 Q487,129 469,129 Q452,129 440,140.5 Q428,152 428,170 L428,308 L101,308 Q83,308 71.5,320.5 Q60,333 60,349 Q60,368 71,379 Q82,390 101,390"/> 
            <glyph glyph-name="®" unicode="&#xAE;" horiz-adv-x="778" d=" M334,526 L445,526 Q501,526 535.5,492 Q570,458 570,409 Q570,341 503,309 L557,220 Q563,209 563,201 Q563,188 552.5,177 Q542,166 528,166 Q506,166 497,181 L429,299 L371,299 L371,201 Q371,187 360,176.5 Q349,166 334,166 Q320,166 309,177 Q298,188 298,201 L298,487 Q298,502 309,514 Q320,526 334,526 M441,463 L371,463 L371,359 L442,359 Q470,359 485.5,373.5 Q501,388 501,411 Q501,434 485,448.5 Q469,463 441,463 M60,202 Q60,500 165,605 Q270,710 419,710 Q568,710 673,605 Q778,500 778,351 Q778,202 673,97 Q568,-8 419,-8 Q270,-8 60,202 M127,472 Q127,230 212.5,144 Q298,58 420,58 Q542,58 627.5,144 Q713,230 713,351 Q713,472 627.5,558 Q542,644 420,644 Q298,644 127,472"/> 
            <glyph glyph-name="¯" unicode="&#xAF;" horiz-adv-x="262" d=" M262,644 Q262,626 249.5,614 Q237,602 219,602 L42,602 Q24,602 12,614 Q0,626 0,644 Q0,661 12,672.5 Q24,684 42,684 L219,684 Q236,684 249,672 Q262,660 262,644"/> 
            <glyph glyph-name="°" unicode="&#xB0;" horiz-adv-x="342" d=" M342,625 Q342,505 299.5,462 Q257,419 195,419 Q135,419 92.5,461.5 Q50,504 50,565 Q50,626 93,668 Q136,710 195,710 Q256,710 342,625 M278,565 Q278,599 254,623 Q230,647 195,647 Q161,647 137,623 Q113,599 113,565 Q113,528 136.5,505 Q160,482 195,482 Q230,482 254,505 Q278,528 278,565"/> 
            <glyph glyph-name="±" unicode="&#xB1;" horiz-adv-x="530" d=" M336,513 L336,377 L490,377 Q506,377 518,365 Q530,353 530,336 Q530,319 518.5,307 Q507,295 490,295 L336,295 L336,162 Q336,145 324,133 Q312,121 295,121 Q278,121 265.5,133 Q253,145 253,162 L253,295 L101,295 Q84,295 72,307 Q60,319 60,336 Q60,353 72,365 Q84,377 101,377 L253,377 L253,513 Q253,529 265.5,541.5 Q278,554 295,554 Q312,554 324,542 Q336,530 336,513 M490,0 L101,0 Q84,0 72,12 Q60,24 60,41 Q60,58 72,70.5 Q84,83 101,83 L490,83 Q506,83 518,70.5 Q530,58 530,41 Q530,24 518,12 Q506,0 490,0"/> 
            <glyph glyph-name="²" unicode="&#xB2;" horiz-adv-x="323" d=" M58,535 L198,679 Q229,710 229,744 Q229,766 213,784 Q197,802 170,802 Q145,802 131.5,789.5 Q118,777 107,751 Q98,729 76,729 Q59,729 50.5,739 Q42,749 42,760 Q42,771 48.5,787.5 Q55,804 69,823.5 Q83,843 110.5,856.5 Q138,870 174,870 Q232,870 268.5,832.5 Q305,795 305,747 Q305,688 256,639 L141,522 L286,522 Q301,522 312,512.5 Q323,503 323,488 Q323,473 312.5,463.5 Q302,454 286,454 L83,454 Q65,454 52.5,466 Q40,478 40,495 Q40,517 58,535"/> 
            <glyph glyph-name="³" unicode="&#xB3;" horiz-adv-x="323" d=" M179,870 Q235,870 269.5,839 Q304,808 304,767 Q304,712 257,676 Q323,637 323,568 Q323,514 281,478.5 Q239,443 176,443 Q115,443 72.5,477 Q30,511 30,541 Q30,560 41,571 Q52,582 68,582 Q89,582 101,557 Q121,510 175,510 Q205,510 225,528 Q245,546 245,574 Q245,599 224,616 Q203,633 175,633 Q139,633 139,668 Q139,683 148.5,692 Q158,701 173,701 Q194,701 211,718 Q228,735 228,756 Q228,777 211.5,791 Q195,805 173,805 Q128,805 111,768 Q97,746 80,746 Q64,746 55,756.5 Q46,767 46,779 Q46,807 81.5,838.5 Q117,870 179,870"/> 
            <glyph glyph-name="´" unicode="&#xB4;" horiz-adv-x="185" d=" M171,664 L74,575 Q63,564 46,564 Q27,564 13.5,577 Q0,590 0,608 Q0,627 13,639 L111,728 Q123,740 139,740 Q157,740 171,726.5 Q185,713 185,694 Q185,676 171,664"/> 
            <glyph glyph-name="µ" unicode="&#xB5;" horiz-adv-x="569" d=" M474,36 L474,63 Q472,60 467.5,55 Q463,50 448.5,37.5 Q434,25 418,15.5 Q402,6 376,-2 Q350,-10 323,-10 Q277,-10 234,11 Q191,32 165,65 L165,-182 Q165,-201 151,-215.5 Q137,-230 118,-230 Q99,-230 84.5,-215.5 Q70,-201 70,-182 L70,462 Q70,481 84.5,495.5 Q99,510 118,510 Q137,510 151,495.5 Q165,481 165,462 L165,249 Q165,174 208,123.5 Q251,73 323,73 Q395,73 434.5,123 Q474,173 474,249 L474,462 Q474,481 488,495.5 Q502,510 521,510 Q541,510 555,495.5 Q569,481 569,462 L569,36 Q569,17 555.5,3 Q542,-11 521,-11 Q502,-11 488,3 Q474,17 474,36"/> 
            <glyph glyph-name="¶" unicode="&#xB6;" horiz-adv-x="553" d=" M411,-70 L412,610 L337,610 L337,261 Q337,243 326.5,232 Q316,221 299,221 Q201,221 130.5,291 Q60,361 60,460 Q60,559 130,629.5 Q200,700 299,700 L507,700 Q527,700 540,687 Q553,674 553,654 Q553,639 539,624.5 Q525,610 505,610 L505,-68 Q505,-132 454.5,-181 Q404,-230 334,-230 Q283,-230 237,-201 Q191,-172 191,-132 Q191,-115 203.5,-103.5 Q216,-92 230,-92 Q255,-92 271,-113 Q300,-146 336,-146 Q366,-146 388.5,-123.5 Q411,-101 411,-70"/> 
            <glyph glyph-name="·" unicode="&#xB7;" horiz-adv-x="196" d=" M70,325 Q70,377 88.5,395.5 Q107,414 133,414 Q159,414 177.5,395.5 Q196,377 196,351 Q196,325 177.5,306.5 Q159,288 133,288 Q107,288 70,325"/> 
            <glyph glyph-name="¸" unicode="&#xB8;" horiz-adv-x="213" d=" M30,-68 Q30,-60 37,-46 L58,0 L130,0 L111,-43 Q155,-43 184,-69 Q213,-95 213,-136 Q213,-178 180.5,-204 Q148,-230 92,-230 Q56,-230 23,-217 Q0,-207 0,-187 Q0,-175 8.5,-166.5 Q17,-158 28,-158 Q39,-158 55,-166 Q71,-174 87,-174 Q104,-174 115,-162.5 Q126,-151 126,-135 Q126,-119 115.5,-107.5 Q105,-96 88,-96 Q84,-96 74,-96.5 Q64,-97 63,-97 Q30,-97 30,-68"/> 
            <glyph glyph-name="¹" unicode="&#xB9;" horiz-adv-x="161" d=" M161,823 L161,482 Q161,467 150,455 Q139,443 124,443 Q108,443 96.5,455 Q85,467 85,482 L85,791 L56,791 Q41,791 30.5,801 Q20,811 20,826 Q20,839 31,849.5 Q42,860 56,860 L124,860 Q139,860 150,849.5 Q161,839 161,823"/> 
            <glyph glyph-name="º" unicode="&#xBA;" horiz-adv-x="396" d=" M396,608 Q396,462 345.5,410 Q295,358 223,358 Q150,358 100,409.5 Q50,461 50,535 Q50,609 100,659.5 Q150,710 223,710 Q296,710 396,608 M329,490 Q329,580 298,612.5 Q267,645 223,645 Q179,645 148,612.5 Q117,580 117,535 Q117,490 147.5,456 Q178,422 223,422 Q268,422 329,490"/> 
            <glyph glyph-name="»" unicode="&#xBB;" horiz-adv-x="430" d=" M258,143 L341,253 L258,363 Q250,373 250,387 Q250,406 262.5,417 Q275,428 291,428 Q312,428 326,410 L418,282 Q430,266 430,253 Q430,242 418,225 L326,97 Q313,78 291,78 Q275,78 262.5,89 Q250,100 250,118 Q250,132 258,143 M68,143 L151,253 L68,363 Q60,373 60,387 Q60,406 72.5,417 Q85,428 101,428 Q122,428 136,410 L228,282 Q240,266 240,253 Q240,242 228,225 L136,97 Q123,78 101,78 Q85,78 72.5,89 Q60,100 60,118 Q60,132 68,143"/> 
            <glyph glyph-name="¼" unicode="&#xBC;" horiz-adv-x="682" d=" M95,41 L502,692 Q513,710 533,710 Q547,710 556.5,700 Q566,690 566,676 Q566,666 561,658 L157,11 Q145,-10 125,-10 Q110,-10 100.5,0 Q91,10 91,24 Q91,35 95,41 M191,663 L191,322 Q191,307 180,295 Q169,283 154,283 Q138,283 126.5,295 Q115,307 115,322 L115,631 L86,631 Q71,631 60.5,641 Q50,651 50,666 Q50,679 61,689.5 Q72,700 86,700 L154,700 Q169,700 180,689.5 Q191,679 191,663 M648,91 L629,91 L629,28 Q629,14 617.5,2 Q606,-10 591,-10 Q576,-10 565,1.5 Q554,13 554,28 L554,91 L405,91 Q385,91 372,104 Q359,117 359,135 Q359,150 369,167 L514,385 Q529,406 545,406 L591,406 Q606,406 617.5,395 Q629,384 629,370 L629,159 L648,159 Q662,159 672,148.5 Q682,138 682,125 Q682,110 672.5,100.5 Q663,91 648,91 M449,159 L554,159 L554,321"/> 
            <glyph glyph-name="½" unicode="&#xBD;" horiz-adv-x="717" d=" M95,41 L502,692 Q513,710 533,710 Q547,710 556.5,700 Q566,690 566,676 Q566,666 561,658 L157,11 Q145,-10 125,-10 Q110,-10 100.5,0 Q91,10 91,24 Q91,35 95,41 M191,663 L191,322 Q191,307 180,295 Q169,283 154,283 Q138,283 126.5,295 Q115,307 115,322 L115,631 L86,631 Q71,631 60.5,641 Q50,651 50,666 Q50,679 61,689.5 Q72,700 86,700 L154,700 Q169,700 180,689.5 Q191,679 191,663 M452,81 L592,225 Q623,256 623,290 Q623,312 607,330 Q591,348 564,348 Q539,348 525.5,335.5 Q512,323 501,297 Q492,275 470,275 Q453,275 444.5,285 Q436,295 436,306 Q436,317 442.5,333.5 Q449,350 463,369.5 Q477,389 504.5,402.5 Q532,416 568,416 Q626,416 662.5,378.5 Q699,341 699,293 Q699,234 650,185 L535,68 L680,68 Q695,68 706,58.5 Q717,49 717,34 Q717,19 706.5,9.5 Q696,0 680,0 L477,0 Q459,0 446.5,12 Q434,24 434,41 Q434,63 452,81"/> 
            <glyph glyph-name="¾" unicode="&#xBE;" horiz-adv-x="803" d=" M216,41 L623,692 Q634,710 654,710 Q668,710 677.5,700 Q687,690 687,676 Q687,666 682,658 L278,11 Q266,-10 246,-10 Q231,-10 221.5,0 Q212,10 212,24 Q212,35 216,41 M769,91 L750,91 L750,28 Q750,14 738.5,2 Q727,-10 712,-10 Q697,-10 686,1.5 Q675,13 675,28 L675,91 L526,91 Q506,91 493,104 Q480,117 480,135 Q480,150 490,167 L635,385 Q650,406 666,406 L712,406 Q727,406 738.5,395 Q750,384 750,370 L750,159 L769,159 Q784,159 793.5,148.5 Q803,138 803,125 Q803,110 793.5,100.5 Q784,91 769,91 M570,159 L675,159 L675,321 M199,710 Q255,710 289.5,679 Q324,648 324,607 Q324,552 277,516 Q343,477 343,408 Q343,354 301,318.5 Q259,283 196,283 Q135,283 92.5,317 Q50,351 50,381 Q50,400 61,411 Q72,422 88,422 Q109,422 121,397 Q141,350 195,350 Q225,350 245,368 Q265,386 265,414 Q265,439 244,456 Q223,473 195,473 Q159,473 159,508 Q159,523 168.5,532 Q178,541 193,541 Q214,541 231,558 Q248,575 248,596 Q248,617 231.5,631 Q215,645 193,645 Q148,645 131,608 Q117,586 100,586 Q84,586 75,596.5 Q66,607 66,619 Q66,647 101.5,678.5 Q137,710 199,710"/> 
            <glyph glyph-name="¿" unicode="&#xBF;" horiz-adv-x="460" d=" M264,-211 Q179,-211 119.5,-157.5 Q60,-104 60,-33 Q60,7 77,39.5 Q94,72 118,95 Q142,118 166.5,139 Q191,160 208,187.5 Q225,215 225,247 Q225,270 239.5,285 Q254,300 276,300 Q297,300 311,284 Q325,268 325,243 Q325,209 307.5,177.5 Q290,146 265,121.5 Q240,97 215,73.5 Q190,50 172.5,22 Q155,-6 155,-35 Q155,-73 187.5,-101 Q220,-129 262,-129 Q291,-129 313.5,-119.5 Q336,-110 349,-94.5 Q362,-79 368.5,-66.5 Q375,-54 379,-40 Q389,-8 421,-8 Q441,-8 450.5,-22.5 Q460,-37 460,-54 Q460,-102 406,-156.5 Q352,-211 264,-211 M338,473 Q338,421 319.5,402.5 Q301,384 275,384 Q249,384 230.5,402.5 Q212,421 212,447 Q212,473 230.5,491.5 Q249,510 275,510 Q301,510 338,473"/> 
            <glyph glyph-name="À" unicode="&#xC0;" horiz-adv-x="672" d=" M577,29 L517,192 L190,192 L131,31 Q116,-10 82,-10 Q62,-10 48.5,5 Q35,20 35,39 Q35,50 42,69 L258,661 Q264,677 277,688.5 Q290,700 304,700 L401,700 Q437,700 449,663 L665,69 Q672,49 672,38 Q672,19 658.5,4.5 Q645,-10 625,-10 Q591,-10 577,29 M345,614 L221,277 L486,277 L363,614 M334,775 L237,864 Q223,876 223,894 Q223,913 237,926.5 Q251,940 269,940 Q285,940 297,928 L395,839 Q408,827 408,808 Q408,790 394.5,777 Q381,764 362,764 Q345,764 334,775"/> 
            <glyph glyph-name="Á" unicode="&#xC1;" horiz-adv-x="672" d=" M577,29 L517,192 L190,192 L131,31 Q116,-10 82,-10 Q62,-10 48.5,5 Q35,20 35,39 Q35,50 42,69 L258,661 Q264,677 277,688.5 Q290,700 304,700 L401,700 Q437,700 449,663 L665,69 Q672,49 672,38 Q672,19 658.5,4.5 Q645,-10 625,-10 Q591,-10 577,29 M345,614 L221,277 L486,277 L363,614 M467,864 L370,775 Q359,764 342,764 Q323,764 309.5,777 Q296,790 296,808 Q296,827 309,839 L407,928 Q419,940 435,940 Q453,940 467,926.5 Q481,913 481,894 Q481,876 467,864"/> 
            <glyph glyph-name="Â" unicode="&#xC2;" horiz-adv-x="672" d=" M577,29 L517,192 L190,192 L131,31 Q116,-10 82,-10 Q62,-10 48.5,5 Q35,20 35,39 Q35,50 42,69 L258,661 Q264,677 277,688.5 Q290,700 304,700 L401,700 Q437,700 449,663 L665,69 Q672,49 672,38 Q672,19 658.5,4.5 Q645,-10 625,-10 Q591,-10 577,29 M345,614 L221,277 L486,277 L363,614 M443,773 L355,855 L264,774 Q252,763 241,763 Q224,763 212,774.5 Q200,786 200,805 Q200,821 214,834 L316,926 Q330,940 354,940 Q376,940 392,926 L494,834 Q508,822 508,805 Q508,786 496.5,774.5 Q485,763 470,763 Q454,763 443,773"/> 
            <glyph glyph-name="Ã" unicode="&#xC3;" horiz-adv-x="672" d=" M577,29 L517,192 L190,192 L131,31 Q116,-10 82,-10 Q62,-10 48.5,5 Q35,20 35,39 Q35,50 42,69 L258,661 Q264,677 277,688.5 Q290,700 304,700 L401,700 Q437,700 449,663 L665,69 Q672,49 672,38 Q672,19 658.5,4.5 Q645,-10 625,-10 Q591,-10 577,29 M345,614 L221,277 L486,277 L363,614 M296,908 Q330,908 369,881.5 Q408,855 415,855 Q434,855 443,879 Q455,908 479,908 Q494,908 504.5,898 Q515,888 515,872 Q515,841 489,812.5 Q463,784 413,784 Q379,784 340,810.5 Q301,837 294,837 Q276,837 266,813 Q254,784 230,784 Q215,784 204.5,794 Q194,804 194,820 Q194,851 220,879.5 Q246,908 296,908"/> 
            <glyph glyph-name="Ä" unicode="&#xC4;" horiz-adv-x="672" d=" M577,29 L517,192 L190,192 L131,31 Q116,-10 82,-10 Q62,-10 48.5,5 Q35,20 35,39 Q35,50 42,69 L258,661 Q264,677 277,688.5 Q290,700 304,700 L401,700 Q437,700 449,663 L665,69 Q672,49 672,38 Q672,19 658.5,4.5 Q645,-10 625,-10 Q591,-10 577,29 M345,614 L221,277 L486,277 L363,614 M200,847 Q200,870 217,887 Q234,904 257,904 Q280,904 297,887 Q314,870 314,847 Q314,823 297,806.5 Q280,790 257,790 Q234,790 217,806.5 Q200,823 200,847 M395,847 Q395,870 412,887 Q429,904 452,904 Q476,904 492.5,887 Q509,870 509,847 Q509,823 492.5,806.5 Q476,790 452,790 Q429,790 412,806.5 Q395,823 395,847"/> 
            <glyph glyph-name="Å" unicode="&#xC5;" horiz-adv-x="672" d=" M577,29 L517,192 L190,192 L131,31 Q116,-10 82,-10 Q62,-10 48.5,5 Q35,20 35,39 Q35,50 42,69 L258,661 Q264,677 277,688.5 Q290,700 304,700 L401,700 Q437,700 449,663 L665,69 Q672,49 672,38 Q672,19 658.5,4.5 Q645,-10 625,-10 Q591,-10 577,29 M345,614 L221,277 L486,277 L363,614 M243,841 Q243,887 275.5,919.5 Q308,952 354,952 Q400,952 432.5,919.5 Q465,887 465,841 Q465,796 432.5,763.5 Q400,731 354,731 Q308,731 275.5,763.5 Q243,796 243,841 M305,860 Q305,822 319.5,807 Q334,792 354,792 Q374,792 388.5,807 Q403,822 403,841 Q403,860 388.5,875 Q374,890 354,890 Q334,890 305,860"/> 
            <glyph glyph-name="Æ" unicode="&#xC6;" horiz-adv-x="993" d=" M612,85 L945,85 Q966,85 979.5,73.5 Q993,62 993,44 Q993,25 979,12.5 Q965,0 945,0 L565,0 Q545,0 531.5,14 Q518,28 518,48 L518,196 L212,196 L113,15 Q100,-10 73,-10 Q51,-10 38,3.5 Q25,17 25,35 Q25,50 29,58 L360,675 Q373,700 401,700 L945,700 Q965,700 979,688 Q993,676 993,657 Q993,637 979.5,625.5 Q966,614 945,614 L612,614 L612,405 L887,405 Q907,405 921,393 Q935,381 935,363 Q935,343 921.5,331 Q908,319 887,319 L612,319 M434,614 L255,277 L518,277 L518,614"/> 
            <glyph glyph-name="Ç" unicode="&#xC7;" horiz-adv-x="632" d=" M50,350 Q50,497 155,603.5 Q260,710 407,710 Q445,710 491,700 Q537,690 573.5,668 Q610,646 610,619 Q610,601 597.5,589 Q585,577 571,577 Q556,577 547,583 Q482,626 407,626 Q296,626 220.5,543 Q145,460 145,350 Q145,239 220.5,156.5 Q296,74 407,74 Q490,74 561,126 Q573,136 590,136 Q606,136 619,124 Q632,112 632,93 Q632,70 609,54 Q523,-8 412,-10 L398,-43 Q442,-43 471,-69 Q500,-95 500,-136 Q500,-178 467.5,-204 Q435,-230 379,-230 Q342,-230 310,-217 Q287,-207 287,-187 Q287,-175 295.5,-166.5 Q304,-158 315,-158 Q326,-158 342,-166 Q358,-174 374,-174 Q391,-174 402,-162.5 Q413,-151 413,-135 Q413,-119 402.5,-107.5 Q392,-96 375,-96 Q371,-96 361,-96.5 Q351,-97 350,-97 Q317,-97 317,-68 Q317,-60 324,-46 L343,-4 Q218,19 134,120 Q50,221 50,350"/> 
            <glyph glyph-name="È" unicode="&#xC8;" horiz-adv-x="574" d=" M174,86 L529,86 Q549,86 561.5,73.5 Q574,61 574,43 Q574,25 561.5,12.5 Q549,0 529,0 L127,0 Q107,0 93.5,14 Q80,28 80,48 L80,654 Q80,673 93.5,686.5 Q107,700 127,700 L529,700 Q549,700 561.5,687.5 Q574,675 574,657 Q574,639 561.5,626.5 Q549,614 529,614 L174,614 L174,405 L472,405 Q491,405 503.5,393 Q516,381 516,363 Q516,344 503.5,331.5 Q491,319 472,319 L174,319 M283,775 L186,864 Q172,876 172,894 Q172,913 186,926.5 Q200,940 218,940 Q234,940 246,928 L344,839 Q357,827 357,808 Q357,790 343.5,777 Q330,764 311,764 Q294,764 283,775"/> 
            <glyph glyph-name="É" unicode="&#xC9;" horiz-adv-x="574" d=" M174,86 L529,86 Q549,86 561.5,73.5 Q574,61 574,43 Q574,25 561.5,12.5 Q549,0 529,0 L127,0 Q107,0 93.5,14 Q80,28 80,48 L80,654 Q80,673 93.5,686.5 Q107,700 127,700 L529,700 Q549,700 561.5,687.5 Q574,675 574,657 Q574,639 561.5,626.5 Q549,614 529,614 L174,614 L174,405 L472,405 Q491,405 503.5,393 Q516,381 516,363 Q516,344 503.5,331.5 Q491,319 472,319 L174,319 M432,864 L335,775 Q324,764 307,764 Q288,764 274.5,777 Q261,790 261,808 Q261,827 274,839 L372,928 Q384,940 400,940 Q418,940 432,926.5 Q446,913 446,894 Q446,876 432,864"/> 
            <glyph glyph-name="Ê" unicode="&#xCA;" horiz-adv-x="574" d=" M174,86 L529,86 Q549,86 561.5,73.5 Q574,61 574,43 Q574,25 561.5,12.5 Q549,0 529,0 L127,0 Q107,0 93.5,14 Q80,28 80,48 L80,654 Q80,673 93.5,686.5 Q107,700 127,700 L529,700 Q549,700 561.5,687.5 Q574,675 574,657 Q574,639 561.5,626.5 Q549,614 529,614 L174,614 L174,405 L472,405 Q491,405 503.5,393 Q516,381 516,363 Q516,344 503.5,331.5 Q491,319 472,319 L174,319 M398,773 L310,855 L219,774 Q207,763 196,763 Q179,763 167,774.5 Q155,786 155,805 Q155,821 169,834 L271,926 Q285,940 309,940 Q331,940 347,926 L449,834 Q463,822 463,805 Q463,786 451.5,774.5 Q440,763 425,763 Q409,763 398,773"/> 
            <glyph glyph-name="Ë" unicode="&#xCB;" horiz-adv-x="574" d=" M174,86 L529,86 Q549,86 561.5,73.5 Q574,61 574,43 Q574,25 561.5,12.5 Q549,0 529,0 L127,0 Q107,0 93.5,14 Q80,28 80,48 L80,654 Q80,673 93.5,686.5 Q107,700 127,700 L529,700 Q549,700 561.5,687.5 Q574,675 574,657 Q574,639 561.5,626.5 Q549,614 529,614 L174,614 L174,405 L472,405 Q491,405 503.5,393 Q516,381 516,363 Q516,344 503.5,331.5 Q491,319 472,319 L174,319 M166,847 Q166,870 183,887 Q200,904 223,904 Q246,904 263,887 Q280,870 280,847 Q280,823 263,806.5 Q246,790 223,790 Q200,790 183,806.5 Q166,823 166,847 M361,847 Q361,870 378,887 Q395,904 418,904 Q442,904 458.5,887 Q475,870 475,847 Q475,823 458.5,806.5 Q442,790 418,790 Q395,790 378,806.5 Q361,823 361,847"/> 
            <glyph glyph-name="Ì" unicode="&#xCC;" horiz-adv-x="186" d=" M90,662 Q90,681 104,695.5 Q118,710 137,710 Q157,710 171,695.5 Q185,681 185,662 L185,38 Q185,19 171,4.5 Q157,-10 137,-10 Q118,-10 104,4.5 Q90,19 90,38 M112,775 L15,864 Q1,876 1,894 Q1,913 15,926.5 Q29,940 47,940 Q63,940 75,928 L173,839 Q186,827 186,808 Q186,790 172.5,777 Q159,764 140,764 Q123,764 112,775"/> 
            <glyph glyph-name="Í" unicode="&#xCD;" horiz-adv-x="274" d=" M90,662 Q90,681 104,695.5 Q118,710 137,710 Q157,710 171,695.5 Q185,681 185,662 L185,38 Q185,19 171,4.5 Q157,-10 137,-10 Q118,-10 104,4.5 Q90,19 90,38 M260,864 L163,775 Q152,764 135,764 Q116,764 102.5,777 Q89,790 89,808 Q89,827 102,839 L200,928 Q212,940 228,940 Q246,940 260,926.5 Q274,913 274,894 Q274,876 260,864"/> 
            <glyph glyph-name="Î" unicode="&#xCE;" horiz-adv-x="292" d=" M90,662 Q90,681 104,695.5 Q118,710 137,710 Q157,710 171,695.5 Q185,681 185,662 L185,38 Q185,19 171,4.5 Q157,-10 137,-10 Q118,-10 104,4.5 Q90,19 90,38 M227,773 L139,855 L48,774 Q36,763 25,763 Q8,763 -4,774.5 Q-16,786 -16,805 Q-16,821 -2,834 L100,926 Q114,940 138,940 Q160,940 176,926 L278,834 Q292,822 292,805 Q292,786 280.5,774.5 Q269,763 254,763 Q238,763 227,773"/> 
            <glyph glyph-name="Ï" unicode="&#xCF;" horiz-adv-x="292" d=" M90,662 Q90,681 104,695.5 Q118,710 137,710 Q157,710 171,695.5 Q185,681 185,662 L185,38 Q185,19 171,4.5 Q157,-10 137,-10 Q118,-10 104,4.5 Q90,19 90,38 M-17,847 Q-17,870 0,887 Q17,904 40,904 Q63,904 80,887 Q97,870 97,847 Q97,823 80,806.5 Q63,790 40,790 Q17,790 0,806.5 Q-17,823 -17,847 M178,847 Q178,870 195,887 Q212,904 235,904 Q259,904 275.5,887 Q292,870 292,847 Q292,823 275.5,806.5 Q259,790 235,790 Q212,790 195,806.5 Q178,823 178,847"/> 
            <glyph glyph-name="Ð" unicode="&#xD0;" horiz-adv-x="658" d=" M132,700 L301,700 Q467,700 562.5,601.5 Q658,503 658,353 Q658,203 562.5,101.5 Q467,0 301,0 L132,0 Q113,0 100.5,13 Q88,26 88,46 L88,320 L57,320 Q40,320 27.5,332 Q15,344 15,361 Q15,378 27.5,390 Q40,402 57,402 L88,402 L88,654 Q88,674 100.5,687 Q113,700 132,700 M285,320 L182,320 L182,85 L301,85 Q430,85 498.5,162.5 Q567,240 567,353 Q567,466 499,540.5 Q431,615 301,615 L182,615 L182,402 L285,402 Q301,402 313,390 Q325,378 325,361 Q325,344 313.5,332 Q302,320 285,320"/> 
            <glyph glyph-name="Ñ" unicode="&#xD1;" horiz-adv-x="686" d=" M551,25 L195,539 L174,578 L174,39 Q174,18 161,4 Q148,-10 128,-10 Q108,-10 94,4.5 Q80,19 80,39 L80,651 Q80,670 94.5,685 Q109,700 129,700 L170,700 Q198,700 215,675 L571,161 L592,122 L592,662 Q592,682 605,696 Q618,710 638,710 Q658,710 672,696 Q686,682 686,662 L686,49 Q686,30 671.5,15 Q657,0 637,0 L596,0 Q568,0 551,25 M336,908 Q370,908 409,881.5 Q448,855 455,855 Q474,855 483,879 Q495,908 519,908 Q534,908 544.5,898 Q555,888 555,872 Q555,841 529,812.5 Q503,784 453,784 Q419,784 380,810.5 Q341,837 334,837 Q316,837 306,813 Q294,784 270,784 Q255,784 244.5,794 Q234,804 234,820 Q234,851 260,879.5 Q286,908 336,908"/> 
            <glyph glyph-name="Ò" unicode="&#xD2;" horiz-adv-x="763" d=" M50,201 Q50,497 154.5,603.5 Q259,710 407,710 Q554,710 658.5,603.5 Q763,497 763,349 Q763,202 658.5,96 Q554,-10 407,-10 Q259,-10 50,201 M145,463 Q145,235 220.5,154.5 Q296,74 407,74 Q517,74 593,155 Q669,236 669,349 Q669,463 593,544.5 Q517,626 407,626 Q296,626 145,463 M381,775 L284,864 Q270,876 270,894 Q270,913 284,926.5 Q298,940 316,940 Q332,940 344,928 L442,839 Q455,827 455,808 Q455,790 441.5,777 Q428,764 409,764 Q392,764 381,775"/> 
            <glyph glyph-name="Ó" unicode="&#xD3;" horiz-adv-x="763" d=" M50,201 Q50,497 154.5,603.5 Q259,710 407,710 Q554,710 658.5,603.5 Q763,497 763,349 Q763,202 658.5,96 Q554,-10 407,-10 Q259,-10 50,201 M145,463 Q145,235 220.5,154.5 Q296,74 407,74 Q517,74 593,155 Q669,236 669,349 Q669,463 593,544.5 Q517,626 407,626 Q296,626 145,463 M530,864 L433,775 Q422,764 405,764 Q386,764 372.5,777 Q359,790 359,808 Q359,827 372,839 L470,928 Q482,940 498,940 Q516,940 530,926.5 Q544,913 544,894 Q544,876 530,864"/> 
            <glyph glyph-name="Ô" unicode="&#xD4;" horiz-adv-x="763" d=" M50,201 Q50,497 154.5,603.5 Q259,710 407,710 Q554,710 658.5,603.5 Q763,497 763,349 Q763,202 658.5,96 Q554,-10 407,-10 Q259,-10 50,201 M145,463 Q145,235 220.5,154.5 Q296,74 407,74 Q517,74 593,155 Q669,236 669,349 Q669,463 593,544.5 Q517,626 407,626 Q296,626 145,463 M495,773 L407,855 L316,774 Q304,763 293,763 Q276,763 264,774.5 Q252,786 252,805 Q252,821 266,834 L368,926 Q382,940 406,940 Q428,940 444,926 L546,834 Q560,822 560,805 Q560,786 548.5,774.5 Q537,763 522,763 Q506,763 495,773"/> 
            <glyph glyph-name="Õ" unicode="&#xD5;" horiz-adv-x="763" d=" M50,201 Q50,497 154.5,603.5 Q259,710 407,710 Q554,710 658.5,603.5 Q763,497 763,349 Q763,202 658.5,96 Q554,-10 407,-10 Q259,-10 50,201 M145,463 Q145,235 220.5,154.5 Q296,74 407,74 Q517,74 593,155 Q669,236 669,349 Q669,463 593,544.5 Q517,626 407,626 Q296,626 145,463 M348,908 Q382,908 421,881.5 Q460,855 467,855 Q486,855 495,879 Q507,908 531,908 Q546,908 556.5,898 Q567,888 567,872 Q567,841 541,812.5 Q515,784 465,784 Q431,784 392,810.5 Q353,837 346,837 Q328,837 318,813 Q306,784 282,784 Q267,784 256.5,794 Q246,804 246,820 Q246,851 272,879.5 Q298,908 348,908"/> 
            <glyph glyph-name="Ö" unicode="&#xD6;" horiz-adv-x="763" d=" M50,201 Q50,497 154.5,603.5 Q259,710 407,710 Q554,710 658.5,603.5 Q763,497 763,349 Q763,202 658.5,96 Q554,-10 407,-10 Q259,-10 50,201 M145,463 Q145,235 220.5,154.5 Q296,74 407,74 Q517,74 593,155 Q669,236 669,349 Q669,463 593,544.5 Q517,626 407,626 Q296,626 145,463 M253,847 Q253,870 270,887 Q287,904 310,904 Q333,904 350,887 Q367,870 367,847 Q367,823 350,806.5 Q333,790 310,790 Q287,790 270,806.5 Q253,823 253,847 M448,847 Q448,870 465,887 Q482,904 505,904 Q529,904 545.5,887 Q562,870 562,847 Q562,823 545.5,806.5 Q529,790 505,790 Q482,790 465,806.5 Q448,823 448,847"/> 
            <glyph glyph-name="×" unicode="&#xD7;" horiz-adv-x="471" d=" M102,458 Q118,458 130,446 L266,310 L402,446 Q413,457 429,457 Q446,457 458.5,445 Q471,433 471,417 Q471,399 460,388 L324,252 L460,116 Q471,105 471,87 Q471,71 459,58.5 Q447,46 431,46 Q414,46 402,58 L266,194 L131,59 Q119,47 100,47 Q85,47 73,59.5 Q61,72 61,88 Q61,105 73,117 L208,252 L70,389 Q60,398 60,417 Q60,433 72.5,445.5 Q85,458 102,458"/> 
            <glyph glyph-name="Ø" unicode="&#xD8;" horiz-adv-x="763" d=" M50,349 Q50,497 154.5,603.5 Q259,710 407,710 Q497,710 577,665 L612,715 Q625,733 646,733 Q662,733 673,721.5 Q684,710 684,695 Q684,687 676,675 L639,622 Q697,572 730,500.5 Q763,429 763,349 Q763,202 658.5,96 Q554,-10 407,-10 Q311,-10 231,36 L197,-12 Q184,-31 162,-31 Q147,-31 136.5,-20 Q126,-9 126,6 Q126,19 132,27 L170,81 Q114,131 82,201 Q50,271 50,349 M669,349 Q669,466 588,549 L280,107 Q338,74 407,74 Q517,74 593,155 Q669,236 669,349 M145,463 Q145,235 221,154 L528,595 Q472,626 407,626 Q296,626 145,463"/> 
            <glyph glyph-name="Ù" unicode="&#xD9;" horiz-adv-x="690" d=" M75,662 Q75,682 89,696 Q103,710 123,710 Q142,710 156,696 Q170,682 170,662 L170,298 Q170,184 231.5,130 Q293,76 382,76 Q472,76 533.5,130 Q595,184 595,298 L595,663 Q595,682 609,696 Q623,710 642,710 Q662,710 676,696 Q690,682 690,663 L690,305 Q690,153 601.5,71.5 Q513,-10 382,-10 Q252,-10 163.5,71.5 Q75,153 75,305 M353,775 L256,864 Q242,876 242,894 Q242,913 256,926.5 Q270,940 288,940 Q304,940 316,928 L414,839 Q427,827 427,808 Q427,790 413.5,777 Q400,764 381,764 Q364,764 353,775"/> 
            <glyph glyph-name="Ú" unicode="&#xDA;" horiz-adv-x="690" d=" M75,662 Q75,682 89,696 Q103,710 123,710 Q142,710 156,696 Q170,682 170,662 L170,298 Q170,184 231.5,130 Q293,76 382,76 Q472,76 533.5,130 Q595,184 595,298 L595,663 Q595,682 609,696 Q623,710 642,710 Q662,710 676,696 Q690,682 690,663 L690,305 Q690,153 601.5,71.5 Q513,-10 382,-10 Q252,-10 163.5,71.5 Q75,153 75,305 M506,864 L409,775 Q398,764 381,764 Q362,764 348.5,777 Q335,790 335,808 Q335,827 348,839 L446,928 Q458,940 474,940 Q492,940 506,926.5 Q520,913 520,894 Q520,876 506,864"/> 
            <glyph glyph-name="Û" unicode="&#xDB;" horiz-adv-x="690" d=" M75,662 Q75,682 89,696 Q103,710 123,710 Q142,710 156,696 Q170,682 170,662 L170,298 Q170,184 231.5,130 Q293,76 382,76 Q472,76 533.5,130 Q595,184 595,298 L595,663 Q595,682 609,696 Q623,710 642,710 Q662,710 676,696 Q690,682 690,663 L690,305 Q690,153 601.5,71.5 Q513,-10 382,-10 Q252,-10 163.5,71.5 Q75,153 75,305 M471,773 L383,855 L292,774 Q280,763 269,763 Q252,763 240,774.5 Q228,786 228,805 Q228,821 242,834 L344,926 Q358,940 382,940 Q404,940 420,926 L522,834 Q536,822 536,805 Q536,786 524.5,774.5 Q513,763 498,763 Q482,763 471,773"/> 
            <glyph glyph-name="Ü" unicode="&#xDC;" horiz-adv-x="690" d=" M75,662 Q75,682 89,696 Q103,710 123,710 Q142,710 156,696 Q170,682 170,662 L170,298 Q170,184 231.5,130 Q293,76 382,76 Q472,76 533.5,130 Q595,184 595,298 L595,663 Q595,682 609,696 Q623,710 642,710 Q662,710 676,696 Q690,682 690,663 L690,305 Q690,153 601.5,71.5 Q513,-10 382,-10 Q252,-10 163.5,71.5 Q75,153 75,305 M229,847 Q229,870 246,887 Q263,904 286,904 Q309,904 326,887 Q343,870 343,847 Q343,823 326,806.5 Q309,790 286,790 Q263,790 246,806.5 Q229,823 229,847 M424,847 Q424,870 441,887 Q458,904 481,904 Q505,904 521.5,887 Q538,870 538,847 Q538,823 521.5,806.5 Q505,790 481,790 Q458,790 441,806.5 Q424,823 424,847"/> 
            <glyph glyph-name="Ý" unicode="&#xDD;" horiz-adv-x="633" d=" M614,700 Q633,685 633,662 Q633,646 622,632 L375,293 L375,39 Q375,19 361,4.5 Q347,-10 326,-10 Q306,-10 292,4.5 Q278,19 278,39 L278,293 L30,633 Q20,646 20,662 Q20,681 34,695.5 Q48,710 68,710 Q92,710 107,690 L327,388 L547,692 Q560,710 584,710 Q601,710 614,700 M450,864 L353,775 Q342,764 325,764 Q306,764 292.5,777 Q279,790 279,808 Q279,827 292,839 L390,928 Q402,940 418,940 Q436,940 450,926.5 Q464,913 464,894 Q464,876 450,864"/> 
            <glyph glyph-name="Þ" unicode="&#xDE;" horiz-adv-x="584" d=" M176,662 L176,616 L353,616 Q448,616 516,548.5 Q584,481 584,385 Q584,291 516,223 Q448,155 353,155 L176,155 L176,39 Q176,19 162,4.5 Q148,-10 128,-10 Q108,-10 94,4.5 Q80,19 80,39 L80,662 Q80,681 94,695.5 Q108,710 128,710 Q147,710 161.5,695.5 Q176,681 176,662 M176,531 L176,239 L353,239 Q407,239 449.5,283.5 Q492,328 492,385 Q492,443 449.5,487 Q407,531 353,531"/> 
            <glyph glyph-name="ß" unicode="&#xDF;" horiz-adv-x="577" d=" M297,84 L386,84 Q430,84 457,107 Q484,130 484,162 Q484,193 464.5,217.5 Q445,242 417,260 Q389,278 361,297 Q333,316 313.5,346 Q294,376 294,414 Q294,473 339.5,509.5 Q385,546 439,552 Q435,607 394.5,642 Q354,677 306,677 Q247,677 210.5,635 Q174,593 174,524 L174,35 Q174,16 160.5,3 Q147,-10 128,-10 Q110,-10 96,3 Q82,16 82,35 L82,415 L72,415 Q55,415 42.5,427.5 Q30,440 30,457 Q30,474 42.5,487 Q55,500 72,500 L82,500 Q82,612 143,681 Q204,750 313,750 Q403,750 464,688.5 Q525,627 525,557 Q525,528 511.5,507 Q498,486 474,482 Q457,479 446.5,476.5 Q436,474 420.5,467 Q405,460 397,447.5 Q389,435 389,417 Q389,393 408.5,372.5 Q428,352 455.5,335 Q483,318 510.5,298 Q538,278 557.5,243.5 Q577,209 577,165 Q577,91 526.5,45.5 Q476,0 392,0 L297,0 Q277,0 263.5,11.5 Q250,23 250,41 Q250,60 263.5,72 Q277,84 297,84"/> 
            <glyph glyph-name="à" unicode="&#xE0;" horiz-adv-x="557" d=" M557,462 L557,38 Q557,18 542.5,4 Q528,-10 509,-10 Q490,-10 475.5,4 Q461,18 461,38 L461,64 Q395,-10 292,-10 Q190,-10 117.5,66 Q45,142 45,251 Q45,359 118,434.5 Q191,510 292,510 Q395,510 461,436 L461,462 Q461,482 475.5,496 Q490,510 509,510 Q529,510 543,496 Q557,482 557,462 M468,246 L468,258 Q468,330 422,378.5 Q376,427 305,427 Q232,427 183.5,375.5 Q135,324 135,251 Q135,177 183.5,124.5 Q232,72 305,72 Q377,72 422.5,122 Q468,172 468,246 M293,575 L196,664 Q182,676 182,694 Q182,713 196,726.5 Q210,740 228,740 Q244,740 256,728 L354,639 Q367,627 367,608 Q367,590 353.5,577 Q340,564 321,564 Q304,564 293,575"/> 
            <glyph glyph-name="á" unicode="&#xE1;" horiz-adv-x="557" d=" M557,462 L557,38 Q557,18 542.5,4 Q528,-10 509,-10 Q490,-10 475.5,4 Q461,18 461,38 L461,64 Q395,-10 292,-10 Q190,-10 117.5,66 Q45,142 45,251 Q45,359 118,434.5 Q191,510 292,510 Q395,510 461,436 L461,462 Q461,482 475.5,496 Q490,510 509,510 Q529,510 543,496 Q557,482 557,462 M468,246 L468,258 Q468,330 422,378.5 Q376,427 305,427 Q232,427 183.5,375.5 Q135,324 135,251 Q135,177 183.5,124.5 Q232,72 305,72 Q377,72 422.5,122 Q468,172 468,246 M435,664 L338,575 Q327,564 310,564 Q291,564 277.5,577 Q264,590 264,608 Q264,627 277,639 L375,728 Q387,740 403,740 Q421,740 435,726.5 Q449,713 449,694 Q449,676 435,664"/> 
            <glyph glyph-name="â" unicode="&#xE2;" horiz-adv-x="557" d=" M557,462 L557,38 Q557,18 542.5,4 Q528,-10 509,-10 Q490,-10 475.5,4 Q461,18 461,38 L461,64 Q395,-10 292,-10 Q190,-10 117.5,66 Q45,142 45,251 Q45,359 118,434.5 Q191,510 292,510 Q395,510 461,436 L461,462 Q461,482 475.5,496 Q490,510 509,510 Q529,510 543,496 Q557,482 557,462 M468,246 L468,258 Q468,330 422,378.5 Q376,427 305,427 Q232,427 183.5,375.5 Q135,324 135,251 Q135,177 183.5,124.5 Q232,72 305,72 Q377,72 422.5,122 Q468,172 468,246 M399,573 L311,655 L220,574 Q208,563 197,563 Q180,563 168,574.5 Q156,586 156,605 Q156,621 170,634 L272,726 Q286,740 310,740 Q332,740 348,726 L450,634 Q464,622 464,605 Q464,586 452.5,574.5 Q441,563 426,563 Q410,563 399,573"/> 
            <glyph glyph-name="ã" unicode="&#xE3;" horiz-adv-x="557" d=" M557,462 L557,38 Q557,18 542.5,4 Q528,-10 509,-10 Q490,-10 475.5,4 Q461,18 461,38 L461,64 Q395,-10 292,-10 Q190,-10 117.5,66 Q45,142 45,251 Q45,359 118,434.5 Q191,510 292,510 Q395,510 461,436 L461,462 Q461,482 475.5,496 Q490,510 509,510 Q529,510 543,496 Q557,482 557,462 M468,246 L468,258 Q468,330 422,378.5 Q376,427 305,427 Q232,427 183.5,375.5 Q135,324 135,251 Q135,177 183.5,124.5 Q232,72 305,72 Q377,72 422.5,122 Q468,172 468,246 M250,708 Q284,708 323,681.5 Q362,655 369,655 Q388,655 397,679 Q409,708 433,708 Q448,708 458.5,698 Q469,688 469,672 Q469,641 443,612.5 Q417,584 367,584 Q333,584 294,610.5 Q255,637 248,637 Q230,637 220,613 Q208,584 184,584 Q169,584 158.5,594 Q148,604 148,620 Q148,651 174,679.5 Q200,708 250,708"/> 
            <glyph glyph-name="ä" unicode="&#xE4;" horiz-adv-x="557" d=" M557,462 L557,38 Q557,18 542.5,4 Q528,-10 509,-10 Q490,-10 475.5,4 Q461,18 461,38 L461,64 Q395,-10 292,-10 Q190,-10 117.5,66 Q45,142 45,251 Q45,359 118,434.5 Q191,510 292,510 Q395,510 461,436 L461,462 Q461,482 475.5,496 Q490,510 509,510 Q529,510 543,496 Q557,482 557,462 M468,246 L468,258 Q468,330 422,378.5 Q376,427 305,427 Q232,427 183.5,375.5 Q135,324 135,251 Q135,177 183.5,124.5 Q232,72 305,72 Q377,72 422.5,122 Q468,172 468,246 M152,647 Q152,670 169,687 Q186,704 209,704 Q232,704 249,687 Q266,670 266,647 Q266,623 249,606.5 Q232,590 209,590 Q186,590 169,606.5 Q152,623 152,647 M347,647 Q347,670 364,687 Q381,704 404,704 Q428,704 444.5,687 Q461,670 461,647 Q461,623 444.5,606.5 Q428,590 404,590 Q381,590 364,606.5 Q347,623 347,647"/> 
            <glyph glyph-name="å" unicode="&#xE5;" horiz-adv-x="557" d=" M557,462 L557,38 Q557,18 542.5,4 Q528,-10 509,-10 Q490,-10 475.5,4 Q461,18 461,38 L461,64 Q395,-10 292,-10 Q190,-10 117.5,66 Q45,142 45,251 Q45,359 118,434.5 Q191,510 292,510 Q395,510 461,436 L461,462 Q461,482 475.5,496 Q490,510 509,510 Q529,510 543,496 Q557,482 557,462 M468,246 L468,258 Q468,330 422,378.5 Q376,427 305,427 Q232,427 183.5,375.5 Q135,324 135,251 Q135,177 183.5,124.5 Q232,72 305,72 Q377,72 422.5,122 Q468,172 468,246 M197,641 Q197,687 229.5,719.5 Q262,752 308,752 Q354,752 386.5,719.5 Q419,687 419,641 Q419,596 386.5,563.5 Q354,531 308,531 Q262,531 229.5,563.5 Q197,596 197,641 M259,660 Q259,622 273.5,607 Q288,592 308,592 Q328,592 342.5,607 Q357,622 357,641 Q357,660 342.5,675 Q328,690 308,690 Q288,690 259,660"/> 
            <glyph glyph-name="æ" unicode="&#xE6;" horiz-adv-x="941" d=" M886,211 L550,211 Q560,146 603.5,109 Q647,72 712,72 Q765,72 827,109 Q839,115 851,115 Q868,115 879.5,103 Q891,91 891,74 Q891,48 870,36 Q797,-10 712,-10 Q662,-10 617,9.5 Q572,29 546,60 L546,38 Q546,19 532,4.5 Q518,-10 499,-10 Q480,-10 466,4.5 Q452,19 452,38 L452,64 Q388,-10 292,-10 Q188,-10 116.5,66 Q45,142 45,251 Q45,360 117,435 Q189,510 292,510 Q385,510 452,437 L452,462 Q452,482 466.5,496 Q481,510 499,510 Q518,510 532,496 Q546,482 546,462 L546,441 Q610,510 707,510 Q808,510 874.5,438 Q941,366 941,272 Q941,248 924.5,229.5 Q908,211 886,211 M455,248 L455,260 Q455,331 411,379.5 Q367,428 299,428 Q228,428 180,376 Q132,324 132,251 Q132,177 179.5,124.5 Q227,72 299,72 Q369,72 412,123 Q455,174 455,248 M707,430 Q646,430 602,389.5 Q558,349 550,288 L856,288 Q851,343 809,386.5 Q767,430 707,430"/> 
            <glyph glyph-name="ç" unicode="&#xE7;" horiz-adv-x="468" d=" M222,-68 Q222,-60 229,-46 L248,-4 Q158,15 101.5,85.5 Q45,156 45,251 Q45,360 120.5,435 Q196,510 305,510 Q376,510 432,482 Q461,467 461,440 Q461,422 447.5,409 Q434,396 417,396 Q409,396 383,409 Q349,427 305,427 Q235,427 184,374.5 Q133,322 133,251 Q133,178 182.5,125 Q232,72 306,72 Q356,72 397,99 Q411,108 424,108 Q442,108 455,95 Q468,82 468,64 Q468,40 443,24 Q396,-7 317,-10 L303,-43 Q347,-43 376,-69 Q405,-95 405,-136 Q405,-178 372.5,-204 Q340,-230 284,-230 Q248,-230 215,-217 Q192,-207 192,-187 Q192,-175 200.5,-166.5 Q209,-158 220,-158 Q231,-158 247,-166 Q263,-174 279,-174 Q296,-174 307,-162.5 Q318,-151 318,-135 Q318,-119 307.5,-107.5 Q297,-96 280,-96 Q276,-96 266,-96.5 Q256,-97 255,-97 Q222,-97 222,-68"/> 
            <glyph glyph-name="è" unicode="&#xE8;" horiz-adv-x="550" d=" M494,211 L139,211 Q148,148 195.5,110 Q243,72 309,72 Q367,72 434,109 Q446,115 458,115 Q476,115 487.5,103 Q499,91 499,74 Q499,48 478,36 Q401,-10 309,-10 Q196,-10 120.5,64.5 Q45,139 45,251 Q45,359 121.5,434.5 Q198,510 304,510 Q408,510 479,437.5 Q550,365 550,272 Q550,248 533.5,229.5 Q517,211 494,211 M304,430 Q241,430 193,389 Q145,348 139,288 L464,288 Q458,342 412,386 Q366,430 304,430 M262,575 L165,664 Q151,676 151,694 Q151,713 165,726.5 Q179,740 197,740 Q213,740 225,728 L323,639 Q336,627 336,608 Q336,590 322.5,577 Q309,564 290,564 Q273,564 262,575"/> 
            <glyph glyph-name="é" unicode="&#xE9;" horiz-adv-x="550" d=" M494,211 L139,211 Q148,148 195.5,110 Q243,72 309,72 Q367,72 434,109 Q446,115 458,115 Q476,115 487.5,103 Q499,91 499,74 Q499,48 478,36 Q401,-10 309,-10 Q196,-10 120.5,64.5 Q45,139 45,251 Q45,359 121.5,434.5 Q198,510 304,510 Q408,510 479,437.5 Q550,365 550,272 Q550,248 533.5,229.5 Q517,211 494,211 M304,430 Q241,430 193,389 Q145,348 139,288 L464,288 Q458,342 412,386 Q366,430 304,430 M414,664 L317,575 Q306,564 289,564 Q270,564 256.5,577 Q243,590 243,608 Q243,627 256,639 L354,728 Q366,740 382,740 Q400,740 414,726.5 Q428,713 428,694 Q428,676 414,664"/> 
            <glyph glyph-name="ê" unicode="&#xEA;" horiz-adv-x="550" d=" M494,211 L139,211 Q148,148 195.5,110 Q243,72 309,72 Q367,72 434,109 Q446,115 458,115 Q476,115 487.5,103 Q499,91 499,74 Q499,48 478,36 Q401,-10 309,-10 Q196,-10 120.5,64.5 Q45,139 45,251 Q45,359 121.5,434.5 Q198,510 304,510 Q408,510 479,437.5 Q550,365 550,272 Q550,248 533.5,229.5 Q517,211 494,211 M304,430 Q241,430 193,389 Q145,348 139,288 L464,288 Q458,342 412,386 Q366,430 304,430 M391,573 L303,655 L212,574 Q200,563 189,563 Q172,563 160,574.5 Q148,586 148,605 Q148,621 162,634 L264,726 Q278,740 302,740 Q324,740 340,726 L442,634 Q456,622 456,605 Q456,586 444.5,574.5 Q433,563 418,563 Q402,563 391,573"/> 
            <glyph glyph-name="ë" unicode="&#xEB;" horiz-adv-x="550" d=" M494,211 L139,211 Q148,148 195.5,110 Q243,72 309,72 Q367,72 434,109 Q446,115 458,115 Q476,115 487.5,103 Q499,91 499,74 Q499,48 478,36 Q401,-10 309,-10 Q196,-10 120.5,64.5 Q45,139 45,251 Q45,359 121.5,434.5 Q198,510 304,510 Q408,510 479,437.5 Q550,365 550,272 Q550,248 533.5,229.5 Q517,211 494,211 M304,430 Q241,430 193,389 Q145,348 139,288 L464,288 Q458,342 412,386 Q366,430 304,430 M151,647 Q151,670 168,687 Q185,704 208,704 Q231,704 248,687 Q265,670 265,647 Q265,623 248,606.5 Q231,590 208,590 Q185,590 168,606.5 Q151,623 151,647 M346,647 Q346,670 363,687 Q380,704 403,704 Q427,704 443.5,687 Q460,670 460,647 Q460,623 443.5,606.5 Q427,590 403,590 Q380,590 363,606.5 Q346,623 346,647"/> 
            <glyph glyph-name="ì" unicode="&#xEC;" horiz-adv-x="189" d=" M181,461 L181,38 Q181,19 167,4.5 Q153,-10 133,-10 Q114,-10 100,4.5 Q86,19 86,38 L86,461 Q86,480 100,494.5 Q114,509 133,509 Q153,509 167,494.5 Q181,480 181,461 M115,575 L18,664 Q4,676 4,694 Q4,713 18,726.5 Q32,740 50,740 Q66,740 78,728 L176,639 Q189,627 189,608 Q189,590 175.5,577 Q162,564 143,564 Q126,564 115,575"/> 
            <glyph glyph-name="í" unicode="&#xED;" horiz-adv-x="261" d=" M181,461 L181,38 Q181,19 167,4.5 Q153,-10 133,-10 Q114,-10 100,4.5 Q86,19 86,38 L86,461 Q86,480 100,494.5 Q114,509 133,509 Q153,509 167,494.5 Q181,480 181,461 M247,664 L150,575 Q139,564 122,564 Q103,564 89.5,577 Q76,590 76,608 Q76,627 89,639 L187,728 Q199,740 215,740 Q233,740 247,726.5 Q261,713 261,694 Q261,676 247,664"/> 
            <glyph glyph-name="î" unicode="&#xEE;" horiz-adv-x="287" d=" M181,461 L181,38 Q181,19 167,4.5 Q153,-10 133,-10 Q114,-10 100,4.5 Q86,19 86,38 L86,461 Q86,480 100,494.5 Q114,509 133,509 Q153,509 167,494.5 Q181,480 181,461 M222,573 L134,655 L43,574 Q31,563 20,563 Q3,563 -9,574.5 Q-21,586 -21,605 Q-21,621 -7,634 L95,726 Q109,740 133,740 Q155,740 171,726 L273,634 Q287,622 287,605 Q287,586 275.5,574.5 Q264,563 249,563 Q233,563 222,573"/> 
            <glyph glyph-name="ï" unicode="&#xEF;" horiz-adv-x="288" d=" M181,461 L181,38 Q181,19 167,4.5 Q153,-10 133,-10 Q114,-10 100,4.5 Q86,19 86,38 L86,461 Q86,480 100,494.5 Q114,509 133,509 Q153,509 167,494.5 Q181,480 181,461 M-21,647 Q-21,670 -4,687 Q13,704 36,704 Q59,704 76,687 Q93,670 93,647 Q93,623 76,606.5 Q59,590 36,590 Q13,590 -4,606.5 Q-21,623 -21,647 M174,647 Q174,670 191,687 Q208,704 231,704 Q255,704 271.5,687 Q288,670 288,647 Q288,623 271.5,606.5 Q255,590 231,590 Q208,590 191,606.5 Q174,623 174,647"/> 
            <glyph glyph-name="ð" unicode="&#xF0;" horiz-adv-x="544" d=" M282,624 Q257,641 222,649 Q187,657 169.5,665.5 Q152,674 152,698 Q152,717 164,728.5 Q176,740 196,740 Q232,740 275,724 Q318,708 348,687 L406,743 Q415,752 433,752 Q448,752 459.5,742 Q471,732 471,712 Q471,697 460,686 L409,636 Q544,506 544,282 Q544,206 521.5,147.5 Q499,89 461.5,56 Q424,23 381,6.5 Q338,-10 293,-10 Q186,-10 115.5,60 Q45,130 45,235 Q45,338 114.5,408 Q184,478 285,478 Q376,478 438,417 Q415,514 345,575 L294,525 Q283,514 264,514 Q250,514 238.5,523.5 Q227,533 227,552 Q227,570 239,583 M451,235 Q451,303 406,349.5 Q361,396 293,396 Q223,396 177,349 Q131,302 131,235 Q131,165 177,118 Q223,71 293,71 Q361,71 406,119.5 Q451,168 451,235"/> 
            <glyph glyph-name="ñ" unicode="&#xF1;" horiz-adv-x="573" d=" M477,38 L477,260 Q477,334 430.5,380 Q384,426 319,426 Q254,426 207.5,380 Q161,334 161,260 L161,38 Q161,19 146.5,4.5 Q132,-10 113,-10 Q94,-10 79.5,4.5 Q65,19 65,38 L65,253 Q65,362 139,436 Q213,510 319,510 Q425,510 499,435.5 Q573,361 573,253 L573,38 Q573,19 558,4.5 Q543,-10 524,-10 Q505,-10 491,4.5 Q477,19 477,38 M261,708 Q295,708 334,681.5 Q373,655 380,655 Q399,655 408,679 Q420,708 444,708 Q459,708 469.5,698 Q480,688 480,672 Q480,641 454,612.5 Q428,584 378,584 Q344,584 305,610.5 Q266,637 259,637 Q241,637 231,613 Q219,584 195,584 Q180,584 169.5,594 Q159,604 159,620 Q159,651 185,679.5 Q211,708 261,708"/> 
            <glyph glyph-name="ò" unicode="&#xF2;" horiz-adv-x="568" d=" M568,359 Q568,143 491.5,66.5 Q415,-10 306,-10 Q196,-10 120.5,66 Q45,142 45,251 Q45,360 120.5,435 Q196,510 306,510 Q415,510 568,359 M478,179 Q478,323 428,375 Q378,427 306,427 Q234,427 183.5,375 Q133,323 133,251 Q133,178 183,125 Q233,72 306,72 Q378,72 478,179 M276,575 L179,664 Q165,676 165,694 Q165,713 179,726.5 Q193,740 211,740 Q227,740 239,728 L337,639 Q350,627 350,608 Q350,590 336.5,577 Q323,564 304,564 Q287,564 276,575"/> 
            <glyph glyph-name="ó" unicode="&#xF3;" horiz-adv-x="568" d=" M568,359 Q568,143 491.5,66.5 Q415,-10 306,-10 Q196,-10 120.5,66 Q45,142 45,251 Q45,360 120.5,435 Q196,510 306,510 Q415,510 568,359 M478,179 Q478,323 428,375 Q378,427 306,427 Q234,427 183.5,375 Q133,323 133,251 Q133,178 183,125 Q233,72 306,72 Q378,72 478,179 M431,664 L334,575 Q323,564 306,564 Q287,564 273.5,577 Q260,590 260,608 Q260,627 273,639 L371,728 Q383,740 399,740 Q417,740 431,726.5 Q445,713 445,694 Q445,676 431,664"/> 
            <glyph glyph-name="ô" unicode="&#xF4;" horiz-adv-x="568" d=" M568,359 Q568,143 491.5,66.5 Q415,-10 306,-10 Q196,-10 120.5,66 Q45,142 45,251 Q45,360 120.5,435 Q196,510 306,510 Q415,510 568,359 M478,179 Q478,323 428,375 Q378,427 306,427 Q234,427 183.5,375 Q133,323 133,251 Q133,178 183,125 Q233,72 306,72 Q378,72 478,179 M395,573 L307,655 L216,574 Q204,563 193,563 Q176,563 164,574.5 Q152,586 152,605 Q152,621 166,634 L268,726 Q282,740 306,740 Q328,740 344,726 L446,634 Q460,622 460,605 Q460,586 448.5,574.5 Q437,563 422,563 Q406,563 395,573"/> 
            <glyph glyph-name="õ" unicode="&#xF5;" horiz-adv-x="568" d=" M568,359 Q568,143 491.5,66.5 Q415,-10 306,-10 Q196,-10 120.5,66 Q45,142 45,251 Q45,360 120.5,435 Q196,510 306,510 Q415,510 568,359 M478,179 Q478,323 428,375 Q378,427 306,427 Q234,427 183.5,375 Q133,323 133,251 Q133,178 183,125 Q233,72 306,72 Q378,72 478,179 M248,708 Q282,708 321,681.5 Q360,655 367,655 Q386,655 395,679 Q407,708 431,708 Q446,708 456.5,698 Q467,688 467,672 Q467,641 441,612.5 Q415,584 365,584 Q331,584 292,610.5 Q253,637 246,637 Q228,637 218,613 Q206,584 182,584 Q167,584 156.5,594 Q146,604 146,620 Q146,651 172,679.5 Q198,708 248,708"/> 
            <glyph glyph-name="ö" unicode="&#xF6;" horiz-adv-x="568" d=" M568,359 Q568,143 491.5,66.5 Q415,-10 306,-10 Q196,-10 120.5,66 Q45,142 45,251 Q45,360 120.5,435 Q196,510 306,510 Q415,510 568,359 M478,179 Q478,323 428,375 Q378,427 306,427 Q234,427 183.5,375 Q133,323 133,251 Q133,178 183,125 Q233,72 306,72 Q378,72 478,179 M153,647 Q153,670 170,687 Q187,704 210,704 Q233,704 250,687 Q267,670 267,647 Q267,623 250,606.5 Q233,590 210,590 Q187,590 170,606.5 Q153,623 153,647 M348,647 Q348,670 365,687 Q382,704 405,704 Q429,704 445.5,687 Q462,670 462,647 Q462,623 445.5,606.5 Q429,590 405,590 Q382,590 365,606.5 Q348,623 348,647"/> 
            <glyph glyph-name="÷" unicode="&#xF7;" horiz-adv-x="529" d=" M230,37 Q230,89 248.5,107.5 Q267,126 293,126 Q319,126 337.5,107.5 Q356,89 356,63 Q356,37 337.5,18.5 Q319,0 293,0 Q267,0 230,37 M230,411 Q230,463 248.5,481.5 Q267,500 293,500 Q319,500 337.5,481.5 Q356,463 356,437 Q356,411 337.5,392.5 Q319,374 293,374 Q267,374 230,411 M489,209 L101,209 Q84,209 72,221 Q60,233 60,250 Q60,267 72,279 Q84,291 101,291 L489,291 Q505,291 517,279 Q529,267 529,250 Q529,233 517.5,221 Q506,209 489,209"/> 
            <glyph glyph-name="ø" unicode="&#xF8;" horiz-adv-x="568" d=" M568,251 Q568,143 491.5,66.5 Q415,-10 306,-10 Q241,-10 187,18 L173,-2 Q159,-23 138,-23 Q124,-23 113.5,-12 Q103,-1 103,12 Q103,19 108,29 L128,58 Q45,133 45,251 Q45,360 120.5,435 Q196,510 306,510 Q367,510 423,483 L439,506 Q450,526 473,526 Q487,526 497.5,515 Q508,504 508,490 Q508,484 502,474 L481,444 Q568,365 568,251 M478,251 Q478,319 431,371 L235,87 Q266,72 306,72 Q378,72 428,125.5 Q478,179 478,251 M133,251 Q133,183 178,130 L374,413 Q341,427 306,427 Q234,427 183.5,375 Q133,323 133,251"/> 
            <glyph glyph-name="ù" unicode="&#xF9;" horiz-adv-x="568" d=" M156,462 L156,240 Q156,166 202.5,120 Q249,74 314,74 Q379,74 425.5,120 Q472,166 472,240 L472,462 Q472,481 486.5,495.5 Q501,510 520,510 Q539,510 553.5,495.5 Q568,481 568,462 L568,247 Q568,138 494,64 Q420,-10 314,-10 Q208,-10 134,64.5 Q60,139 60,247 L60,462 Q60,481 75,495.5 Q90,510 109,510 Q128,510 142,495.5 Q156,481 156,462 M289,575 L192,664 Q178,676 178,694 Q178,713 192,726.5 Q206,740 224,740 Q240,740 252,728 L350,639 Q363,627 363,608 Q363,590 349.5,577 Q336,564 317,564 Q300,564 289,575"/> 
            <glyph glyph-name="ú" unicode="&#xFA;" horiz-adv-x="568" d=" M156,462 L156,240 Q156,166 202.5,120 Q249,74 314,74 Q379,74 425.5,120 Q472,166 472,240 L472,462 Q472,481 486.5,495.5 Q501,510 520,510 Q539,510 553.5,495.5 Q568,481 568,462 L568,247 Q568,138 494,64 Q420,-10 314,-10 Q208,-10 134,64.5 Q60,139 60,247 L60,462 Q60,481 75,495.5 Q90,510 109,510 Q128,510 142,495.5 Q156,481 156,462 M432,664 L335,575 Q324,564 307,564 Q288,564 274.5,577 Q261,590 261,608 Q261,627 274,639 L372,728 Q384,740 400,740 Q418,740 432,726.5 Q446,713 446,694 Q446,676 432,664"/> 
            <glyph glyph-name="û" unicode="&#xFB;" horiz-adv-x="568" d=" M156,462 L156,240 Q156,166 202.5,120 Q249,74 314,74 Q379,74 425.5,120 Q472,166 472,240 L472,462 Q472,481 486.5,495.5 Q501,510 520,510 Q539,510 553.5,495.5 Q568,481 568,462 L568,247 Q568,138 494,64 Q420,-10 314,-10 Q208,-10 134,64.5 Q60,139 60,247 L60,462 Q60,481 75,495.5 Q90,510 109,510 Q128,510 142,495.5 Q156,481 156,462 M403,573 L315,655 L224,574 Q212,563 201,563 Q184,563 172,574.5 Q160,586 160,605 Q160,621 174,634 L276,726 Q290,740 314,740 Q336,740 352,726 L454,634 Q468,622 468,605 Q468,586 456.5,574.5 Q445,563 430,563 Q414,563 403,573"/> 
            <glyph glyph-name="ü" unicode="&#xFC;" horiz-adv-x="568" d=" M156,462 L156,240 Q156,166 202.5,120 Q249,74 314,74 Q379,74 425.5,120 Q472,166 472,240 L472,462 Q472,481 486.5,495.5 Q501,510 520,510 Q539,510 553.5,495.5 Q568,481 568,462 L568,247 Q568,138 494,64 Q420,-10 314,-10 Q208,-10 134,64.5 Q60,139 60,247 L60,462 Q60,481 75,495.5 Q90,510 109,510 Q128,510 142,495.5 Q156,481 156,462 M162,647 Q162,670 179,687 Q196,704 219,704 Q242,704 259,687 Q276,670 276,647 Q276,623 259,606.5 Q242,590 219,590 Q196,590 179,606.5 Q162,623 162,647 M357,647 Q357,670 374,687 Q391,704 414,704 Q438,704 454.5,687 Q471,670 471,647 Q471,623 454.5,606.5 Q438,590 414,590 Q391,590 374,606.5 Q357,623 357,647"/> 
            <glyph glyph-name="ý" unicode="&#xFD;" horiz-adv-x="527" d=" M518,432 L279,-198 Q274,-211 260,-220.5 Q246,-230 234,-230 Q215,-230 201,-216 Q187,-202 187,-182 Q187,-174 194,-155 L260,20 Q198,20 181,61 L18,446 Q15,452 15,462 Q15,482 28.5,496 Q42,510 64,510 Q93,510 107,478 L279,66 L433,478 Q445,510 479,510 Q499,510 513,496 Q527,482 527,461 Q527,454 518,432 M395,664 L298,575 Q287,564 270,564 Q251,564 237.5,577 Q224,590 224,608 Q224,627 237,639 L335,728 Q347,740 363,740 Q381,740 395,726.5 Q409,713 409,694 Q409,676 395,664"/> 
            <glyph glyph-name="þ" unicode="&#xFE;" horiz-adv-x="582" d=" M70,-182 L70,662 Q70,682 84,696 Q98,710 118,710 Q138,710 152,696 Q166,682 166,662 L166,436 Q232,510 335,510 Q437,510 509.5,434 Q582,358 582,249 Q582,141 509,65.5 Q436,-10 335,-10 Q232,-10 166,64 L166,-182 Q166,-202 151.5,-216 Q137,-230 118,-230 Q98,-230 84,-216 Q70,-202 70,-182 M159,254 L159,242 Q159,170 205,121.5 Q251,73 322,73 Q395,73 443.5,124.5 Q492,176 492,249 Q492,323 443.5,375.5 Q395,428 322,428 Q250,428 204.5,378 Q159,328 159,254"/> 
            <glyph glyph-name="ÿ" unicode="&#xFF;" horiz-adv-x="527" d=" M518,432 L279,-198 Q274,-211 260,-220.5 Q246,-230 234,-230 Q215,-230 201,-216 Q187,-202 187,-182 Q187,-174 194,-155 L260,20 Q198,20 181,61 L18,446 Q15,452 15,462 Q15,482 28.5,496 Q42,510 64,510 Q93,510 107,478 L279,66 L433,478 Q445,510 479,510 Q499,510 513,496 Q527,482 527,461 Q527,454 518,432 M125,647 Q125,670 142,687 Q159,704 182,704 Q205,704 222,687 Q239,670 239,647 Q239,623 222,606.5 Q205,590 182,590 Q159,590 142,606.5 Q125,623 125,647 M320,647 Q320,670 337,687 Q354,704 377,704 Q401,704 417.5,687 Q434,670 434,647 Q434,623 417.5,606.5 Q401,590 377,590 Q354,590 337,606.5 Q320,623 320,647"/> 
            <glyph glyph-name="Ā" unicode="&#x100;" horiz-adv-x="672" d=" M577,29 L517,192 L190,192 L131,31 Q116,-10 82,-10 Q62,-10 48.5,5 Q35,20 35,39 Q35,50 42,69 L258,661 Q264,677 277,688.5 Q290,700 304,700 L401,700 Q437,700 449,663 L665,69 Q672,49 672,38 Q672,19 658.5,4.5 Q645,-10 625,-10 Q591,-10 577,29 M345,614 L221,277 L486,277 L363,614 M484,844 Q484,826 471.5,814 Q459,802 441,802 L264,802 Q246,802 234,814 Q222,826 222,844 Q222,861 234,872.5 Q246,884 264,884 L441,884 Q458,884 471,872 Q484,860 484,844"/> 
            <glyph glyph-name="ā" unicode="&#x101;" horiz-adv-x="557" d=" M557,462 L557,38 Q557,18 542.5,4 Q528,-10 509,-10 Q490,-10 475.5,4 Q461,18 461,38 L461,64 Q395,-10 292,-10 Q190,-10 117.5,66 Q45,142 45,251 Q45,359 118,434.5 Q191,510 292,510 Q395,510 461,436 L461,462 Q461,482 475.5,496 Q490,510 509,510 Q529,510 543,496 Q557,482 557,462 M468,246 L468,258 Q468,330 422,378.5 Q376,427 305,427 Q232,427 183.5,375.5 Q135,324 135,251 Q135,177 183.5,124.5 Q232,72 305,72 Q377,72 422.5,122 Q468,172 468,246 M440,644 Q440,626 427.5,614 Q415,602 397,602 L220,602 Q202,602 190,614 Q178,626 178,644 Q178,661 190,672.5 Q202,684 220,684 L397,684 Q414,684 427,672 Q440,660 440,644"/> 
            <glyph glyph-name="Ă" unicode="&#x102;" horiz-adv-x="672" d=" M577,29 L517,192 L190,192 L131,31 Q116,-10 82,-10 Q62,-10 48.5,5 Q35,20 35,39 Q35,50 42,69 L258,661 Q264,677 277,688.5 Q290,700 304,700 L401,700 Q437,700 449,663 L665,69 Q672,49 672,38 Q672,19 658.5,4.5 Q645,-10 625,-10 Q591,-10 577,29 M345,614 L221,277 L486,277 L363,614 M417,899 Q417,915 430,927 Q443,939 460,939 Q477,939 488,927.5 Q499,916 499,899 Q499,844 455,806 Q411,768 353,768 Q295,768 251,806 Q207,844 207,899 Q207,916 218.5,927.5 Q230,939 246,939 Q264,939 276,927.5 Q288,916 288,899 Q288,878 305,859 Q322,840 353,840 Q383,840 400,859 Q417,878 417,899"/> 
            <glyph glyph-name="ă" unicode="&#x103;" horiz-adv-x="557" d=" M557,462 L557,38 Q557,18 542.5,4 Q528,-10 509,-10 Q490,-10 475.5,4 Q461,18 461,38 L461,64 Q395,-10 292,-10 Q190,-10 117.5,66 Q45,142 45,251 Q45,359 118,434.5 Q191,510 292,510 Q395,510 461,436 L461,462 Q461,482 475.5,496 Q490,510 509,510 Q529,510 543,496 Q557,482 557,462 M468,246 L468,258 Q468,330 422,378.5 Q376,427 305,427 Q232,427 183.5,375.5 Q135,324 135,251 Q135,177 183.5,124.5 Q232,72 305,72 Q377,72 422.5,122 Q468,172 468,246 M380,699 Q380,715 393,727 Q406,739 423,739 Q440,739 451,727.5 Q462,716 462,699 Q462,644 418,606 Q374,568 316,568 Q258,568 214,606 Q170,644 170,699 Q170,716 181.5,727.5 Q193,739 209,739 Q227,739 239,727.5 Q251,716 251,699 Q251,678 268,659 Q285,640 316,640 Q346,640 363,659 Q380,678 380,699"/> 
            <glyph glyph-name="Ą" unicode="&#x104;" horiz-adv-x="675" d=" M577,29 L517,192 L190,192 L131,31 Q116,-10 82,-10 Q62,-10 48.5,5 Q35,20 35,39 Q35,50 42,69 L258,661 Q264,677 277,688.5 Q290,700 304,700 L401,700 Q437,700 449,663 L665,69 Q672,49 672,38 Q672,12 647,-4 Q621,-21 586.5,-58 Q552,-95 552,-121 Q552,-135 561.5,-144.5 Q571,-154 587,-154 Q594,-154 610,-147 Q626,-140 637,-140 Q654,-140 664.5,-150 Q675,-160 675,-177 Q675,-202 647.5,-216 Q620,-230 577,-230 Q519,-230 490,-203 Q461,-176 461,-140 Q461,-114 477.5,-87 Q494,-60 518.5,-39.5 Q543,-19 559.5,-8 Q576,3 587,9 Q580,18 577,29 M345,614 L221,277 L486,277 L363,614"/> 
            </font>
</defs>
</svg>
