<?xml version="1.0" standalone="no"?>
<!DOCTYPE svg PUBLIC "-//W3C//DTD SVG 1.1//EN" "http://www.w3.org/Graphics/SVG/1.1/DTD/svg11.dtd" >
<svg xmlns="http://www.w3.org/2000/svg">
    <defs>
        <font id="UltimaProLt-Italic">
            <font-face font-family="UltimaProLt-Italic"
                       units-per-em="1000"
                       ascent="750"
                       descent="-250"
                       bbox="-131 -260 1371 923"
                    />
            <missing-glyph horiz-adv-x="0" />
            
            <glyph glyph-name="!" unicode="&#x21;" horiz-adv-x="258" d=" M54,42 Q58,62 74.5,75.5 Q91,89 110,89 Q130,89 141,75 Q152,61 148,42 Q144,22 127.5,8.5 Q111,-5 92,-5 Q72,-5 61,9 Q50,23 54,42 M192,674 Q195,686 206,695.5 Q217,705 230,705 Q243,705 250.5,695.5 Q258,686 255,674 L168,226 Q166,214 154.5,204 Q143,194 130,194 Q118,194 110.5,204 Q103,214 105,226"/> 
            <glyph glyph-name="&quot;" unicode="&#x22;" horiz-adv-x="466" d=" M266,705 Q278,705 285.5,698 Q293,691 293,679 Q293,667 285,657 L144,476 Q132,461 115,461 Q103,461 95,468 Q87,475 87,485 Q87,496 95,506 L235,689 Q247,705 266,705 M439,705 Q451,705 458.5,698 Q466,691 466,679 Q466,667 458,657 L317,476 Q305,461 288,461 Q276,461 268,468 Q260,475 260,485 Q260,496 268,506 L408,689 Q420,705 439,705"/> 
            <glyph glyph-name="#" unicode="&#x23;" horiz-adv-x="636" d=" M135,484 L236,484 L298,669 Q307,694 333,694 Q358,694 358,671 Q358,667 350,644 L295,484 L463,484 L526,669 Q535,694 561,694 Q583,694 583,672 Q583,663 576,644 L519,484 L615,484 Q624,484 630,478 Q636,472 636,464 Q636,451 626,442 Q616,433 605,433 L503,433 L444,253 L538,253 Q547,253 553.5,246.5 Q560,240 560,231 Q560,219 550,210.5 Q540,202 528,202 L426,202 L365,20 Q361,10 351,2.5 Q341,-5 331,-5 Q320,-5 313.5,1.5 Q307,8 307,17 Q307,21 313,39 L368,202 L200,202 L140,20 Q137,10 126.5,2.5 Q116,-5 105,-5 Q94,-5 87,1.5 Q80,8 80,18 Q80,22 86,39 L140,202 L48,202 Q39,202 32.5,207.5 Q26,213 26,222 Q26,234 36,243.5 Q46,253 58,253 L158,253 L217,433 L125,433 Q101,433 101,454 Q101,465 111,474.5 Q121,484 135,484 M278,433 L219,253 L386,253 L446,433"/> 
            <glyph glyph-name="$" unicode="&#x24;" horiz-adv-x="585" d=" M438,765 L426,700 L557,700 Q585,700 585,679 Q585,665 573.5,656.5 Q562,648 547,648 L352,648 Q288,648 245,605 Q202,562 202,509 Q202,474 226,448 Q250,422 285.5,408 Q321,394 363,376.5 Q405,359 440.5,342 Q476,325 500,292 Q524,259 524,214 Q524,127 459,63.5 Q394,0 297,0 L290,0 L276,-71 Q274,-81 264.5,-89 Q255,-97 244,-97 Q235,-97 228.5,-91 Q222,-85 222,-76 Q222,-73 224,-65 L237,0 L79,0 Q50,0 50,21 Q50,35 61.5,43.5 Q73,52 89,52 L307,52 Q370,52 416,96.5 Q462,141 462,203 Q462,245 429,273.5 Q396,302 349.5,319 Q303,336 256.5,354.5 Q210,373 177,407.5 Q144,442 144,492 Q144,584 208,642 Q272,700 362,700 L373,700 L386,771 Q388,780 397.5,787.5 Q407,795 417,795 Q426,795 432.5,789 Q439,783 439,775 Q439,770 438,765"/> 
            <glyph glyph-name="%" unicode="&#x25;" horiz-adv-x="681" d=" M103,37 L638,692 Q649,705 663,705 Q681,705 681,687 Q681,676 669,662 L135,9 Q123,-5 110,-5 Q102,-5 96,0.5 Q90,6 90,13 Q90,21 103,37 M359,111 Q359,176 407,224 Q455,272 524,272 Q574,272 607.5,238.5 Q641,205 641,157 Q641,91 592,43 Q543,-5 477,-5 Q426,-5 392.5,28.5 Q359,62 359,111 M519,231 Q475,231 437.5,196 Q400,161 400,115 Q400,81 422.5,58.5 Q445,36 481,36 Q526,36 562.5,71.5 Q599,107 599,152 Q599,186 576,208.5 Q553,231 519,231 M132,543 Q132,608 180,656.5 Q228,705 297,705 Q348,705 381.5,672 Q415,639 415,591 Q415,525 365.5,477 Q316,429 249,429 Q199,429 165.5,462 Q132,495 132,543 M292,665 Q247,665 210.5,629.5 Q174,594 174,548 Q174,514 196.5,491.5 Q219,469 254,469 Q299,469 336,504 Q373,539 373,585 Q373,619 350.5,642 Q328,665 292,665"/> 
            <glyph glyph-name="&amp;" unicode="&#x26;" horiz-adv-x="679" d=" M560,238 L521,238 Q498,119 424,57 Q350,-5 247,-5 Q162,-5 108,48.5 Q54,102 54,181 Q54,226 70.5,265 Q87,304 111,328 Q135,352 159,370 Q183,388 200,396 L216,403 Q210,407 201.5,415 Q193,423 178.5,450.5 Q164,478 164,510 Q164,592 228,648.5 Q292,705 378,705 Q450,705 491,671 Q532,637 532,611 Q532,599 524,591.5 Q516,584 504,584 Q489,584 481,598 Q443,655 376,655 Q317,655 269,615.5 Q221,576 221,515 Q221,478 240.5,452 Q260,426 300,421 Q321,418 321,401 Q321,375 287,372 Q219,367 166,313 Q113,259 113,186 Q113,127 150.5,85.5 Q188,44 255,44 Q329,44 386.5,92.5 Q444,141 463,238 L399,238 Q389,238 383,244 Q377,250 377,258 Q377,270 386.5,279 Q396,288 408,288 L564,288 Q631,288 631,342 Q631,344 629.5,351.5 Q628,359 628,362 Q628,369 633.5,375.5 Q639,382 647,382 Q679,382 679,335 Q679,290 645.5,264 Q612,238 560,238"/> 
            <glyph glyph-name="'" unicode="&#x27;" horiz-adv-x="293" d=" M266,705 Q278,705 285.5,698 Q293,691 293,679 Q293,667 285,657 L144,476 Q132,461 115,461 Q103,461 95,468 Q87,475 87,485 Q87,496 95,506 L235,689 Q247,705 266,705"/> 
            <glyph glyph-name="(" unicode="&#x28;" horiz-adv-x="358" d=" M199,-109 Q199,-122 189.5,-132.5 Q180,-143 166,-143 Q149,-143 144,-129 Q92,-1 92,142 Q92,292 147,439.5 Q202,587 303,712 Q314,727 332,727 Q342,727 350,720.5 Q358,714 358,704 Q358,693 350,682 Q261,564 208.5,428.5 Q156,293 156,158 Q156,21 198,-99 Q199,-102 199,-109"/> 
            <glyph glyph-name=")" unicode="&#x29;" horiz-adv-x="263" d=" M156,693 Q156,706 165.5,716.5 Q175,727 189,727 Q206,727 211,713 Q263,585 263,442 Q263,292 208,144.5 Q153,-3 52,-128 Q41,-143 23,-143 Q13,-143 5,-136.5 Q-3,-130 -3,-120 Q-3,-109 5,-98 Q94,20 146.5,155.5 Q199,291 199,426 Q199,563 157,683 Q156,686 156,693"/> 
            <glyph glyph-name="*" unicode="&#x2A;" horiz-adv-x="453" d=" M149,596 L253,560 L276,680 Q278,690 286.5,697.5 Q295,705 307,705 Q327,705 327,686 Q327,682 326,676 L304,560 L426,597 Q427,597 429.5,597.5 Q432,598 433,598 Q441,598 447,592 Q453,586 453,576 Q453,556 433,549 L309,512 L360,415 Q363,409 363,402 Q363,390 355,381.5 Q347,373 336,373 Q322,373 315,385 L264,483 L174,385 Q166,375 152,375 Q142,375 135.5,381 Q129,387 129,395 Q129,406 138,415 L228,513 L125,550 Q109,556 109,570 Q109,583 117.5,590.5 Q126,598 137,598 Q143,598 149,596"/> 
            <glyph glyph-name="+" unicode="&#x2B;" horiz-adv-x="526" d=" M367,443 L335,276 L505,276 Q526,276 526,254 Q526,242 517,234 Q508,226 495,226 L325,226 L292,56 Q287,30 262,30 Q241,30 241,49 Q241,54 243,64 L275,226 L105,226 Q95,226 89,232 Q83,238 83,247 Q83,259 92.5,267.5 Q102,276 116,276 L285,276 L318,448 Q320,458 328.5,465 Q337,472 347,472 Q368,472 368,453 Q368,447 367,443"/> 
            <glyph glyph-name="," unicode="&#x2C;" horiz-adv-x="161" d=" M61,34 Q61,55 77.5,71.5 Q94,88 117,88 Q134,88 147.5,75.5 Q161,63 161,34 Q161,-33 121.5,-78.5 Q82,-124 50,-124 Q30,-124 30,-108 Q30,-91 52,-79 Q77,-65 85.5,-51 Q94,-37 100,-7 Q81,-6 71,6.5 Q61,19 61,34"/> 
            <glyph glyph-name="-" unicode="&#x2D;" horiz-adv-x="368" d=" M339,227 L104,227 Q82,227 82,247 Q82,258 91.5,267.5 Q101,277 114,277 L349,277 Q357,277 362.5,271 Q368,265 368,257 Q368,245 359,236 Q350,227 339,227"/> 
            <glyph glyph-name="." unicode="&#x2E;" horiz-adv-x="159" d=" M63,35 Q63,57 79,73 Q95,89 118,89 Q136,89 147.5,77.5 Q159,66 159,48 Q159,27 142.5,11 Q126,-5 103,-5 Q86,-5 74.5,6.5 Q63,18 63,35"/> 
            <glyph glyph-name="/" unicode="&#x2F;" horiz-adv-x="399" d=" M393,660 L25,14 Q14,-5 -6,-5 Q-17,-5 -24,1.5 Q-31,8 -31,18 Q-31,27 -25,37 L341,683 Q354,705 375,705 Q386,705 392.5,698 Q399,691 399,682 Q399,670 393,660"/> 
            <glyph glyph-name="0" unicode="&#x30;" horiz-adv-x="600" d=" M275,-5 Q181,-5 124,48.5 Q67,102 67,186 Q67,210 71,230 L118,470 Q139,576 212,640.5 Q285,705 392,705 Q487,705 543.5,651.5 Q600,598 600,515 Q600,490 596,470 L549,230 Q528,123 455,59 Q382,-5 275,-5 M176,467 L129,227 Q125,211 125,190 Q125,125 166.5,84 Q208,43 281,43 Q360,43 417.5,95 Q475,147 492,236 L538,470 Q542,494 542,509 Q542,574 500.5,615.5 Q459,657 386,657 Q307,657 250,604.5 Q193,552 176,467"/> 
            <glyph glyph-name="1" unicode="&#x31;" horiz-adv-x="531" d=" M502,0 L61,0 Q40,0 40,22 Q40,33 49.5,41.5 Q59,50 71,50 L269,50 L386,652 L262,652 Q241,652 241,672 Q241,684 250.5,692 Q260,700 272,700 L426,700 Q436,700 442.5,693 Q449,686 449,676 Q449,670 448,665 L328,50 L512,50 Q520,50 525.5,43.5 Q531,37 531,29 Q531,17 522,8.5 Q513,0 502,0"/> 
            <glyph glyph-name="2" unicode="&#x32;" horiz-adv-x="566" d=" M90,82 L397,355 Q420,375 433,388 Q446,401 466.5,426 Q487,451 497.5,479.5 Q508,508 508,539 Q508,589 474.5,623.5 Q441,658 386,658 Q325,658 276.5,614 Q228,570 214,518 Q212,509 202.5,502 Q193,495 183,495 Q173,495 166.5,501.5 Q160,508 160,517 Q160,533 175,562.5 Q190,592 217,624.5 Q244,657 292.5,681 Q341,705 398,705 Q477,705 521.5,657.5 Q566,610 566,543 Q566,438 449,336 L126,50 L481,50 Q503,50 503,30 Q503,18 493.5,9 Q484,0 471,0 L103,0 Q84,0 73.5,10 Q63,20 63,35 Q63,58 90,82"/> 
            <glyph glyph-name="3" unicode="&#x33;" horiz-adv-x="547" d=" M378,705 Q457,705 502,659.5 Q547,614 547,549 Q547,515 533.5,484 Q520,453 501,433 Q482,413 462.5,398.5 Q443,384 430,378 L416,371 Q420,369 427,366 Q434,363 451.5,350 Q469,337 482.5,321 Q496,305 507,277.5 Q518,250 518,218 Q518,129 442.5,62 Q367,-5 261,-5 Q163,-5 112,44.5 Q61,94 61,144 Q61,180 89,180 Q99,180 105.5,173.5 Q112,167 113,158 Q120,111 158,77.5 Q196,44 265,44 Q338,44 398,93.5 Q458,143 458,219 Q458,274 417,308 Q376,342 317,342 Q291,342 291,363 Q291,375 300.5,383 Q310,391 323,391 Q384,391 436,437.5 Q488,484 488,548 Q488,594 455.5,626 Q423,658 374,658 Q317,658 275,627 Q233,596 213,556 Q205,539 185,539 Q164,539 164,561 Q164,597 225.5,651 Q287,705 378,705"/> 
            <glyph glyph-name="4" unicode="&#x34;" horiz-adv-x="558" d=" M530,186 L451,186 L419,24 Q418,13 407,4 Q396,-5 384,-5 Q374,-5 367,2 Q360,9 360,20 Q360,24 362,34 L392,186 L92,186 Q74,186 63,196 Q52,206 52,221 Q52,243 74,267 L436,681 Q453,700 470,700 L522,700 Q532,700 539,693.5 Q546,687 546,678 Q546,673 544,663 L460,233 L539,233 Q547,233 552.5,227.5 Q558,222 558,214 Q558,203 549.5,194.5 Q541,186 530,186 M109,233 L401,233 L483,653 L475,653"/> 
            <glyph glyph-name="5" unicode="&#x35;" horiz-adv-x="575" d=" M253,45 Q336,45 399.5,110 Q463,175 463,263 Q463,329 424,365 Q385,401 323,401 Q285,401 239,388 Q193,375 183,375 Q158,375 158,399 Q158,404 162,418 L240,667 Q252,700 277,700 L553,700 Q563,700 569,694 Q575,688 575,680 Q575,668 565.5,659 Q556,650 543,650 L292,650 L223,431 Q266,450 332,450 Q416,450 469,400.5 Q522,351 522,273 Q522,158 441,76.5 Q360,-5 244,-5 Q139,-5 82,57 Q74,65 74,77 Q74,90 82,99.5 Q90,109 104,109 Q118,109 129,96 Q173,45 253,45"/> 
            <glyph glyph-name="6" unicode="&#x36;" horiz-adv-x="548" d=" M273,-5 Q189,-5 135.5,46 Q82,97 82,188 Q82,217 88,250 Q105,336 145,413 Q185,490 232.5,541.5 Q280,593 331.5,631.5 Q383,670 425,687.5 Q467,705 494,705 Q518,705 518,684 Q518,660 490,653 Q404,629 322,559.5 Q240,490 191,389 Q263,452 361,452 Q448,452 498,398.5 Q548,345 548,269 Q548,160 467.5,77.5 Q387,-5 273,-5 M349,400 Q263,400 201,338 Q139,276 139,189 Q139,125 178.5,85 Q218,45 280,45 Q362,45 426,110.5 Q490,176 490,260 Q490,320 450.5,360 Q411,400 349,400"/> 
            <glyph glyph-name="7" unicode="&#x37;" horiz-adv-x="622" d=" M604,626 L212,16 Q197,-5 179,-5 Q155,-5 155,19 Q155,29 161,39 L555,650 L190,650 Q181,650 175.5,656 Q170,662 170,671 Q170,682 179,691 Q188,700 200,700 L590,700 Q606,700 614,691.5 Q622,683 622,671 Q622,653 604,626"/> 
            <glyph glyph-name="8" unicode="&#x38;" horiz-adv-x="568" d=" M332,343 Q253,343 191.5,293 Q130,243 130,166 Q130,114 168,79 Q206,44 276,44 Q365,44 420.5,98.5 Q476,153 476,223 Q476,278 435,310.5 Q394,343 332,343 M270,-5 Q178,-5 123.5,42.5 Q69,90 69,160 Q69,203 86,240.5 Q103,278 127,301.5 Q151,325 175,342.5 Q199,360 216,367 L233,374 Q226,378 215,386.5 Q204,395 186,426.5 Q168,458 168,496 Q168,573 233,639 Q298,705 401,705 Q478,705 523,661.5 Q568,618 568,558 Q568,521 555,488 Q542,455 524,435 Q506,415 487.5,400.5 Q469,386 456,380 L443,374 Q447,373 453,370 Q459,367 475.5,354.5 Q492,342 504.5,327 Q517,312 527,285.5 Q537,259 537,228 Q537,134 463,64.5 Q389,-5 270,-5 M391,658 Q327,658 275,612.5 Q223,567 223,499 Q223,452 256.5,422.5 Q290,393 342,393 Q408,393 459.5,439 Q511,485 511,551 Q511,600 476.5,629 Q442,658 391,658"/> 
            <glyph glyph-name="9" unicode="&#x39;" horiz-adv-x="584" d=" M393,705 Q477,705 530.5,654 Q584,603 584,512 Q584,483 578,450 Q561,364 521,287 Q481,210 433.5,158.5 Q386,107 334.5,68.5 Q283,30 241,12.5 Q199,-5 172,-5 Q148,-5 148,16 Q148,40 176,47 Q262,71 344,140.5 Q426,210 475,311 Q403,248 305,248 Q218,248 168,301.5 Q118,355 118,431 Q118,540 198.5,622.5 Q279,705 393,705 M317,300 Q403,300 465,362 Q527,424 527,511 Q527,575 487.5,615 Q448,655 386,655 Q304,655 240,589.5 Q176,524 176,440 Q176,380 215.5,340 Q255,300 317,300"/> 
            <glyph glyph-name=":" unicode="&#x3A;" horiz-adv-x="218" d=" M41,33 Q41,54 59,71.5 Q77,89 99,89 Q116,89 126.5,78.5 Q137,68 137,51 Q137,29 119.5,12 Q102,-5 80,-5 Q63,-5 52,5.5 Q41,16 41,33 M122,449 Q122,470 139.5,487.5 Q157,505 179,505 Q196,505 207,494.5 Q218,484 218,467 Q218,445 200.5,428 Q183,411 161,411 Q144,411 133,421.5 Q122,432 122,449"/> 
            <glyph glyph-name=";" unicode="&#x3B;" horiz-adv-x="225" d=" M129,449 Q129,470 146.5,487.5 Q164,505 186,505 Q203,505 214,494.5 Q225,484 225,467 Q225,445 207.5,428 Q190,411 168,411 Q151,411 140,421.5 Q129,432 129,449 M49,34 Q49,55 65.5,71.5 Q82,88 105,88 Q122,88 135.5,75.5 Q149,63 149,34 Q149,-33 109.5,-78.5 Q70,-124 38,-124 Q18,-124 18,-108 Q18,-91 40,-79 Q65,-65 73.5,-51 Q82,-37 88,-7 Q69,-6 59,6.5 Q49,19 49,34"/> 
            <glyph glyph-name="&lt;" unicode="&#x3C;" horiz-adv-x="565" d=" M545,430 L154,248 L474,68 Q485,62 485,49 Q485,36 475,27 Q465,18 454,18 Q447,18 439,22 L96,220 Q82,227 82,244 Q82,269 107,280 L530,479 Q536,482 544,482 Q553,482 559,475.5 Q565,469 565,459 Q565,439 545,430"/> 
            <glyph glyph-name="=" unicode="&#x3D;" horiz-adv-x="544" d=" M478,125 L86,125 Q63,125 63,146 Q63,157 72.5,166 Q82,175 94,175 L486,175 Q494,175 499.5,169 Q505,163 505,155 Q505,143 497,134 Q489,125 478,125 M515,325 L123,325 Q102,325 102,346 Q102,357 111.5,366 Q121,375 133,375 L525,375 Q533,375 538.5,369 Q544,363 544,355 Q544,343 535,334 Q526,325 515,325"/> 
            <glyph glyph-name="&gt;" unicode="&#x3E;" horiz-adv-x="525" d=" M455,251 L133,432 Q122,438 122,451 Q122,465 132,473.5 Q142,482 154,482 Q160,482 166,479 L513,280 Q525,274 525,255 Q525,232 500,220 L79,22 Q71,18 64,18 Q55,18 48.5,24.5 Q42,31 42,41 Q42,61 62,70"/> 
            <glyph glyph-name="?" unicode="&#x3F;" horiz-adv-x="495" d=" M341,705 Q409,705 452,664 Q495,623 495,563 Q495,518 474.5,480.5 Q454,443 423,415.5 Q392,388 360.5,362 Q329,336 302.5,301.5 Q276,267 269,229 Q266,215 255,204.5 Q244,194 230,194 Q218,194 211,202 Q204,210 204,222 L205,229 Q213,270 240,307 Q267,344 299,372 Q331,400 362,427 Q393,454 413.5,487 Q434,520 434,556 Q434,598 405,626.5 Q376,655 330,655 Q278,655 241,625 Q204,595 188,558 Q177,533 154,533 Q144,533 138.5,539.5 Q133,546 133,554 L134,561 Q146,610 203,657.5 Q260,705 341,705 M153,33 Q153,54 170.5,71.5 Q188,89 210,89 Q227,89 238,78.5 Q249,68 249,51 Q249,30 231.5,12.5 Q214,-5 192,-5 Q175,-5 164,5.5 Q153,16 153,33"/> 
            <glyph glyph-name="@" unicode="&#x40;" horiz-adv-x="940" d=" M631,80 L610,80 Q595,80 583.5,88 Q572,96 572,113 L576,139 Q569,132 555.5,121.5 Q542,111 500,93 Q458,75 417,75 Q355,75 319,109 Q283,143 283,201 Q283,304 366.5,388 Q450,472 553,472 Q591,472 624,454 Q657,436 670,401 L686,447 Q694,472 724,472 Q735,472 742,466.5 Q749,461 749,453 Q749,443 744,428 L640,126 Q740,131 814,208 Q888,285 888,398 Q888,514 799.5,583 Q711,652 592,652 Q476,652 370,591 Q264,530 197.5,424 Q131,318 131,197 Q131,63 216.5,-23.5 Q302,-110 444,-110 Q577,-110 699,-25 Q715,-14 726,-14 Q735,-14 741,-21.5 Q747,-29 747,-38 Q747,-53 731,-65 Q593,-161 434,-161 Q277,-161 177,-62 Q77,37 77,187 Q77,326 148.5,445 Q220,564 341,633.5 Q462,703 602,703 Q740,703 840,621.5 Q940,540 940,407 Q940,331 912,267 Q884,203 839,163.5 Q794,124 740,102 Q686,80 631,80 M546,421 Q473,421 408.5,356.5 Q344,292 344,209 Q344,169 367.5,146 Q391,123 432,123 Q510,123 578,186.5 Q646,250 646,324 Q646,370 619,395.5 Q592,421 546,421"/> 
            <glyph glyph-name="A" unicode="&#x41;" horiz-adv-x="609" d=" M497,676 L607,53 Q609,41 609,30 Q609,17 599,6 Q589,-5 575,-5 Q551,-5 547,21 L514,204 L169,204 L67,21 Q52,-5 29,-5 Q18,-5 11.5,2 Q5,9 5,19 Q5,31 16,49 L368,673 Q382,700 403,700 L472,700 Q482,700 489,693 Q496,686 497,676 M199,256 L506,256 L438,651 L420,651"/> 
            <glyph glyph-name="B" unicode="&#x42;" horiz-adv-x="621" d=" M208,700 L451,700 Q533,700 577,657.5 Q621,615 621,549 Q621,512 608.5,479 Q596,446 578,426 Q560,406 542.5,391.5 Q525,377 512,371 L500,365 Q503,364 509,361.5 Q515,359 529.5,348 Q544,337 555,323 Q566,309 575,283.5 Q584,258 584,228 Q584,131 514,65.5 Q444,0 323,0 L71,0 Q61,0 55,6.5 Q49,13 49,22 Q49,26 51,36 L175,671 Q177,683 186.5,691.5 Q196,700 208,700 M439,649 L231,649 L180,387 L395,387 Q463,387 512.5,432.5 Q562,478 562,548 Q562,596 530,622.5 Q498,649 439,649 M379,336 L170,336 L114,51 L323,51 Q410,51 467,98.5 Q524,146 524,225 Q524,277 485.5,306.5 Q447,336 379,336"/> 
            <glyph glyph-name="C" unicode="&#x43;" horiz-adv-x="681" d=" M574,53 Q478,-5 367,-5 Q240,-5 159,77 Q78,159 78,283 Q78,391 134.5,488 Q191,585 290,645 Q389,705 504,705 Q602,705 671,657 Q681,650 681,639 Q681,627 671.5,617.5 Q662,608 650,608 Q642,608 634,613 Q576,654 495,654 Q356,654 247.5,542.5 Q139,431 139,286 Q139,181 204,113.5 Q269,46 376,46 Q465,46 553,101 Q563,107 573,107 Q582,107 588.5,100 Q595,93 595,84 Q595,66 574,53"/> 
            <glyph glyph-name="D" unicode="&#x44;" horiz-adv-x="671" d=" M209,700 L390,700 Q519,700 595,622 Q671,544 671,414 Q671,308 620,213.5 Q569,119 473.5,59.5 Q378,0 261,0 L72,0 Q51,0 51,21 Q51,24 53,34 L177,672 Q179,684 188.5,692 Q198,700 209,700 M379,648 L232,648 L117,52 L262,52 Q410,52 510.5,160 Q611,268 611,415 Q611,521 549,584.5 Q487,648 379,648"/> 
            <glyph glyph-name="E" unicode="&#x45;" horiz-adv-x="641" d=" M115,52 L494,52 Q516,52 516,30 Q516,19 505.5,9.5 Q495,0 483,0 L73,0 Q63,0 56.5,6 Q50,12 50,21 Q50,28 52,38 L175,672 Q177,684 187.5,692 Q198,700 210,700 L620,700 Q641,700 641,679 Q641,667 632,657.5 Q623,648 609,648 L231,648 L180,388 L499,388 Q519,388 519,368 Q519,355 510,345.5 Q501,336 489,336 L170,336"/> 
            <glyph glyph-name="F" unicode="&#x46;" horiz-adv-x="613" d=" M209,700 L592,700 Q613,700 613,679 Q613,667 604,657.5 Q595,648 581,648 L231,648 L179,380 L476,380 Q497,380 497,358 Q497,347 487.5,337.5 Q478,328 466,328 L169,328 L110,25 Q108,13 97.5,4 Q87,-5 75,-5 Q64,-5 57,2 Q50,9 50,19 Q50,25 52,37 L175,672 Q177,684 187,692 Q197,700 209,700"/> 
            <glyph glyph-name="G" unicode="&#x47;" horiz-adv-x="710" d=" M78,281 Q78,390 133.5,487.5 Q189,585 288,645 Q387,705 504,705 Q628,705 702,630 Q710,622 710,612 Q710,600 701.5,591.5 Q693,583 682,583 Q668,583 650,599 Q584,654 495,654 Q354,654 246.5,542 Q139,430 139,285 Q139,180 203,113 Q267,46 375,46 Q441,46 504.5,68.5 Q568,91 590,113 L629,314 L422,314 Q396,314 396,337 Q396,349 406.5,358 Q417,367 432,367 L669,367 Q692,367 692,343 Q692,339 690,329 L647,104 Q645,90 627,75 Q597,49 528.5,22 Q460,-5 365,-5 Q238,-5 158,76.5 Q78,158 78,281"/> 
            <glyph glyph-name="H" unicode="&#x48;" horiz-adv-x="754" d=" M751,661 L627,24 Q625,12 614.5,3.5 Q604,-5 592,-5 Q566,-5 566,18 Q566,24 569,39 L627,335 L172,335 L111,24 Q109,12 98.5,3.5 Q88,-5 76,-5 Q50,-5 50,18 Q50,24 53,39 L177,676 Q179,688 189.5,696.5 Q200,705 212,705 Q238,705 238,682 Q238,676 235,661 L182,387 L637,387 L693,676 Q695,688 705.5,696.5 Q716,705 728,705 Q754,705 754,682 Q754,676 751,661"/> 
            <glyph glyph-name="I" unicode="&#x49;" horiz-adv-x="248" d=" M245,661 L121,24 Q119,12 108.5,3.5 Q98,-5 86,-5 Q60,-5 60,18 Q60,24 63,39 L187,676 Q189,688 199.5,696.5 Q210,705 222,705 Q248,705 248,682 Q248,676 245,661"/> 
            <glyph glyph-name="J" unicode="&#x4A;" horiz-adv-x="664" d=" M661,661 L583,264 Q559,143 478.5,69 Q398,-5 283,-5 Q174,-5 113.5,55.5 Q53,116 53,210 Q53,244 58,269 Q60,281 70,289.5 Q80,298 92,298 Q102,298 109,291 Q116,284 116,274 Q116,273 113.5,248.5 Q111,224 111,210 Q111,139 157.5,92.5 Q204,46 284,46 Q373,46 439.5,108.5 Q506,171 527,282 L603,676 Q605,688 615.5,696.5 Q626,705 638,705 Q664,705 664,682 Q664,676 661,661"/> 
            <glyph glyph-name="K" unicode="&#x4B;" horiz-adv-x="659" d=" M237,668 L174,345 L612,696 Q623,705 635,705 Q645,705 652,698 Q659,691 659,682 Q659,666 643,653 L303,380 L544,47 Q551,38 551,27 Q551,14 542.5,4.5 Q534,-5 520,-5 Q506,-5 497,8 L256,341 L159,265 L111,25 Q109,13 99,4 Q89,-5 77,-5 Q66,-5 58,2 Q50,9 50,19 Q50,26 53,38 L178,675 Q180,687 190.5,696 Q201,705 214,705 Q224,705 231,698 Q238,691 238,680 Q238,673 237,668"/> 
            <glyph glyph-name="L" unicode="&#x4C;" horiz-adv-x="481" d=" M54,47 L176,675 Q178,687 189,696 Q200,705 212,705 Q223,705 230,698 Q237,691 237,681 Q237,677 234,662 L115,52 L459,52 Q481,52 481,31 Q481,20 472,10 Q463,0 449,0 L76,0 Q50,0 50,24 Q50,29 54,47"/> 
            <glyph glyph-name="M" unicode="&#x4D;" horiz-adv-x="851" d=" M848,657 L725,27 Q723,13 712,4 Q701,-5 688,-5 Q664,-5 664,20 Q664,26 668,44 L784,640 L491,343 Q470,320 448,320 Q426,320 413,343 L230,640 L111,27 Q109,13 98.5,4 Q88,-5 75,-5 Q64,-5 57,2.5 Q50,10 50,21 Q50,25 53,40 L176,668 Q179,682 189,691 Q199,700 212,700 L249,700 Q265,700 277,679 L457,383 L747,679 Q768,700 783,700 L825,700 Q837,700 844,692.5 Q851,685 851,674 Q851,669 848,657"/> 
            <glyph glyph-name="N" unicode="&#x4E;" horiz-adv-x="774" d=" M553,18 L244,599 L229,636 L110,25 Q108,12 98.5,3.5 Q89,-5 76,-5 Q65,-5 57.5,2 Q50,9 50,20 Q50,26 52,36 L176,670 Q178,682 189,691 Q200,700 213,700 L244,700 Q261,700 270,683 L578,101 L593,64 L712,676 Q714,688 724,696.5 Q734,705 747,705 Q758,705 766,698 Q774,691 774,681 Q774,678 773,672 L647,31 Q645,19 633.5,9.5 Q622,0 609,0 L580,0 Q563,0 553,18"/> 
            <glyph glyph-name="O" unicode="&#x4F;" horiz-adv-x="789" d=" M75,282 Q75,389 129,485.5 Q183,582 282,643.5 Q381,705 500,705 Q626,705 707.5,622.5 Q789,540 789,417 Q789,311 735,214.5 Q681,118 582,56.5 Q483,-5 364,-5 Q237,-5 156,77.5 Q75,160 75,282 M492,654 Q351,654 243.5,542.5 Q136,431 136,286 Q136,181 200.5,113.5 Q265,46 373,46 Q513,46 620.5,157.5 Q728,269 728,413 Q728,518 663,586 Q598,654 492,654"/> 
            <glyph glyph-name="P" unicode="&#x50;" horiz-adv-x="616" d=" M176,670 Q178,682 188.5,691 Q199,700 212,700 L431,700 Q511,700 563.5,647.5 Q616,595 616,513 Q616,406 538,330 Q460,254 341,254 L155,254 L111,26 Q109,14 98.5,4.5 Q88,-5 75,-5 Q64,-5 57,2 Q50,9 50,20 Q50,26 52,34 M232,649 L165,305 L341,305 Q436,305 496.5,364.5 Q557,424 557,508 Q557,571 519,610 Q481,649 417,649"/> 
            <glyph glyph-name="Q" unicode="&#x51;" horiz-adv-x="789" d=" M343,-47 Q367,-47 392.5,-56.5 Q418,-66 449,-77.5 Q480,-89 549,-98.5 Q618,-108 707,-108 Q715,-108 720.5,-114 Q726,-120 726,-129 Q726,-160 664,-160 Q475,-160 339,-98 Q324,-91 324,-77 Q324,-65 343,-47 M75,282 Q75,389 129,485.5 Q183,582 282,643.5 Q381,705 500,705 Q626,705 707.5,622.5 Q789,540 789,417 Q789,311 735,214.5 Q681,118 582,56.5 Q483,-5 364,-5 Q237,-5 156,77.5 Q75,160 75,282 M492,654 Q351,654 243.5,542.5 Q136,431 136,286 Q136,181 200.5,113.5 Q265,46 373,46 Q513,46 620.5,157.5 Q728,269 728,413 Q728,518 663,586 Q598,654 492,654"/> 
            <glyph glyph-name="R" unicode="&#x52;" horiz-adv-x="621" d=" M398,269 L522,46 Q526,39 526,31 Q526,-5 495,-5 Q478,-5 472,6 L330,265 L156,265 L110,26 Q108,14 97.5,4.5 Q87,-5 75,-5 Q65,-5 57.5,2.5 Q50,10 50,21 Q50,23 52,33 L176,670 Q178,683 189,691.5 Q200,700 212,700 L437,700 Q519,700 570,649.5 Q621,599 621,523 Q621,435 561,360 Q501,285 398,269 M232,649 L167,316 L354,316 Q441,316 501.5,376.5 Q562,437 562,518 Q562,578 527,613.5 Q492,649 424,649"/> 
            <glyph glyph-name="S" unicode="&#x53;" horiz-adv-x="548" d=" M247,46 Q317,46 380.5,93 Q444,140 444,211 Q444,252 410.5,280 Q377,308 329.5,324 Q282,340 235,358 Q188,376 154.5,410 Q121,444 121,495 Q121,581 192.5,643 Q264,705 367,705 Q450,705 499,664.5 Q548,624 548,594 Q548,562 521,562 Q505,562 492,583 Q448,654 361,654 Q296,654 239.5,612.5 Q183,571 183,506 Q183,466 216.5,439 Q250,412 297.5,396 Q345,380 392.5,362.5 Q440,345 473.5,311 Q507,277 507,226 Q507,127 429,61 Q351,-5 237,-5 Q146,-5 93,40 Q40,85 40,120 Q40,135 48.5,143.5 Q57,152 68,152 Q73,152 77.5,150.5 Q82,149 85.5,146 Q89,143 90.5,141 Q92,139 94.5,134.5 Q97,130 98,129 Q143,46 247,46"/> 
            <glyph glyph-name="T" unicode="&#x54;" horiz-adv-x="618" d=" M596,700 Q606,700 612,694 Q618,688 618,679 Q618,667 608,657.5 Q598,648 586,648 L387,648 L266,26 Q264,14 253.5,4.5 Q243,-5 230,-5 Q219,-5 211.5,2.5 Q204,10 204,21 Q204,23 206,33 L326,648 L129,648 Q119,648 112.5,654 Q106,660 106,669 Q106,681 116,690.5 Q126,700 139,700"/> 
            <glyph glyph-name="U" unicode="&#x55;" horiz-adv-x="761" d=" M171,675 Q173,687 184,696 Q195,705 208,705 Q218,705 224.5,698 Q231,691 231,680 Q231,675 229,665 L158,299 Q153,272 153,237 Q153,146 207.5,96 Q262,46 347,46 Q451,46 528.5,113.5 Q606,181 630,306 L701,676 Q703,687 713.5,696 Q724,705 736,705 Q747,705 754,698 Q761,691 761,681 Q761,676 759,666 L688,301 Q660,156 567,75.5 Q474,-5 344,-5 Q235,-5 164.5,60.5 Q94,126 94,236 Q94,272 101,311"/> 
            <glyph glyph-name="V" unicode="&#x56;" horiz-adv-x="719" d=" M192,679 L296,50 L309,50 L655,679 Q669,705 692,705 Q703,705 711,698.5 Q719,692 719,682 Q719,671 710,654 L359,24 Q346,0 324,0 L262,0 Q242,0 238,27 L132,651 Q130,661 130,675 Q130,686 140,695.5 Q150,705 163,705 Q188,705 192,679"/> 
            <glyph glyph-name="W" unicode="&#x57;" horiz-adv-x="855" d=" M852,665 L689,32 Q680,0 651,0 L614,0 Q596,0 586,21 L438,314 L177,21 Q159,0 141,0 L101,0 Q76,0 76,25 Q76,31 78,45 L158,673 Q159,686 170,695.5 Q181,705 194,705 Q206,705 213,698 Q220,691 220,680 Q220,676 218,658 L139,60 L405,359 Q424,380 449,380 Q472,380 485,357 L634,60 L792,673 Q801,705 827,705 Q838,705 846.5,698 Q855,691 855,681 Q855,676 852,665"/> 
            <glyph glyph-name="X" unicode="&#x58;" horiz-adv-x="727" d=" M630,44 Q633,38 633,31 Q633,17 622,6 Q611,-5 597,-5 Q583,-5 575,7 L379,321 L59,6 Q48,-5 34,-5 Q23,-5 16,2.5 Q9,10 9,20 Q9,36 20,47 L348,370 L172,653 Q167,663 167,669 Q167,683 178,694 Q189,705 203,705 Q216,705 224,693 L395,418 L672,693 Q684,705 702,705 Q713,705 720,697.5 Q727,690 727,680 Q727,666 717,656 L425,368"/> 
            <glyph glyph-name="Y" unicode="&#x59;" horiz-adv-x="713" d=" M688,705 Q698,705 705.5,698 Q713,691 713,679 Q713,664 702,653 L371,293 L319,26 Q317,13 306,4 Q295,-5 282,-5 Q271,-5 264,2.5 Q257,10 257,21 Q257,27 259,39 L309,296 L118,657 Q115,663 115,671 Q115,686 123.5,695.5 Q132,705 147,705 Q164,705 171,690 L350,353 L654,689 Q668,705 688,705"/> 
            <glyph glyph-name="Z" unicode="&#x5A;" horiz-adv-x="684" d=" M606,648 L180,648 Q159,648 159,670 Q159,681 169,690.5 Q179,700 191,700 L652,700 Q666,700 675,691.5 Q684,683 684,669 Q684,648 666,630 L99,52 L550,52 Q571,52 571,30 Q571,18 561,9 Q551,0 539,0 L52,0 Q39,0 30,9 Q21,18 21,32 Q21,53 39,71"/> 
            <glyph glyph-name="[" unicode="&#x5B;" horiz-adv-x="396" d=" M40,-100 L195,696 Q197,709 208,718 Q219,727 230,727 L373,727 Q383,727 389.5,721 Q396,715 396,705 Q396,692 386,683.5 Q376,675 363,675 L253,675 L104,-91 L214,-91 Q224,-91 230.5,-97 Q237,-103 237,-112 Q237,-126 227,-134.5 Q217,-143 204,-143 L61,-143 Q51,-143 44,-136 Q37,-129 37,-119 Q37,-118 40,-100"/> 
            <glyph glyph-name="\" unicode="&#x5C;" horiz-adv-x="272" d=" M213,17 L98,655 Q96,665 96,671 Q96,685 105.5,695 Q115,705 130,705 Q152,705 156,683 L270,48 Q272,36 272,26 Q272,15 263,5 Q254,-5 240,-5 Q218,-5 213,17"/> 
            <glyph glyph-name="]" unicode="&#x5D;" horiz-adv-x="346" d=" M343,684 L188,-114 Q186,-125 175,-134 Q164,-143 153,-143 L10,-143 Q-12,-143 -12,-122 Q-12,-110 -2,-100.5 Q8,-91 20,-91 L130,-91 L279,675 L169,675 Q159,675 152,680.5 Q145,686 145,695 Q145,707 156,717 Q167,727 179,727 L322,727 Q332,727 339,719.5 Q346,712 346,702 Q346,698 343,684"/> 
            <glyph glyph-name="^" unicode="&#x5E;" horiz-adv-x="475" d=" M329,640 L112,340 Q102,325 84,325 Q76,325 70.5,330.5 Q65,336 65,342 Q65,352 70,359 L312,691 Q323,705 339,705 Q358,705 363,691 L471,367 Q475,353 475,350 Q475,339 468,332 Q461,325 449,325 Q434,325 430,340"/> 
            <glyph glyph-name="_" unicode="&#x5F;" horiz-adv-x="534" d=" M-5,-81 L515,-81 Q534,-81 534,-98 Q534,-108 525.5,-117 Q517,-126 506,-126 L-14,-126 Q-33,-126 -33,-107 Q-33,-97 -24,-89 Q-15,-81 -5,-81"/> 
            <glyph glyph-name="`" unicode="&#x60;" horiz-adv-x="213" d=" M164,563 L77,660 Q71,668 71,674 Q71,687 81,697 Q91,707 104,707 Q114,707 120,701 L208,603 Q213,596 213,588 Q213,576 202.5,566.5 Q192,557 180,557 Q168,557 164,563"/> 
            <glyph glyph-name="a" unicode="&#x61;" horiz-adv-x="610" d=" M608,464 L522,26 Q520,13 510,4 Q500,-5 487,-5 Q463,-5 463,19 Q463,23 466,38 L478,93 Q448,55 393.5,25 Q339,-5 265,-5 Q174,-5 118.5,52 Q63,109 63,198 Q63,323 152,414 Q241,505 363,505 Q434,505 479,475 Q524,445 539,408 L552,475 Q554,487 564,496 Q574,505 586,505 Q610,505 610,480 Q610,476 608,464 M276,42 Q370,42 441.5,117 Q513,192 513,299 Q513,370 470,413.5 Q427,457 357,457 Q265,457 193,380 Q121,303 121,206 Q121,130 161.5,86 Q202,42 276,42"/> 
            <glyph glyph-name="b" unicode="&#x62;" horiz-adv-x="610" d=" M65,37 L198,720 Q200,732 210,741 Q220,750 233,750 Q256,750 256,726 Q256,721 255,715 L196,408 Q225,446 279,475.5 Q333,505 408,505 Q497,505 553.5,448 Q610,391 610,303 Q610,176 525,85.5 Q440,-5 316,-5 Q183,-5 135,98 L121,26 Q119,13 109,4 Q99,-5 86,-5 Q62,-5 62,19 Q62,22 65,37 M316,43 Q413,43 482,118.5 Q551,194 551,294 Q551,364 509,410.5 Q467,457 398,457 Q307,457 233.5,383 Q160,309 160,202 Q160,130 202.5,86.5 Q245,43 316,43"/> 
            <glyph glyph-name="c" unicode="&#x63;" horiz-adv-x="511" d=" M363,456 Q269,456 196,382 Q123,308 123,210 Q123,136 166,89.5 Q209,43 277,43 Q337,43 403,82 Q413,88 424,88 Q433,88 439.5,81.5 Q446,75 446,66 Q446,48 424,36 Q357,-5 279,-5 Q184,-5 124,51 Q64,107 64,198 Q64,320 152.5,412.5 Q241,505 374,505 Q444,505 496,472 Q511,461 511,448 Q511,435 502,427 Q493,419 481,419 Q471,419 462,426 Q420,456 363,456"/> 
            <glyph glyph-name="d" unicode="&#x64;" horiz-adv-x="657" d=" M656,715 L522,26 Q520,13 510,4 Q500,-5 487,-5 Q464,-5 464,20 Q464,25 466,35 L478,93 Q450,56 395.5,25.5 Q341,-5 266,-5 Q175,-5 119,53 Q63,111 63,203 Q63,325 152,415 Q241,505 365,505 Q436,505 480,475 Q524,445 539,408 L599,720 Q601,732 611,741 Q621,750 634,750 Q657,750 657,726 Q657,721 656,715 M277,42 Q369,42 441,117 Q513,192 513,299 Q513,370 470,413.5 Q427,457 357,457 Q265,457 193,380.5 Q121,304 121,207 Q121,133 160.5,87.5 Q200,42 277,42"/> 
            <glyph glyph-name="e" unicode="&#x65;" horiz-adv-x="569" d=" M511,225 L123,225 Q122,217 122,204 Q122,132 166,88 Q210,44 281,44 Q351,44 433,86 Q445,92 453,92 Q462,92 468.5,85.5 Q475,79 475,69 Q475,51 453,39 Q378,-5 283,-5 Q181,-5 122,51.5 Q63,108 63,199 Q63,324 153.5,414.5 Q244,505 367,505 Q458,505 513.5,446 Q569,387 569,307 Q569,225 511,225 M366,457 Q287,457 220,403.5 Q153,350 132,273 L515,273 Q516,282 516,299 Q516,367 474.5,412 Q433,457 366,457"/> 
            <glyph glyph-name="f" unicode="&#x66;" horiz-adv-x="407" d=" M32,-188 L157,451 L98,451 Q78,451 78,470 Q78,483 87,491.5 Q96,500 108,500 L167,500 L192,629 Q202,681 240.5,715.5 Q279,750 329,750 L387,750 Q407,750 407,731 Q407,718 398.5,709.5 Q390,701 378,701 L335,701 Q302,701 278.5,679 Q255,657 249,628 L225,500 L345,500 Q365,500 365,482 Q365,470 355.5,460.5 Q346,451 335,451 L215,451 L89,-195 Q87,-208 76.5,-217 Q66,-226 54,-226 Q30,-226 30,-201 Q30,-196 32,-188"/> 
            <glyph glyph-name="g" unicode="&#x67;" horiz-adv-x="610" d=" M276,42 Q370,42 441.5,117 Q513,192 513,299 Q513,370 470,413.5 Q427,457 357,457 Q265,457 193,380 Q121,303 121,206 Q121,135 163.5,88.5 Q206,42 276,42 M459,-8 L478,93 Q448,55 393.5,25 Q339,-5 265,-5 Q174,-5 118.5,52 Q63,109 63,198 Q63,323 152.5,414 Q242,505 363,505 Q434,505 479,475 Q524,445 539,408 L552,475 Q554,487 564,496 Q574,505 586,505 Q610,505 610,480 Q610,476 608,464 L517,-9 Q499,-102 430.5,-163.5 Q362,-225 246,-225 Q182,-225 134,-206 Q86,-187 86,-160 Q86,-149 95,-141 Q104,-133 116,-133 Q124,-133 144,-145 Q195,-175 252,-175 Q336,-175 390.5,-127.5 Q445,-80 459,-8"/> 
            <glyph glyph-name="h" unicode="&#x68;" horiz-adv-x="590" d=" M256,713 L196,410 Q232,452 287,478.5 Q342,505 402,505 Q491,505 540.5,457 Q590,409 590,328 Q590,303 584,273 L536,26 Q534,13 524,4 Q514,-5 501,-5 Q491,-5 484,2 Q477,9 477,20 Q477,21 477.5,24 Q478,27 479,31 Q480,35 480,37 L526,273 Q531,298 531,324 Q531,386 494.5,421 Q458,456 397,456 Q324,456 254,401 Q184,346 168,262 L121,26 Q119,13 109,4 Q99,-5 87,-5 Q76,-5 69,2 Q62,9 62,20 Q62,23 66,43 L199,719 Q201,732 211.5,741 Q222,750 234,750 Q244,750 251,743 Q258,736 258,726 Q258,723 256,713"/> 
            <glyph glyph-name="i" unicode="&#x69;" horiz-adv-x="257" d=" M204,470 L132,92 Q130,82 130,77 Q130,49 159,49 L165,49 Q185,49 185,29 Q185,17 176,8.5 Q167,0 155,0 L137,0 Q104,0 87,19 Q70,38 70,68 Q70,75 72,89 L147,475 Q149,487 159,496 Q169,505 181,505 Q205,505 205,480 Q205,475 204,470 M161,628 Q161,649 178.5,666 Q196,683 218,683 Q235,683 246,672.5 Q257,662 257,646 Q257,623 239.5,606.5 Q222,590 200,590 Q183,590 172,600.5 Q161,611 161,628"/> 
            <glyph glyph-name="j" unicode="&#x6A;" horiz-adv-x="284" d=" M189,628 Q189,649 206.5,666 Q224,683 246,683 Q263,683 273.5,672.5 Q284,662 284,646 Q284,623 267,606.5 Q250,590 228,590 Q211,590 200,600.5 Q189,611 189,628 M231,464 L120,-106 Q111,-153 72,-186.5 Q33,-220 -15,-220 L-64,-220 Q-85,-220 -85,-201 Q-85,-189 -75.5,-180 Q-66,-171 -54,-171 L-17,-171 Q10,-171 33,-151 Q56,-131 62,-102 L175,475 Q177,487 187,496 Q197,505 210,505 Q233,505 233,481 Q233,475 231,464"/> 
            <glyph glyph-name="k" unicode="&#x6B;" horiz-adv-x="515" d=" M405,4 L245,255 L151,181 L121,27 Q118,13 107.5,4 Q97,-5 84,-5 Q74,-5 68,1.5 Q62,8 62,19 Q62,24 64,34 L197,719 Q199,732 209.5,741 Q220,750 232,750 Q242,750 248.5,743 Q255,736 255,725 Q255,719 254,713 L165,255 L461,492 Q478,505 492,505 Q515,505 515,482 Q515,467 499,454 L290,291 L453,45 Q458,38 458,31 Q458,16 449,5.5 Q440,-5 425,-5 Q411,-5 405,4"/> 
            <glyph glyph-name="l" unicode="&#x6C;" horiz-adv-x="253" d=" M252,713 L131,93 Q129,81 129,77 Q129,49 160,49 L166,49 Q186,49 186,28 Q186,16 177,8 Q168,0 156,0 L138,0 Q105,0 87.5,19.5 Q70,39 70,69 Q70,75 72,89 L195,719 Q197,732 207.5,741 Q218,750 230,750 Q240,750 246.5,743 Q253,736 253,725 Q253,720 252,713"/> 
            <glyph glyph-name="m" unicode="&#x6D;" horiz-adv-x="926" d=" M389,505 Q448,505 490,473 Q532,441 543,393 Q586,448 643.5,476.5 Q701,505 757,505 Q837,505 881.5,458 Q926,411 926,336 Q926,315 921,287 L870,26 Q868,13 857.5,4 Q847,-5 834,-5 Q811,-5 811,19 Q811,22 814,37 L862,281 Q866,304 866,330 Q866,387 836.5,421.5 Q807,456 747,456 Q679,456 621,407 Q563,358 549,290 L497,26 Q495,13 484.5,4 Q474,-5 462,-5 Q452,-5 445,2 Q438,9 438,20 Q438,22 441,37 L489,281 Q493,300 493,324 Q493,383 466,419.5 Q439,456 382,456 Q322,456 253.5,405.5 Q185,355 173,294 L121,26 Q119,13 109,4 Q99,-5 87,-5 Q76,-5 69,2 Q62,9 62,20 Q62,22 65,37 L150,474 Q152,487 162.5,496 Q173,505 185,505 Q196,505 202.5,498.5 Q209,492 209,481 Q209,480 207,468 L196,410 Q233,450 284.5,477.5 Q336,505 389,505"/> 
            <glyph glyph-name="n" unicode="&#x6E;" horiz-adv-x="590" d=" M207,468 L196,410 Q285,505 408,505 Q493,505 541.5,457 Q590,409 590,329 Q590,306 584,273 L536,26 Q534,13 524,4 Q514,-5 501,-5 Q491,-5 484,2 Q477,9 477,20 Q477,21 477.5,24 Q478,27 479,31 Q480,35 480,37 L525,265 Q531,295 531,319 Q531,386 496,421 Q461,456 396,456 Q326,456 256,406 Q186,356 174,294 L121,26 Q119,13 109,4 Q99,-5 87,-5 Q76,-5 69,2 Q62,9 62,20 Q62,23 66,43 L150,474 Q152,487 162.5,496 Q173,505 185,505 Q196,505 202.5,498.5 Q209,492 209,481 Q209,478 207,468"/> 
            <glyph glyph-name="o" unicode="&#x6F;" horiz-adv-x="589" d=" M589,298 Q589,176 502.5,85.5 Q416,-5 280,-5 Q185,-5 124.5,54 Q64,113 64,201 Q64,327 153.5,416 Q243,505 375,505 Q469,505 529,446 Q589,387 589,298 M284,43 Q385,43 457.5,118 Q530,193 530,293 Q530,365 485,411 Q440,457 366,457 Q269,457 196,381.5 Q123,306 123,208 Q123,137 167.5,90 Q212,43 284,43"/> 
            <glyph glyph-name="p" unicode="&#x70;" horiz-adv-x="609" d=" M21,-191 L150,474 Q152,487 162,496 Q172,505 185,505 Q208,505 208,480 Q208,475 206,465 L194,405 Q222,443 277,474 Q332,505 406,505 Q497,505 553,447.5 Q609,390 609,301 Q609,174 524.5,84.5 Q440,-5 313,-5 Q243,-5 198,26 Q153,57 134,96 L78,-196 Q76,-208 66,-217 Q56,-226 43,-226 Q20,-226 20,-202 Q20,-197 21,-191 M397,458 Q304,458 231.5,383 Q159,308 159,201 Q159,130 203.5,86.5 Q248,43 318,43 Q412,43 481.5,118.5 Q551,194 551,293 Q551,364 509,411 Q467,458 397,458"/> 
            <glyph glyph-name="q" unicode="&#x71;" horiz-adv-x="612" d=" M609,462 L480,-196 Q478,-208 468,-217 Q458,-226 445,-226 Q422,-226 422,-202 Q422,-197 423,-191 L478,91 Q449,53 395,23.5 Q341,-6 266,-6 Q177,-6 120.5,51 Q64,108 64,196 Q64,321 152,412.5 Q240,504 360,504 Q491,504 539,401 L553,473 Q555,486 565,495 Q575,504 588,504 Q612,504 612,480 Q612,477 609,462 M358,456 Q266,456 194.5,379 Q123,302 123,205 Q123,135 165,88.5 Q207,42 276,42 Q367,42 440.5,116 Q514,190 514,297 Q514,369 471.5,412.5 Q429,456 358,456"/> 
            <glyph glyph-name="r" unicode="&#x72;" horiz-adv-x="414" d=" M356,500 L393,500 Q402,500 408,493.5 Q414,487 414,478 Q414,467 404,458.5 Q394,450 384,450 L358,450 Q296,450 236,402.5 Q176,355 163,289 L112,26 Q110,13 99.5,4 Q89,-5 77,-5 Q66,-5 59,2.5 Q52,10 52,20 Q52,22 55,37 L140,474 Q142,487 153,496 Q164,505 176,505 Q199,505 199,481 Q199,478 197,466 L186,411 Q215,448 260.5,474 Q306,500 356,500"/> 
            <glyph glyph-name="s" unicode="&#x73;" horiz-adv-x="458" d=" M213,43 Q268,43 318,71 Q368,99 368,147 Q368,177 339.5,196 Q311,215 270,224.5 Q229,234 187.5,245.5 Q146,257 117.5,282.5 Q89,308 89,348 Q89,418 152.5,461.5 Q216,505 296,505 Q393,505 447,448 Q458,435 458,427 Q458,415 449.5,406 Q441,397 428,397 Q420,397 404,411 Q357,456 288,456 Q238,456 192.5,429.5 Q147,403 147,359 Q147,331 176,313 Q205,295 246.5,285 Q288,275 329.5,263 Q371,251 400,224 Q429,197 429,155 Q429,84 362,39.5 Q295,-5 207,-5 Q93,-5 37,64 Q30,73 30,82 Q30,93 37.5,102 Q45,111 58,111 Q68,111 80,99 Q131,43 213,43"/> 
            <glyph glyph-name="t" unicode="&#x74;" horiz-adv-x="348" d=" M249,29 Q249,17 239.5,8.5 Q230,0 215,0 L169,0 Q127,0 101,26 Q75,52 75,92 Q75,100 77,114 L142,451 L84,451 Q65,451 65,471 Q65,482 73.5,491 Q82,500 94,500 L152,500 L172,603 Q174,616 184.5,624.5 Q195,633 207,633 Q230,633 230,609 Q230,603 228,592 L210,500 L328,500 Q336,500 342,494.5 Q348,489 348,481 Q348,469 338.5,460 Q329,451 318,451 L200,451 L136,119 Q134,109 134,102 Q134,78 149.5,63.5 Q165,49 187,49 L227,49 Q236,49 242.5,43.5 Q249,38 249,29"/> 
            <glyph glyph-name="u" unicode="&#x75;" horiz-adv-x="602" d=" M457,32 L468,90 Q379,-5 256,-5 Q171,-5 122.5,43 Q74,91 74,171 Q74,197 80,227 L128,474 Q130,487 140,496 Q150,505 163,505 Q173,505 180,498 Q187,491 187,480 Q187,476 184,461 L139,235 Q133,202 133,181 Q133,114 168,79 Q203,44 268,44 Q338,44 408,94 Q478,144 490,206 L543,474 Q545,487 555,496 Q565,505 577,505 Q588,505 595,498 Q602,491 602,480 Q602,477 598,457 L514,26 Q512,13 501.5,4 Q491,-5 479,-5 Q468,-5 461.5,1.5 Q455,8 455,19 Q455,22 457,32"/> 
            <glyph glyph-name="v" unicode="&#x76;" horiz-adv-x="539" d=" M118,505 Q138,505 142,486 L223,46 L231,46 L482,486 Q493,505 514,505 Q525,505 532,498.5 Q539,492 539,482 Q539,472 534,464 L281,29 Q264,0 232,0 L205,0 Q175,0 169,29 L86,454 Q84,466 84,472 Q84,486 94.5,495.5 Q105,505 118,505"/> 
            <glyph glyph-name="w" unicode="&#x77;" horiz-adv-x="704" d=" M381,333 Q407,333 416,309 L499,46 L505,46 L645,477 Q653,505 679,505 Q704,505 704,479 Q704,473 698,455 L558,31 Q554,19 542,9.5 Q530,0 515,0 L481,0 Q452,0 442,32 L369,268 L203,32 Q181,0 152,0 L118,0 Q104,0 95.5,9 Q87,18 87,29 Q87,39 88,56 L111,452 Q114,505 150,505 Q160,505 167,498 Q174,491 174,479 Q174,472 173,460 L145,46 L151,46 L337,309 Q354,333 381,333"/> 
            <glyph glyph-name="x" unicode="&#x78;" horiz-adv-x="555" d=" M418,4 L284,210 L70,4 Q61,-5 46,-5 Q36,-5 29.5,2 Q23,9 23,19 Q23,34 33,42 L254,254 L119,458 Q116,462 116,471 Q116,485 126,495 Q136,505 150,505 Q164,505 173,493 L300,298 L507,496 Q518,505 531,505 Q541,505 548,498.5 Q555,492 555,483 Q555,468 545,458 L329,251 L469,41 Q472,36 472,28 Q472,16 461.5,5.5 Q451,-5 438,-5 Q424,-5 418,4"/> 
            <glyph glyph-name="y" unicode="&#x79;" horiz-adv-x="543" d=" M538,463 L209,-106 Q192,-136 182,-151 Q172,-166 155.5,-185 Q139,-204 120,-212 Q101,-220 78,-220 L45,-220 Q25,-220 25,-201 Q25,-189 33.5,-180 Q42,-171 54,-171 L75,-171 Q97,-171 113.5,-155 Q130,-139 149,-106 L221,18 Q181,18 174,47 L80,457 Q78,467 78,472 Q78,486 88.5,495.5 Q99,505 114,505 Q132,505 137,483 L236,44 L489,485 Q501,505 519,505 Q543,505 543,480 Q543,471 538,463"/> 
            <glyph glyph-name="z" unicode="&#x7A;" horiz-adv-x="495" d=" M428,451 L139,451 Q116,451 116,471 Q116,483 125.5,491.5 Q135,500 148,500 L462,500 Q477,500 486,491.5 Q495,483 495,471 Q495,445 473,423 L89,49 L393,49 Q416,49 416,28 Q416,17 406,8.5 Q396,0 383,0 L54,0 Q41,0 32.5,8.5 Q24,17 24,30 Q24,57 49,81"/> 
            <glyph glyph-name="{" unicode="&#x7B;" horiz-adv-x="396" d=" M95,293 L102,290 Q108,287 117,280.5 Q126,274 134.5,264 Q143,254 149.5,236 Q156,218 156,195 Q156,175 152,156 L123,5 Q121,-3 121,-17 Q121,-50 139,-70.5 Q157,-91 190,-91 L212,-91 Q223,-91 230.5,-97.5 Q238,-104 238,-113 Q238,-126 226.5,-134.5 Q215,-143 202,-143 L178,-143 Q122,-143 90.5,-109 Q59,-75 59,-22 Q59,-2 63,15 L92,164 Q95,180 95,194 Q95,222 83,237 Q71,252 56.5,255 Q42,258 30,265 Q18,272 18,285 Q18,303 28.5,312 Q39,321 55,325.5 Q71,330 88,337 Q105,344 120,364.5 Q135,385 142,420 L171,569 Q185,639 229,683 Q273,727 347,727 L371,727 Q396,727 396,705 Q396,693 385.5,684 Q375,675 361,675 L339,675 Q299,675 271,647.5 Q243,620 235,579 L205,428 Q199,396 185,370 Q171,344 156.5,330 Q142,316 127.5,307 Q113,298 105,295.5 Q97,293 95,293"/> 
            <glyph glyph-name="|" unicode="&#x7C;" horiz-adv-x="264" d=" M261,709 L86,-196 Q84,-208 73.5,-216.5 Q63,-225 51,-225 Q40,-225 33,-218.5 Q26,-212 26,-202 Q26,-199 30,-179 L204,720 Q206,732 217,741 Q228,750 240,750 Q250,750 257,743 Q264,736 264,726 Q264,721 261,709"/> 
            <glyph glyph-name="}" unicode="&#x7D;" horiz-adv-x="366" d=" M289,293 Q286,294 282,295.5 Q278,297 267.5,304 Q257,311 248.5,320.5 Q240,330 233.5,348.5 Q227,367 227,390 Q227,409 231,428 L261,579 Q263,593 263,600 Q263,633 244.5,654 Q226,675 193,675 L171,675 Q160,675 152.5,681 Q145,687 145,696 Q145,710 156,718.5 Q167,727 181,727 L205,727 Q261,727 292.5,692.5 Q324,658 324,604 Q324,587 321,569 L292,420 Q289,404 289,390 Q289,362 301,346.5 Q313,331 327.5,328.5 Q342,326 354,319 Q366,312 366,299 Q366,278 350,267.5 Q334,257 313.5,253 Q293,249 271.5,227 Q250,205 242,164 L213,15 Q200,-53 152.5,-98 Q105,-143 36,-143 L12,-143 Q-11,-143 -11,-123 Q-11,-110 -1.5,-100.5 Q8,-91 22,-91 L44,-91 Q82,-91 111.5,-63 Q141,-35 149,5 L178,156 Q184,188 198,214 Q212,240 227,254 Q242,268 256,277 Q270,286 280,290"/> 
            <glyph glyph-name="~" unicode="&#x7E;" horiz-adv-x="535" d=" M402,186 Q361,186 292.5,226 Q224,266 198,266 Q148,266 120,204 Q111,186 94,186 Q86,186 80,191.5 Q74,197 74,205 Q74,244 112.5,279.5 Q151,315 207,315 Q248,315 317,275 Q386,235 412,235 Q441,235 458.5,251 Q476,267 489,297 Q496,315 515,315 Q523,315 529,309.5 Q535,304 535,295 Q535,257 496.5,221.5 Q458,186 402,186"/> 
            <glyph glyph-name="¡" unicode="&#xA1;" horiz-adv-x="248" d=" M248,467 Q248,446 230.5,428.5 Q213,411 191,411 Q174,411 163,421.5 Q152,432 152,449 Q152,471 169.5,488 Q187,505 209,505 Q226,505 237,494.5 Q248,484 248,467 M193,263 L108,-174 Q106,-186 95,-195.5 Q84,-205 71,-205 Q59,-205 51.5,-197.5 Q44,-190 44,-179 Q44,-177 47,-162 L132,274 Q134,286 145.5,296 Q157,306 170,306 Q181,306 188,298 Q195,290 195,279 Q195,274 193,263"/> 
            <glyph glyph-name="¢" unicode="&#xA2;" horiz-adv-x="558" d=" M451,567 L438,505 Q498,502 543,472 Q558,461 558,449 Q558,436 549,429 Q540,422 528,422 Q516,422 509,428 Q468,456 411,456 Q318,456 243,382 Q168,308 168,209 Q168,137 213.5,90.5 Q259,44 333,44 Q387,44 450,80 Q462,87 471,87 Q480,87 486.5,81 Q493,75 493,66 Q493,48 471,36 Q404,-2 339,-5 L326,-72 Q324,-83 315.5,-90.5 Q307,-98 296,-98 Q288,-98 281.5,-92 Q275,-86 275,-77 Q275,-75 277,-65 L290,-2 Q209,9 160,63 Q111,117 111,198 Q111,313 190.5,401.5 Q270,490 388,502 L403,579 Q404,589 413,596 Q422,603 432,603 Q453,603 453,583 Q453,577 451,567"/> 
            <glyph glyph-name="£" unicode="&#xA3;" horiz-adv-x="589" d=" M114,368 L185,368 L218,541 Q233,615 288,660 Q343,705 431,705 Q479,705 520,688 Q561,671 583,645 Q589,636 589,630 Q589,619 579,610 Q569,601 558,601 Q546,601 536,611 Q494,655 428,655 Q366,655 327.5,621 Q289,587 279,532 L247,368 L433,368 Q440,368 445,362 Q450,356 450,348 Q450,337 441.5,328.5 Q433,320 423,320 L237,320 L185,52 L490,52 Q515,52 515,30 Q515,18 504,9 Q493,0 480,0 L82,0 Q58,0 58,21 Q58,34 68,43 Q78,52 92,52 L124,52 L176,320 L104,320 Q96,320 90.5,326 Q85,332 85,340 Q85,351 94,359.5 Q103,368 114,368"/> 
            <glyph glyph-name="¤" unicode="&#xA4;" horiz-adv-x="540" d=" M453,111 Q397,67 324,67 Q251,67 195,111 L151,67 Q143,59 132,59 Q122,59 115,66 Q108,73 108,83 Q108,94 116,102 L160,146 Q116,202 116,274 Q116,346 161,403 L116,448 Q108,456 108,466 Q108,476 115,483.5 Q122,491 132,491 Q143,491 151,483 L196,438 Q252,483 324,483 Q395,483 452,438 L497,483 Q505,491 515,491 Q526,491 533,483.5 Q540,476 540,466 Q540,456 532,448 L487,403 Q532,346 532,274 Q532,204 488,146 L532,102 Q540,94 540,83 Q540,73 532.5,66 Q525,59 515,59 Q505,59 497,67 M166,211 Q260,117 324,117 Q387,117 434,164.5 Q481,212 481,275 Q481,338 434,385 Q387,432 324,432 Q261,432 213.5,385 Q166,338 166,275"/> 
            <glyph glyph-name="¥" unicode="&#xA5;" horiz-adv-x="672" d=" M491,148 L323,148 L300,26 Q298,13 287,4 Q276,-5 263,-5 Q252,-5 245,2 Q238,9 238,19 Q238,23 241,38 L262,148 L99,148 Q77,148 77,168 Q77,179 86.5,188.5 Q96,198 109,198 L272,198 L291,296 L128,296 Q106,296 106,316 Q106,328 115.5,337 Q125,346 138,346 L270,346 L126,657 Q123,666 123,672 Q123,685 132.5,695 Q142,705 156,705 Q172,705 179,689 L332,354 L616,689 Q628,705 647,705 Q656,705 664,698 Q672,691 672,679 Q672,669 661,656 L395,346 L530,346 Q549,346 549,325 Q549,313 540,304.5 Q531,296 520,296 L352,296 L333,198 L501,198 Q509,198 514.5,192 Q520,186 520,178 Q520,166 511,157 Q502,148 491,148"/> 
            <glyph glyph-name="¦" unicode="&#xA6;" horiz-adv-x="265" d=" M263,713 L200,388 Q198,377 187,367.5 Q176,358 165,358 Q154,358 146.5,365.5 Q139,373 139,383 Q139,386 141,396 L204,719 Q206,732 217,741 Q228,750 241,750 Q251,750 258,742.5 Q265,735 265,725 Q265,723 263,713 M151,137 L87,-194 Q85,-206 74,-215.5 Q63,-225 52,-225 Q41,-225 33.5,-217.5 Q26,-210 26,-199 Q26,-196 29,-181 L92,142 Q94,154 105,163 Q116,172 129,172 Q139,172 145.5,165 Q152,158 152,147 Q152,143 151,137"/> 
            <glyph glyph-name="§" unicode="&#xA7;" horiz-adv-x="592" d=" M269,-250 L104,-250 Q93,-250 85.5,-244 Q78,-238 78,-229 Q78,-216 89.5,-205.5 Q101,-195 115,-195 L277,-195 Q332,-195 373,-151.5 Q414,-108 414,-66 Q414,-27 379.5,-1 Q345,25 296,41 Q247,57 198.5,74.5 Q150,92 115.5,126.5 Q81,161 81,212 Q81,274 122,326 Q163,378 230,411 Q194,458 194,507 Q194,580 254.5,640 Q315,700 402,700 L567,700 Q578,700 585,693.5 Q592,687 592,677 Q592,665 580.5,655 Q569,645 556,645 L394,645 Q338,645 297.5,601.5 Q257,558 257,516 Q257,477 291.5,451.5 Q326,426 375,410.5 Q424,395 472.5,377.5 Q521,360 555.5,325.5 Q590,291 590,239 Q590,175 549.5,122.5 Q509,70 440,39 Q477,-9 477,-58 Q477,-131 416.5,-190.5 Q356,-250 269,-250 M372,78 Q429,79 474.5,122.5 Q520,166 520,224 Q520,251 506.5,272 Q493,293 466.5,308 Q440,323 416,332 Q392,341 354.5,352.5 Q317,364 299,371 Q238,371 194,325.5 Q150,280 150,224 Q150,197 163,176.5 Q176,156 201.5,142 Q227,128 251,119 Q275,110 313,98.5 Q351,87 372,78"/> 
            <glyph glyph-name="¨" unicode="&#xA8;" horiz-adv-x="309" d=" M60,626 Q60,646 77,662 Q94,678 115,678 Q131,678 141,668 Q151,658 151,644 Q151,621 134.5,605.5 Q118,590 98,590 Q82,590 71,600 Q60,610 60,626 M218,626 Q218,646 234.5,662 Q251,678 272,678 Q288,678 298.5,668 Q309,658 309,644 Q309,621 292.5,605.5 Q276,590 255,590 Q239,590 228.5,600 Q218,610 218,626"/> 
            <glyph glyph-name="©" unicode="&#xA9;" horiz-adv-x="799" d=" M536,501 Q555,492 555,474 Q555,466 548.5,459 Q542,452 532,452 Q522,452 501,460 Q480,468 452,468 Q402,468 367.5,433.5 Q333,399 333,349 Q333,299 367.5,263 Q402,227 452,227 Q477,227 497,234.5 Q517,242 529,242 Q539,242 546,235.5 Q553,229 553,221 Q553,201 526,188.5 Q499,176 454,176 Q382,176 331,226 Q280,276 280,349 Q280,421 331,470.5 Q382,520 454,520 Q503,520 536,501 M746,223 Q746,477 657,565 Q568,653 443,653 Q315,653 227,565 Q139,477 139,350 Q139,223 227.5,134.5 Q316,46 443,46 Q568,46 746,223 M799,497 Q799,203 694,99 Q589,-5 443,-5 Q296,-5 191.5,99 Q87,203 87,350 Q87,497 191.5,601 Q296,705 443,705 Q589,705 799,497"/> 
            <glyph glyph-name="ª" unicode="&#xAA;" horiz-adv-x="445" d=" M444,673 L391,398 Q389,388 379.5,380 Q370,372 359,372 Q349,372 342.5,378 Q336,384 336,393 Q336,394 339,412 Q281,372 221,372 Q162,372 125,409.5 Q88,447 88,505 Q88,587 147,646 Q206,705 285,705 Q350,705 388,664 L391,679 Q393,690 403,697.5 Q413,705 423,705 Q433,705 439,699 Q445,693 445,684 Q445,680 444,673 M233,416 Q289,416 331,462 Q373,508 373,567 Q373,608 348.5,634.5 Q324,661 281,661 Q225,661 181,615.5 Q137,570 137,513 Q137,471 163,443.5 Q189,416 233,416"/> 
            <glyph glyph-name="«" unicode="&#xAB;" horiz-adv-x="417" d=" M133,249 L201,129 Q205,122 205,115 Q205,102 196.5,94.5 Q188,87 177,87 Q164,87 158,98 L86,233 Q82,241 82,248 Q82,263 94,275 L216,408 Q227,419 240,419 Q249,419 255,413.5 Q261,408 261,399 Q261,385 251,375 M289,249 L357,129 Q361,122 361,115 Q361,102 352.5,94.5 Q344,87 333,87 Q320,87 314,98 L242,233 Q238,241 238,248 Q238,263 250,275 L372,408 Q383,419 396,419 Q405,419 411,413.5 Q417,408 417,399 Q417,385 407,375"/> 
            <glyph glyph-name="¬" unicode="&#xAC;" horiz-adv-x="517" d=" M128,358 L499,358 Q517,358 517,341 Q517,339 514,324 L481,155 Q476,131 452,131 Q432,131 432,149 Q432,151 435,166 L463,310 L119,310 Q99,310 99,328 Q99,341 107.5,349.5 Q116,358 128,358"/> 
            <glyph glyph-name="®" unicode="&#xAE;" horiz-adv-x="798" d=" M360,516 L471,516 Q522,516 554,485 Q586,454 586,409 Q586,374 564,346.5 Q542,319 512,313 L574,215 Q579,207 579,201 Q579,191 571.5,183.5 Q564,176 554,176 Q538,176 532,186 L458,309 L387,309 L387,201 Q387,191 379,183.5 Q371,176 360,176 Q350,176 342,183.5 Q334,191 334,201 L334,487 Q334,498 342,507 Q350,516 360,516 M467,473 L387,473 L387,349 L468,349 Q501,349 519,366 Q537,383 537,411 Q537,439 518,456 Q499,473 467,473 M745,223 Q745,477 656,565 Q567,653 442,653 Q314,653 226,565 Q138,477 138,350 Q138,223 226.5,134.5 Q315,46 442,46 Q567,46 745,223 M798,497 Q798,203 693,99 Q588,-5 442,-5 Q295,-5 190.5,99 Q86,203 86,350 Q86,497 190.5,601 Q295,705 442,705 Q588,705 798,497"/> 
            <glyph glyph-name="¯" unicode="&#xAF;" horiz-adv-x="314" d=" M314,644 Q314,630 303.5,620.5 Q293,611 278,611 L86,611 Q61,611 61,633 Q61,646 72,655.5 Q83,665 97,665 L289,665 Q314,665 314,644"/> 
            <glyph glyph-name="°" unicode="&#xB0;" horiz-adv-x="374" d=" M374,570 Q374,514 334,474 Q294,434 237,434 Q181,434 141.5,473.5 Q102,513 102,570 Q102,626 142,665.5 Q182,705 237,705 Q293,705 333.5,665 Q374,625 374,570 M330,570 Q330,609 303,635.5 Q276,662 237,662 Q199,662 172,635.5 Q145,609 145,570 Q145,529 172,503 Q199,477 237,477 Q277,477 303.5,503 Q330,529 330,570"/> 
            <glyph glyph-name="±" unicode="&#xB1;" horiz-adv-x="539" d=" M69,50 L458,50 Q479,50 479,28 Q479,16 470,8 Q461,0 448,0 L58,0 Q48,0 42,6 Q36,12 36,21 Q36,33 45.5,41.5 Q55,50 69,50 M377,516 L348,359 L518,359 Q539,359 539,337 Q539,325 530,317 Q521,309 508,309 L338,309 L307,151 Q302,125 277,125 Q256,125 256,144 Q256,149 258,159 L288,309 L118,309 Q108,309 102,315 Q96,321 96,330 Q96,342 105.5,350.5 Q115,359 129,359 L298,359 L328,521 Q330,531 338.5,538 Q347,545 357,545 Q378,545 378,526 Q378,520 377,516"/> 
            <glyph glyph-name="²" unicode="&#xB2;" horiz-adv-x="367" d=" M89,512 L256,662 Q310,711 310,750 Q310,774 295,790 Q280,806 254,806 Q236,806 221.5,800 Q207,794 196.5,780.5 Q186,767 181.5,759 Q177,751 169,735 Q161,717 144,717 Q134,717 128,723.5 Q122,730 122,739 Q122,765 161,809.5 Q200,854 262,854 Q311,854 339,825 Q367,796 367,755 Q367,696 298,635 L144,498 L309,498 Q332,498 332,477 Q332,464 323,456 Q314,448 301,448 L101,448 Q86,448 77.5,456 Q69,464 69,476 Q69,494 89,512"/> 
            <glyph glyph-name="³" unicode="&#xB3;" horiz-adv-x="360" d=" M259,854 Q306,854 333,826 Q360,798 360,758 Q360,701 301,661 Q345,631 345,577 Q345,524 300.5,484 Q256,444 192,444 Q134,444 103,475 Q72,506 72,534 Q72,549 80.5,558 Q89,567 101,567 Q117,567 126,541 Q143,493 197,493 Q231,493 261,517 Q291,541 291,576 Q291,601 269.5,617 Q248,633 220,633 Q197,633 197,654 Q197,666 206.5,674.5 Q216,683 229,683 Q257,683 281.5,704 Q306,725 306,754 Q306,775 290.5,790 Q275,805 252,805 Q205,805 178,758 Q168,740 149,740 Q129,740 129,761 Q129,786 165.5,820 Q202,854 259,854"/> 
            <glyph glyph-name="´" unicode="&#xB4;" horiz-adv-x="233" d=" M220,658 L96,561 Q88,554 76,554 Q66,554 58.5,561.5 Q51,569 51,579 Q51,595 64,605 L188,701 Q197,707 208,707 Q219,707 226,700.5 Q233,694 233,684 Q233,668 220,658"/> 
            <glyph glyph-name="µ" unicode="&#xB5;" horiz-adv-x="634" d=" M132,82 L80,-194 Q78,-206 66,-215.5 Q54,-225 42,-225 Q32,-225 25,-218.5 Q18,-212 18,-201 Q18,-199 20,-189 L147,474 Q149,487 160,496 Q171,505 184,505 Q194,505 201,497.5 Q208,490 208,479 Q208,474 206,463 L161,233 Q157,213 157,191 Q157,123 200,83.5 Q243,44 307,44 Q383,44 447.5,99 Q512,154 529,244 L574,474 Q576,487 586.5,496 Q597,505 609,505 Q620,505 627,497.5 Q634,490 634,479 Q634,473 632,463 L547,26 Q545,13 534.5,4 Q524,-5 511,-5 Q500,-5 493,2 Q486,9 486,20 Q486,22 488,32 L498,83 Q413,-5 297,-5 Q242,-5 197.5,19 Q153,43 132,82"/> 
            <glyph glyph-name="¶" unicode="&#xB6;" horiz-adv-x="610" d=" M348,-65 L486,634 L412,634 L342,273 Q337,245 310,245 Q228,245 175.5,297.5 Q123,350 123,429 Q123,532 206.5,616 Q290,700 399,700 L582,700 Q595,700 602.5,692.5 Q610,685 610,673 Q610,655 594,645 Q578,635 555,634 L417,-75 Q404,-145 354,-185 Q304,-225 235,-225 Q191,-225 153,-202.5 Q115,-180 115,-149 Q115,-134 123.5,-122.5 Q132,-111 147,-111 Q165,-111 176,-128 Q199,-165 240,-165 Q278,-165 308.5,-139 Q339,-113 348,-65"/> 
            <glyph glyph-name="·" unicode="&#xB7;" horiz-adv-x="198" d=" M102,340 Q102,362 119,379.5 Q136,397 159,397 Q176,397 187,386.5 Q198,376 198,359 Q198,337 180,320 Q162,303 140,303 Q123,303 112.5,313.5 Q102,324 102,340"/> 
            <glyph glyph-name="¸" unicode="&#xB8;" horiz-adv-x="183" d=" M29,-71 Q29,-59 42,-40 L68,0 L122,0 L95,-44 Q103,-43 109,-43 Q140,-43 161.5,-65 Q183,-87 183,-120 Q183,-166 147,-195.5 Q111,-225 60,-225 Q21,-225 0.5,-213.5 Q-20,-202 -20,-189 Q-20,-177 -12,-167.5 Q-4,-158 7,-158 Q14,-158 30.5,-168 Q47,-178 69,-178 Q91,-178 107.5,-162 Q124,-146 124,-127 Q124,-110 114,-99.5 Q104,-89 86,-89 Q82,-89 70.5,-91 Q59,-93 51,-93 Q41,-93 35,-86.5 Q29,-80 29,-71"/> 
            <glyph glyph-name="¹" unicode="&#xB9;" horiz-adv-x="230" d=" M229,817 L162,471 Q160,460 151,451.5 Q142,443 130,443 Q120,443 113.5,450.5 Q107,458 107,467 Q107,471 108,476 L171,800 L137,800 Q116,800 116,820 Q116,833 125,841.5 Q134,850 147,850 L209,850 Q230,850 230,828 Q230,823 229,817"/> 
            <glyph glyph-name="º" unicode="&#xBA;" horiz-adv-x="430" d=" M430,572 Q430,494 373,433.5 Q316,373 232,373 Q172,373 135,410.5 Q98,448 98,506 Q98,588 156,646.5 Q214,705 296,705 Q355,705 392.5,667.5 Q430,630 430,572 M240,417 Q294,417 338,461.5 Q382,506 382,564 Q382,605 356,632.5 Q330,660 287,660 Q233,660 189.5,615.5 Q146,571 146,516 Q146,474 171.5,445.5 Q197,417 240,417"/> 
            <glyph glyph-name="»" unicode="&#xBB;" horiz-adv-x="390" d=" M339,257 L271,377 Q267,384 267,391 Q267,404 275.5,411.5 Q284,419 295,419 Q308,419 314,408 L386,273 Q390,265 390,258 Q390,243 378,231 L256,98 Q245,87 232,87 Q223,87 217,92.5 Q211,98 211,107 Q211,121 221,131 M183,257 L115,377 Q111,384 111,391 Q111,404 119.5,411.5 Q128,419 139,419 Q152,419 158,408 L230,273 Q234,265 234,258 Q234,243 222,231 L100,98 Q89,87 76,87 Q67,87 61,92.5 Q55,98 55,107 Q55,121 65,131"/> 
            <glyph glyph-name="¼" unicode="&#xBC;" horiz-adv-x="623" d=" M45,37 L580,692 Q591,705 605,705 Q623,705 623,688 Q623,680 611,662 L77,9 Q65,-5 52,-5 Q44,-5 38,0.5 Q32,6 32,13 Q32,21 45,37 M268,669 L201,323 Q199,312 190,303.5 Q181,295 169,295 Q159,295 152.5,302.5 Q146,310 146,319 Q146,323 147,328 L210,652 L176,652 Q155,652 155,672 Q155,685 164,693.5 Q173,702 186,702 L248,702 Q269,702 269,680 Q269,675 268,669 M536,99 L522,23 Q520,12 511,3.5 Q502,-5 490,-5 Q480,-5 473.5,2.5 Q467,10 467,19 Q467,23 468,28 L482,99 L331,99 Q317,99 308,107 Q299,115 299,127 Q299,144 314,161 L512,386 Q526,402 541,402 L567,402 Q590,402 590,379 Q590,375 589,369 L545,147 L576,147 Q585,147 591,140.5 Q597,134 597,126 Q597,115 588,107 Q579,99 567,99 M365,147 L491,147 L536,341"/> 
            <glyph glyph-name="½" unicode="&#xBD;" horiz-adv-x="648" d=" M45,37 L580,692 Q591,705 605,705 Q623,705 623,688 Q623,680 611,662 L77,9 Q65,-5 52,-5 Q44,-5 38,0.5 Q32,6 32,13 Q32,21 45,37 M268,669 L201,323 Q199,312 190,303.5 Q181,295 169,295 Q159,295 152.5,302.5 Q146,310 146,319 Q146,323 147,328 L210,652 L176,652 Q155,652 155,672 Q155,685 164,693.5 Q173,702 186,702 L248,702 Q269,702 269,680 Q269,675 268,669 M370,64 L537,214 Q591,263 591,302 Q591,326 576,342 Q561,358 535,358 Q517,358 502.5,352 Q488,346 477.5,332.5 Q467,319 462.5,311 Q458,303 450,287 Q442,269 425,269 Q415,269 409,275.5 Q403,282 403,291 Q403,317 442,361.5 Q481,406 543,406 Q592,406 620,377 Q648,348 648,307 Q648,248 579,187 L425,50 L590,50 Q613,50 613,29 Q613,16 604,8 Q595,0 582,0 L382,0 Q367,0 358.5,8 Q350,16 350,28 Q350,46 370,64"/> 
            <glyph glyph-name="¾" unicode="&#xBE;" horiz-adv-x="734" d=" M156,37 L691,692 Q702,705 716,705 Q734,705 734,688 Q734,680 722,662 L188,9 Q176,-5 163,-5 Q155,-5 149,0.5 Q143,6 143,13 Q143,21 156,37 M647,99 L633,23 Q631,12 622,3.5 Q613,-5 601,-5 Q591,-5 584.5,2.5 Q578,10 578,19 Q578,23 579,28 L593,99 L442,99 Q428,99 419,107 Q410,115 410,127 Q410,144 425,161 L623,386 Q637,402 652,402 L678,402 Q701,402 701,379 Q701,375 700,369 L656,147 L687,147 Q696,147 702,140.5 Q708,134 708,126 Q708,115 699,107 Q690,99 678,99 M476,147 L602,147 L647,341 M277,705 Q324,705 351,677 Q378,649 378,609 Q378,552 319,512 Q363,482 363,428 Q363,375 318.5,335 Q274,295 210,295 Q152,295 121,326 Q90,357 90,385 Q90,400 98.5,409 Q107,418 119,418 Q135,418 144,392 Q161,344 215,344 Q249,344 279,368 Q309,392 309,427 Q309,452 287.5,468 Q266,484 238,484 Q215,484 215,505 Q215,517 224.5,525.5 Q234,534 247,534 Q275,534 299.5,555 Q324,576 324,605 Q324,626 308.5,641 Q293,656 270,656 Q223,656 196,609 Q186,591 167,591 Q147,591 147,612 Q147,637 183.5,671 Q220,705 277,705"/> 
            <glyph glyph-name="¿" unicode="&#xBF;" horiz-adv-x="397" d=" M189,-205 Q121,-205 78,-164 Q35,-123 35,-63 Q35,-18 55.5,19.5 Q76,57 107,84.5 Q138,112 169.5,138 Q201,164 227.5,198.5 Q254,233 261,271 Q264,285 275,295.5 Q286,306 300,306 Q312,306 319,298 Q326,290 326,278 L325,271 Q317,230 290,193 Q263,156 231,128 Q199,100 168,73 Q137,46 116.5,13 Q96,-20 96,-56 Q96,-98 125,-126.5 Q154,-155 200,-155 Q252,-155 289,-125 Q326,-95 342,-58 Q353,-33 376,-33 Q386,-33 391.5,-39.5 Q397,-46 397,-54 L396,-61 Q384,-110 327,-157.5 Q270,-205 189,-205 M377,467 Q377,446 359.5,428.5 Q342,411 320,411 Q303,411 292,421.5 Q281,432 281,449 Q281,470 298.5,487.5 Q316,505 338,505 Q355,505 366,494.5 Q377,484 377,467"/> 
            <glyph glyph-name="À" unicode="&#xC0;" horiz-adv-x="609" d=" M497,676 L607,53 Q609,41 609,30 Q609,17 599,6 Q589,-5 575,-5 Q551,-5 547,21 L514,204 L169,204 L67,21 Q52,-5 29,-5 Q18,-5 11.5,2 Q5,9 5,19 Q5,31 16,49 L368,673 Q382,700 403,700 L472,700 Q482,700 489,693 Q496,686 497,676 M199,256 L506,256 L438,651 L420,651 M426,763 L339,860 Q333,868 333,874 Q333,887 343,897 Q353,907 366,907 Q376,907 382,901 L470,803 Q475,795 475,788 Q475,776 464.5,766.5 Q454,757 442,757 Q430,757 426,763"/> 
            <glyph glyph-name="Á" unicode="&#xC1;" horiz-adv-x="609" d=" M497,676 L607,53 Q609,41 609,30 Q609,17 599,6 Q589,-5 575,-5 Q551,-5 547,21 L514,204 L169,204 L67,21 Q52,-5 29,-5 Q18,-5 11.5,2 Q5,9 5,19 Q5,31 16,49 L368,673 Q382,700 403,700 L472,700 Q482,700 489,693 Q496,686 497,676 M199,256 L506,256 L438,651 L420,651 M562,858 L438,761 Q430,754 418,754 Q408,754 400.5,761.5 Q393,769 393,779 Q393,795 406,805 L530,901 Q539,907 550,907 Q561,907 568,900.5 Q575,894 575,884 Q575,868 562,858"/> 
            <glyph glyph-name="Â" unicode="&#xC2;" horiz-adv-x="609" d=" M497,676 L607,53 Q609,41 609,30 Q609,17 599,6 Q589,-5 575,-5 Q551,-5 547,21 L514,204 L169,204 L67,21 Q52,-5 29,-5 Q18,-5 11.5,2 Q5,9 5,19 Q5,31 16,49 L368,673 Q382,700 403,700 L472,700 Q482,700 489,693 Q496,686 497,676 M199,256 L506,256 L438,651 L420,651 M536,764 L465,841 L367,764 Q358,757 347,757 Q336,757 329,764.5 Q322,772 322,782 Q322,796 334,806 L449,895 Q463,905 475,905 Q488,905 498,892 L578,802 Q584,793 584,788 Q584,776 574.5,767 Q565,758 552,758 Q540,758 536,764"/> 
            <glyph glyph-name="Ã" unicode="&#xC3;" horiz-adv-x="614" d=" M497,676 L607,53 Q609,41 609,30 Q609,17 599,6 Q589,-5 575,-5 Q551,-5 547,21 L514,204 L169,204 L67,21 Q52,-5 29,-5 Q18,-5 11.5,2 Q5,9 5,19 Q5,31 16,49 L368,673 Q382,700 403,700 L472,700 Q482,700 489,693 Q496,686 497,676 M199,256 L506,256 L438,651 L420,651 M419,890 Q443,890 462,877 Q481,864 495,851 Q509,838 521,838 Q544,838 560.5,864 Q577,890 593,890 Q602,890 608,884 Q614,878 614,868 Q614,842 585,813.5 Q556,785 511,785 Q480,785 450.5,811.5 Q421,838 408,838 Q386,838 369.5,812.5 Q353,787 338,787 Q315,787 315,808 Q315,833 344.5,861.5 Q374,890 419,890"/> 
            <glyph glyph-name="Ä" unicode="&#xC4;" horiz-adv-x="609" d=" M497,676 L607,53 Q609,41 609,30 Q609,17 599,6 Q589,-5 575,-5 Q551,-5 547,21 L514,204 L169,204 L67,21 Q52,-5 29,-5 Q18,-5 11.5,2 Q5,9 5,19 Q5,31 16,49 L368,673 Q382,700 403,700 L472,700 Q482,700 489,693 Q496,686 497,676 M199,256 L506,256 L438,651 L420,651 M340,826 Q340,846 357,862 Q374,878 395,878 Q411,878 421,868 Q431,858 431,844 Q431,821 414.5,805.5 Q398,790 378,790 Q362,790 351,800 Q340,810 340,826 M498,826 Q498,846 514.5,862 Q531,878 552,878 Q568,878 578.5,868 Q589,858 589,844 Q589,821 572.5,805.5 Q556,790 535,790 Q519,790 508.5,800 Q498,810 498,826"/> 
            <glyph glyph-name="Å" unicode="&#xC5;" horiz-adv-x="609" d=" M497,676 L607,53 Q609,41 609,30 Q609,17 599,6 Q589,-5 575,-5 Q551,-5 547,21 L514,204 L169,204 L67,21 Q52,-5 29,-5 Q18,-5 11.5,2 Q5,9 5,19 Q5,31 16,49 L368,673 Q382,700 403,700 L472,700 Q482,700 489,693 Q496,686 497,676 M199,256 L506,256 L438,651 L420,651 M360,811 Q360,855 394.5,889 Q429,923 476,923 Q513,923 538.5,899.5 Q564,876 564,842 Q564,797 529.5,763.5 Q495,730 449,730 Q411,730 385.5,753.5 Q360,777 360,811 M472,881 Q448,881 427,862 Q406,843 406,817 Q406,797 419.5,784 Q433,771 453,771 Q478,771 498,790.5 Q518,810 518,836 Q518,855 504.5,868 Q491,881 472,881"/> 
            <glyph glyph-name="Æ" unicode="&#xC6;" horiz-adv-x="1044" d=" M527,52 L896,52 Q918,52 918,31 Q918,19 908.5,9.5 Q899,0 886,0 L486,0 Q476,0 469,6.5 Q462,13 462,23 Q462,26 465,41 L496,204 L182,204 L46,18 Q31,-5 12,-5 Q-9,-5 -9,18 Q-9,33 3,50 L461,674 Q480,700 500,700 L1022,700 Q1032,700 1038,693.5 Q1044,687 1044,678 Q1044,666 1034.5,657 Q1025,648 1012,648 L643,648 L592,388 L901,388 Q921,388 921,368 Q921,355 912,345.5 Q903,336 891,336 L582,336 M221,256 L507,256 L584,652 L510,652"/> 
            <glyph glyph-name="Ç" unicode="&#xC7;" horiz-adv-x="681" d=" M286,-71 Q286,-59 299,-40 L323,-2 Q213,12 145.5,91.5 Q78,171 78,283 Q78,391 134.5,488 Q191,585 290,645 Q389,705 504,705 Q602,705 671,657 Q681,650 681,639 Q681,627 671.5,617.5 Q662,608 650,608 Q642,608 634,613 Q576,654 495,654 Q356,654 247.5,542.5 Q139,431 139,286 Q139,181 204,113.5 Q269,46 376,46 Q465,46 553,101 Q563,107 573,107 Q582,107 588.5,100 Q595,93 595,84 Q595,66 574,53 Q483,-1 376,-5 L352,-44 Q360,-43 366,-43 Q397,-43 418.5,-65 Q440,-87 440,-120 Q440,-166 404,-195.5 Q368,-225 317,-225 Q278,-225 257.5,-213.5 Q237,-202 237,-189 Q237,-177 245,-167.5 Q253,-158 264,-158 Q271,-158 287.5,-168 Q304,-178 326,-178 Q348,-178 364.5,-162 Q381,-146 381,-127 Q381,-110 371,-99.5 Q361,-89 343,-89 Q339,-89 327.5,-91 Q316,-93 308,-93 Q298,-93 292,-86.5 Q286,-80 286,-71"/> 
            <glyph glyph-name="È" unicode="&#xC8;" horiz-adv-x="641" d=" M115,52 L494,52 Q516,52 516,30 Q516,19 505.5,9.5 Q495,0 483,0 L73,0 Q63,0 56.5,6 Q50,12 50,21 Q50,28 52,38 L175,672 Q177,684 187.5,692 Q198,700 210,700 L620,700 Q641,700 641,679 Q641,667 632,657.5 Q623,648 609,648 L231,648 L180,388 L499,388 Q519,388 519,368 Q519,355 510,345.5 Q501,336 489,336 L170,336 M420,763 L333,860 Q327,868 327,874 Q327,887 337,897 Q347,907 360,907 Q370,907 376,901 L464,803 Q469,795 469,788 Q469,776 458.5,766.5 Q448,757 436,757 Q424,757 420,763"/> 
            <glyph glyph-name="É" unicode="&#xC9;" horiz-adv-x="641" d=" M115,52 L494,52 Q516,52 516,30 Q516,19 505.5,9.5 Q495,0 483,0 L73,0 Q63,0 56.5,6 Q50,12 50,21 Q50,28 52,38 L175,672 Q177,684 187.5,692 Q198,700 210,700 L620,700 Q641,700 641,679 Q641,667 632,657.5 Q623,648 609,648 L231,648 L180,388 L499,388 Q519,388 519,368 Q519,355 510,345.5 Q501,336 489,336 L170,336 M528,858 L404,761 Q396,754 384,754 Q374,754 366.5,761.5 Q359,769 359,779 Q359,795 372,805 L496,901 Q505,907 516,907 Q527,907 534,900.5 Q541,894 541,884 Q541,868 528,858"/> 
            <glyph glyph-name="Ê" unicode="&#xCA;" horiz-adv-x="641" d=" M115,52 L494,52 Q516,52 516,30 Q516,19 505.5,9.5 Q495,0 483,0 L73,0 Q63,0 56.5,6 Q50,12 50,21 Q50,28 52,38 L175,672 Q177,684 187.5,692 Q198,700 210,700 L620,700 Q641,700 641,679 Q641,667 632,657.5 Q623,648 609,648 L231,648 L180,388 L499,388 Q519,388 519,368 Q519,355 510,345.5 Q501,336 489,336 L170,336 M507,764 L436,841 L338,764 Q329,757 318,757 Q307,757 300,764.5 Q293,772 293,782 Q293,796 305,806 L420,895 Q434,905 446,905 Q459,905 469,892 L549,802 Q555,793 555,788 Q555,776 545.5,767 Q536,758 523,758 Q512,758 507,764"/> 
            <glyph glyph-name="Ë" unicode="&#xCB;" horiz-adv-x="641" d=" M115,52 L494,52 Q516,52 516,30 Q516,19 505.5,9.5 Q495,0 483,0 L73,0 Q63,0 56.5,6 Q50,12 50,21 Q50,28 52,38 L175,672 Q177,684 187.5,692 Q198,700 210,700 L620,700 Q641,700 641,679 Q641,667 632,657.5 Q623,648 609,648 L231,648 L180,388 L499,388 Q519,388 519,368 Q519,355 510,345.5 Q501,336 489,336 L170,336 M310,826 Q310,846 327,862 Q344,878 365,878 Q381,878 391,868 Q401,858 401,844 Q401,821 384.5,805.5 Q368,790 348,790 Q332,790 321,800 Q310,810 310,826 M468,826 Q468,846 484.5,862 Q501,878 522,878 Q538,878 548.5,868 Q559,858 559,844 Q559,821 542.5,805.5 Q526,790 505,790 Q489,790 478.5,800 Q468,810 468,826"/> 
            <glyph glyph-name="Ì" unicode="&#xCC;" horiz-adv-x="269" d=" M245,661 L121,24 Q119,12 108.5,3.5 Q98,-5 86,-5 Q60,-5 60,18 Q60,24 63,39 L187,676 Q189,688 199.5,696.5 Q210,705 222,705 Q248,705 248,682 Q248,676 245,661 M220,763 L133,860 Q127,868 127,874 Q127,887 137,897 Q147,907 160,907 Q170,907 176,901 L264,803 Q269,795 269,788 Q269,776 258.5,766.5 Q248,757 236,757 Q224,757 220,763"/> 
            <glyph glyph-name="Í" unicode="&#xCD;" horiz-adv-x="362" d=" M245,661 L121,24 Q119,12 108.5,3.5 Q98,-5 86,-5 Q60,-5 60,18 Q60,24 63,39 L187,676 Q189,688 199.5,696.5 Q210,705 222,705 Q248,705 248,682 Q248,676 245,661 M349,858 L225,761 Q217,754 205,754 Q195,754 187.5,761.5 Q180,769 180,779 Q180,795 193,805 L317,901 Q326,907 337,907 Q348,907 355,900.5 Q362,894 362,884 Q362,868 349,858"/> 
            <glyph glyph-name="Î" unicode="&#xCE;" horiz-adv-x="367" d=" M245,661 L121,24 Q119,12 108.5,3.5 Q98,-5 86,-5 Q60,-5 60,18 Q60,24 63,39 L187,676 Q189,688 199.5,696.5 Q210,705 222,705 Q248,705 248,682 Q248,676 245,661 M319,764 L248,841 L150,764 Q141,757 130,757 Q119,757 112,764.5 Q105,772 105,782 Q105,796 117,806 L232,895 Q246,905 258,905 Q271,905 281,892 L361,802 Q367,793 367,788 Q367,776 357.5,767 Q348,758 335,758 Q324,758 319,764"/> 
            <glyph glyph-name="Ï" unicode="&#xCF;" horiz-adv-x="372" d=" M245,661 L121,24 Q119,12 108.5,3.5 Q98,-5 86,-5 Q60,-5 60,18 Q60,24 63,39 L187,676 Q189,688 199.5,696.5 Q210,705 222,705 Q248,705 248,682 Q248,676 245,661 M123,826 Q123,846 140,862 Q157,878 178,878 Q194,878 204,868 Q214,858 214,844 Q214,821 197.5,805.5 Q181,790 161,790 Q145,790 134,800 Q123,810 123,826 M281,826 Q281,846 297.5,862 Q314,878 335,878 Q351,878 361.5,868 Q372,858 372,844 Q372,821 355.5,805.5 Q339,790 318,790 Q302,790 291.5,800 Q281,810 281,826"/> 
            <glyph glyph-name="Ð" unicode="&#xD0;" horiz-adv-x="675" d=" M213,700 L394,700 Q523,700 599,622 Q675,544 675,414 Q675,308 624,213.5 Q573,119 477.5,59.5 Q382,0 265,0 L76,0 Q55,0 55,21 Q55,24 57,34 L115,336 L82,336 Q60,336 60,356 Q60,368 69.5,377 Q79,386 92,386 L125,386 L181,672 Q183,684 192.5,692 Q202,700 213,700 M299,336 L176,336 L121,52 L266,52 Q414,52 514.5,160 Q615,268 615,415 Q615,521 553,584.5 Q491,648 383,648 L236,648 L185,386 L309,386 Q328,386 328,365 Q328,353 319,344.5 Q310,336 299,336"/> 
            <glyph glyph-name="Ñ" unicode="&#xD1;" horiz-adv-x="773" d=" M552,18 L243,599 L228,636 L109,25 Q107,12 97.5,3.5 Q88,-5 75,-5 Q64,-5 56.5,2 Q49,9 49,20 Q49,26 51,36 L175,670 Q177,682 188,691 Q199,700 212,700 L243,700 Q260,700 269,683 L577,101 L592,64 L711,676 Q713,688 723,696.5 Q733,705 746,705 Q757,705 765,698 Q773,691 773,681 Q773,678 772,672 L646,31 Q644,19 632.5,9.5 Q621,0 608,0 L579,0 Q562,0 552,18 M458,890 Q482,890 501,877 Q520,864 534,851 Q548,838 560,838 Q583,838 599.5,864 Q616,890 632,890 Q641,890 647,884 Q653,878 653,868 Q653,842 624,813.5 Q595,785 550,785 Q519,785 489.5,811.5 Q460,838 447,838 Q425,838 408.5,812.5 Q392,787 377,787 Q354,787 354,808 Q354,833 383.5,861.5 Q413,890 458,890"/> 
            <glyph glyph-name="Ò" unicode="&#xD2;" horiz-adv-x="785" d=" M71,282 Q71,389 125,485.5 Q179,582 278,643.5 Q377,705 496,705 Q622,705 703.5,622.5 Q785,540 785,417 Q785,311 731,214.5 Q677,118 578,56.5 Q479,-5 360,-5 Q233,-5 152,77.5 Q71,160 71,282 M488,654 Q347,654 239.5,542.5 Q132,431 132,286 Q132,181 196.5,113.5 Q261,46 369,46 Q509,46 616.5,157.5 Q724,269 724,413 Q724,518 659,586 Q594,654 488,654 M500,763 L413,860 Q407,868 407,874 Q407,887 417,897 Q427,907 440,907 Q450,907 456,901 L544,803 Q549,795 549,788 Q549,776 538.5,766.5 Q528,757 516,757 Q504,757 500,763"/> 
            <glyph glyph-name="Ó" unicode="&#xD3;" horiz-adv-x="785" d=" M71,282 Q71,389 125,485.5 Q179,582 278,643.5 Q377,705 496,705 Q622,705 703.5,622.5 Q785,540 785,417 Q785,311 731,214.5 Q677,118 578,56.5 Q479,-5 360,-5 Q233,-5 152,77.5 Q71,160 71,282 M488,654 Q347,654 239.5,542.5 Q132,431 132,286 Q132,181 196.5,113.5 Q261,46 369,46 Q509,46 616.5,157.5 Q724,269 724,413 Q724,518 659,586 Q594,654 488,654 M621,858 L497,761 Q489,754 477,754 Q467,754 459.5,761.5 Q452,769 452,779 Q452,795 465,805 L589,901 Q598,907 609,907 Q620,907 627,900.5 Q634,894 634,884 Q634,868 621,858"/> 
            <glyph glyph-name="Ô" unicode="&#xD4;" horiz-adv-x="785" d=" M71,282 Q71,389 125,485.5 Q179,582 278,643.5 Q377,705 496,705 Q622,705 703.5,622.5 Q785,540 785,417 Q785,311 731,214.5 Q677,118 578,56.5 Q479,-5 360,-5 Q233,-5 152,77.5 Q71,160 71,282 M488,654 Q347,654 239.5,542.5 Q132,431 132,286 Q132,181 196.5,113.5 Q261,46 369,46 Q509,46 616.5,157.5 Q724,269 724,413 Q724,518 659,586 Q594,654 488,654 M593,764 L522,841 L424,764 Q415,757 404,757 Q393,757 386,764.5 Q379,772 379,782 Q379,796 391,806 L506,895 Q520,905 532,905 Q545,905 555,892 L635,802 Q641,793 641,788 Q641,776 631.5,767 Q622,758 609,758 Q598,758 593,764"/> 
            <glyph glyph-name="Õ" unicode="&#xD5;" horiz-adv-x="785" d=" M71,282 Q71,389 125,485.5 Q179,582 278,643.5 Q377,705 496,705 Q622,705 703.5,622.5 Q785,540 785,417 Q785,311 731,214.5 Q677,118 578,56.5 Q479,-5 360,-5 Q233,-5 152,77.5 Q71,160 71,282 M488,654 Q347,654 239.5,542.5 Q132,431 132,286 Q132,181 196.5,113.5 Q261,46 369,46 Q509,46 616.5,157.5 Q724,269 724,413 Q724,518 659,586 Q594,654 488,654 M475,890 Q499,890 518,877 Q537,864 551,851 Q565,838 577,838 Q600,838 616.5,864 Q633,890 649,890 Q658,890 664,884 Q670,878 670,868 Q670,842 641,813.5 Q612,785 567,785 Q536,785 506.5,811.5 Q477,838 464,838 Q442,838 425.5,812.5 Q409,787 394,787 Q371,787 371,808 Q371,833 400.5,861.5 Q430,890 475,890"/> 
            <glyph glyph-name="Ö" unicode="&#xD6;" horiz-adv-x="785" d=" M71,282 Q71,389 125,485.5 Q179,582 278,643.5 Q377,705 496,705 Q622,705 703.5,622.5 Q785,540 785,417 Q785,311 731,214.5 Q677,118 578,56.5 Q479,-5 360,-5 Q233,-5 152,77.5 Q71,160 71,282 M488,654 Q347,654 239.5,542.5 Q132,431 132,286 Q132,181 196.5,113.5 Q261,46 369,46 Q509,46 616.5,157.5 Q724,269 724,413 Q724,518 659,586 Q594,654 488,654 M397,826 Q397,846 414,862 Q431,878 452,878 Q468,878 478,868 Q488,858 488,844 Q488,821 471.5,805.5 Q455,790 435,790 Q419,790 408,800 Q397,810 397,826 M555,826 Q555,846 571.5,862 Q588,878 609,878 Q625,878 635.5,868 Q646,858 646,844 Q646,821 629.5,805.5 Q613,790 592,790 Q576,790 565.5,800 Q555,810 555,826"/> 
            <glyph glyph-name="×" unicode="&#xD7;" horiz-adv-x="501" d=" M162,436 L283,286 L462,436 Q471,443 480,443 Q501,443 501,423 Q501,409 491,400 L312,250 L430,105 Q436,95 436,88 Q436,77 427.5,68 Q419,59 406,59 Q396,59 388,68 L269,216 L91,67 Q82,59 70,59 Q62,59 56,65 Q50,71 50,80 Q50,92 62,103 L240,251 L119,400 Q115,404 115,415 Q115,427 125,435 Q135,443 145,443 Q156,443 162,436"/> 
            <glyph glyph-name="Ø" unicode="&#xD8;" horiz-adv-x="789" d=" M736,661 L704,625 Q789,543 789,417 Q789,311 735,214.5 Q681,118 582,56.5 Q483,-5 364,-5 Q263,-5 190,48 L155,8 Q143,-5 130,-5 Q111,-5 111,12 Q111,24 123,38 L157,76 Q75,158 75,282 Q75,389 129,485.5 Q183,582 282,643.5 Q381,705 500,705 Q598,705 670,653 L706,693 Q716,705 731,705 Q738,705 743.5,699.5 Q749,694 749,687 Q749,674 736,661 M728,413 Q728,514 666,582 L227,89 Q287,46 373,46 Q513,46 620.5,157.5 Q728,269 728,413 M492,654 Q351,654 243.5,542.5 Q136,431 136,286 Q136,184 195,119 L633,611 Q572,654 492,654"/> 
            <glyph glyph-name="Ù" unicode="&#xD9;" horiz-adv-x="761" d=" M171,675 Q173,687 184,696 Q195,705 208,705 Q218,705 224.5,698 Q231,691 231,680 Q231,675 229,665 L158,299 Q153,272 153,237 Q153,146 207.5,96 Q262,46 347,46 Q451,46 528.5,113.5 Q606,181 630,306 L701,676 Q703,687 713.5,696 Q724,705 736,705 Q747,705 754,698 Q761,691 761,681 Q761,676 759,666 L688,301 Q660,156 567,75.5 Q474,-5 344,-5 Q235,-5 164.5,60.5 Q94,126 94,236 Q94,272 101,311 M480,763 L393,860 Q387,868 387,874 Q387,887 397,897 Q407,907 420,907 Q430,907 436,901 L524,803 Q529,795 529,788 Q529,776 518.5,766.5 Q508,757 496,757 Q484,757 480,763"/> 
            <glyph glyph-name="Ú" unicode="&#xDA;" horiz-adv-x="761" d=" M171,675 Q173,687 184,696 Q195,705 208,705 Q218,705 224.5,698 Q231,691 231,680 Q231,675 229,665 L158,299 Q153,272 153,237 Q153,146 207.5,96 Q262,46 347,46 Q451,46 528.5,113.5 Q606,181 630,306 L701,676 Q703,687 713.5,696 Q724,705 736,705 Q747,705 754,698 Q761,691 761,681 Q761,676 759,666 L688,301 Q660,156 567,75.5 Q474,-5 344,-5 Q235,-5 164.5,60.5 Q94,126 94,236 Q94,272 101,311 M584,858 L460,761 Q452,754 440,754 Q430,754 422.5,761.5 Q415,769 415,779 Q415,795 428,805 L552,901 Q561,907 572,907 Q583,907 590,900.5 Q597,894 597,884 Q597,868 584,858"/> 
            <glyph glyph-name="Û" unicode="&#xDB;" horiz-adv-x="761" d=" M171,675 Q173,687 184,696 Q195,705 208,705 Q218,705 224.5,698 Q231,691 231,680 Q231,675 229,665 L158,299 Q153,272 153,237 Q153,146 207.5,96 Q262,46 347,46 Q451,46 528.5,113.5 Q606,181 630,306 L701,676 Q703,687 713.5,696 Q724,705 736,705 Q747,705 754,698 Q761,691 761,681 Q761,676 759,666 L688,301 Q660,156 567,75.5 Q474,-5 344,-5 Q235,-5 164.5,60.5 Q94,126 94,236 Q94,272 101,311 M567,764 L496,841 L398,764 Q389,757 378,757 Q367,757 360,764.5 Q353,772 353,782 Q353,796 365,806 L480,895 Q494,905 506,905 Q519,905 529,892 L609,802 Q615,793 615,788 Q615,776 605.5,767 Q596,758 583,758 Q572,758 567,764"/> 
            <glyph glyph-name="Ü" unicode="&#xDC;" horiz-adv-x="761" d=" M171,675 Q173,687 184,696 Q195,705 208,705 Q218,705 224.5,698 Q231,691 231,680 Q231,675 229,665 L158,299 Q153,272 153,237 Q153,146 207.5,96 Q262,46 347,46 Q451,46 528.5,113.5 Q606,181 630,306 L701,676 Q703,687 713.5,696 Q724,705 736,705 Q747,705 754,698 Q761,691 761,681 Q761,676 759,666 L688,301 Q660,156 567,75.5 Q474,-5 344,-5 Q235,-5 164.5,60.5 Q94,126 94,236 Q94,272 101,311 M372,826 Q372,846 389,862 Q406,878 427,878 Q443,878 453,868 Q463,858 463,844 Q463,821 446.5,805.5 Q430,790 410,790 Q394,790 383,800 Q372,810 372,826 M530,826 Q530,846 546.5,862 Q563,878 584,878 Q600,878 610.5,868 Q621,858 621,844 Q621,821 604.5,805.5 Q588,790 567,790 Q551,790 540.5,800 Q530,810 530,826"/> 
            <glyph glyph-name="Ý" unicode="&#xDD;" horiz-adv-x="713" d=" M688,705 Q698,705 705.5,698 Q713,691 713,679 Q713,664 702,653 L371,293 L319,26 Q317,13 306,4 Q295,-5 282,-5 Q271,-5 264,2.5 Q257,10 257,21 Q257,27 259,39 L309,296 L118,657 Q115,663 115,671 Q115,686 123.5,695.5 Q132,705 147,705 Q164,705 171,690 L350,353 L654,689 Q668,705 688,705 M552,858 L428,761 Q420,754 408,754 Q398,754 390.5,761.5 Q383,769 383,779 Q383,795 396,805 L520,901 Q529,907 540,907 Q551,907 558,900.5 Q565,894 565,884 Q565,868 552,858"/> 
            <glyph glyph-name="Þ" unicode="&#xDE;" horiz-adv-x="599" d=" M52,34 L177,676 Q179,688 189.5,696.5 Q200,705 212,705 Q238,705 238,682 Q238,676 235,661 L224,608 L414,608 Q494,608 546.5,555.5 Q599,503 599,421 Q599,314 521,238 Q443,162 324,162 L138,162 L111,26 Q109,14 98.5,4.5 Q88,-5 75,-5 Q64,-5 57,2 Q50,9 50,20 Q50,26 52,34 M215,557 L148,213 L324,213 Q419,213 479.5,272.5 Q540,332 540,416 Q540,479 502,518 Q464,557 400,557"/> 
            <glyph glyph-name="ß" unicode="&#xDF;" horiz-adv-x="597" d=" M36,-187 L160,450 L125,450 Q117,450 111,456 Q105,462 105,470 Q105,481 114,490.5 Q123,500 135,500 L170,500 L177,532 Q199,631 263.5,690.5 Q328,750 419,750 Q502,750 549.5,701.5 Q597,653 597,587 Q597,506 539,500 Q491,495 453.5,473.5 Q416,452 416,409 Q416,385 433,364.5 Q450,344 474,327 Q498,310 521.5,291 Q545,272 562,241 Q579,210 579,170 Q579,102 520,48.5 Q461,-5 372,-5 Q274,-5 214,64 Q207,73 207,82 Q207,93 214.5,102 Q222,111 235,111 Q245,111 257,99 Q307,44 378,44 Q440,44 479,82 Q518,120 518,164 Q518,195 501.5,219 Q485,243 461.5,260 Q438,277 414.5,295 Q391,313 374.5,340.5 Q358,368 358,404 Q358,469 412.5,507.5 Q467,546 539,550 Q544,575 544,584 Q544,636 507.5,668 Q471,700 416,700 Q351,700 300.5,652.5 Q250,605 235,529 L93,-194 Q91,-207 80.5,-216 Q70,-225 58,-225 Q34,-225 34,-200 Q34,-195 36,-187"/> 
            <glyph glyph-name="à" unicode="&#xE0;" horiz-adv-x="610" d=" M608,464 L522,26 Q520,13 510,4 Q500,-5 487,-5 Q463,-5 463,19 Q463,23 466,38 L478,93 Q448,55 393.5,25 Q339,-5 265,-5 Q174,-5 118.5,52 Q63,109 63,198 Q63,323 152,414 Q241,505 363,505 Q434,505 479,475 Q524,445 539,408 L552,475 Q554,487 564,496 Q574,505 586,505 Q610,505 610,480 Q610,476 608,464 M276,42 Q370,42 441.5,117 Q513,192 513,299 Q513,370 470,413.5 Q427,457 357,457 Q265,457 193,380 Q121,303 121,206 Q121,130 161.5,86 Q202,42 276,42 M373,563 L286,660 Q280,668 280,674 Q280,687 290,697 Q300,707 313,707 Q323,707 329,701 L417,603 Q422,596 422,588 Q422,576 411.5,566.5 Q401,557 389,557 Q378,557 373,563"/> 
            <glyph glyph-name="á" unicode="&#xE1;" horiz-adv-x="610" d=" M608,464 L522,26 Q520,13 510,4 Q500,-5 487,-5 Q463,-5 463,19 Q463,23 466,38 L478,93 Q448,55 393.5,25 Q339,-5 265,-5 Q174,-5 118.5,52 Q63,109 63,198 Q63,323 152,414 Q241,505 363,505 Q434,505 479,475 Q524,445 539,408 L552,475 Q554,487 564,496 Q574,505 586,505 Q610,505 610,480 Q610,476 608,464 M276,42 Q370,42 441.5,117 Q513,192 513,299 Q513,370 470,413.5 Q427,457 357,457 Q265,457 193,380 Q121,303 121,206 Q121,130 161.5,86 Q202,42 276,42 M480,658 L356,561 Q348,554 336,554 Q326,554 318.5,561.5 Q311,569 311,579 Q311,595 324,605 L448,701 Q457,707 468,707 Q479,707 486,700.5 Q493,694 493,684 Q493,668 480,658"/> 
            <glyph glyph-name="â" unicode="&#xE2;" horiz-adv-x="610" d=" M608,464 L522,26 Q520,13 510,4 Q500,-5 487,-5 Q463,-5 463,19 Q463,23 466,38 L478,93 Q448,55 393.5,25 Q339,-5 265,-5 Q174,-5 118.5,52 Q63,109 63,198 Q63,323 152,414 Q241,505 363,505 Q434,505 479,475 Q524,445 539,408 L552,475 Q554,487 564,496 Q574,505 586,505 Q610,505 610,480 Q610,476 608,464 M276,42 Q370,42 441.5,117 Q513,192 513,299 Q513,370 470,413.5 Q427,457 357,457 Q265,457 193,380 Q121,303 121,206 Q121,130 161.5,86 Q202,42 276,42 M467,564 L396,641 L298,564 Q289,557 278,557 Q267,557 260,564.5 Q253,572 253,582 Q253,596 265,606 L380,695 Q394,705 406,705 Q419,705 429,692 L509,602 Q515,593 515,588 Q515,576 505.5,567 Q496,558 483,558 Q472,558 467,564"/> 
            <glyph glyph-name="ã" unicode="&#xE3;" horiz-adv-x="610" d=" M608,464 L522,26 Q520,13 510,4 Q500,-5 487,-5 Q463,-5 463,19 Q463,23 466,38 L478,93 Q448,55 393.5,25 Q339,-5 265,-5 Q174,-5 118.5,52 Q63,109 63,198 Q63,323 152,414 Q241,505 363,505 Q434,505 479,475 Q524,445 539,408 L552,475 Q554,487 564,496 Q574,505 586,505 Q610,505 610,480 Q610,476 608,464 M276,42 Q370,42 441.5,117 Q513,192 513,299 Q513,370 470,413.5 Q427,457 357,457 Q265,457 193,380 Q121,303 121,206 Q121,130 161.5,86 Q202,42 276,42 M352,690 Q376,690 395,677 Q414,664 428,651 Q442,638 454,638 Q477,638 493.5,664 Q510,690 526,690 Q535,690 541,684 Q547,678 547,668 Q547,642 518,613.5 Q489,585 444,585 Q413,585 383.5,611.5 Q354,638 341,638 Q319,638 302.5,612.5 Q286,587 271,587 Q248,587 248,608 Q248,633 277.5,661.5 Q307,690 352,690"/> 
            <glyph glyph-name="ä" unicode="&#xE4;" horiz-adv-x="610" d=" M608,464 L522,26 Q520,13 510,4 Q500,-5 487,-5 Q463,-5 463,19 Q463,23 466,38 L478,93 Q448,55 393.5,25 Q339,-5 265,-5 Q174,-5 118.5,52 Q63,109 63,198 Q63,323 152,414 Q241,505 363,505 Q434,505 479,475 Q524,445 539,408 L552,475 Q554,487 564,496 Q574,505 586,505 Q610,505 610,480 Q610,476 608,464 M276,42 Q370,42 441.5,117 Q513,192 513,299 Q513,370 470,413.5 Q427,457 357,457 Q265,457 193,380 Q121,303 121,206 Q121,130 161.5,86 Q202,42 276,42 M273,626 Q273,646 290,662 Q307,678 328,678 Q344,678 354,668 Q364,658 364,644 Q364,621 347.5,605.5 Q331,590 311,590 Q295,590 284,600 Q273,610 273,626 M431,626 Q431,646 447.5,662 Q464,678 485,678 Q501,678 511.5,668 Q522,658 522,644 Q522,621 505.5,605.5 Q489,590 468,590 Q452,590 441.5,600 Q431,610 431,626"/> 
            <glyph glyph-name="å" unicode="&#xE5;" horiz-adv-x="610" d=" M608,464 L522,26 Q520,13 510,4 Q500,-5 487,-5 Q463,-5 463,19 Q463,23 466,38 L478,93 Q448,55 393.5,25 Q339,-5 265,-5 Q174,-5 118.5,52 Q63,109 63,198 Q63,323 152,414 Q241,505 363,505 Q434,505 479,475 Q524,445 539,408 L552,475 Q554,487 564,496 Q574,505 586,505 Q610,505 610,480 Q610,476 608,464 M276,42 Q370,42 441.5,117 Q513,192 513,299 Q513,370 470,413.5 Q427,457 357,457 Q265,457 193,380 Q121,303 121,206 Q121,130 161.5,86 Q202,42 276,42 M292,611 Q292,655 326.5,689 Q361,723 408,723 Q445,723 470.5,699.5 Q496,676 496,642 Q496,597 461.5,563.5 Q427,530 381,530 Q343,530 317.5,553.5 Q292,577 292,611 M404,681 Q380,681 359,662 Q338,643 338,617 Q338,597 351.5,584 Q365,571 385,571 Q410,571 430,590.5 Q450,610 450,636 Q450,655 436.5,668 Q423,681 404,681"/> 
            <glyph glyph-name="æ" unicode="&#xE6;" horiz-adv-x="958" d=" M897,225 L542,225 Q540,214 540,193 Q540,127 577.5,85 Q615,43 683,43 Q753,43 819,84 Q828,91 842,91 Q851,91 857.5,84.5 Q864,78 864,71 Q864,54 846,42 Q779,-5 673,-5 Q616,-5 574.5,20.5 Q533,46 515,84 L503,26 Q501,13 491,4 Q481,-5 468,-5 Q444,-5 444,20 Q444,23 446,31 L457,86 Q370,-5 255,-5 Q168,-5 115.5,50.5 Q63,106 63,194 Q63,313 146.5,409 Q230,505 357,505 Q413,505 456.5,478.5 Q500,452 520,413 L533,475 Q535,487 545,496 Q555,505 568,505 Q579,505 585.5,498 Q592,491 592,481 Q592,478 590,470 L578,412 Q612,452 663,478.5 Q714,505 773,505 Q860,505 909,451.5 Q958,398 958,320 Q958,225 897,225 M265,42 Q356,42 425,122 Q494,202 494,295 Q494,369 455.5,413 Q417,457 348,457 Q255,457 187.5,378 Q120,299 120,202 Q120,132 158.5,87 Q197,42 265,42 M764,457 Q691,457 630.5,403.5 Q570,350 551,273 L903,273 Q905,293 905,303 Q905,372 869,414.5 Q833,457 764,457"/> 
            <glyph glyph-name="ç" unicode="&#xE7;" horiz-adv-x="511" d=" M205,-71 Q205,-59 218,-40 L242,-2 Q161,8 112.5,62.5 Q64,117 64,198 Q64,320 152.5,412.5 Q241,505 374,505 Q444,505 496,472 Q511,461 511,448 Q511,435 502,427 Q493,419 481,419 Q471,419 462,426 Q418,457 369,457 Q274,457 198.5,382.5 Q123,308 123,210 Q123,137 167.5,90 Q212,43 286,43 Q337,43 403,82 Q413,88 424,88 Q433,88 439.5,81.5 Q446,75 446,66 Q446,48 424,36 Q366,0 295,-4 L271,-44 Q279,-43 285,-43 Q316,-43 337.5,-65 Q359,-87 359,-120 Q359,-166 323,-195.5 Q287,-225 236,-225 Q197,-225 176.5,-213.5 Q156,-202 156,-189 Q156,-177 164,-167.5 Q172,-158 183,-158 Q190,-158 206.5,-168 Q223,-178 245,-178 Q267,-178 283.5,-162 Q300,-146 300,-127 Q300,-110 290,-99.5 Q280,-89 262,-89 Q258,-89 246.5,-91 Q235,-93 227,-93 Q217,-93 211,-86.5 Q205,-80 205,-71"/> 
            <glyph glyph-name="è" unicode="&#xE8;" horiz-adv-x="569" d=" M511,225 L123,225 Q122,217 122,204 Q122,132 166,88 Q210,44 281,44 Q351,44 433,86 Q445,92 453,92 Q462,92 468.5,85.5 Q475,79 475,69 Q475,51 453,39 Q378,-5 283,-5 Q181,-5 122,51.5 Q63,108 63,199 Q63,324 153.5,414.5 Q244,505 367,505 Q458,505 513.5,446 Q569,387 569,307 Q569,225 511,225 M366,457 Q287,457 220,403.5 Q153,350 132,273 L515,273 Q516,282 516,299 Q516,367 474.5,412 Q433,457 366,457 M378,563 L291,660 Q285,668 285,674 Q285,687 295,697 Q305,707 318,707 Q328,707 334,701 L422,603 Q427,596 427,588 Q427,576 416.5,566.5 Q406,557 394,557 Q382,557 378,563"/> 
            <glyph glyph-name="é" unicode="&#xE9;" horiz-adv-x="569" d=" M511,225 L123,225 Q122,217 122,204 Q122,132 166,88 Q210,44 281,44 Q351,44 433,86 Q445,92 453,92 Q462,92 468.5,85.5 Q475,79 475,69 Q475,51 453,39 Q378,-5 283,-5 Q181,-5 122,51.5 Q63,108 63,199 Q63,324 153.5,414.5 Q244,505 367,505 Q458,505 513.5,446 Q569,387 569,307 Q569,225 511,225 M366,457 Q287,457 220,403.5 Q153,350 132,273 L515,273 Q516,282 516,299 Q516,367 474.5,412 Q433,457 366,457 M484,658 L360,561 Q352,554 340,554 Q330,554 322.5,561.5 Q315,569 315,579 Q315,595 328,605 L452,701 Q461,707 472,707 Q483,707 490,700.5 Q497,694 497,684 Q497,668 484,658"/> 
            <glyph glyph-name="ê" unicode="&#xEA;" horiz-adv-x="569" d=" M511,225 L123,225 Q122,217 122,204 Q122,132 166,88 Q210,44 281,44 Q351,44 433,86 Q445,92 453,92 Q462,92 468.5,85.5 Q475,79 475,69 Q475,51 453,39 Q378,-5 283,-5 Q181,-5 122,51.5 Q63,108 63,199 Q63,324 153.5,414.5 Q244,505 367,505 Q458,505 513.5,446 Q569,387 569,307 Q569,225 511,225 M366,457 Q287,457 220,403.5 Q153,350 132,273 L515,273 Q516,282 516,299 Q516,367 474.5,412 Q433,457 366,457 M461,564 L390,641 L292,564 Q283,557 272,557 Q261,557 254,564.5 Q247,572 247,582 Q247,596 259,606 L374,695 Q388,705 400,705 Q413,705 423,692 L503,602 Q509,593 509,588 Q509,576 499.5,567 Q490,558 477,558 Q466,558 461,564"/> 
            <glyph glyph-name="ë" unicode="&#xEB;" horiz-adv-x="569" d=" M511,225 L123,225 Q122,217 122,204 Q122,132 166,88 Q210,44 281,44 Q351,44 433,86 Q445,92 453,92 Q462,92 468.5,85.5 Q475,79 475,69 Q475,51 453,39 Q378,-5 283,-5 Q181,-5 122,51.5 Q63,108 63,199 Q63,324 153.5,414.5 Q244,505 367,505 Q458,505 513.5,446 Q569,387 569,307 Q569,225 511,225 M366,457 Q287,457 220,403.5 Q153,350 132,273 L515,273 Q516,282 516,299 Q516,367 474.5,412 Q433,457 366,457 M265,626 Q265,646 282,662 Q299,678 320,678 Q336,678 346,668 Q356,658 356,644 Q356,621 339.5,605.5 Q323,590 303,590 Q287,590 276,600 Q265,610 265,626 M423,626 Q423,646 439.5,662 Q456,678 477,678 Q493,678 503.5,668 Q514,658 514,644 Q514,621 497.5,605.5 Q481,590 460,590 Q444,590 433.5,600 Q423,610 423,626"/> 
            <glyph glyph-name="ì" unicode="&#xEC;" horiz-adv-x="232" d=" M204,470 L132,92 Q130,82 130,77 Q130,49 159,49 L165,49 Q185,49 185,29 Q185,17 176,8.5 Q167,0 155,0 L137,0 Q104,0 87,19 Q70,38 70,68 Q70,75 72,89 L147,475 Q149,487 159,496 Q169,505 181,505 Q205,505 205,480 Q205,475 204,470 M183,563 L96,660 Q90,668 90,674 Q90,687 100,697 Q110,707 123,707 Q133,707 139,701 L227,603 Q232,596 232,588 Q232,576 221.5,566.5 Q211,557 199,557 Q188,557 183,563"/> 
            <glyph glyph-name="í" unicode="&#xED;" horiz-adv-x="317" d=" M204,470 L132,92 Q130,82 130,77 Q130,49 159,49 L165,49 Q185,49 185,29 Q185,17 176,8.5 Q167,0 155,0 L137,0 Q104,0 87,19 Q70,38 70,68 Q70,75 72,89 L147,475 Q149,487 159,496 Q169,505 181,505 Q205,505 205,480 Q205,475 204,470 M304,658 L180,561 Q172,554 160,554 Q150,554 142.5,561.5 Q135,569 135,579 Q135,595 148,605 L272,701 Q281,707 292,707 Q303,707 310,700.5 Q317,694 317,684 Q317,668 304,658"/> 
            <glyph glyph-name="î" unicode="&#xEE;" horiz-adv-x="332" d=" M206,470 L134,92 Q132,82 132,77 Q132,49 161,49 L167,49 Q187,49 187,29 Q187,17 178,8.5 Q169,0 157,0 L139,0 Q106,0 89,19 Q72,38 72,68 Q72,75 74,89 L149,475 Q151,487 161,496 Q171,505 183,505 Q207,505 207,480 Q207,475 206,470 M284,564 L213,641 L115,564 Q106,557 95,557 Q84,557 77,564.5 Q70,572 70,582 Q70,596 82,606 L197,695 Q211,705 223,705 Q236,705 246,692 L326,602 Q332,593 332,588 Q332,576 322.5,567 Q313,558 300,558 Q288,558 284,564"/> 
            <glyph glyph-name="ï" unicode="&#xEF;" horiz-adv-x="335" d=" M204,470 L132,92 Q130,82 130,77 Q130,49 159,49 L165,49 Q185,49 185,29 Q185,17 176,8.5 Q167,0 155,0 L137,0 Q104,0 87,19 Q70,38 70,68 Q70,75 72,89 L147,475 Q149,487 159,496 Q169,505 181,505 Q205,505 205,480 Q205,475 204,470 M86,626 Q86,646 103,662 Q120,678 141,678 Q157,678 167,668 Q177,658 177,644 Q177,621 160.5,605.5 Q144,590 124,590 Q108,590 97,600 Q86,610 86,626 M244,626 Q244,646 260.5,662 Q277,678 298,678 Q314,678 324.5,668 Q335,658 335,644 Q335,621 318.5,605.5 Q302,590 281,590 Q265,590 254.5,600 Q244,610 244,626"/> 
            <glyph glyph-name="ð" unicode="&#xF0;" horiz-adv-x="585" d=" M572,692 L503,637 Q585,541 585,389 Q585,301 564,230.5 Q543,160 510.5,117 Q478,74 435.5,45.5 Q393,17 353.5,6 Q314,-5 276,-5 Q178,-5 121,50.5 Q64,106 64,200 Q64,312 150,394.5 Q236,477 345,477 Q380,477 412,469 Q444,461 479,435 Q514,409 532,367 Q526,522 459,600 L374,532 Q364,524 353,524 Q344,524 337,530.5 Q330,537 330,547 Q330,563 346,575 L423,637 Q396,660 366.5,672.5 Q337,685 319,687 Q301,689 289,695 Q277,701 277,713 Q277,724 286.5,733 Q296,742 309,742 Q342,742 385.5,723.5 Q429,705 466,673 L539,731 Q551,741 562,741 Q571,741 578,735 Q585,729 585,718 Q585,702 572,692 M501,238 Q504,258 504,275 Q504,340 461.5,383 Q419,426 351,426 Q257,426 188.5,357.5 Q120,289 120,202 Q120,130 163,88 Q206,46 280,46 Q358,46 421.5,102 Q485,158 501,238"/> 
            <glyph glyph-name="ñ" unicode="&#xF1;" horiz-adv-x="577" d=" M194,468 L183,410 Q272,505 395,505 Q480,505 528.5,457 Q577,409 577,329 Q577,306 571,273 L523,26 Q521,13 511,4 Q501,-5 488,-5 Q478,-5 471,2 Q464,9 464,20 Q464,21 464.5,24 Q465,27 466,31 Q467,35 467,37 L512,265 Q518,295 518,319 Q518,386 483,421 Q448,456 383,456 Q313,456 243,406 Q173,356 161,294 L108,26 Q106,13 96,4 Q86,-5 74,-5 Q63,-5 56,2 Q49,9 49,20 Q49,23 53,43 L137,474 Q139,487 149.5,496 Q160,505 172,505 Q182,505 189,498.5 Q196,492 196,481 Q196,478 194,468 M365,690 Q389,690 408,677 Q427,664 441,651 Q455,638 467,638 Q490,638 506.5,664 Q523,690 539,690 Q548,690 554,684 Q560,678 560,668 Q560,642 531,613.5 Q502,585 457,585 Q426,585 396.5,611.5 Q367,638 354,638 Q332,638 315.5,612.5 Q299,587 284,587 Q261,587 261,608 Q261,633 290.5,661.5 Q320,690 365,690"/> 
            <glyph glyph-name="ò" unicode="&#xF2;" horiz-adv-x="588" d=" M588,298 Q588,176 501.5,85.5 Q415,-5 279,-5 Q184,-5 123.5,54 Q63,113 63,201 Q63,327 152.5,416 Q242,505 374,505 Q468,505 528,446 Q588,387 588,298 M283,43 Q384,43 456.5,118 Q529,193 529,293 Q529,365 484,411 Q439,457 365,457 Q268,457 195,381.5 Q122,306 122,208 Q122,137 166.5,90 Q211,43 283,43 M393,563 L306,660 Q300,668 300,674 Q300,687 310,697 Q320,707 333,707 Q343,707 349,701 L437,603 Q442,596 442,588 Q442,576 431.5,566.5 Q421,557 409,557 Q398,557 393,563"/> 
            <glyph glyph-name="ó" unicode="&#xF3;" horiz-adv-x="588" d=" M588,298 Q588,176 501.5,85.5 Q415,-5 279,-5 Q184,-5 123.5,54 Q63,113 63,201 Q63,327 152.5,416 Q242,505 374,505 Q468,505 528,446 Q588,387 588,298 M283,43 Q384,43 456.5,118 Q529,193 529,293 Q529,365 484,411 Q439,457 365,457 Q268,457 195,381.5 Q122,306 122,208 Q122,137 166.5,90 Q211,43 283,43 M501,658 L377,561 Q369,554 357,554 Q347,554 339.5,561.5 Q332,569 332,579 Q332,595 345,605 L469,701 Q478,707 489,707 Q500,707 507,700.5 Q514,694 514,684 Q514,668 501,658"/> 
            <glyph glyph-name="ô" unicode="&#xF4;" horiz-adv-x="588" d=" M588,298 Q588,176 501.5,85.5 Q415,-5 279,-5 Q184,-5 123.5,54 Q63,113 63,201 Q63,327 152.5,416 Q242,505 374,505 Q468,505 528,446 Q588,387 588,298 M283,43 Q384,43 456.5,118 Q529,193 529,293 Q529,365 484,411 Q439,457 365,457 Q268,457 195,381.5 Q122,306 122,208 Q122,137 166.5,90 Q211,43 283,43 M474,564 L403,641 L305,564 Q296,557 285,557 Q274,557 267,564.5 Q260,572 260,582 Q260,596 272,606 L387,695 Q401,705 413,705 Q426,705 436,692 L516,602 Q522,593 522,588 Q522,576 512.5,567 Q503,558 490,558 Q478,558 474,564"/> 
            <glyph glyph-name="õ" unicode="&#xF5;" horiz-adv-x="588" d=" M588,298 Q588,176 501.5,85.5 Q415,-5 279,-5 Q184,-5 123.5,54 Q63,113 63,201 Q63,327 152.5,416 Q242,505 374,505 Q468,505 528,446 Q588,387 588,298 M283,43 Q384,43 456.5,118 Q529,193 529,293 Q529,365 484,411 Q439,457 365,457 Q268,457 195,381.5 Q122,306 122,208 Q122,137 166.5,90 Q211,43 283,43 M358,690 Q382,690 401,677 Q420,664 434,651 Q448,638 460,638 Q483,638 499.5,664 Q516,690 532,690 Q541,690 547,684 Q553,678 553,668 Q553,642 524,613.5 Q495,585 450,585 Q419,585 389.5,611.5 Q360,638 347,638 Q325,638 308.5,612.5 Q292,587 277,587 Q254,587 254,608 Q254,633 283.5,661.5 Q313,690 358,690"/> 
            <glyph glyph-name="ö" unicode="&#xF6;" horiz-adv-x="588" d=" M588,298 Q588,176 501.5,85.5 Q415,-5 279,-5 Q184,-5 123.5,54 Q63,113 63,201 Q63,327 152.5,416 Q242,505 374,505 Q468,505 528,446 Q588,387 588,298 M283,43 Q384,43 456.5,118 Q529,193 529,293 Q529,365 484,411 Q439,457 365,457 Q268,457 195,381.5 Q122,306 122,208 Q122,137 166.5,90 Q211,43 283,43 M277,626 Q277,646 294,662 Q311,678 332,678 Q348,678 358,668 Q368,658 368,644 Q368,621 351.5,605.5 Q335,590 315,590 Q299,590 288,600 Q277,610 277,626 M435,626 Q435,646 451.5,662 Q468,678 489,678 Q505,678 515.5,668 Q526,658 526,644 Q526,621 509.5,605.5 Q493,590 472,590 Q456,590 445.5,600 Q435,610 435,626"/> 
            <glyph glyph-name="÷" unicode="&#xF7;" horiz-adv-x="525" d=" M222,68 Q222,89 239.5,106.5 Q257,124 279,124 Q296,124 307,113.5 Q318,103 318,86 Q318,64 300.5,47 Q283,30 261,30 Q244,30 233,40.5 Q222,51 222,68 M290,416 Q290,437 307.5,454.5 Q325,472 347,472 Q364,472 375,461.5 Q386,451 386,434 Q386,412 368.5,395 Q351,378 329,378 Q312,378 301,388.5 Q290,399 290,416 M496,226 L104,226 Q82,226 82,246 Q82,258 91.5,267 Q101,276 114,276 L506,276 Q525,276 525,255 Q525,243 516,234.5 Q507,226 496,226"/> 
            <glyph glyph-name="ø" unicode="&#xF8;" horiz-adv-x="588" d=" M542,463 L528,447 Q588,390 588,297 Q588,175 502,85 Q416,-5 281,-5 Q210,-5 157,29 L139,8 Q129,-5 113,-5 Q106,-5 101,0 Q96,5 96,12 Q96,23 108,37 L123,55 Q63,112 63,202 Q63,328 151,416.5 Q239,505 368,505 Q442,505 495,472 L514,494 Q524,506 539,506 Q555,506 555,488 Q555,478 542,463 M283,43 Q383,43 456.5,117.5 Q530,192 530,293 Q530,359 490,404 L192,68 Q231,43 283,43 M122,208 Q122,140 160,96 L458,431 Q420,457 363,457 Q268,457 195,381.5 Q122,306 122,208"/> 
            <glyph glyph-name="ù" unicode="&#xF9;" horiz-adv-x="602" d=" M457,32 L468,90 Q379,-5 256,-5 Q171,-5 122.5,43 Q74,91 74,171 Q74,197 80,227 L128,474 Q130,487 140,496 Q150,505 163,505 Q173,505 180,498 Q187,491 187,480 Q187,476 184,461 L139,235 Q133,202 133,181 Q133,114 168,79 Q203,44 268,44 Q338,44 408,94 Q478,144 490,206 L543,474 Q545,487 555,496 Q565,505 577,505 Q588,505 595,498 Q602,491 602,480 Q602,477 598,457 L514,26 Q512,13 501.5,4 Q491,-5 479,-5 Q468,-5 461.5,1.5 Q455,8 455,19 Q455,22 457,32 M377,563 L290,660 Q284,668 284,674 Q284,687 294,697 Q304,707 317,707 Q327,707 333,701 L421,603 Q426,596 426,588 Q426,576 415.5,566.5 Q405,557 393,557 Q382,557 377,563"/> 
            <glyph glyph-name="ú" unicode="&#xFA;" horiz-adv-x="602" d=" M457,32 L468,90 Q379,-5 256,-5 Q171,-5 122.5,43 Q74,91 74,171 Q74,197 80,227 L128,474 Q130,487 140,496 Q150,505 163,505 Q173,505 180,498 Q187,491 187,480 Q187,476 184,461 L139,235 Q133,202 133,181 Q133,114 168,79 Q203,44 268,44 Q338,44 408,94 Q478,144 490,206 L543,474 Q545,487 555,496 Q565,505 577,505 Q588,505 595,498 Q602,491 602,480 Q602,477 598,457 L514,26 Q512,13 501.5,4 Q491,-5 479,-5 Q468,-5 461.5,1.5 Q455,8 455,19 Q455,22 457,32 M497,658 L373,561 Q365,554 353,554 Q343,554 335.5,561.5 Q328,569 328,579 Q328,595 341,605 L465,701 Q474,707 485,707 Q496,707 503,700.5 Q510,694 510,684 Q510,668 497,658"/> 
            <glyph glyph-name="û" unicode="&#xFB;" horiz-adv-x="602" d=" M457,32 L468,90 Q379,-5 256,-5 Q171,-5 122.5,43 Q74,91 74,171 Q74,197 80,227 L128,474 Q130,487 140,496 Q150,505 163,505 Q173,505 180,498 Q187,491 187,480 Q187,476 184,461 L139,235 Q133,202 133,181 Q133,114 168,79 Q203,44 268,44 Q338,44 408,94 Q478,144 490,206 L543,474 Q545,487 555,496 Q565,505 577,505 Q588,505 595,498 Q602,491 602,480 Q602,477 598,457 L514,26 Q512,13 501.5,4 Q491,-5 479,-5 Q468,-5 461.5,1.5 Q455,8 455,19 Q455,22 457,32 M462,564 L391,641 L293,564 Q284,557 273,557 Q262,557 255,564.5 Q248,572 248,582 Q248,596 260,606 L375,695 Q389,705 401,705 Q414,705 424,692 L504,602 Q510,593 510,588 Q510,576 500.5,567 Q491,558 478,558 Q466,558 462,564"/> 
            <glyph glyph-name="ü" unicode="&#xFC;" horiz-adv-x="602" d=" M457,32 L468,90 Q379,-5 256,-5 Q171,-5 122.5,43 Q74,91 74,171 Q74,197 80,227 L128,474 Q130,487 140,496 Q150,505 163,505 Q173,505 180,498 Q187,491 187,480 Q187,476 184,461 L139,235 Q133,202 133,181 Q133,114 168,79 Q203,44 268,44 Q338,44 408,94 Q478,144 490,206 L543,474 Q545,487 555,496 Q565,505 577,505 Q588,505 595,498 Q602,491 602,480 Q602,477 598,457 L514,26 Q512,13 501.5,4 Q491,-5 479,-5 Q468,-5 461.5,1.5 Q455,8 455,19 Q455,22 457,32 M266,626 Q266,646 283,662 Q300,678 321,678 Q337,678 347,668 Q357,658 357,644 Q357,621 340.5,605.5 Q324,590 304,590 Q288,590 277,600 Q266,610 266,626 M424,626 Q424,646 440.5,662 Q457,678 478,678 Q494,678 504.5,668 Q515,658 515,644 Q515,621 498.5,605.5 Q482,590 461,590 Q445,590 434.5,600 Q424,610 424,626"/> 
            <glyph glyph-name="ý" unicode="&#xFD;" horiz-adv-x="543" d=" M538,463 L209,-106 Q192,-136 182,-151 Q172,-166 155.5,-185 Q139,-204 120,-212 Q101,-220 78,-220 L45,-220 Q25,-220 25,-201 Q25,-189 33.5,-180 Q42,-171 54,-171 L75,-171 Q97,-171 113.5,-155 Q130,-139 149,-106 L221,18 Q181,18 174,47 L80,457 Q78,467 78,472 Q78,486 88.5,495.5 Q99,505 114,505 Q132,505 137,483 L236,44 L489,485 Q501,505 519,505 Q543,505 543,480 Q543,471 538,463 M452,658 L328,561 Q320,554 308,554 Q298,554 290.5,561.5 Q283,569 283,579 Q283,595 296,605 L420,701 Q429,707 440,707 Q451,707 458,700.5 Q465,694 465,684 Q465,668 452,658"/> 
            <glyph glyph-name="þ" unicode="&#xFE;" horiz-adv-x="599" d=" M10,-189 L177,674 Q179,687 189,696 Q199,705 212,705 Q222,705 229,698.5 Q236,692 236,681 Q236,678 233,663 L184,407 Q215,445 269,475 Q323,505 396,505 Q487,505 543,447.5 Q599,390 599,301 Q599,176 509,85.5 Q419,-5 297,-5 Q226,-5 182,25.5 Q138,56 123,92 L67,-195 Q65,-207 55,-216 Q45,-225 32,-225 Q21,-225 14.5,-218 Q8,-211 8,-201 Q8,-199 10,-189 M385,458 Q291,458 220,383 Q149,308 149,201 Q149,129 192,86 Q235,43 305,43 Q396,43 468,119 Q540,195 540,292 Q540,364 497.5,411 Q455,458 385,458"/> 
            </font>
</defs>
</svg>
