<svg id="0372a67b-2477-4a51-b0c1-522c803546ca" data-name="Layer 1" xmlns="http://www.w3.org/2000/svg" viewBox="0 0 29 29"><defs><style>.\38 f2599a2-39d9-43be-926c-0c6e4845d82f,.c35ceb87-9f2e-4183-ba6a-a5399813b6ae{fill:#1d1d1b}.\36 8cd7b69-dbe0-4778-b0d4-5f092c6bf3e6,.\38 f2599a2-39d9-43be-926c-0c6e4845d82f{fill-rule:evenodd}.\36 8cd7b69-dbe0-4778-b0d4-5f092c6bf3e6{fill:none;stroke:#1d1d1b;stroke-miterlimit:10}</style></defs><title>plus-2 [Converted]</title><path class="c35ceb87-9f2e-4183-ba6a-a5399813b6ae" d="M306 388a1 1 0 0 1 1 1v14a1 1 0 0 1-2 0v-14a1 1 0 0 1 1-1z" transform="translate(-291.5 -381.5)"/><path class="8f2599a2-39d9-43be-926c-0c6e4845d82f" d="M299 395h14a1 1 0 0 1 0 2h-14a1 1 0 0 1 0-2z" transform="translate(-291.5 -381.5)"/><path class="68cd7b69-dbe0-4778-b0d4-5f092c6bf3e6" d="M306 382a14 14 0 1 1-14 14 14 14 0 0 1 14-14z" transform="translate(-291.5 -381.5)"/></svg>