<svg id="ROBOT_HELPER" data-name="ROBOT HELPER" xmlns="http://www.w3.org/2000/svg" width="84" height="84" viewBox="0 0 84 84"><defs><style>.cls-1{fill:#ffb103}.cls-2{filter:url(#filter)}.cls-3{fill:#11f5ff}.cls-4{fill:#fff;fill-rule:evenodd}</style><filter id="filter" filterUnits="userSpaceOnUse"><feFlood result="flood" flood-color="#fff"/><feComposite result="composite" operator="in" in2="SourceGraphic"/><feBlend result="blend" in2="SourceGraphic"/></filter></defs><rect id="BACK" class="cls-1" width="84" height="84" rx="20" ry="20"/><g id="SMILE" class="cls-2"><rect id="S" class="cls-3" x="14" y="50" width="6" height="16" rx="3" ry="3"/><rect id="S-2" data-name="S" class="cls-3" x="24" y="50" width="6" height="16" rx="3" ry="3"/><rect id="S-3" data-name="S" class="cls-3" x="34" y="50" width="6" height="16" rx="3" ry="3"/><rect id="S-4" data-name="S" class="cls-3" x="44" y="50" width="6" height="16" rx="3" ry="3"/><rect id="S-5" data-name="S" class="cls-3" x="54" y="50" width="6" height="16" rx="3" ry="3"/><rect id="S-6" data-name="S" class="cls-3" x="64" y="50" width="6" height="16" rx="3" ry="3"/></g><path id="PAG" class="cls-4" d="M23 22a9 9 0 1 1-9 9 9 9 0 0 1 9-9zm0 6a3 3 0 1 1-3 3 3 3 0 0 1 3-3z"/><path id="PAG-2" data-name="PAG" class="cls-4" d="M61 22a9 9 0 1 1-9 9 9 9 0 0 1 9-9zm0 6a3 3 0 1 1-3 3 3 3 0 0 1 3-3z"/></svg>