<svg id="ROBOT_HELPER" data-name="ROBOT HELPER" xmlns="http://www.w3.org/2000/svg" width="80" height="80" viewBox="0 0 80 80"><defs><style>.cls-1{fill:#f3083f}.cls-2{filter:url(#filter)}.cls-3{fill:#11f5ff}.cls-4{fill:#fff;fill-rule:evenodd}</style><filter id="filter" filterUnits="userSpaceOnUse"><feFlood result="flood" flood-color="#fff"/><feComposite result="composite" operator="in" in2="SourceGraphic"/><feBlend result="blend" in2="SourceGraphic"/></filter></defs><rect id="BACK" class="cls-1" width="80" height="80" rx="16" ry="16"/><g id="SMILE" class="cls-2"><rect id="S" class="cls-3" x="12" y="52" width="56" height="6" rx="3" ry="3"/></g><path id="PAG" class="cls-4" d="M21 22a9 9 0 1 1-9 9 9 9 0 0 1 9-9zm0 6a3 3 0 1 1-3 3 3 3 0 0 1 3-3z"/><path id="PAG-2" data-name="PAG" class="cls-4" d="M59 22a9 9 0 1 1-9 9 9 9 0 0 1 9-9zm0 6a3 3 0 1 1-3 3 3 3 0 0 1 3-3z"/></svg>