<svg id="ROBOT_HELPER" data-name="ROBOT HELPER" xmlns="http://www.w3.org/2000/svg" width="84" height="84" viewBox="0 0 84 84"><defs><style>.robot-happy-1{fill:#4fec00}.robot-happy-2,.robot-happy-3{fill:#fff}.robot-happy-3{fill-rule:evenodd}</style></defs><rect id="BACK" class="robot-happy-1" width="84" height="84" rx="20" ry="20"/><g id="SMILE"><rect id="S" class="robot-happy-2" x="14" y="54" width="6" height="10" rx="3" ry="3"/><rect id="S-2" data-name="S" class="robot-happy-2" x="24" y="54" width="6" height="14" rx="3" ry="3"/><rect id="S-3" data-name="S" class="robot-happy-2" x="34" y="54" width="6" height="16" rx="3" ry="3"/><rect id="S-4" data-name="S" class="robot-happy-2" x="44" y="54" width="6" height="16" rx="3" ry="3"/><rect id="S-5" data-name="S" class="robot-happy-2" x="54" y="54" width="6" height="14" rx="3" ry="3"/><rect id="S-6" data-name="S" class="robot-happy-2" x="64" y="54" width="6" height="10" rx="3" ry="3"/></g><path id="PAG" class="robot-happy-3" d="M23 22a9 9 0 1 1-9 9 9 9 0 0 1 9-9zm0 6a3 3 0 1 1-3 3 3 3 0 0 1 3-3z"/><path id="PAG-2" data-name="PAG" class="robot-happy-3" d="M61 22a9 9 0 1 1-9 9 9 9 0 0 1 9-9zm0 6a3 3 0 1 1-3 3 3 3 0 0 1 3-3z"/></svg>