<svg xmlns="http://www.w3.org/2000/svg" viewBox="0 0 28 28"><defs><style>.a,.d{fill:none}.b{clip-path:url(#a)}.c{fill:#8f00ff}.c,.e{fill-rule:evenodd}.d{stroke:#fff;stroke-linecap:round;stroke-miterlimit:22.93;stroke-width:2px}.e{fill:#fff}</style><clipPath id="a"><path class="a" d="M0 0h28v28H0z"/></clipPath></defs><title>share-icon</title><g class="b"><path class="c" d="M14 0A14 14 0 1 1 0 14 14 14 0 0 1 14 0"/><path class="d" d="M8 14l7 7m-7-7l7-7"/><path class="e" d="M15 4a3 3 0 1 1-3 3 3 3 0 0 1 3-3m0 14a3 3 0 1 1-3 3 3 3 0 0 1 3-3"/></g></svg>