<svg xmlns="http://www.w3.org/2000/svg" xmlns:xlink="http://www.w3.org/1999/xlink" viewBox="0 0 28 28"><defs><style>.a,.d{fill:none;}.b{clip-path:url(#a);}.c{fill:#8f00ff;}.c,.e{fill-rule:evenodd;}.d{stroke:#fff;stroke-linecap:round;stroke-miterlimit:22.93;stroke-width:2px;}.e{fill:#fff;}</style><clipPath id="a" transform="translate(0 0)"><rect class="a" width="28" height="28"/></clipPath></defs><title>share-icon</title><g class="b"><path class="c" d="M14,0A14,14,0,1,1,0,14,14,14,0,0,1,14,0" transform="translate(0 0)"/><line class="d" x1="8" y1="14" x2="15" y2="21"/><line class="d" x1="8" y1="14" x2="15" y2="7"/><path class="e" d="M15,4a3,3,0,1,1-3,3,3,3,0,0,1,3-3" transform="translate(0 0)"/><path class="e" d="M15,18a3,3,0,1,1-3,3,3,3,0,0,1,3-3" transform="translate(0 0)"/></g></svg>