<svg xmlns="http://www.w3.org/2000/svg" xmlns:xlink="http://www.w3.org/1999/xlink" viewBox="0 0 50 60">
    <defs>
        <style>
            .a-tick{fill:none;}
            .b-tick{clip-path:url(#a-tick);}
            .c-tick{fill:#ffb103;fill-rule:evenodd;}</style>
        <clipPath id="a-tick" transform="translate(0 0)">
            <rect class="a-tick" width="50" height="60"/>
        </clipPath>
    </defs>
    <g class="b-tick">
        <path class="c-tick"
              d="M23.92,4.11l0,0a14,14,0,0,0-19.79,0l0,0a14,14,0,0,0,0,19.79L14,33.81l9.92-9.92a14,14,0,0,0,0-19.79M18.25,18.24h0a6,6,0,0,1-8.48,0h0a6,6,0,0,1,0-8.48h0a6,6,0,0,1,8.48,0h0a6,6,0,0,1,0,8.48"
              transform="translate(0 0)"/>
    </g>
</svg>